<?xml version="1.0" encoding="UTF-8"?>
<!DOCTYPE svg PUBLIC "-//W3C//DTD SVG 1.1//EN" "http://www.w3.org/Graphics/SVG/1.1/DTD/svg11.dtd">
<svg xmlns="http://www.w3.org/2000/svg" xml:space="preserve" width="64px" height="64px" version="1.1" shape-rendering="geometricPrecision" text-rendering="geometricPrecision" image-rendering="optimizeQuality" fill-rule="evenodd" clip-rule="evenodd"
viewBox="0 0 6400000 6400000"
 xmlns:xlink="http://www.w3.org/1999/xlink">
 <g id="Warstwa">
  <path fill="{color}" fill-rule="nonzero" d="M546857 399926l5453099 0 0 3919064 -1463050 1681084 -4136862 0 0 -5600148 146813 0zm1776636 1125723l0 -385517 340044 0 0 385517 -340044 0zm-430281 3079171l62481 -281578c68269,17008 121774,25867 160987,25867 69567,0 121182,-22796 155316,-67442 34017,-44764 51497,-157443 51497,-337091l0 -2059868 340044 0 0 2066837c0,241302 -32127,409493 -96616,503982 -81733,122836 -217679,184609 -407721,184609 -92127,0 -180357,-11929 -265988,-35316zm948083 -1344229l336264 -53032c18661,131695 71457,232562 157679,302957 86458,70040 207404,105237 362012,105237 156498,0 272484,-30827 348548,-93072 75355,-61890 113387,-134883 113387,-218743 0,-75001 -34252,-134056 -101812,-176931 -47717,-29646 -163585,-66851 -347721,-112797 -248743,-61182 -420714,-113977 -517329,-158624 -96025,-45473 -168782,-107245 -218389,-186616 -49607,-78663 -74646,-166183 -74646,-262090 0,-87521 20551,-168191 61181,-242365 41221,-74411 96616,-136183 166774,-185199 52796,-37914 125080,-70041 215790,-96498 91419,-26457 188743,-39685 293035,-39685 157207,0 295043,22087 413509,66851 119175,43938 206814,104411 263508,180120 55985,76301 95198,177640 116576,304965l-332366 45355c-14764,-102167 -58584,-182247 -130750,-239413 -72166,-57402 -173979,-85749 -305909,-85749 -155199,0 -266815,25276 -332957,75592 -66379,50433 -100041,109607 -100041,177049 0,42875 13701,81970 41339,116576 27638,35198 70867,64844 130041,88112 34253,12638 133348,40984 299650,85040 239530,62481 407012,114096 502329,153663 95316,39686 169962,98387 224176,173861 54685,76300 81733,170671 81733,284177 0,110316 -32835,214136 -99214,311814 -66261,97679 -161577,173152 -285948,226775 -124963,53623 -265988,79961 -423076,79961 -260200,0 -459337,-52795 -595874,-158033 -136537,-105828 -223467,-262090 -261499,-469258zm1341985 2444322l0 -1603603 1522932 2363 0 -3408586 -5012424 0 0 5009826 3489492 0z"/>
 </g>
</svg>
