<?xml version="1.0" encoding="UTF-8"?>
<!DOCTYPE svg PUBLIC "-//W3C//DTD SVG 1.1//EN" "http://www.w3.org/Graphics/SVG/1.1/DTD/svg11.dtd">
<!-- Creator: CorelDRAW X8 -->
<svg xmlns="http://www.w3.org/2000/svg" xml:space="preserve" width="64px" height="64px" version="1.1" shape-rendering="geometricPrecision" text-rendering="geometricPrecision" image-rendering="optimizeQuality" fill-rule="evenodd" clip-rule="evenodd"
viewBox="0 0 6400000 6400000"
 xmlns:xlink="http://www.w3.org/1999/xlink">
 <g id="Warstwa_x0020_1">
  <metadata id="CorelCorpID_0Corel-Layer"/>
  <path fill="{color}" d="M0 0l6400000 0 0 4400015 -1238992 1999985 -5161008 0 0 -6400000zm5807434 4599978l-641819 0 0 1036076 641819 -1036076zm-1041745 1400096l0 -1800022 1234385 0 0 -3800126 -5600148 0 0 5600148 4365763 0z"/>
  <polygon fill="{color}" fill-rule="nonzero" points="2198295,1640571 2198295,1200015 2586882,1200015 2586882,1640571 "/>
  <path fill="{color}" fill-rule="nonzero" d="M1706478 5159827l71457 -321854c77954,19370 139136,29528 184018,29528 79489,0 138427,-25985 177404,-77009 38977,-51142 58938,-180002 58938,-385280l0 -2354203 388587 0 0 2362116c0,275791 -36733,468077 -110434,576031 -93427,140317 -248743,210947 -465951,210947 -105237,0 -206105,-13582 -304019,-40276z"/>
  <path fill="{color}" fill-rule="nonzero" d="M2790034 3623430l384336 -60591c21260,150474 81615,265751 180238,346304 98742,79961 237050,120237 413745,120237 178822,0 311343,-35197 398273,-106418 86103,-70631 129569,-154136 129569,-249925 0,-85749 -39095,-153309 -116340,-202207 -54568,-33898 -186971,-76418 -397446,-128978 -284177,-69922 -480715,-130277 -591149,-181301 -109726,-51969 -192877,-122482 -249570,-213192 -56694,-90001 -85395,-190042 -85395,-299531 0,-100041 23504,-192286 69922,-277090 47127,-85041 110435,-155671 190632,-211656 60355,-43347 142916,-80080 246618,-110199 104528,-30354 215672,-45473 334964,-45473 179648,0 337091,25276 472565,76419 136183,50315 236342,119411 301067,205868 64016,87167 108899,203034 133230,348548l-379847 51851c-16890,-116694 -66970,-208231 -149412,-273665 -82442,-65552 -198782,-97914 -349610,-97914 -177404,0 -304846,28819 -380556,86339 -75828,57639 -114214,125317 -114214,202326 0,49016 15591,93662 47126,133230 31654,40276 81025,74174 148703,100749 39095,14410 152364,46772 342406,97206 273783,71339 465124,130395 574141,175632 108899,45355 194294,112442 256184,198664 62481,87166 93426,195120 93426,324807 0,126025 -37559,244727 -113387,356343 -75709,111615 -184726,197955 -326815,259255 -142797,61182 -304019,91300 -483549,91300 -297405,0 -524888,-60355 -681032,-180592 -156026,-120947 -255358,-299532 -298823,-536346z"/>
 </g>
</svg>
