<?xml version="1.0" encoding="UTF-8"?>
<!DOCTYPE svg PUBLIC "-//W3C//DTD SVG 1.1//EN" "http://www.w3.org/Graphics/SVG/1.1/DTD/svg11.dtd">
<!-- Creator: CorelDRAW X8 -->
<svg xmlns="http://www.w3.org/2000/svg" xml:space="preserve" width="64px" height="64px" version="1.1" shape-rendering="geometricPrecision" text-rendering="geometricPrecision" image-rendering="optimizeQuality" fill-rule="evenodd" clip-rule="evenodd"
viewBox="0 0 6400000 6400000"
 xmlns:xlink="http://www.w3.org/1999/xlink">
 <g id="Warstwa_x0020_1">
  <metadata id="CorelCorpID_0Corel-Layer"/>
  <rect fill="#FFA726" width="6400000" height="6400000"/>
  <g id="_2935818998512">
   <path fill="white" d="M1955811 3685911c415754,0 752726,337918 752726,754734 0,416934 -336972,754734 -752726,754734 -415753,0 -752843,-337800 -752843,-754734 0,-416816 337090,-754734 752843,-754734z"/>
   <path fill="white" fill-rule="nonzero" d="M1201432 2318651l827 390831c23858,-590 48071,-945 72166,-945 669103,0 1274543,271539 1712265,710442 437958,439021 708789,1046115 708789,1716872 0,21378 -355,42520 -827,63780l389886 354c473,-21142 709,-42638 709,-64134 0,-777057 -314649,-1481475 -824183,-1992663 -508944,-509888 -1211472,-825482 -1986639,-825482 -24331,0 -48898,354 -72993,945z"/>
   <path fill="white" fill-rule="nonzero" d="M5199631 5199631l-389887 0c355,-21142 591,-42520 591,-63780 0,-978910 -395792,-1865338 -1035485,-2506921 -639930,-641346 -1523996,-1038202 -2500425,-1038202 -24567,0 -49134,355 -73465,827l-945 -390950c24685,-472 49607,-590 74410,-590 1084029,0 2065537,440556 2775979,1152652 710206,712331 1149699,1696320 1149699,2783184 0,21260 -236,42520 -472,63780z"/>
  </g>
 </g>
</svg>
