<?xml version="1.0" encoding="UTF-8"?>
<!DOCTYPE svg PUBLIC "-//W3C//DTD SVG 1.1//EN" "http://www.w3.org/Graphics/SVG/1.1/DTD/svg11.dtd">
<svg xmlns="http://www.w3.org/2000/svg" xml:space="preserve" width="64px" height="64px" version="1.1" shape-rendering="geometricPrecision" text-rendering="geometricPrecision" image-rendering="optimizeQuality" fill-rule="evenodd" clip-rule="evenodd"
viewBox="0 0 6400000 6400000"
 xmlns:xlink="http://www.w3.org/1999/xlink">
 <g id="20_1">
  <polygon fill="#FFA726" points="400044,400044 5999956,400044 5999956,5999956 400044,5999956 "/>
  <path fill="#FFFFFF" d="M2111365 3625202c363784,0 658590,295634 658590,660363 0,364847 -294806,660362 -658590,660362 -363784,0 -658827,-295515 -658827,-660362 0,-364729 295043,-660363 658827,-660363zm-660127 -1196353l709 341933c588905,-14528 1144738,203034 1561437,620795 415044,416108 632488,971587 619495,1558130l341107 236c15118,-675481 -243546,-1321198 -720600,-1799668 -478942,-479888 -1124423,-738080 -1802148,-721426zm3498469 2520858l-341225 0c14173,-845208 -308390,-1650493 -905444,-2249438 -598945,-600125 -1404703,-924105 -2252154,-907688l-827 -342051c936626,-17835 1832621,345122 2494047,1008083 665205,667213 1015996,1550570 1005603,2491094z"/>
 </g>
</svg>
