<?xml version="1.0" encoding="UTF-8"?>
<!DOCTYPE svg PUBLIC "-//W3C//DTD SVG 1.1//EN" "http://www.w3.org/Graphics/SVG/1.1/DTD/svg11.dtd">
<!-- Creator: CorelDRAW X8 -->
<svg xmlns="http://www.w3.org/2000/svg" xml:space="preserve" width="64px" height="64px" version="1.1" shape-rendering="geometricPrecision" text-rendering="geometricPrecision" image-rendering="optimizeQuality" fill-rule="evenodd" clip-rule="evenodd"
viewBox="0 0 6400000 6400000"
 xmlns:xlink="http://www.w3.org/1999/xlink">
 <g id="Warstwa_x0020_1">
  <metadata id="CorelCorpID_0Corel-Layer"/>
  <polygon fill="#FFA726" points="0,0 6400000,0 6400000,6400000 0,6400000 "/>
  <path fill="#FFFFFF" d="M1955811 3685911c415754,0 752726,337918 752726,754734 0,416934 -336972,754734 -752726,754734 -415753,0 -752843,-337800 -752843,-754734 0,-416816 337090,-754734 752843,-754734zm-754379 -1367260l827 390831c673000,-16654 1308205,231972 1784431,709497 474337,475518 722844,1110368 707962,1780652l389886 354c17245,-771978 -278389,-1509940 -823474,-2056797 -547448,-548510 -1285055,-843553 -2059632,-824537zm3998199 2880980l-389887 0c16182,-965917 -352445,-1886244 -1034894,-2570701 -684458,-685875 -1605374,-1056155 -2573890,-1037375l-945 -390950c1070446,-20433 2094474,394375 2850389,1152062 760167,762529 1161156,1772148 1149227,2846964z"/>
 </g>
</svg>
