<?xml version="1.0" encoding="UTF-8"?>
<!DOCTYPE svg PUBLIC "-//W3C//DTD SVG 1.1//EN" "http://www.w3.org/Graphics/SVG/1.1/DTD/svg11.dtd">
<!-- Creator: CorelDRAW X8 -->
<svg xmlns="http://www.w3.org/2000/svg" xml:space="preserve" width="64px" height="64px" version="1.1" shape-rendering="geometricPrecision" text-rendering="geometricPrecision" image-rendering="optimizeQuality" fill-rule="evenodd" clip-rule="evenodd"
viewBox="0 0 6400000 6400000"
 xmlns:xlink="http://www.w3.org/1999/xlink">
 <g id="Warstwa_x0020_1">
  <metadata id="CorelCorpID_0Corel-Layer"/>
  <path fill="{color}" d="M0 1806046l1413915 0 1686517 -1806282 562093 0 0 6400354 -562093 0 -1661005 -1777935 -1439309 0 -118 -2816137zm3782763 -1224936c722135,0 1376237,292798 1849275,765836 473273,473273 765954,1127140 765954,1849274 0,721309 -292799,1375057 -765954,1848566 -474219,473865 -1127967,766663 -1849275,766663l0 -354335c624811,0 1190093,-252877 1598642,-661543 409375,-409257 662252,-974540 662252,-1599351 0,-624220 -253113,-1189502 -662252,-1598641 -409021,-409021 -974422,-662134 -1598642,-662134l0 -354335zm39331 891388c475518,0 906507,193113 1218322,504810 312406,312523 505518,743395 505518,1218912 0,475518 -193112,906508 -504809,1218323 -312524,312405 -743513,505518 -1219031,505518l0 -354336c378312,0 720954,-153309 968752,-400752 247444,-247799 400753,-590441 400753,-968753 0,-378311 -153309,-720835 -400753,-968634 -247798,-247444 -590440,-400753 -968752,-400753l0 -354335zm13111 760167c266105,0 507171,107954 681386,282169 174215,174215 282169,415281 282169,681386 0,266106 -107954,507172 -282169,681387 -174215,174215 -415281,282169 -681386,282169l0 -354335c168191,0 320555,-68269 430753,-178467 110198,-110198 178467,-262563 178467,-430754 0,-168191 -68269,-320555 -178467,-430753 -110198,-110198 -262562,-178467 -430753,-178467l0 -354335z"/>
 </g>
</svg>
