<?xml version="1.0" encoding="UTF-8"?>
<!DOCTYPE svg PUBLIC "-//W3C//DTD SVG 1.1//EN" "http://www.w3.org/Graphics/SVG/1.1/DTD/svg11.dtd">
<svg xmlns="http://www.w3.org/2000/svg" xml:space="preserve" width="64px" height="64px" version="1.1" shape-rendering="geometricPrecision" text-rendering="geometricPrecision" image-rendering="optimizeQuality" fill-rule="evenodd" clip-rule="evenodd"
viewBox="0 0 6400000 6400000"
 xmlns:xlink="http://www.w3.org/1999/xlink">
 <g id="Warstwa">
  <path fill="{color}" d="M3377640 403824l0 5592352 -491108 0 -1451357 -1553523 -1030642 0 -119 -2460621 1008556 0 1473562 -1578208 491108 0zm441501 2621489l2177389 0 0 349374 -2177389 0 0 -349374zm-7913 -818869l2103333 -563510 90001 336972 -2103333 563629 -90001 -337091zm90001 1643879l2103333 563511 -90001 337091 -2103333 -563629 90001 -336973zm-872963 1786912l0 -4874470 -1464703 1568642 -810955 0 118 1761754 833160 0 1442380 1544074z"/>
 </g>
</svg>
