<?xml version="1.0" encoding="UTF-8"?>
<!DOCTYPE svg PUBLIC "-//W3C//DTD SVG 1.1//EN" "http://www.w3.org/Graphics/SVG/1.1/DTD/svg11.dtd">
<!-- Creator: CorelDRAW X8 -->
<svg xmlns="http://www.w3.org/2000/svg" xml:space="preserve" width="64px" height="64px" version="1.1" shape-rendering="geometricPrecision" text-rendering="geometricPrecision" image-rendering="optimizeQuality" fill-rule="evenodd" clip-rule="evenodd"
viewBox="0 0 6400000 6400000"
 xmlns:xlink="http://www.w3.org/1999/xlink">
 <g id="Warstwa_x0020_1">
  <metadata id="CorelCorpID_0Corel-Layer"/>
  <path fill="{color}" d="M3402680 -236l0 6400354 -562094 0 -1661005 -1777935 -1179581 0 -118 -2816137 1154187 0 1686517 -1806282 562094 0zm505281 3000273l2492039 0 0 399926 -2492039 0 0 -399926zm-9094 -937098l2407234 -645008 102994 385753 -2407235 645008 -102993 -385753zm102993 1881283l2407235 645008 -102994 385752 -2407234 -645007 102993 -385753zm-999107 2045104l0 -5578652 -1676241 1795298 -928239 0 118 2016285 953634 0 1650728 1767069z"/>
 </g>
</svg>
