<?xml version="1.0" encoding="UTF-8"?>
<!DOCTYPE svg PUBLIC "-//W3C//DTD SVG 1.1//EN" "http://www.w3.org/Graphics/SVG/1.1/DTD/svg11.dtd">
<svg xmlns="http://www.w3.org/2000/svg" xml:space="preserve" width="64px" height="64px" version="1.1" shape-rendering="geometricPrecision" text-rendering="geometricPrecision" image-rendering="optimizeQuality" fill-rule="evenodd" clip-rule="evenodd"
viewBox="0 0 6400000 6400000"
 xmlns:xlink="http://www.w3.org/1999/xlink">
 <g id="Warstwa">
  <path fill="{color}" d="M3377522 401816l0 5596368 -491463 0 -1452419 -1554704 -1031352 0 -118 -2462275 1009147 0 1474742 -1579389 491463 0zm690363 1706714l842963 842845 842727 -842845 248625 248507 -842963 842963 842963 842845 -248625 248507 -842727 -842845 -842963 842845 -248625 -248507 842963 -842845 -842963 -842963 248625 -248507zm-1040092 3530358l0 -4877776 -1465648 1569704 -811663 0 118 1763053 833868 0 1443325 1545019z"/>
 </g>
</svg>
