<?xml version="1.0" encoding="UTF-8"?>
<!DOCTYPE svg PUBLIC "-//W3C//DTD SVG 1.1//EN" "http://www.w3.org/Graphics/SVG/1.1/DTD/svg11.dtd">
<!-- Creator: CorelDRAW X8 -->
<svg xmlns="http://www.w3.org/2000/svg" xml:space="preserve" width="64px" height="64px" version="1.1" shape-rendering="geometricPrecision" text-rendering="geometricPrecision" image-rendering="optimizeQuality" fill-rule="evenodd" clip-rule="evenodd"
viewBox="0 0 6400000 6400000"
 xmlns:xlink="http://www.w3.org/1999/xlink">
 <g id="Warstwa_x0020_1">
  <metadata id="CorelCorpID_0Corel-Layer"/>
  <path fill="#101010" d="M3402680 -236l0 6400354 -562094 0 -1661005 -1777935 -1179581 0 -118 -2816137 1154187 0 1686517 -1806282 562094 0zm789576 1951914l964028 964027 963909 -964027 284295 284294 -964027 964028 964027 963909 -284295 284295 -963909 -964027 -964028 964027 -284295 -284295 964028 -963909 -964028 -964028 284295 -284294zm-1189503 4037648l0 -5578652 -1676241 1795298 -928239 0 118 2016285 953634 0 1650728 1767069z"/>
 </g>
</svg>
