<?xml version="1.0" encoding="UTF-8"?>
<!DOCTYPE svg PUBLIC "-//W3C//DTD SVG 1.1//EN" "http://www.w3.org/Graphics/SVG/1.1/DTD/svg11.dtd">
<!-- Creator: CorelDRAW X8 -->
<svg xmlns="http://www.w3.org/2000/svg" xml:space="preserve" width="64px" height="64px" version="1.1" shape-rendering="geometricPrecision" text-rendering="geometricPrecision" image-rendering="optimizeQuality" fill-rule="evenodd" clip-rule="evenodd"
viewBox="0 0 6400000 6400000"
 xmlns:xlink="http://www.w3.org/1999/xlink">
 <g id="Warstwa_x0020_1">
  <metadata id="CorelCorpID_0Corel-Layer"/>
  <path fill="{color}" d="M2084317 1088045l1578208 1889787 0 -2978068 -562093 0 -1016115 1088281zm-942177 -656819l4421984 5281364 -306146 256302 -4421983 -5281364 306145 -256302zm3224095 4950061l254885 292562c-263153,89175 -545204,137600 -838357,137600l0 -354335c201853,0 397564,-26339 583472,-75827zm906271 -483786l229609 268586c44528,-38977 87993,-79371 129923,-121301 473155,-473509 765954,-1127257 765954,-1848566 0,-722134 -292681,-1376001 -765954,-1849274 -473038,-473038 -1127140,-765836 -1849275,-765836l0 354335c624220,0 1189621,253113 1598642,662134 409139,409139 662252,974421 662252,1598641 0,624811 -252877,1190094 -662252,1599351 -35197,35197 -71694,69213 -108899,101930zm-1450412 -172207l160750 187325c-52914,4843 -106536,7442 -160750,7442l0 -194767zm893988 -490990l227719 270476c33544,-28701 66024,-58938 97324,-90237 311697,-311815 504809,-742805 504809,-1218323 0,-475517 -193112,-906389 -505518,-1218912 -311815,-311697 -742804,-504810 -1218322,-504810l0 354335c378312,0 720954,153309 968752,400753 247444,247799 400753,590323 400753,968634 0,378312 -153309,720954 -400753,968753 -23976,23976 -49016,47244 -74764,69331zm-880877 -2001639c266105,0 507171,107954 681386,282169 174215,174215 282169,415281 282169,681386 0,266106 -107954,507172 -282169,681387l-51379 47717 -231498 -268350 32244 -30000c110198,-110198 178467,-262563 178467,-430754 0,-168191 -68269,-320555 -178467,-430753 -110198,-110198 -262562,-178467 -430753,-178467l0 -354335zm-2454007 -426619l2281327 2734522 0 1859550 -562093 0 -1661005 -1777935 -1439309 0 -118 -2816137 1381198 0z"/>
 </g>
</svg>
