<?xml version="1.0" encoding="UTF-8"?>
<!DOCTYPE svg PUBLIC "-//W3C//DTD SVG 1.1//EN" "http://www.w3.org/Graphics/SVG/1.1/DTD/svg11.dtd">
<svg xmlns="http://www.w3.org/2000/svg" xml:space="preserve" width="64px" height="64px" version="1.1" shape-rendering="geometricPrecision" text-rendering="geometricPrecision" image-rendering="optimizeQuality" fill-rule="evenodd" clip-rule="evenodd"
viewBox="0 0 6400000 6400000"
 xmlns:xlink="http://www.w3.org/1999/xlink">
 <g id="Warstwa_1">
  <path fill="{color}" d="M-4300210 3200000l0 1875377 2187664 0 619024 0 376894 502684 2754601 3672565 0 -12101488 -2754601 3672565 -376894 502683 -619024 0 -2188727 0 -3662 1875378 4843 0 -118 236zm16250515 -2820743l-2820626 2820743 2820626 2821098 -928949 928948 -2821098 -2820979 -2821097 2820979 -929067 -928948 2821452 -2821098 -2820979 -2821098 928948 -928948 2821098 2820979 2820743 -2820625 928949 928949zm-17500255 2820743l0 3125235 3437404 0 3750046 4999904 1250213 0 0 -16259373 -1250213 9213 -3750046 4999904 -3431144 0 -6260 3125235 0 -118z"/>
 </g>
</svg>
