<?xml version="1.0" encoding="UTF-8"?>
<!DOCTYPE svg PUBLIC "-//W3C//DTD SVG 1.1//EN" "http://www.w3.org/Graphics/SVG/1.1/DTD/svg11.dtd">
<svg xmlns="http://www.w3.org/2000/svg" xml:space="preserve" width="64px" height="64px" version="1.1" shape-rendering="geometricPrecision" text-rendering="geometricPrecision" image-rendering="optimizeQuality" fill-rule="evenodd" clip-rule="evenodd"
viewBox="0 0 6400000 6400000"
 xmlns:xlink="http://www.w3.org/1999/xlink">
 <g id="Warstwa">
    <path fill="{color}" fill-rule="nonzero" d="M5281837 408903l0 705717 719890 0 0 309925 -719890 0 0 719891 -309925 0 0 -719891 -705600 0 0 -309925 705600 0 0 -705717 309925 0zm-4880139 2104159l2057269 0 743159 -2150813 739497 2151522 2057033 -3189 -1788329 1321079 604024 2127546 -1614115 -1410726 -1614114 1410726 557369 -2127546 -1741793 -1318599zm2057269 313705l-1125840 0 1162809 880286 -367918 1404703 1072218 -976075 1057809 869420 -353627 -1291315 1124778 -885602 -1356159 2953 -472801 -1453482 -522408 1449112 -218861 0z"/>
 </g>
</svg>
