<?xml version="1.0" encoding="UTF-8"?>
<!DOCTYPE svg PUBLIC "-//W3C//DTD SVG 1.1//EN" "http://www.w3.org/Graphics/SVG/1.1/DTD/svg11.dtd">
<svg xmlns="http://www.w3.org/2000/svg" xml:space="preserve" width="64px" height="64px" version="1.1" shape-rendering="geometricPrecision" text-rendering="geometricPrecision" image-rendering="optimizeQuality" fill-rule="evenodd" clip-rule="evenodd"
viewBox="0 0 6400000 6400000"
 xmlns:xlink="http://www.w3.org/1999/xlink">
 <g id="Warstwa">
   <path fill="{color}" d="M400044 4724586l1275370 0 0 1275370 -1275370 0 0 -1275370zm4184579 -2373100l1104463 637685 -637685 1104580 -1104463 -637803 637685 -1104462zm628591 765245l-500558 -288901 -288901 500439 500439 288901 289020 -500439zm-833987 -2302115l1206157 -414690 414690 1206039 -1206039 414808 -414808 -1206157zm989067 29764l-544494 187326 187207 544494 544613 -187207 -187326 -544613zm-2774916 31773l1195763 443391 -443273 1195763 -1195881 -443274 443391 -1195880zm746702 649496l-540597 -200436 -200435 540597 540597 200436 200435 -540597zm-2940036 -467604l1275370 0 0 1275370 -1275370 0 0 -1275370zm925405 349964l-575440 0 0 575559 575440 0 0 -575559zm913476 1477696l1275488 0 0 1275370 -1275488 0 0 -1275370zm925523 349965l-575558 0 0 575558 575558 0 0 -575558zm-2764404 -349965l1275370 0 0 1275370 -1275370 0 0 -1275370zm925405 349965l-575440 0 0 575558 575440 0 0 -575558zm2752475 1488916l1275370 0 0 1275370 -1275370 0 0 -1275370zm925523 349965l-575558 0 0 575440 575558 0 0 -575440zm-2764522 -349965l1275488 0 0 1275370 -1275488 0 0 -1275370zm925523 349965l-575558 0 0 575440 575558 0 0 -575440zm-1838999 0l-575440 0 0 575440 575440 0 0 -575440z"/>
 </g>
</svg>
