<?xml version="1.0" encoding="UTF-8"?>
<!DOCTYPE svg PUBLIC "-//W3C//DTD SVG 1.1//EN" "http://www.w3.org/Graphics/SVG/1.1/DTD/svg11.dtd">
<svg xmlns="http://www.w3.org/2000/svg" xml:space="preserve" width="64px" height="64px" version="1.1" shape-rendering="geometricPrecision" text-rendering="geometricPrecision" image-rendering="optimizeQuality" fill-rule="evenodd" clip-rule="evenodd"
viewBox="0 0 6400000 6400000"
 xmlns:xlink="http://www.w3.org/1999/xlink">
 <g id="Warstwa_1">   
  <path fill="{color}" d="M400044 4800059l1199897 0 0 1199897 -1199897 0 0 -1199897zm2545189 -4245761l898830 790049 -792057 901311 -898948 -790168 792175 -901192zm336737 828317l-300240 -263979 -264098 300476 300240 263980 264098 -300477zm2123766 -982689l599889 1039147 -1039147 600007 -599889 -1039146 1039147 -600008zm53623 892806l-199964 -346421 -346539 199963 200081 346540 346422 -200082zm-5059315 -492525l1199897 0 0 1199896 -1199897 0 0 -1199896zm799971 399926l-400045 0 0 400044 400045 0 0 -400044zm1200251 1599941l1196707 0 0 1199896 -1196707 0 0 -1199896zm799734 399926l-399808 0 0 400044 399808 0 0 -400044zm1551633 -819459l1039147 599889 -600007 1039147 -1039147 -599889 600007 -1039147zm492880 746348l-346539 -200081 -199963 346539 346421 199963 200081 -346421zm-4844469 -326933l1199897 0 0 1199896 -1199897 0 0 -1199896zm799971 399926l-400045 0 0 400044 400045 0 0 -400044zm1200251 1600177l1196707 0 0 1199897 -1196707 0 0 -1199897zm799734 399926l-399808 0 0 400045 399808 0 0 -400045zm1200251 -399926l1199897 0 0 1199897 -1199897 0 0 -1199897zm799970 399926l-400044 0 0 400045 400044 0 0 -400045zm-4000206 0l-400045 0 0 400045 400045 0 0 -400045z"/>
 </g>
</svg>
