<?xml version="1.0" encoding="UTF-8"?>
<!DOCTYPE svg PUBLIC "-//W3C//DTD SVG 1.1//EN" "http://www.w3.org/Graphics/SVG/1.1/DTD/svg11.dtd">
<!-- Creator: CorelDRAW X8 -->
<svg xmlns="http://www.w3.org/2000/svg" xml:space="preserve" width="64px" height="64px" version="1.1" shape-rendering="geometricPrecision" text-rendering="geometricPrecision" image-rendering="optimizeQuality" fill-rule="evenodd" clip-rule="evenodd"
viewBox="0 0 6400000 6400000"
 xmlns:xlink="http://www.w3.org/1999/xlink">
 <g id="Warstwa_x0020_1">
  <metadata id="CorelCorpID_0Corel-Layer"/>
  <path fill="{color}" d="M0 4942384l1457616 0 0 1457616 -1457616 0 0 -1457616zm1057690 399926l-657764 0 0 657764 657764 0 0 -657764z"/>
  <path fill="{color}" d="M2101679 4942384l1457617 0 0 1457616 -1457617 0 0 -1457616zm1057691 399926l-657764 0 0 657764 657764 0 0 -657764z"/>
  <path fill="{color}" d="M4203359 4942384l1457616 0 0 1457616 -1457616 0 0 -1457616zm1057690 399926l-657764 0 0 657764 657764 0 0 -657764z"/>
  <path fill="{color}" d="M0 2840822l1457616 0 0 1457617 -1457616 0 0 -1457617zm1057690 399927l-657764 0 0 657764 657764 0 0 -657764z"/>
  <path fill="{color}" d="M2101679 2840822l1457617 0 0 1457617 -1457617 0 0 -1457617zm1057691 399927l-657764 0 0 657764 657764 0 0 -657764z"/>
  <path fill="{color}" d="M0 752017l1457616 0 0 1457616 -1457616 0 0 -1457616zm1057690 399926l-657764 0 0 657764 657764 0 0 -657764z"/>
  <path fill="{color}" d="M2506684 544141l1366671 506699 -506699 1366670 -1366671 -506699 506699 -1366670zm853475 742332l-617842 -229137 -229136 617842 617842 229137 229136 -617842z"/>
  <path fill="{color}" d="M4547772 473864l1378364 -473982 473982 1378363 -1378363 473983 -473983 -1378364zm1130329 34016l-622330 214019 214018 622330 622331 -214018 -214019 -622331z"/>
  <path fill="{color}" d="M4782460 2230303l1262260 728749 -728749 1262378 -1262378 -728867 728867 -1262260zm718356 874499l-572015 -330122 -330240 571897 572014 330240 330241 -572015z"/>
 </g>
</svg>
