<?xml version="1.0" encoding="UTF-8"?>
<!DOCTYPE svg PUBLIC "-//W3C//DTD SVG 1.1//EN" "http://www.w3.org/Graphics/SVG/1.1/DTD/svg11.dtd">
<!-- Creator: CorelDRAW X8 -->
<svg xmlns="http://www.w3.org/2000/svg" xml:space="preserve" width="64px" height="64px" version="1.1" shape-rendering="geometricPrecision" text-rendering="geometricPrecision" image-rendering="optimizeQuality" fill-rule="evenodd" clip-rule="evenodd"
viewBox="0 0 6400000 6400000"
 xmlns:xlink="http://www.w3.org/1999/xlink">
 <g id="Warstwa_x0020_1">
  <metadata id="CorelCorpID_0Corel-Layer"/>
  <path fill="{color}" fill-rule="nonzero" d="M5818064 4425173l0 1328638 -814144 0 0 188624 -396029 -390241 396029 -390123 0 191814 414218 0 0 -928712 399926 0zm-580165 -4424819l-998870 -472 -846507 861979 4016 1374938 -3396656 3393585 0 400871 369217 368745 425320 0 3384609 -3381420 1366316 -6023 854656 -853830 945 -981272 -807294 806467 -930602 -249098 -245436 -914893 820286 -819577zm1162219 3260119l0 3139527 -2880390 0 0 -1700690 1307379 0 0 -1438837 1573011 0zm-354335 2785192l0 -2430857 -864341 0 0 1438837 -1307379 0 0 992020 2171720 0z"/>
 </g>
</svg>
