<?xml version="1.0" encoding="UTF-8"?>
<!DOCTYPE svg PUBLIC "-//W3C//DTD SVG 1.1//EN" "http://www.w3.org/Graphics/SVG/1.1/DTD/svg11.dtd">
<!-- Creator: CorelDRAW X8 -->
<svg xmlns="http://www.w3.org/2000/svg" xml:space="preserve" width="64px" height="64px" version="1.1" shape-rendering="geometricPrecision" text-rendering="geometricPrecision" image-rendering="optimizeQuality" fill-rule="evenodd" clip-rule="evenodd"
viewBox="0 0 6400000 6400000"
 xmlns:xlink="http://www.w3.org/1999/xlink">
 <g id="Warstwa_x0020_1">
  <metadata id="CorelCorpID_0Corel-Layer"/>
  <path fill="{color}" d="M0 1920732l611110 0 0 -1910102 399926 0 0 1910102 589023 0 0 1600059 -589023 0 0 2868461 -399926 0 0 -2868461 -611110 0 0 -1600059zm5792433 -1910102l0 1175684 607685 0 0 1600059 -607685 0 0 3602879 -399926 0 0 -3602879 -592448 0 0 -1600059 592448 0 0 -1175684 399926 0zm-2392470 0l0 4170760 600126 0 0 1600059 -600126 0 0 607803 -399926 0 0 -607803 -600007 0 0 -1600059 600007 0 0 -4170760 399926 0zm2561134 1614705l-722017 0 0 722017 722017 0 0 -722017zm-2400030 2995076l-722016 0 0 722017 722016 0 0 -722017zm-2400029 -2260658l-722017 0 0 722017 722017 0 0 -722017z"/>
 </g>
</svg>
