<?xml version="1.0" encoding="UTF-8"?>
<!DOCTYPE svg PUBLIC "-//W3C//DTD SVG 1.1//EN" "http://www.w3.org/Graphics/SVG/1.1/DTD/svg11.dtd">
<!-- Creator: CorelDRAW X8 -->
<svg xmlns="http://www.w3.org/2000/svg" xml:space="preserve" width="64px" height="64px" version="1.1" shape-rendering="geometricPrecision" text-rendering="geometricPrecision" image-rendering="optimizeQuality" fill-rule="evenodd" clip-rule="evenodd"
viewBox="0 0 6400000 6400000"
 xmlns:xlink="http://www.w3.org/1999/xlink">
 <g id="Warstwa_x0020_1">
  <metadata id="CorelCorpID_0Corel-Layer"/>
  <path fill="{color}" d="M3253032 4677813l3147086 0 0 1722187 -3147086 0 0 -1722187zm1769431 354336l0 1013516 1074462 0 0 -1013516 -1074462 0zm-303192 1013516l0 -1013516 -525834 0 0 1013516 525834 0zm-829026 0l0 -1013516 -334020 0 0 1013516 334020 0z"/>
  <polygon fill="{color}" points="5237899,354 4239029,-118 3392522,861861 3396538,2236799 -118,5630384 -118,6031255 369099,6400000 794419,6400000 4179028,3018580 5545344,3012557 6400000,2158727 6400945,1177455 5593651,1983922 4663049,1734824 4417613,819931 "/>
 </g>
</svg>
