<?xml version="1.0" encoding="UTF-8"?>
<!DOCTYPE svg PUBLIC "-//W3C//DTD SVG 1.1//EN" "http://www.w3.org/Graphics/SVG/1.1/DTD/svg11.dtd">
<svg xmlns="http://www.w3.org/2000/svg" xml:space="preserve" width="64px" height="64px" version="1.1" shape-rendering="geometricPrecision" text-rendering="geometricPrecision" image-rendering="optimizeQuality" fill-rule="evenodd" clip-rule="evenodd"
viewBox="0 0 6400000 6400000"
 xmlns:xlink="http://www.w3.org/1999/xlink">
 <g id="Warstwa">
    <path fill="{color}" fill-rule="nonzero" d="M5490540 4271864l0 1162337 -712332 0 0 165002 -346421 -341343 346421 -341343 0 167837 362367 0 0 -812490 349965 0zm-507644 -3871111l-873790 -354 -740679 754025 3544 1202967 -2971572 2968856 0 350673 323035 322681 372052 0 2961060 -2958343 1195290 -5197 747765 -747056 827 -858436 -706308 705481 -814144 -217916 -214727 -800325 717647 -717056zm1016823 2852161l0 2746687 -2519912 0 0 -1487971 1143675 0 0 -1258716 1376237 0zm-310043 2436644l0 -2126601 -756151 0 0 1258716 -1143793 0 0 867885 1899944 0z"/>
 </g>
</svg>
