<?xml version="1.0" encoding="UTF-8"?>
<!DOCTYPE svg PUBLIC "-//W3C//DTD SVG 1.1//EN" "http://www.w3.org/Graphics/SVG/1.1/DTD/svg11.dtd">
<svg xmlns="http://www.w3.org/2000/svg" xml:space="preserve" width="64px" height="64px" version="1.1" shape-rendering="geometricPrecision" text-rendering="geometricPrecision" image-rendering="optimizeQuality" fill-rule="evenodd" clip-rule="evenodd"
viewBox="0 0 6400000 6400000"
 xmlns:xlink="http://www.w3.org/1999/xlink">
 <g id="Warstwa">
   <path fill="{color}" d="M6000074 1273362l-1925339 0 0 -349965 1925339 0 0 349965zm-1020721 1228480l0 524179 1020603 -236 0 348430 -1020603 236 0 523707 -1396199 0 0 -1396316 1396199 0zm-349965 1046351l0 -696386 -696387 0 0 696386 696387 0zm-1783605 -173033l-2445739 0 0 -349965 2445739 0 0 349965zm-1049540 1228597l0 1396199 -1396199 0 0 -1396199 1396199 0zm-349965 1046234l0 -696269 -696269 0 0 696269 696269 0zm4553678 -172916l-3486303 0 0 -349965 3486303 0 0 349965zm-2665427 -5077031l0 1396199 -1396198 0 0 -522881 -1538287 0 0 -349965 1538287 0 0 -523353 1396198 0zm-349847 1046234l0 -696269 -696386 0 0 696269 696386 0z"/>
 </g>
</svg>
