<?xml version="1.0" encoding="UTF-8"?>
<!DOCTYPE svg PUBLIC "-//W3C//DTD SVG 1.1//EN" "http://www.w3.org/Graphics/SVG/1.1/DTD/svg11.dtd">
<svg xmlns="http://www.w3.org/2000/svg" xml:space="preserve" width="64px" height="64px" version="1.1" shape-rendering="geometricPrecision" text-rendering="geometricPrecision" image-rendering="optimizeQuality" fill-rule="evenodd" clip-rule="evenodd"
viewBox="0 0 6400000 6400000"
 xmlns:xlink="http://www.w3.org/1999/xlink">
 <g id="Warstwa_1">   
  <path fill="{color}" d="M3993592 5600030l1607737 0 354 -2000104 -801624 0 0 1200015 -806467 0 0 800089zm989304 -5199277l-873790 -354 -705009 717646 -4134 1181944 -2999564 3026258 0 350673 323035 322681 372052 0 3004525 -2999564 1200015 0 699575 -711032 827 -858436 -706308 705481 -814144 -217916 -214727 -800325 717647 -717056zm410911 3599217l0 1399978 -800089 0 0 -399926 406304 0 0 -1000052 393785 0zm-1091471 1200015l282878 -282877 0 565755 -282878 -282878zm-702528 799971l2399911 0 355 -2799956 -1596870 0 0 1200015 -803396 0 0 1599941z"/>
 </g>
</svg>
