<?xml version="1.0" encoding="UTF-8"?>
<!DOCTYPE svg PUBLIC "-//W3C//DTD SVG 1.1//EN" "http://www.w3.org/Graphics/SVG/1.1/DTD/svg11.dtd">
<svg xmlns="http://www.w3.org/2000/svg" xml:space="preserve" width="64px" height="64px" version="1.1" shape-rendering="geometricPrecision" text-rendering="geometricPrecision" image-rendering="optimizeQuality" fill-rule="evenodd" clip-rule="evenodd"
viewBox="0 0 6400000 6400000"
 xmlns:xlink="http://www.w3.org/1999/xlink">
 <g id="Warstwa">  
  <path fill="{color}" d="M3246418 4492851l2753301 0 0 1506750 -2753301 0 0 -1506750zm1736478 -4092098l-873790 -354 -740679 754025 3544 1202967 -2971572 2968856 0 350673 323035 322681 372052 0 2961060 -2958343 1195290 -5197 747765 -747056 827 -858436 -706308 705481 -814144 -217916 -214727 -800325 717647 -717056zm-188506 4402141l0 886664 940051 0 0 -886664 -940051 0zm-265161 886664l0 -886664 -460045 0 0 886664 460045 0zm-725324 0l0 -886664 -292208 0 0 886664 292208 0z"/>
 </g>
</svg>
