<?xml version="1.0" encoding="UTF-8"?>
<!DOCTYPE svg PUBLIC "-//W3C//DTD SVG 1.1//EN" "http://www.w3.org/Graphics/SVG/1.1/DTD/svg11.dtd">
<!-- Creator: CorelDRAW X8 -->
<svg xmlns="http://www.w3.org/2000/svg" xml:space="preserve" width="64px" height="64px" version="1.1" shape-rendering="geometricPrecision" text-rendering="geometricPrecision" image-rendering="optimizeQuality" fill-rule="evenodd" clip-rule="evenodd"
viewBox="0 0 6400000 6400000"
 xmlns:xlink="http://www.w3.org/1999/xlink">
 <g id="Warstwa_x0020_1">
  <metadata id="CorelCorpID_0Corel-Layer"/>
  <path fill="{color}" d="M3253032 4677813l3147086 0 0 1722187 -3147086 0 0 -1722187zm1984867 -4677459l-998870 -472 -846507 861979 4016 1374938 -3396656 3393585 0 400871 369217 368745 425320 0 3384609 -3381420 1366316 -6023 854656 -853830 945 -981272 -807294 806467 -930602 -249098 -245436 -914893 820286 -819577zm-215436 5031795l0 1013516 1074462 0 0 -1013516 -1074462 0zm-303192 1013516l0 -1013516 -525834 0 0 1013516 525834 0zm-829026 0l0 -1013516 -334020 0 0 1013516 334020 0z"/>
 </g>
</svg>
