<?xml version="1.0" encoding="UTF-8"?>
<!DOCTYPE svg PUBLIC "-//W3C//DTD SVG 1.1//EN" "http://www.w3.org/Graphics/SVG/1.1/DTD/svg11.dtd">
<svg xmlns="http://www.w3.org/2000/svg" xml:space="preserve" width="64px" height="64px" version="1.1" shape-rendering="geometricPrecision" text-rendering="geometricPrecision" image-rendering="optimizeQuality" fill-rule="evenodd" clip-rule="evenodd"
viewBox="0 0 6400000 6400000"
 xmlns:xlink="http://www.w3.org/1999/xlink">
 <g id="Warstwa_1">   
  <path fill="{color}" d="M4982896 400753l-873790 -354 -705009 717646 -4134 1181944 -2999564 3026258 0 350673 323035 322681 372052 0 3004525 -2999564 1200015 0 699575 -711032 827 -858436 -706308 705481 -814144 -217916 -214727 -800325 717647 -717056zm-1782896 4004577l2799719 0 0 1594271 -2799719 0 0 -1594271zm1694430 394729l0 899893 708789 0 0 -899893 -708789 0zm-394375 899893l0 -899893 -299531 0 0 899893 299531 0zm-696150 0l0 -899893 -204687 0 0 899893 204687 0z"/>
 </g>
</svg>
