<?xml version="1.0" encoding="UTF-8"?>
<!DOCTYPE svg PUBLIC "-//W3C//DTD SVG 1.1//EN" "http://www.w3.org/Graphics/SVG/1.1/DTD/svg11.dtd">
<!-- Creator: CorelDRAW X8 -->
<svg xmlns="http://www.w3.org/2000/svg" xml:space="preserve" width="64px" height="64px" version="1.1" shape-rendering="geometricPrecision" text-rendering="geometricPrecision" image-rendering="optimizeQuality" fill-rule="evenodd" clip-rule="evenodd"
viewBox="0 0 6400000 6400000"
 xmlns:xlink="http://www.w3.org/1999/xlink">
 <g id="Warstwa_x0020_1">
  <metadata id="CorelCorpID_0Corel-Layer"/>
  <path fill="{color}" d="M998044 -118l0 2200421 -399926 0 0 -2200421 399926 0zm1404112 1166589l598944 0 -236 -1166471 398272 0 237 1166471 598471 0 0 1595689 -1595688 0 0 -1595689zm1195762 399926l-795836 0 0 795837 795836 0 0 -795837zm-197719 2038490l0 2795113 -399926 0 0 -2795113 399926 0zm1404112 1199424l1595689 0 0 1595689 -1595689 0 0 -1595689zm1195763 399926l-795837 0 0 795837 795837 0 0 -795837zm-197719 -5204237l0 3984380 -399926 0 0 -3984380 399926 0zm-5802355 3046219l1595689 0 0 1595689 -597645 0 0 1758092 -399926 0 0 -1758092 -598118 0 0 -1595689zm1195763 399926l-795837 0 0 795836 795837 0 0 -795836z"/>
 </g>
</svg>
