<?xml version="1.0" encoding="UTF-8"?>
<!DOCTYPE svg PUBLIC "-//W3C//DTD SVG 1.1//EN" "http://www.w3.org/Graphics/SVG/1.1/DTD/svg11.dtd">
<!-- Creator: CorelDRAW X8 -->
<svg xmlns="http://www.w3.org/2000/svg" xml:space="preserve" width="64px" height="64px" version="1.1" shape-rendering="geometricPrecision" text-rendering="geometricPrecision" image-rendering="optimizeQuality" fill-rule="evenodd" clip-rule="evenodd"
viewBox="0 0 6400000 6400000"
 xmlns:xlink="http://www.w3.org/1999/xlink">
 <g id="Warstwa_x0020_1">
  <metadata id="CorelCorpID_0Corel-Layer"/>
  <g>
   <path fill="{color}" d="M6400118 3260473l0 3139527 -2880390 0 0 -1700690 1307379 0 0 -1438837 1573011 0zm-354335 2785192l0 -2430857 -864341 0 0 1084502 0 354335 -354335 0 -953044 0 0 992020 2171720 0z"/>
  </g>
  <polyline fill="none" stroke="#101010" stroke-width="399926" points="5618101,4425173 5618101,5553848 4840808,5553848 "/>
  <polygon fill="{color}" points="5003920,5162071 5003920,5942435 4607891,5552194 "/>
  <polygon fill="{color}" points="5237899,354 4239029,-118 3392522,861861 3396538,2236799 -118,5630384 -118,6031255 369099,6400000 794419,6400000 4179028,3018580 5545344,3012557 6400000,2158727 6400945,1177455 5593651,1983922 4663049,1734824 4417613,819931 "/>
 </g>
</svg>
