<?xml version="1.0" encoding="UTF-8"?>
<!DOCTYPE svg PUBLIC "-//W3C//DTD SVG 1.1//EN" "http://www.w3.org/Graphics/SVG/1.1/DTD/svg11.dtd">
<!-- Creator: CorelDRAW X8 -->
<svg xmlns="http://www.w3.org/2000/svg" xml:space="preserve" width="64px" height="64px" version="1.1" shape-rendering="geometricPrecision" text-rendering="geometricPrecision" image-rendering="optimizeQuality" fill-rule="evenodd" clip-rule="evenodd"
viewBox="0 0 6400000 6400000"
 xmlns:xlink="http://www.w3.org/1999/xlink">
 <g id="Warstwa_x0020_1">
  <metadata id="CorelCorpID_0Corel-Layer"/>
  <path fill="#101010" d="M6400118 998044l-2200421 0 0 -399926 2200421 0 0 399926zm-1166589 1404112l0 598944 1166471 -236 0 398272 -1166471 237 0 598471 -1595689 0 0 -1595688 1595689 0zm-399926 1195762l0 -795836 -795837 0 0 795836 795837 0zm-2038490 -197719l-2795113 0 0 -399926 2795113 0 0 399926zm-1199424 1404112l0 1595689 -1595689 0 0 -1595689 1595689 0zm-399926 1195763l0 -795837 -795837 0 0 795837 795837 0zm5204237 -197719l-3984380 0 0 -399926 3984380 0 0 399926zm-3046219 -5802355l0 1595689 -1595689 0 0 -597645 -1758092 0 0 -399926 1758092 0 0 -598118 1595689 0zm-399926 1195763l0 -795837 -795836 0 0 795837 795836 0z"/>
 </g>
</svg>
