<?xml version="1.0" encoding="UTF-8"?>
<!DOCTYPE svg PUBLIC "-//W3C//DTD SVG 1.1//EN" "http://www.w3.org/Graphics/SVG/1.1/DTD/svg11.dtd">
<svg xmlns="http://www.w3.org/2000/svg" xml:space="preserve" width="64px" height="64px" version="1.1" shape-rendering="geometricPrecision" text-rendering="geometricPrecision" image-rendering="optimizeQuality" fill-rule="evenodd" clip-rule="evenodd"
viewBox="0 0 6400000 6400000"
 xmlns:xlink="http://www.w3.org/1999/xlink">
 <g id="Warstwa">    
   <path fill="{color}" d="M1822818 769025l2015221 -3071 1426908 1422892 2952 2015221 -1422773 1426908 -2015222 2953 -1426907 -1422774 -2953 -2015221 1422774 -1426908zm2227940 2430975c0,-671937 -544967,-1217023 -1216904,-1217023 -671820,0 -1216905,545086 -1216905,1217023 0,671819 545085,1216905 1216905,1216905 671937,0 1216904,-545086 1216904,-1216905zm-1531554 -658945c98151,-46890 200318,-71340 314650,-71340 403233,0 730166,327052 730166,730285 0,108781 -22087,211538 -71221,314650 -324571,-324453 -649260,-649024 -973595,-973595zm629417 1317890c-98269,46890 -200317,71340 -314767,71340 -403115,0 -730285,-327170 -730285,-730285 0,-108781 22205,-211656 71340,-314768 324571,324571 649141,649142 973712,973713zm-318311 -2805153l-888081 1300 -1255764 1259425 2599 1777226 1259306 1255764 1777345 -2599 1255645 -1259307 -2598 -1777226 -1259307 -1255882 -889026 1299 -119 0z"/>
   <path fill="{color}" d="M5999956 786506l-307563 0 0 307681 307563 0 0 -307681zm-965445 0l-307681 0 0 307681 307681 0 0 -307681z"/>
   </g>
</svg>
