<?xml version="1.0" encoding="UTF-8"?>
<!DOCTYPE svg PUBLIC "-//W3C//DTD SVG 1.1//EN" "http://www.w3.org/Graphics/SVG/1.1/DTD/svg11.dtd">
<!-- Creator: CorelDRAW X8 -->
<svg xmlns="http://www.w3.org/2000/svg" xml:space="preserve" width="64px" height="64px" version="1.1" shape-rendering="geometricPrecision" text-rendering="geometricPrecision" image-rendering="optimizeQuality" fill-rule="evenodd" clip-rule="evenodd"
viewBox="0 0 6400000 6400000"
 xmlns:xlink="http://www.w3.org/1999/xlink">
 <g id="Warstwa_x0020_1">
  <metadata id="CorelCorpID_0Corel-Layer"/>
  <path fill="{color}" d="M1870653 3898l2649481 -3898 1876086 1870653 3898 2649481 -1870653 1876086 -2649481 3898 -1876086 -1870653 -3898 -2649481 1870653 -1876086zm2929288 3196102c0,-883357 -716584,-1599941 -1599941,-1599941 -883357,0 -1599941,716584 -1599941,1599941 0,883357 716584,1599941 1599941,1599941 883357,0 1599941,-716584 1599941,-1599941zm-2013686 -866349c129096,-61536 263389,-93663 413745,-93663 530085,0 960012,429927 960012,960012 0,143151 -29056,278153 -93663,413745 -426737,-426501 -853593,-853357 -1280094,-1280094zm827490 1732698c-129096,61655 -263389,93781 -413745,93781 -530085,0 -960130,-430045 -960130,-960130 0,-143033 29174,-278153 93781,-413745 426737,426619 853475,853357 1280094,1280094zm-418469 -3688037l-1167653 1771 -1650965 1655808 3425 2336604 1655690 1650965 2336722 -3425 1650965 -1655690 -3425 -2336604 -1655690 -1651083 -1168951 1654 -118 0z"/>
 </g>
</svg>
