<?xml version="1.0" encoding="UTF-8"?>
<!DOCTYPE svg PUBLIC "-//W3C//DTD SVG 1.1//EN" "http://www.w3.org/Graphics/SVG/1.1/DTD/svg11.dtd">
<!-- Creator: CorelDRAW X8 -->
<svg xmlns="http://www.w3.org/2000/svg" xml:space="preserve" width="64px" height="64px" version="1.1" shape-rendering="geometricPrecision" text-rendering="geometricPrecision" image-rendering="optimizeQuality" fill-rule="evenodd" clip-rule="evenodd"
viewBox="0 0 6400000 6400000"
 xmlns:xlink="http://www.w3.org/1999/xlink">
 <g id="Warstwa_x0020_1">
  <metadata id="CorelCorpID_0Corel-Layer"/>
  <path fill="{color}" d="M3200000 1582342c446462,0 851231,181184 1143794,473864 292680,293390 473982,697922 473982,1143912 0,381028 -132285,731820 -353508,1008556l4960 4961 -56339 56339c-22323,25394 -45473,49843 -69332,73701 -292208,292917 -697095,474101 -1143557,474101 -446698,0 -851467,-181184 -1144030,-473746 -292562,-292563 -473746,-697332 -473746,-1143912 0,-446580 181184,-851349 473746,-1143912 292563,-292680 697332,-473864 1144030,-473864zm-1329347 -1578444l2649481 -3898 1876086 1870653 3898 2649481 -1870653 1876086 -2649481 3898 -1876086 -1870653 -3898 -2649481 1870653 -1876086zm1324623 374414l-1167653 1771 -1650965 1655808 3425 2336604 1655690 1650965 2336722 -3425 1650965 -1655690 -3425 -2336604 -1655690 -1651083 -1168951 1654 -118 0zm-751663 1809825l1768486 1768368c157915,-210711 251342,-472446 251342,-756387 0,-349256 -141380,-665087 -369926,-893279 -228901,-228664 -544849,-370162 -893515,-370162 -283586,0 -545558,93545 -756387,251460zm1518444 2019592l-1769786 -1769668c-160396,211775 -255712,475754 -255712,762057 0,348784 141498,664733 370044,893279 228546,228546 544495,370044 893397,370044 286067,0 550164,-95316 762057,-255712z"/>
 </g>
</svg>
