<?xml version="1.0" encoding="UTF-8"?>
<!DOCTYPE svg PUBLIC "-//W3C//DTD SVG 1.1//EN" "http://www.w3.org/Graphics/SVG/1.1/DTD/svg11.dtd">
<!-- Creator: CorelDRAW X8 -->
<svg xmlns="http://www.w3.org/2000/svg" xml:space="preserve" width="64px" height="64px" version="1.1" shape-rendering="geometricPrecision" text-rendering="geometricPrecision" image-rendering="optimizeQuality" fill-rule="evenodd" clip-rule="evenodd"
viewBox="0 0 6400000 6400000"
 xmlns:xlink="http://www.w3.org/1999/xlink">
 <g id="Warstwa_x0020_1">
  <metadata id="CorelCorpID_0Corel-Layer"/>
  <path fill="{color}" fill-rule="nonzero" d="M3199882 1582342c446580,0 851349,181184 1143912,473746 292562,293390 473864,697922 473864,1143912 0,445990 -181302,850522 -474219,1143557 -292208,292917 -696977,474101 -1143557,474101 -446580,0 -851349,-181184 -1143912,-473746 -292562,-292563 -473746,-697332 -473746,-1143912 0,-446580 181184,-851349 473746,-1143912 292563,-292562 697332,-473746 1143912,-473746zm893633 724379c-228901,-228546 -544849,-370044 -893633,-370044 -348784,0 -664733,141498 -893279,370044 -228546,228546 -370044,544495 -370044,893279 0,348784 141498,664733 370044,893279 228546,228546 544495,370044 893279,370044 348784,0 664732,-141498 893279,-370044 228900,-228192 370162,-544023 370162,-893279 0,-349256 -141262,-665087 -369808,-893279z"/>
  <polygon fill="{color}" fill-rule="nonzero" points="2306721,2051128 4469110,4213516 4333754,4348872 4208438,4223556 4093161,4338833 2056088,2301761 "/>
  <path fill="{color}" d="M1870653 3898l2649363 -3898 1876086 1870653 3898 2649363 -1870653 1876086 -2649363 3898 -1876086 -1870653 -3898 -2649363 1870653 -1876086zm1324623 374414l-1167653 1771 -1650965 1655690 3425 2336604 1655690 1650965 2336604 -3425 1650965 -1655690 -3425 -2336604 -1655690 -1650965 -1168951 1654z"/>
 </g>
</svg>
