<?xml version="1.0" encoding="UTF-8"?>
<!DOCTYPE svg PUBLIC "-//W3C//DTD SVG 1.1//EN" "http://www.w3.org/Graphics/SVG/1.1/DTD/svg11.dtd">
<svg xmlns="http://www.w3.org/2000/svg" xml:space="preserve" width="64px" height="64px" version="1.1" shape-rendering="geometricPrecision" text-rendering="geometricPrecision" image-rendering="optimizeQuality" fill-rule="evenodd" clip-rule="evenodd"
viewBox="0 0 6400000 6400000"
 xmlns:xlink="http://www.w3.org/1999/xlink">
 <g id="Warstwa_1">   
  <path fill="{color}" d="M3240985 400162c1527538,21733 2759089,1267103 2759089,2799720 0,1546318 -1253638,2799956 -2799956,2799956 -1546318,0 -2799956,-1253638 -2799956,-2799956l1041155 118 -6260 -797490 902373 -2480 6969 -1007021 893161 6969 3425 -999816zm1646949 3092991c165711,0 300122,134411 300122,300122 0,165711 -134411,300122 -300122,300122 -165711,0 -300122,-134411 -300122,-300122 0,-165711 134411,-300122 300122,-300122zm-837884 1003477c165711,0 300122,134411 300122,300122 0,165711 -134411,300122 -300122,300122 -165711,0 -300122,-134411 -300122,-300122 0,-165711 134411,-300122 300122,-300122zm649968 -1996796c165711,0 300122,134411 300122,300122 0,165710 -134411,300122 -300122,300122 -165710,0 -300121,-134412 -300121,-300122 0,-165711 134411,-300122 300121,-300122zm-818277 874971c165710,0 300121,134411 300121,300122 0,165711 -134411,300122 -300121,300122 -165711,0 -300122,-134411 -300122,-300122 0,-165711 134411,-300122 300122,-300122zm-981863 825010c165711,0 300122,134412 300122,300122 0,165711 -134411,300122 -300122,300122 -165711,0 -300122,-134411 -300122,-300122 0,-165710 134411,-300122 300122,-300122zm1463995 -2599874c165710,0 300121,134411 300121,300122 0,165710 -134411,300122 -300121,300122 -165711,0 -300122,-134412 -300122,-300122 0,-165711 134411,-300122 300122,-300122zm-865050 743631c165710,0 300121,134411 300121,300122 0,165711 -134411,300122 -300121,300122 -165711,0 -300122,-134411 -300122,-300122 0,-165711 134411,-300122 300122,-300122zm-811900 750364c165711,0 300122,134411 300122,300122 0,165710 -134411,300121 -300122,300121 -165711,0 -300122,-134411 -300122,-300121 0,-165711 134411,-300122 300122,-300122zm-786978 905916c165710,0 300121,134411 300121,300122 0,165711 -134411,300122 -300121,300122 -165711,0 -300122,-134411 -300122,-300122 0,-165711 134411,-300122 300122,-300122zm1341040 -3599690c13701,0 -13347,-118 0,0zm1669154 1114030c-338272,-343233 -779065,-585362 -1272299,-676190l-3307 963556 -894460 -7087 -6969 1002886 -896467 2481 6260 798553 -1009855 -118c84095,503155 324689,953515 669929,1298756 434179,434178 1034422,702882 1697147,702882 662725,0 1262968,-268704 1697147,-702882 434179,-434179 702883,-1034422 702883,-1697147 0,-657410 -263389,-1252811 -690009,-1685690z"/>
 </g>
</svg>
