<?xml version="1.0" encoding="UTF-8"?>
<!DOCTYPE svg PUBLIC "-//W3C//DTD SVG 1.1//EN" "http://www.w3.org/Graphics/SVG/1.1/DTD/svg11.dtd">
<!-- Creator: CorelDRAW X8 -->
<svg xmlns="http://www.w3.org/2000/svg" xml:space="preserve" width="64px" height="64px" version="1.1" shape-rendering="geometricPrecision" text-rendering="geometricPrecision" image-rendering="optimizeQuality" fill-rule="evenodd" clip-rule="evenodd"
viewBox="0 0 6400000 6400000"
 xmlns:xlink="http://www.w3.org/1999/xlink">
 <g id="Warstwa_x0020_1">
  <metadata id="CorelCorpID_0Corel-Layer"/>
  <path fill="{color}" d="M3200000 0c1767305,0 3200000,1432695 3200000,3200000 0,1767423 -1432695,3200118 -3200000,3200118 -1767423,0 -3200118,-1432695 -3200118,-3200118l731347 -90592 -85631 -1133281 1105172 121537 -50788 -597646 853829 113742 -181892 -785679 1023438 -7677 -195357 -820404zm558668 2023017c194176,0 351501,157325 351501,351500 0,194176 -157325,351501 -351501,351501 -194175,0 -351500,-157325 -351500,-351501 0,-194175 157325,-351500 351500,-351500zm-1461159 703709c194175,0 351500,157325 351500,351501 0,194175 -157325,351500 -351500,351500 -194176,0 -351501,-157325 -351501,-351500 0,-194176 157325,-351501 351501,-351501zm2031521 546858c194175,0 351500,157324 351500,351500 0,194176 -157325,351500 -351500,351500 -194176,0 -351501,-157324 -351501,-351500 0,-194176 157325,-351500 351501,-351500zm226538 -2319950c194175,0 351500,157325 351500,351500 0,194176 -157325,351501 -351500,351501 -194176,0 -351501,-157325 -351501,-351501 0,-194175 157325,-351500 351501,-351500zm617252 1194463c194175,0 351500,157325 351500,351501 0,194175 -157325,351500 -351500,351500 -194176,0 -351501,-157325 -351501,-351500 0,-194176 157325,-351501 351501,-351501zm109489 1547500c194176,0 351500,157324 351500,351500 0,194176 -157324,351500 -351500,351500 -194176,0 -351500,-157324 -351500,-351500 0,-194176 157324,-351500 351500,-351500zm-1109423 937334c194176,0 351500,157325 351500,351500 0,194176 -157324,351501 -351500,351501 -194176,0 -351500,-157325 -351500,-351501 0,-194175 157324,-351500 351500,-351500zm-1671989 250042c194176,0 351500,157325 351500,351501 0,194175 -157324,351500 -351500,351500 -194176,0 -351500,-157325 -351500,-351500 0,-194176 157324,-351501 351500,-351501zm-921862 -1148399c194176,0 351501,157324 351501,351500 0,194176 -157325,351500 -351501,351500 -194175,0 -351500,-157324 -351500,-351500 0,-194176 157325,-351500 351500,-351500zm1593799 54685c194176,0 351501,157325 351501,351501 0,194175 -157325,351500 -351501,351500 -194175,0 -351500,-157325 -351500,-351500 0,-194176 157325,-351501 351500,-351501zm2007190 -2569283c-390831,-390832 -896704,-666623 -1462577,-772333l182719 767490 -1027335 7559 199726 862334 -932255 -124254 49961 586779 -1110132 -122127 78190 1033831 -736780 91419c79016,633196 369453,1200605 798317,1629468 506699,506700 1206865,820050 1980142,820050 773277,0 1473325,-313468 1980024,-820168 506700,-506699 820050,-1206747 820050,-1980024 0,-773277 -313350,-1473325 -820050,-1980024z"/>
 </g>
</svg>
