<?xml version="1.0" encoding="UTF-8"?>
<!DOCTYPE svg PUBLIC "-//W3C//DTD SVG 1.1//EN" "http://www.w3.org/Graphics/SVG/1.1/DTD/svg11.dtd">
<svg xmlns="http://www.w3.org/2000/svg" xml:space="preserve" width="64px" height="64px" version="1.1" shape-rendering="geometricPrecision" text-rendering="geometricPrecision" image-rendering="optimizeQuality" fill-rule="evenodd" clip-rule="evenodd"
viewBox="0 0 6400000 6400000"
 xmlns:xlink="http://www.w3.org/1999/xlink">
 <g id="Warstwa">
    <path fill="{color}" d="M3200000 400044c1546318,0 2799956,1253638 2799956,2799956 0,1546436 -1253638,2800074 -2799956,2800074 -1546436,0 -2800074,-1253638 -2800074,-2800074l639929 -79253 -74882 -991666 966980 106419 -44410 -522999 747056 99569 -159214 -687529 895523 -6614 -170908 -717883zm887846 3463980c-33898,166419 -196184,273901 -362603,240121 -166538,-33898 -274019,-196065 -240239,-362603 33898,-166537 196183,-274019 362721,-240239 166419,33898 273901,196183 240121,362721zm-1182535 -397682c-33898,166419 -196183,273901 -362721,240121 -166419,-33898 -273901,-196065 -240121,-362603 33898,-166537 196066,-274019 362603,-240121 166538,33898 274019,196065 240239,362603zm970642 -765600c-33898,166537 -196065,274019 -362603,240121 -166537,-33898 -274019,-196065 -240239,-362603 33898,-166537 196184,-274019 362721,-240121 166420,33898 273901,196065 240121,362603zm857609 -739379c-33898,166537 -196183,274019 -362603,240239 -166537,-33898 -274019,-196184 -240239,-362721 33898,-166419 196184,-273901 362603,-240121 166537,33898 274019,196183 240239,362603zm519573 1086155c-33898,166419 -196065,273901 -362602,240121 -166538,-33898 -274020,-196184 -240121,-362603 33898,-166537 196065,-274019 362602,-240239 166538,33898 274020,196183 240121,362721zm-154490 1182652c-33898,166420 -196065,273901 -362602,240121 -166538,-33898 -274020,-196065 -240240,-362603 33898,-166537 196184,-274019 362721,-240121 166420,33898 273901,196066 240121,362603zm-959657 774104c-33898,166538 -196184,274019 -362603,240239 -166537,-33898 -274019,-196301 -240239,-362721 33898,-166537 196183,-274019 362721,-240121 166419,33780 273901,196184 240121,362603zm-2528771 -1182888c169962,0 307563,137718 307563,307562 0,169963 -137601,307563 -307563,307563 -169845,0 -307563,-137600 -307563,-307563 0,-169844 137718,-307562 307563,-307562zm981390 725796c169844,0 307563,137718 307563,307563 0,169962 -137719,307563 -307563,307563 -169963,0 -307563,-137601 -307563,-307563 0,-169845 137600,-307563 307563,-307563zm2340855 -3079644c-341933,-342052 -784616,-583354 -1279740,-675835l159923 671583 -898948 6614 174806 754497 -815680 -108662 43702 513431 -971351 -106891 68387 904618 -644654 79961c69095,554062 323272,1050486 698513,1425726 443391,443392 1055918,717529 1732580,717529 676662,0 1289189,-274255 1732462,-717647 443392,-443273 717529,-1055800 717529,-1732462 0,-676662 -274137,-1289189 -717529,-1732462z"/>
 </g>
</svg>
