<?xml version="1.0" encoding="UTF-8"?>
<!DOCTYPE svg PUBLIC "-//W3C//DTD SVG 1.1//EN" "http://www.w3.org/Graphics/SVG/1.1/DTD/svg11.dtd">
<svg xmlns="http://www.w3.org/2000/svg" xml:space="preserve" width="64px" height="64px" version="1.1" shape-rendering="geometricPrecision" text-rendering="geometricPrecision" image-rendering="optimizeQuality" fill-rule="evenodd" clip-rule="evenodd"
viewBox="0 0 6400000 6400000"
 xmlns:xlink="http://www.w3.org/1999/xlink">
 <g id="Warstwa">
  <rect fill="#0D47A1" x="400037" y="400037" width="5599926" height="5599926"/>
  <path fill="#FFFFFF" fill-rule="nonzero" d="M3426184 1369269l0 1446396c0,75827 -1654,150001 -5197,222522 -3307,72521 -7677,144923 -12874,218270 -4961,73348 -10985,148349 -18780,225121 -7677,76655 -17126,159215 -27402,246854l-308626 0c-10275,-87639 -18898,-170199 -26575,-246854 -7795,-76772 -14646,-151773 -19725,-225121 -5078,-73347 -9448,-145749 -12874,-218270 -3425,-72521 -5078,-146695 -5078,-222522l0 -1446396 437131 0zm-547802 3345395c0,-43819 8504,-85158 24921,-123899 16300,-38740 38505,-72520 67678,-101103 29056,-28702 63426,-51497 102049,-68269 38504,-16890 80552,-25394 126852,-25394 44528,0 86576,8504 125198,25394 38505,16772 72048,39567 101104,68269 29173,28583 52323,62363 69450,101103 17126,38741 25748,80080 25748,123899 0,45473 -8622,86812 -25748,124726 -17127,37914 -40277,71694 -69450,100277 -29056,28701 -62599,50670 -101104,66615 -38622,16063 -80670,24449 -125198,24449 -46300,0 -88348,-8386 -126852,-24449 -38623,-15945 -72993,-37914 -102049,-66615 -29173,-28583 -51378,-62363 -67678,-100277 -16417,-37914 -24921,-79253 -24921,-124726z"/>
 </g>
</svg>
