<?xml version="1.0" encoding="UTF-8"?>
<!DOCTYPE svg PUBLIC "-//W3C//DTD SVG 1.1//EN" "http://www.w3.org/Graphics/SVG/1.1/DTD/svg11.dtd">
<!-- Creator: CorelDRAW X8 -->
<svg xmlns="http://www.w3.org/2000/svg" xml:space="preserve" width="64px" height="64px" version="1.1" shape-rendering="geometricPrecision" text-rendering="geometricPrecision" image-rendering="optimizeQuality" fill-rule="evenodd" clip-rule="evenodd"
viewBox="0 0 6400000 6400000"
 xmlns:xlink="http://www.w3.org/1999/xlink">
 <g id="Warstwa_x0020_1">
  <metadata id="CorelCorpID_0Corel-Layer"/>
  <rect fill="#0D47A1" x="-59" y="-59" width="6400118" height="6400118"/>
  <path fill="#FFFFFF" fill-rule="nonzero" d="M3458546 1107651l0 1653092c0,86694 -2007,171380 -5905,254294 -3898,82796 -8740,165711 -14646,249452 -5906,83859 -12756,169608 -21496,257247 -8977,87639 -19725,182128 -31418,282287l-352800 0c-11693,-100159 -21496,-194648 -30236,-282287 -8977,-87639 -16772,-173388 -22560,-257247 -5905,-83741 -10866,-166656 -14763,-249452 -3898,-82914 -5788,-167600 -5788,-254294l0 -1653092 499612 0zm-625991 3823394c0,-50079 9685,-97206 28346,-141498 18544,-44410 44056,-82914 77363,-115631 33308,-32835 72521,-58820 116577,-78072 44174,-19252 92127,-28937 145041,-28937 50906,0 98977,9685 143033,28937 44056,19252 82324,45237 115631,78072 33308,32717 59765,71221 79372,115631 19606,44292 29409,91419 29409,141498 0,52087 -9803,99332 -29409,142679 -19607,43347 -46064,81851 -79372,114568 -33307,32717 -71575,57875 -115631,76064 -44056,18307 -92127,27993 -143033,27993 -52914,0 -100867,-9686 -145041,-27993 -44056,-18189 -83269,-43347 -116577,-76064 -33307,-32717 -58819,-71221 -77363,-114568 -18661,-43347 -28346,-90592 -28346,-142679z"/>
 </g>
</svg>
