<?xml version="1.0" encoding="UTF-8"?>
<!DOCTYPE svg PUBLIC "-//W3C//DTD SVG 1.1//EN" "http://www.w3.org/Graphics/SVG/1.1/DTD/svg11.dtd">
<!-- Creator: CorelDRAW X8 -->
<svg xmlns="http://www.w3.org/2000/svg" xml:space="preserve" width="64px" height="64px" version="1.1" shape-rendering="geometricPrecision" text-rendering="geometricPrecision" image-rendering="optimizeQuality" fill-rule="evenodd" clip-rule="evenodd"
viewBox="0 0 6400000 6400000"
 xmlns:xlink="http://www.w3.org/1999/xlink">
 <g id="Warstwa_x0020_1">
  <metadata id="CorelCorpID_0Corel-Layer"/>
  <path fill="{color}" fill-rule="nonzero" d="M4049459 4446433l-1954630 1954630 -2095892 -2095892 2095538 -2095656 369807 370044 397564 -398036 155671 155789 2001521 -2001520 1382025 -336855 -281696 1457144 -764183 387879 -236814 442919 -615952 294570 -271894 598472 -348429 117875 -187561 512251 495478 495951 -140553 140435zm-2010851 -690718l605677 605677 -605677 605677 -605677 -605677 605677 -605677zm56339 2079947l1531318 -1531318 -393076 -393430 339926 -929657 336382 -114096 220396 -648905 713395 -261618 167482 -467368 762411 -304846 154018 -653040 -688591 150475 -2221091 2221090 -156498 -156616 -396382 397328 -369454 -369336 -1530845 1530728 1530609 1530609z"/>
 </g>
</svg>
