<?xml version="1.0" encoding="UTF-8"?>
<!DOCTYPE svg PUBLIC "-//W3C//DTD SVG 1.1//EN" "http://www.w3.org/Graphics/SVG/1.1/DTD/svg11.dtd">
<svg xmlns="http://www.w3.org/2000/svg" xml:space="preserve" width="64px" height="64px" version="1.1" shape-rendering="geometricPrecision" text-rendering="geometricPrecision" image-rendering="optimizeQuality" fill-rule="evenodd" clip-rule="evenodd"
viewBox="0 0 6400000 6400000"
 xmlns:xlink="http://www.w3.org/1999/xlink">
 <g id="Warstwa">
   <polygon fill="#FFA726" points="3200000,410674 6000074,5989326 399926,5989326 "/>
  <path fill="#FFFFFF" fill-rule="nonzero" d="M3472838 1878212l0 1282575c0,91300 -2126,180947 -6260,268232 -4016,87402 -9213,174923 -15473,263271 -6259,88465 -13464,178939 -22677,271420 -9449,92482 -20788,192168 -33189,297878l-372170 0c-12402,-105710 -22678,-205396 -31890,-297878 -9568,-92481 -17717,-182955 -23859,-271420 -6260,-88348 -11575,-175869 -15591,-263271 -4134,-87285 -6142,-176814 -6142,-268232l0 -1282575 527251 0zm-660481 3160315c0,-52796 10276,-102521 29883,-149294 19488,-46654 46536,-87402 81615,-122009 35079,-34489 76536,-62127 122954,-82324 46536,-20315 97206,-30591 153073,-30591 53741,0 104529,10276 150947,30591 46299,20315 86812,47835 122009,82324 34961,34607 63072,75355 83741,122009 20552,46773 30945,96498 30945,149294 0,55040 -10275,104883 -30945,150592 -20669,45709 -48662,86340 -83741,120828 -35197,34607 -75710,61064 -122009,80316 -46536,19134 -97206,29528 -150947,29528 -55867,0 -106419,-10394 -153073,-29528 -46300,-19252 -87875,-45709 -122954,-80316 -35197,-34488 -62127,-75237 -81615,-120828 -19607,-45709 -29883,-95552 -29883,-150592z"/>
 </g>
</svg>
