<?xml version="1.0" encoding="UTF-8"?>
<!DOCTYPE svg PUBLIC "-//W3C//DTD SVG 1.1//EN" "http://www.w3.org/Graphics/SVG/1.1/DTD/svg11.dtd">
<!-- Creator: CorelDRAW X8 -->
<svg xmlns="http://www.w3.org/2000/svg" xml:space="preserve" width="64px" height="64px" version="1.1" shape-rendering="geometricPrecision" text-rendering="geometricPrecision" image-rendering="optimizeQuality" fill-rule="evenodd" clip-rule="evenodd"
viewBox="0 0 6400000 6400000"
 xmlns:xlink="http://www.w3.org/1999/xlink">
 <g id="Warstwa_x0020_1">
  <metadata id="CorelCorpID_0Corel-Layer"/>
  <path fill="black" d="M2262548 2723301l288428 288547 2535504 -2535622 1313520 -476226 -118 1522932 -1467065 1473680 -367682 -371343 -1200369 1200369 594692 594574 -1979788 1979788 -1979670 -1979670 1979788 -1979788 282760 282759zm-282760 282760l571188 571306 2828657 -2833263 653985 -232917 2716 823121 -1103399 1096549 -369454 -369454 -1764234 1764235 594692 594574 -1414269 1414269 -1414151 -1414151 1414269 -1414269z"/>
  <polygon fill="black" points="1979788,3792094 2608024,4420330 1979788,5048684 1351552,4420330 "/>
 </g>
</svg>
