<?xml version="1.0" encoding="UTF-8"?>
<!DOCTYPE svg PUBLIC "-//W3C//DTD SVG 1.1//EN" "http://www.w3.org/Graphics/SVG/1.1/DTD/svg11.dtd">
<!-- Creator: CorelDRAW X8 -->
<svg xmlns="http://www.w3.org/2000/svg" xml:space="preserve" width="64px" height="64px" version="1.1" shape-rendering="geometricPrecision" text-rendering="geometricPrecision" image-rendering="optimizeQuality" fill-rule="evenodd" clip-rule="evenodd"
viewBox="0 0 6400000 6400000"
 xmlns:xlink="http://www.w3.org/1999/xlink">
 <g id="Warstwa_x0020_1">
  <metadata id="CorelCorpID_0Corel-Layer"/>
  <g>
   <path fill="{color}" d="M5979522 595637l-574377 -190278 -2249909 2297863 -252169 257602 -235160 -240594 -134766 137600 -251932 257366 -251932 -257366 -67324 -68741 -1468246 1512539 1562736 1593799 1474978 -1503562 -83150 -84804 -242720 -247798 242720 -247799 144096 -147167 -65434 -66733 21024 -167482 53150 -425439 30591 -244845 239413 -56930 454021 -107718 69686 -278271 53504 -214018 216381 -46182 228546 -48662 0 -106655 0 -288429 282287 -57638 278862 -56930 128387 -393784 63662 -195357 202090 -41339 160277 -32717 -29292 -239531zm324453 -265633l-996390 -330004 -2404282 2455424 -235160 -240594 -386934 395202 -320319 -327169 -1960890 2019946 2056325 2097309 1969866 -2008017 -325988 -332838 386816 -394966 -187443 -191341 53150 -425438 663315 -157443 122009 -487329 507999 -108308 118 -393076 480833 -98151 192167 -589259 480833 -98151 -96025 -785797z"/>
  </g>
  <g>
   <path fill="{color}" d="M2074986 3375750l914303 933791 -914303 933673 -914302 -933673 914302 -933791zm419769 933791l-419769 -428745 -419769 428745 419769 428628 419769 -428628z"/>
  </g>
 </g>
</svg>
