<?xml version="1.0" encoding="UTF-8"?>
<!DOCTYPE svg PUBLIC "-//W3C//DTD SVG 1.1//EN" "http://www.w3.org/Graphics/SVG/1.1/DTD/svg11.dtd">
<svg xmlns="http://www.w3.org/2000/svg" xml:space="preserve" width="64px" height="64px" version="1.1" shape-rendering="geometricPrecision" text-rendering="geometricPrecision" image-rendering="optimizeQuality" fill-rule="evenodd" clip-rule="evenodd"
viewBox="0 0 6400000 6400000"
 xmlns:xlink="http://www.w3.org/1999/xlink">
 <g id="Warstwa">
  <path fill="{color}" d="M4606592 3200000l-5433 -1045288c-2126,-387997 -160159,-740206 -414690,-995091 -252995,-252759 -602370,-409021 -989422,-409021l-6496 0 0 -1299c-384572,1299 -734300,158505 -988122,412209 -252051,251578 -408194,600008 -408194,985524l0 6496 -1418 0 3662 1046470 2810113 0zm-3378703 1652501l3944222 0 0 -1302536 -3944222 0 0 1302536zm3944222 349965l-3944222 0 0 447643 3944222 0 0 -447643zm-3724888 -2002466l-3662 -1046470c-3425,-968397 785207,-1753486 1753486,-1753486 968162,0 1748289,785089 1753250,1753486l5433 1046470 566346 0 0 2799956 -4644152 0 0 -2799956 569299 0z"/>
 </g>
</svg>
