<?xml version="1.0" encoding="UTF-8"?>
<!DOCTYPE svg PUBLIC "-//W3C//DTD SVG 1.1//EN" "http://www.w3.org/Graphics/SVG/1.1/DTD/svg11.dtd">
<!-- Creator: CorelDRAW X8 -->
<svg xmlns="http://www.w3.org/2000/svg" xml:space="preserve" width="64px" height="64px" version="1.1" shape-rendering="geometricPrecision" text-rendering="geometricPrecision" image-rendering="optimizeQuality" fill-rule="evenodd" clip-rule="evenodd"
viewBox="0 0 6400000 6400000"
 xmlns:xlink="http://www.w3.org/1999/xlink">
 <g id="Warstwa_x0020_1">
  <metadata id="CorelCorpID_0Corel-Layer"/>
  <polygon fill="#FFA000" points="3200000,556424 5853733,5843576 546267,5843576 "/>
  <path fill="#FFFFFF" fill-rule="nonzero" d="M3458546 1947307l0 1215488c0,86576 -2007,171498 -5905,254294 -3780,82797 -8740,165711 -14646,249452 -5906,83859 -12756,169609 -21496,257247 -8977,87639 -19725,182129 -31418,282287l-352800 0c-11693,-100158 -21496,-194648 -30236,-282287 -8977,-87638 -16772,-173388 -22560,-257247 -5905,-83741 -10984,-166655 -14763,-249452 -3898,-82796 -5788,-167600 -5788,-254294l0 -1215488 499612 0zm-625991 2995195c0,-50080 9803,-97206 28346,-141498 18544,-44292 44174,-82914 77363,-115631 33308,-32717 72521,-58938 116577,-78072 44055,-19252 92127,-28938 145041,-28938 50906,0 99096,9686 143033,28938 43938,19252 82324,45355 115631,78072 33190,32717 59765,71339 79372,115631 19488,44292 29409,91418 29409,141498 0,52087 -9803,99332 -29409,142679 -19607,43347 -46064,81851 -79372,114568 -33307,32717 -71693,57875 -115631,76064 -44056,18189 -92127,27992 -143033,27992 -52914,0 -100867,-9803 -145041,-27992 -43938,-18189 -83269,-43347 -116577,-76064 -33307,-32717 -58819,-71339 -77363,-114568 -18543,-43347 -28346,-90592 -28346,-142679z"/>
 </g>
</svg>
