<?xml version="1.0" encoding="UTF-8"?>
<!DOCTYPE svg PUBLIC "-//W3C//DTD SVG 1.1//EN" "http://www.w3.org/Graphics/SVG/1.1/DTD/svg11.dtd">
<svg xmlns="http://www.w3.org/2000/svg" xml:space="preserve" width="64px" height="64px" version="1.1" shape-rendering="geometricPrecision" text-rendering="geometricPrecision" image-rendering="optimizeQuality" fill-rule="evenodd" clip-rule="evenodd"
viewBox="0 0 6400000 6400000"
 xmlns:xlink="http://www.w3.org/1999/xlink">
 <g id="Warstwa_1">   
  <polygon fill="#FFA726" points="3200000,410674 6000074,5989326 399926,5989326 "/>
  <path fill="#FFFFFF" fill-rule="nonzero" d="M3403506 2100026l-3543 2592551 -399926 -590 0 -2591961 403469 0zm-523825 3211339c0,-43584 8622,-84687 24804,-123309 16063,-38623 38504,-72284 67323,-100749 29056,-28583 63308,-51379 101694,-68033 38387,-16772 80316,-25276 126380,-25276 44410,0 86340,8504 124726,25276 38268,16772 71694,39450 100749,68033 28937,28465 52087,62126 69214,100749 17008,38622 25630,79725 25630,123309 0,45473 -8622,86575 -25630,124371 -17127,37796 -40158,71340 -69214,99923 -29055,28465 -62481,50433 -100749,66260 -38386,15827 -80316,24449 -124726,24449 -46064,0 -87875,-8622 -126380,-24449 -38268,-15827 -72638,-37795 -101694,-66260 -28937,-28583 -51260,-62245 -67323,-99923 -16182,-37796 -24804,-78898 -24804,-124371z"/>
 </g>
</svg>
