<?xml version="1.0" encoding="UTF-8"?>
<!DOCTYPE svg PUBLIC "-//W3C//DTD SVG 1.1//EN" "http://www.w3.org/Graphics/SVG/1.1/DTD/svg11.dtd">
<!-- Creator: CorelDRAW X8 -->
<svg xmlns="http://www.w3.org/2000/svg" xml:space="preserve" width="64px" height="64px" version="1.1" shape-rendering="geometricPrecision" text-rendering="geometricPrecision" image-rendering="optimizeQuality" fill-rule="evenodd" clip-rule="evenodd"
viewBox="0 0 6400000 6400000"
 xmlns:xlink="http://www.w3.org/1999/xlink">
 <g id="Warstwa_x0020_1">
  <metadata id="CorelCorpID_0Corel-Layer"/>
  <path fill="{color}" d="M2262548 2723301l288428 288547 2535504 -2535622 1313520 -476226 -118 1522932 -1413443 1507814 -415871 -410911 -1205802 1205803 594692 594574 -1979788 1979788 -1979670 -1979670 1979788 -1979788 282760 282759zm-282760 1068793l628236 628236 -628236 628354 -628236 -628354 628236 -628236zm3481933 -1839235l-407958 -387997 274964 -288901 404414 384689 303193 -326342 -2716 -823121 -653985 232917 -2828657 2833263 -571188 -571306 -1414269 1414269 1414151 1414151 1414269 -1414269 -594692 -594574 1764234 -1764235 413509 413273 484731 -521817z"/>
 </g>
</svg>
