<?xml version="1.0" encoding="UTF-8"?>
<!DOCTYPE svg PUBLIC "-//W3C//DTD SVG 1.1//EN" "http://www.w3.org/Graphics/SVG/1.1/DTD/svg11.dtd">
<svg xmlns="http://www.w3.org/2000/svg" xml:space="preserve" width="64px" height="64px" version="1.1" shape-rendering="geometricPrecision" text-rendering="geometricPrecision" image-rendering="optimizeQuality" fill-rule="evenodd" clip-rule="evenodd"
viewBox="0 0 6400000 6400000"
 xmlns:xlink="http://www.w3.org/1999/xlink">
 <g id="Warstwa_1">
   <path fill="{color}" d="M1591555 3200000c-1063,-369571 -1654,-1173085 -1654,-1197062 0,-885365 717647,-1603012 1603012,-1603012 885366,0 1603012,717647 1603012,1603012 0,24803 -590,825719 -1653,1197062 268704,0 537526,0 806230,0l0 2799956 -4800886 0 0 -2799956c263980,0 527959,0 791939,0zm-392013 1400096l4001034 0 0 -1000170 -4001034 0 0 1000170zm4001034 399926l-4001034 0 0 600008 4001034 0 0 -600008zm399926 -1800022l-1181 0c-298705,0 -597527,0 -896232,0l-150120 0 -156025 0c-798081,0 -1596280,0 -2394360,0l-156262 0 -150356 0c-298823,0 -597527,0 -896350,0l4800886 0zm-3608430 0l2401919 0c1299,-367682 2008,-1173794 2008,-1197062 0,-332248 -134765,-633197 -352327,-850758 -217562,-217562 -518511,-352328 -850759,-352328 -332248,0 -633196,134766 -850758,352328 -217562,217561 -352327,518510 -352327,850758 0,24803 826,825719 2244,1197062z"/>
 </g>
</svg>
