<?xml version="1.0" encoding="UTF-8"?>
<!DOCTYPE svg PUBLIC "-//W3C//DTD SVG 1.1//EN" "http://www.w3.org/Graphics/SVG/1.1/DTD/svg11.dtd">
<!-- Creator: CorelDRAW X8 -->
<svg xmlns="http://www.w3.org/2000/svg" xml:space="preserve" width="64px" height="64px" version="1.1" shape-rendering="geometricPrecision" text-rendering="geometricPrecision" image-rendering="optimizeQuality" fill-rule="evenodd" clip-rule="evenodd"
viewBox="0 0 6400000 6400000"
 xmlns:xlink="http://www.w3.org/1999/xlink">
 <g id="Warstwa_x0020_1">
  <metadata id="CorelCorpID_0Corel-Layer"/>
  <polygon fill="{color}" points="1115683,5073488 0,5073488 0,1326512 6400000,1326512 6400000,5073488 5284317,5073488 5284317,4737106 6063618,4737106 6063618,1662894 336382,1662894 336382,4737106 1115683,4737106 "/>
  <path fill="{color}" d="M1358757 1308559l3626147 0 0 -947728 -3626147 0 0 947728zm-354335 354335l4334817 0 0 -1656398 -4334817 0 0 1656398z"/>
  <path fill="{color}" d="M1004422 3599218l4391156 0 0 2095773 -898239 698631 -3492917 0 0 -2794404zm4036821 354335l-3682486 0 0 2085734 3017399 0 665087 -517329 0 -1568405z"/>
  <polygon fill="{color}" points="5195969,1825298 5794796,1825298 5794796,2179633 5195969,2179633 "/>
 </g>
</svg>
