<?xml version="1.0" encoding="UTF-8"?>
<!DOCTYPE svg PUBLIC "-//W3C//DTD SVG 1.1//EN" "http://www.w3.org/Graphics/SVG/1.1/DTD/svg11.dtd">
<svg xmlns="http://www.w3.org/2000/svg" xml:space="preserve" width="64px" height="64px" version="1.1" shape-rendering="geometricPrecision" text-rendering="geometricPrecision" image-rendering="optimizeQuality" fill-rule="evenodd" clip-rule="evenodd"
viewBox="0 0 6400000 6400000"
 xmlns:xlink="http://www.w3.org/1999/xlink">
 <g id="Warstwa_1">   
  <path fill="{color}" d="M1599941 2003056l3200118 0 0 396974 -3200118 0 0 -396974zm1400096 2797003l0 601070 -400044 0 0 -601070 400044 0zm-999934 799971l0 -1399978 2599875 0 0 1399978 1000052 0 0 -4800060 -4800060 0 0 3834496 965564 965564 234569 0zm2199949 0l0 -1000052 -1800022 0 0 1000052 1800022 0zm-3800008 -5199986l5599912 0 0 5599912 -4400015 0 -1199897 -1199897 0 -4400015zm1199897 799853l3200118 0 0 400044 -3200118 0 0 -400044z"/>
 </g>
</svg>
