<?xml version="1.0" encoding="UTF-8"?>
<!DOCTYPE svg PUBLIC "-//W3C//DTD SVG 1.1//EN" "http://www.w3.org/Graphics/SVG/1.1/DTD/svg11.dtd">
<!-- Creator: CorelDRAW X8 -->
<svg xmlns="http://www.w3.org/2000/svg" xml:space="preserve" width="64px" height="64px" version="1.1" shape-rendering="geometricPrecision" text-rendering="geometricPrecision" image-rendering="optimizeQuality" fill-rule="evenodd" clip-rule="evenodd"
viewBox="0 0 6400000 6400000"
 xmlns:xlink="http://www.w3.org/1999/xlink">
 <g id="Warstwa_x0020_1">
  <metadata id="CorelCorpID_0Corel-Layer"/>
  <g id="_2194388077760">
   <path fill="#101010" d="M2097782 5497627c1265330,1138951 2657395,1265448 4302336,0 -1518444,-1138833 -2910508,-1138833 -4302336,0zm2151168 -427919c249688,0 452013,202325 452013,451895 0,249688 -202325,452014 -452013,452014 -249688,0 -452014,-202326 -452014,-452014 0,-249570 202326,-451895 452014,-451895z"/>
   <polygon fill="#101010" points="1115683,5073488 0,5073488 0,1326512 6400000,1326512 6400000,5073488 5284317,5073488 5284317,4737106 6063618,4737106 6063618,1662894 336382,1662894 336382,4737106 1115683,4737106 "/>
   <path fill="#101010" d="M1358757 1308559l3626147 0 0 -947728 -3626147 0 0 947728zm-354335 354335l4334817 0 0 -1656398 -4334817 0 0 1656398z"/>
   <path fill="#101010" d="M1004422 3599218l4391156 0 0 1303716 -1915299 113624 641110 1377064 -3116967 0 0 -2794404zm4036821 354335l-3682486 0 0 2085734 2328926 0 -442210 -1084147 1795770 -83623 0 -917964z"/>
   <polygon fill="#101010" points="4982305,1920496 5794796,1920496 5794796,2274831 4982305,2274831 "/>
  </g>
 </g>
</svg>
