<?xml version="1.0" encoding="UTF-8"?>
<!DOCTYPE svg PUBLIC "-//W3C//DTD SVG 1.1//EN" "http://www.w3.org/Graphics/SVG/1.1/DTD/svg11.dtd">
<svg xmlns="http://www.w3.org/2000/svg" xml:space="preserve" width="64px" height="64px" version="1.1" shape-rendering="geometricPrecision" text-rendering="geometricPrecision" image-rendering="optimizeQuality" fill-rule="evenodd" clip-rule="evenodd"
viewBox="0 0 6400000 6400000"
 xmlns:xlink="http://www.w3.org/1999/xlink">
 <g id="Warstwa">
   <path fill="{color}" d="M4759547 2074750l710914 0 0 310043 -710914 0 0 -310043zm-3480634 891389l3842174 0 0 1573129 584534 0 0 -2689875 -633787 0 -3792921 0 -584534 0 0 2689875 584534 0 0 -1573129zm3798945 1867464l118 435005 -838947 731348 -2960116 0 0 -1166353 -878869 0 0 -3278544 878869 0 0 -1155015 3792921 0 0 1155015 928122 0 0 3278544 -922098 0zm-266815 -1557421l-3222086 0 0 2413731 2533377 0 689300 -585480 -591 -1828251zm-3222086 -1736832l3172834 0 0 -829263 -3172834 0 0 829263z"/>
 </g>
</svg>
