<?xml version="1.0" encoding="UTF-8"?>
<!DOCTYPE svg PUBLIC "-//W3C//DTD SVG 1.1//EN" "http://www.w3.org/Graphics/SVG/1.1/DTD/svg11.dtd">
<!-- Creator: CorelDRAW X8 -->
<svg xmlns="http://www.w3.org/2000/svg" xml:space="preserve" width="64px" height="64px" version="1.1" shape-rendering="geometricPrecision" text-rendering="geometricPrecision" image-rendering="optimizeQuality" fill-rule="evenodd" clip-rule="evenodd"
viewBox="0 0 6400000 6400000"
 xmlns:xlink="http://www.w3.org/1999/xlink">
 <g id="Warstwa_x0020_1">
  <metadata id="CorelCorpID_0Corel-Layer"/>
  <path fill="#101010" d="M4982305 1914000l812491 0 0 354335 -572606 0c-74883,-72284 -154962,-139136 -239885,-199845l0 -154490zm1129857 4480921l-1349190 -1349308c-271893,215554 -615244,344650 -988122,344650 -438077,0 -835641,-178112 -1123833,-465950 -288665,-289020 -466778,-686584 -466778,-1124660 0,-438194 178349,-835876 466424,-1124069 287365,-288311 685165,-466423 1124187,-466423 438076,0 835522,178112 1123714,465951 288665,289019 466778,686701 466778,1124541 0,360595 -120120,693316 -322563,960248l1352142 1352261 -282759 282759zm-1495176 -3437522c-215081,-215200 -512841,-348312 -842136,-348312 -328705,0 -626465,133348 -841901,348784 -215671,214727 -348783,512487 -348783,841782 0,329295 133112,627173 347957,841900 215554,215672 513313,348784 842727,348784 329295,0 627055,-133112 841782,-347957 215435,-216263 348783,-514022 348783,-842727 0,-329177 -133111,-627055 -348429,-842254zm-3612564 -24686l797254 0c-50552,113269 -91537,231617 -121892,354335l-321027 0 0 2758617 3017399 0 206932 -1890 397682 356225 -3976348 0 0 -1333009 -1004422 0 0 -3746975 1004422 0 0 -1320016 4334817 0 0 1320016 1060761 0 0 3746975 -192522 0 -356225 -336382 212365 0 0 -3074211 -724379 0 -4334817 0 -668040 0 0 3074211 668040 0 0 -1797896zm354335 -1630650l3626147 0 0 -947728 -3626147 0 0 947728z"/>
 </g>
</svg>
