<?xml version="1.0" encoding="UTF-8"?>
<!DOCTYPE svg PUBLIC "-//W3C//DTD SVG 1.1//EN" "http://www.w3.org/Graphics/SVG/1.1/DTD/svg11.dtd">
<!-- Creator: CorelDRAW X8 -->
<svg xmlns="http://www.w3.org/2000/svg" xml:space="preserve" width="64px" height="64px" version="1.1" shape-rendering="geometricPrecision" text-rendering="geometricPrecision" image-rendering="optimizeQuality" fill-rule="evenodd" clip-rule="evenodd"
viewBox="0 0 6400000 6400000"
 xmlns:xlink="http://www.w3.org/1999/xlink">
 <g id="Warstwa_x0020_1">
  <metadata id="CorelCorpID_0Corel-Layer"/>
  <path fill="{color}" d="M0 0l6400000 0 0 4400015 -1238992 1999985 -5161008 0 0 -6400000zm5807434 4599978l-641819 0 0 1036076 641819 -1036076zm-1041745 1400096l0 -1800022 1234385 0 0 -3800126 -5600148 0 0 5600148 4365763 0z"/>
  <polygon fill="#43A047" fill-rule="nonzero" points="5653416,1930299 4830178,1930299 4830178,2753538 4475842,2753538 4475842,1930299 3668903,1930299 3668903,1575964 4475842,1575964 4475842,769025 4830178,769025 4830178,1575964 5653416,1575964 "/>
 </g>
</svg>
