<?xml version="1.0" encoding="UTF-8"?>
<!DOCTYPE svg PUBLIC "-//W3C//DTD SVG 1.1//EN" "http://www.w3.org/Graphics/SVG/1.1/DTD/svg11.dtd">
<!-- Creator: CorelDRAW X8 -->
<svg xmlns="http://www.w3.org/2000/svg" xml:space="preserve" width="64px" height="64px" version="1.1" shape-rendering="geometricPrecision" text-rendering="geometricPrecision" image-rendering="optimizeQuality" fill-rule="evenodd" clip-rule="evenodd"
viewBox="0 0 6400000 6400000"
 xmlns:xlink="http://www.w3.org/1999/xlink">
 <g id="Warstwa_x0020_1">
  <metadata id="CorelCorpID_0Corel-Layer"/>
  <path fill="{color}" d="M4982305 1914000l812491 0 0 354335 -812491 0 0 -354335zm-3977883 1018713l4391156 0 0 1797896 668040 0 0 -3074211 -724379 0 -4334817 0 -668040 0 0 3074211 668040 0 0 -1797896zm4341667 2134278l-848750 660127 -3492917 0 0 -660127 -1004422 0 0 -3746975 1004422 0 0 -1320016 4334817 0 0 1320016 1060761 0 0 3746975 -1053911 0zm-304846 -1779943l-3682486 0 0 2085735 3017399 0 665087 -517330 0 -1568405zm-3682486 -1984985l3626147 0 0 -947728 -3626147 0 0 947728z"/>
 </g>
</svg>
