<?xml version="1.0" encoding="UTF-8"?>
<!DOCTYPE svg PUBLIC "-//W3C//DTD SVG 1.1//EN" "http://www.w3.org/Graphics/SVG/1.1/DTD/svg11.dtd">
<!-- Creator: CorelDRAW X8 -->
<svg xmlns="http://www.w3.org/2000/svg" xml:space="preserve" width="64px" height="64px" version="1.1" shape-rendering="geometricPrecision" text-rendering="geometricPrecision" image-rendering="optimizeQuality" fill-rule="evenodd" clip-rule="evenodd"
viewBox="0 0 6400000 6400000"
 xmlns:xlink="http://www.w3.org/1999/xlink">
 <g id="Warstwa_x0020_1">
  <metadata id="CorelCorpID_0Corel-Layer"/>
  <path fill="{color}" fill-rule="nonzero" d="M6193895 6378l-6187517 0 0 5588809 798435 798435 5588809 0 0 -6387126 -199727 0 0 -118zm-4690451 920681l3393112 0 0 354335 -3393112 0 0 -354335zm0 1421356l3393112 0 0 354335 -3393112 0 0 -354335zm0 -710442l3393112 0 0 354335 -3393112 0 0 -354335zm-1197535 -1332182l5788182 0 0 5788418 -5189474 0 -598708 -598826 0 -5189592z"/>
  <path fill="{color}" fill-rule="nonzero" d="M1825298 6194013l0 -2173255 3048817 0 0 2173255 -354335 0 0 -1818920 -2340147 0 0 1818920 -354335 0zm676071 -364965l436777 0 0 -1231905 -436777 0 0 1231905z"/>
 </g>
</svg>
