<?xml version="1.0" encoding="UTF-8"?>
<!DOCTYPE svg PUBLIC "-//W3C//DTD SVG 1.1//EN" "http://www.w3.org/Graphics/SVG/1.1/DTD/svg11.dtd">
<!-- Creator: CorelDRAW X8 -->
<svg xmlns="http://www.w3.org/2000/svg" xml:space="preserve" width="64px" height="64px" version="1.1" shape-rendering="geometricPrecision" text-rendering="geometricPrecision" image-rendering="optimizeQuality" fill-rule="evenodd" clip-rule="evenodd"
viewBox="0 0 6400000 6400000"
 xmlns:xlink="http://www.w3.org/1999/xlink">
 <g id="Warstwa_x0020_1">
  <metadata id="CorelCorpID_0Corel-Layer"/>
  <path fill="#101010" d="M0 0l6400000 0 0 4400015 -1238992 1999985 -5161008 0 0 -6400000zm5807434 4599978l-641819 0 0 1036076 641819 -1036076zm-1041745 1400096l0 -1800022 1234385 0 0 -3800126 -5600148 0 0 5600148 4365763 0z"/>
  <polygon fill="#43A047" fill-rule="nonzero" points="5550541,2586646 4316746,2586646 4316746,3820441 3785598,3820441 3785598,2586646 2576252,2586646 2576252,2055498 3785598,2055498 3785598,846152 4316746,846152 4316746,2055498 5550541,2055498 "/>
 </g>
</svg>
