<?xml version="1.0" encoding="UTF-8"?>
<!DOCTYPE svg PUBLIC "-//W3C//DTD SVG 1.1//EN" "http://www.w3.org/Graphics/SVG/1.1/DTD/svg11.dtd">
<!-- Creator: CorelDRAW X8 -->
<svg xmlns="http://www.w3.org/2000/svg" xml:space="preserve" width="64px" height="64px" version="1.1" shape-rendering="geometricPrecision" text-rendering="geometricPrecision" image-rendering="optimizeQuality" fill-rule="evenodd" clip-rule="evenodd"
viewBox="0 0 6400000 6400000"
 xmlns:xlink="http://www.w3.org/1999/xlink">
 <g id="Warstwa_x0020_1">
  <metadata id="CorelCorpID_0Corel-Layer"/>
  <path fill="{color}" d="M4982305 1920496l812491 0 0 354335 -812491 0 0 -354335zm-3977883 1678722l4391156 0 0 1137888 668040 0 0 -3074212 -724379 0 -4334817 0 -668040 0 0 3074212 668040 0 0 -1137888zm4741594 1474270c215553,117285 433469,258664 654102,424139 -868711,668276 -1667028,948318 -2413258,895995l-2982438 0 0 -1320134 -1004422 0 0 -3746976 1004422 0 0 -1320016 4334817 0 0 1320016 1060761 0 0 3746976 -653984 0zm-3648234 424139c243192,218861 491108,400280 744576,541660l-1483601 0 0 -2085734 3682486 0 0 819695c-1009382,-308272 -1976481,-66852 -2943461,724379zm2151168 -427919c249688,0 452013,202325 452013,451895 0,249688 -202325,452014 -452013,452014 -249688,0 -452014,-202326 -452014,-452014 0,-249570 202326,-451895 452014,-451895zm-2890193 -3761149l3626147 0 0 -947728 -3626147 0 0 947728z"/>
 </g>
</svg>
