<?xml version="1.0" encoding="UTF-8"?>
<!DOCTYPE svg PUBLIC "-//W3C//DTD SVG 1.1//EN" "http://www.w3.org/Graphics/SVG/1.1/DTD/svg11.dtd">
<svg xmlns="http://www.w3.org/2000/svg" xml:space="preserve" width="64px" height="64px" version="1.1" shape-rendering="geometricPrecision" text-rendering="geometricPrecision" image-rendering="optimizeQuality" fill-rule="evenodd" clip-rule="evenodd"
viewBox="0 0 6400000 6400000"
 xmlns:xlink="http://www.w3.org/1999/xlink">
 <g id="Warstwa">
    <path fill="{color}" fill-rule="nonzero" d="M3200000 399808l-2799956 0 0 3919300 1463050 1681084 4136862 0 0 -2800192 -293626 0 0 2505031 -3489728 0 0 -1603721 -1522932 2363 0 -3408704 2506330 0 0 -295161zm1576437 350083c-242129,0 -460636,97324 -617724,254531l-1300 1417c-157206,157089 -254530,375477 -254530,617724 0,242129 97324,460636 254530,617724l1300 1300c157088,157206 375595,254530 617724,254530 242129,0 460635,-97324 617724,-254530l1417 -1300c157089,-157088 254531,-375595 254531,-617724 0,-242247 -97442,-460635 -254531,-617724l-1417 -1417c-157089,-157207 -375595,-254531 -617724,-254531zm-732647 1853645l-1143203 1143203 -247444 -247444 1143321 -1143085c-152955,-204333 -243546,-458037 -243546,-732647 0,-675717 547920,-1223637 1223519,-1223637 675717,0 1223519,547920 1223519,1223637 0,675599 -547802,1223519 -1223519,1223519 -274728,0 -528432,-90710 -732647,-243546z"/>
 </g>
</svg>
