<?xml version="1.0" encoding="UTF-8"?>
<!DOCTYPE svg PUBLIC "-//W3C//DTD SVG 1.1//EN" "http://www.w3.org/Graphics/SVG/1.1/DTD/svg11.dtd">
<!-- Creator: CorelDRAW X8 -->
<svg xmlns="http://www.w3.org/2000/svg" xml:space="preserve" width="64px" height="64px" version="1.1" shape-rendering="geometricPrecision" text-rendering="geometricPrecision" image-rendering="optimizeQuality" fill-rule="evenodd" clip-rule="evenodd"
viewBox="0 0 6400000 6400000"
 xmlns:xlink="http://www.w3.org/1999/xlink">
 <g id="Warstwa_x0020_1">
  <metadata id="CorelCorpID_0Corel-Layer"/>
  <path fill="{color}" fill-rule="nonzero" d="M5289632 5006282l1111667 1111667 -282759 282760 -1111549 -1111549c-180593,123426 -390359,184962 -600126,184962 -272720,0 -545558,-104410 -754025,-312759 -209294,-208467 -313704,-481778 -313704,-755088 0,-272602 104410,-545676 313232,-754616 208821,-208703 481895,-313114 754497,-313114 273311,0 546621,104411 754970,312760 208467,209412 312878,482486 312878,754970 0,209766 -61772,419532 -185081,600007zm-307327 -3092400l812491 0 0 354335 -812491 0 0 -354335zm-3977883 1018713l3228110 0c-304373,23859 -602724,142088 -847923,354335l-2025852 0 0 2085735 1881165 0c21260,24212 43229,47835 66379,70985 119056,119056 253467,213546 396855,283350l-2698734 0 0 -660127 -1004422 0 0 -3746975 1004422 0 0 -1320016 4334817 0 0 1320016 1060761 0 0 3746975 -636268 0c54568,-107717 94962,-220750 121301,-336382l178585 0 0 -3074211 -724379 0 -4334817 0 -668040 0 0 3074211 668040 0 0 -1797896zm354335 -1630650l3626147 0 0 -947728 -3626147 0 0 947728zm3048108 2436526c-171144,0 -342287,65316 -472565,195239 -129922,130277 -195238,301421 -195238,472565 0,170907 65316,341933 195593,472210 130041,130396 301066,195711 472210,195711 170790,0 341815,-65315 472093,-195593 130513,-130159 195829,-301184 195829,-472328 0,-171144 -65316,-342170 -195239,-472447 -130749,-130041 -301775,-195357 -472683,-195357z"/>
 </g>
</svg>
