<?xml version="1.0" encoding="UTF-8"?>
<!DOCTYPE svg PUBLIC "-//W3C//DTD SVG 1.1//EN" "http://www.w3.org/Graphics/SVG/1.1/DTD/svg11.dtd">
<!-- Creator: CorelDRAW X8 -->
<svg xmlns="http://www.w3.org/2000/svg" xml:space="preserve" width="64px" height="64px" version="1.1" shape-rendering="geometricPrecision" text-rendering="geometricPrecision" image-rendering="optimizeQuality" fill-rule="evenodd" clip-rule="evenodd"
viewBox="0 0 6400000 6400000"
 xmlns:xlink="http://www.w3.org/1999/xlink">
 <g id="Warstwa_x0020_1">
  <metadata id="CorelCorpID_0Corel-Layer"/>
  <path fill="{color}" fill-rule="nonzero" d="M3200000 -118l-3200000 0 0 4479031 1672107 1921205 4727893 0 0 -3200118 -335673 0 0 2862909 -3988160 0 0 -1832857 -1740494 2717 0 -3895678 2864327 0 0 -337209zm1801676 400044c-276736,0 -526424,111261 -705954,290909l-1535 1536c-179648,179529 -290909,429218 -290909,705953 0,276736 111261,526424 290909,705954l1535 1535c179530,179648 429218,290909 705954,290909 276735,0 526424,-111261 705953,-290909l1536 -1535c179648,-179530 290909,-429218 290909,-705954 0,-276735 -111261,-526424 -290909,-705953l-1536 -1536c-179529,-179648 -429218,-290909 -705953,-290909zm-837294 2118451l-1306552 1306434 -282759 -282760 1306552 -1306433c-174806,-233507 -278272,-523353 -278272,-837294 0,-772214 626110,-1398324 1398325,-1398324 772214,0 1398324,626110 1398324,1398324 0,772215 -626110,1398325 -1398324,1398325 -314059,0 -603905,-103584 -837294,-278272z"/>
 </g>
</svg>
