<?xml version="1.0" encoding="UTF-8"?>
<!DOCTYPE svg PUBLIC "-//W3C//DTD SVG 1.1//EN" "http://www.w3.org/Graphics/SVG/1.1/DTD/svg11.dtd">
<svg xmlns="http://www.w3.org/2000/svg" xml:space="preserve" width="64px" height="64px" version="1.1" shape-rendering="geometricPrecision" text-rendering="geometricPrecision" image-rendering="optimizeQuality" fill-rule="evenodd" clip-rule="evenodd"
viewBox="0 0 6400000 6400000"
 xmlns:xlink="http://www.w3.org/1999/xlink">
 <g id="Warstwa_1">   
  <path fill="{color}" d="M1203086 399926l3993946 0 0 1200015 803042 0 0 3200118 -400044 0 0 -399926 118 0 0 -2400266 -403116 0 0 118 -3993946 0 0 -118 -403116 0 0 2400266 402643 0 1063 -372406 0 -827727 2362 0 793947 0 0 399926 -396383 0 0 2000104 2634836 0 231145 -233035 283231 280752 -349374 352209 -3199764 0 0 -1199897 -803632 0 0 -3200118 803042 0 0 -1200015zm4455409 5541328l-1363127 -1363127c-196302,139726 -436305,221932 -695442,221932 -662606,0 -1200015,-537408 -1200015,-1200133 0,-662606 537409,-1200015 1200015,-1200015 662725,0 1200133,537409 1200133,1200015 0,259255 -82206,499258 -221932,695442l1363127 1363127 -282759 282759zm-1491987 -2907791c-145396,-143979 -345713,-233625 -566582,-233625 -220869,0 -421068,89646 -565755,234333 -144687,144687 -234333,344886 -234333,565755 0,220869 89646,421186 234333,565873 143978,145041 344178,234334 565755,234334 220987,0 421186,-89647 565873,-234334 144687,-144687 234334,-344886 234334,-565873 0,-221577 -89293,-421777 -233625,-566463zm633551 -633552l400044 0 0 399927 -400044 0 0 -399927zm-3197047 -799970l3194094 0 0 -800089 -3194094 0 0 800089z"/>
 </g>
</svg>
