<?xml version="1.0" encoding="UTF-8"?>
<!DOCTYPE svg PUBLIC "-//W3C//DTD SVG 1.1//EN" "http://www.w3.org/Graphics/SVG/1.1/DTD/svg11.dtd">
<!-- Creator: CorelDRAW X8 -->
<svg xmlns="http://www.w3.org/2000/svg" xml:space="preserve" width="64px" height="64px" version="1.1" shape-rendering="geometricPrecision" text-rendering="geometricPrecision" image-rendering="optimizeQuality" fill-rule="evenodd" clip-rule="evenodd"
viewBox="0 0 6400000 6400000"
 xmlns:xlink="http://www.w3.org/1999/xlink">
 <g id="Warstwa_x0020_1">
  <metadata id="CorelCorpID_0Corel-Layer"/>
  <g id="_2223065939536">
   <path fill="{color}" fill-rule="nonzero" d="M6193895 6378l-6187517 0 0 5588809 798435 798435 5588809 0 0 -6387126 -199727 0 0 -118zm-5887986 299413l5788182 0 0 5788418 -5189474 0 -598708 -598826 0 -5189592z"/>
   <polygon fill="{color}" fill-rule="nonzero" points="1825298,6194013 1825298,4020758 4874115,4020758 4874115,6194013 4519780,6194013 4519780,4375093 2179633,4375093 2179633,6194013 "/>
   <polygon fill="{color}" points="2501369,5829048 2938146,5829048 2938146,4597143 2501369,4597143 "/>
   <polygon fill="{color}" fill-rule="nonzero" points="1503444,927059 4896556,927059 4896556,1281394 1503444,1281394 "/>
   <polygon fill="{color}" fill-rule="nonzero" points="1503444,1625689 4896556,1625689 4896556,1980024 1503444,1980024 "/>
   <polygon fill="{color}" fill-rule="nonzero" points="1503444,2224397 4896556,2224397 4896556,2578733 1503444,2578733 "/>
  </g>
 </g>
</svg>
