<?xml version="1.0" encoding="UTF-8"?>
<!DOCTYPE svg PUBLIC "-//W3C//DTD SVG 1.1//EN" "http://www.w3.org/Graphics/SVG/1.1/DTD/svg11.dtd">
<svg xmlns="http://www.w3.org/2000/svg" xml:space="preserve" width="64px" height="64px" version="1.1" shape-rendering="geometricPrecision" text-rendering="geometricPrecision" image-rendering="optimizeQuality" fill-rule="evenodd" clip-rule="evenodd"
viewBox="0 0 6400000 6400000"
 xmlns:xlink="http://www.w3.org/1999/xlink">
 <g id="Warstwa">
   <path fill="{color}" d="M4759547 2074750l710914 0 0 310043 -501030 0c-65552,-63308 -135592,-121773 -209884,-174923l0 -135120zm988595 3920836l-1180527 -1180645c-237877,188624 -538353,301539 -864577,301539 -383391,0 -731230,-155789 -983398,-407721 -252641,-252877 -408430,-600716 -408430,-984107 0,-383390 156025,-731347 408075,-983516 251460,-252286 599535,-408076 983753,-408076 383272,0 730993,155790 983161,407604 252641,252995 408431,600952 408431,983988 0,315595 -105002,606740 -282169,840247l1183125 1183243 -247444 247444zm-1308324 -3007833c-188152,-188388 -448706,-304846 -736780,-304846 -287602,0 -548157,116694 -736663,305201 -188742,187915 -305201,448470 -305201,736544 0,288193 116459,548865 304374,736663 188625,188742 449179,305200 737490,305200 288074,0 548628,-116458 736544,-304373 188506,-189334 305201,-449770 305201,-737490 0,-287956 -116458,-548629 -304965,-736899zm-3160905 -21614l697568 0c-44292,99096 -80080,202680 -106655,310043l-280869 0 0 2413731 2640150 0 181065 -1654 347957 311697 -3479216 0 0 -1166353 -878869 0 0 -3278544 878869 0 0 -1155015 3792921 0 0 1155015 928122 0 0 3158897 -294335 -315713 0 -2548850 -633787 0 -3792921 0 -584534 0 0 2689875 584534 0 0 -1573129zm310044 -1426789l3172834 0 0 -829263 -3172834 0 0 829263z"/>
 </g>
</svg>
