<?xml version="1.0" encoding="UTF-8"?>
<!DOCTYPE svg PUBLIC "-//W3C//DTD SVG 1.1//EN" "http://www.w3.org/Graphics/SVG/1.1/DTD/svg11.dtd">
<svg xmlns="http://www.w3.org/2000/svg" xml:space="preserve" width="64px" height="64px" version="1.1" shape-rendering="geometricPrecision" text-rendering="geometricPrecision" image-rendering="optimizeQuality" fill-rule="evenodd" clip-rule="evenodd"
viewBox="0 0 6400000 6400000"
 xmlns:xlink="http://www.w3.org/1999/xlink">
 <g id="Warstwa_1">
   <path fill="{color}" d="M898121 4700491l4079342 0 514376 -2100735 -4079341 0 -514377 2100735zm-498077 -422958l0 -2940154 2119869 0 179293 199136 2499834 945 0 662370 801034 0 -710206 2900587 -4899981 0 10157 -41457 0 -781427z"/>
   <path id="1" fill="{color}" d="M898121 4700491l4079342 0 514376 -2100735 -4079341 0 -514377 2100735zm-498077 -422958l0 -2940154 2119869 0 179293 199136 2499834 945 0 662370 801034 0 -710206 2900587 -4899981 0 10157 -41457 0 -781427zm1012454 -2077703l3386616 0 0 -264098 -2099908 -826 -178703 0 -118111 -131222 -59765 -66379 -1542657 0 0 1688052 225121 -919381 75001 -306146 312406 0z"/>
  </g>
</svg>
