<?xml version="1.0" encoding="UTF-8"?>
<!DOCTYPE svg PUBLIC "-//W3C//DTD SVG 1.1//EN" "http://www.w3.org/Graphics/SVG/1.1/DTD/svg11.dtd">
<svg xmlns="http://www.w3.org/2000/svg" xml:space="preserve" width="64px" height="64px" version="1.1" shape-rendering="geometricPrecision" text-rendering="geometricPrecision" image-rendering="optimizeQuality" fill-rule="evenodd" clip-rule="evenodd"
viewBox="0 0 6400000 6400000"
 xmlns:xlink="http://www.w3.org/1999/xlink">
 <g id="Warstwa">
    <polygon fill="{color}" points="4461197,5999956 1938803,5999956 1938803,5689913 3045037,5689913 3045037,5192072 400044,5192072 400044,1896401 2054199,1896401 2053372,2205618 710087,2206444 710087,4882029 5690031,4882029 5690031,2206444 4314029,2207271 4314029,1896401 6000074,1896401 6000074,5192072 3355081,5192072 3355081,5689913 4461197,5689913 "/>
   <polygon fill="{color}" points="3375042,400044 3375042,3624257 3829299,3170118 4076743,3417444 3201181,4292651 2323493,3414845 2570819,3167401 3025077,3621541 3025077,400044 "/>
  </g>
</svg>
