<?xml version="1.0" encoding="UTF-8"?>
<!DOCTYPE svg PUBLIC "-//W3C//DTD SVG 1.1//EN" "http://www.w3.org/Graphics/SVG/1.1/DTD/svg11.dtd">
<!-- Creator: CorelDRAW X8 -->
<svg xmlns="http://www.w3.org/2000/svg" xml:space="preserve" width="64px" height="64px" version="1.1" shape-rendering="geometricPrecision" text-rendering="geometricPrecision" image-rendering="optimizeQuality" fill-rule="evenodd" clip-rule="evenodd"
viewBox="0 0 6400000 6400000"
 xmlns:xlink="http://www.w3.org/1999/xlink">
 <g id="Warstwa_x0020_1">
  <metadata id="CorelCorpID_0Corel-Layer"/>
  <polygon fill="{color}" fill-rule="nonzero" points="4641435,6400000 1758565,6400000 1758565,6045665 3022832,6045665 3022832,5476721 -118,5476721 -118,1710021 1890496,1710021 1889551,2063411 354217,2064356 354217,5122386 6045783,5122386 6045783,2064356 4473244,2065301 4473244,1710021 6400118,1710021 6400118,5476721 3377168,5476721 3377168,6045665 4641435,6045665 "/>
  <polygon fill="{color}" fill-rule="nonzero" points="3399963,-118 3399963,3684848 3919182,3165748 4201941,3448507 3201417,4448677 2198177,3445436 2480936,3162677 3000037,3681778 3000037,-118 "/>
 </g>
</svg>
