<?xml version="1.0" encoding="UTF-8"?>
<!DOCTYPE svg PUBLIC "-//W3C//DTD SVG 1.1//EN" "http://www.w3.org/Graphics/SVG/1.1/DTD/svg11.dtd">
<!-- Creator: CorelDRAW X8 -->
<svg xmlns="http://www.w3.org/2000/svg" xml:space="preserve" width="64px" height="64px" version="1.1" shape-rendering="geometricPrecision" text-rendering="geometricPrecision" image-rendering="optimizeQuality" fill-rule="evenodd" clip-rule="evenodd"
viewBox="0 0 6400000 6400000"
 xmlns:xlink="http://www.w3.org/1999/xlink">
 <g id="Warstwa_x0020_1">
  <metadata id="CorelCorpID_0Corel-Layer"/>
  <g id="_2223065954032">
   <path fill="{color}" d="M4868918 914066l983398 983398 -3262363 3262245 -983398 -983398 3262363 -3262245zm4607 -538707l1520806 1520806 -4503835 4503835 -727923 0 -1156904 -1156904 4867856 -4867737z"/>
   <path fill="{color}" fill-rule="nonzero" d="M1480294 6045429l1873133 0 0 354335 -1873133 0 0 -354335zm2154239 0l445281 0 0 354335 -445281 0 0 -354335zm621149 0l281106 0 0 354335 -281106 0 0 -354335zm429691 0l203034 0 0 354335 -203034 0 0 -354335zm355634 0l146577 0 0 354335 -146577 0 0 -354335z"/>
  </g>
 </g>
</svg>
