<?xml version="1.0" encoding="UTF-8"?>
<!DOCTYPE svg PUBLIC "-//W3C//DTD SVG 1.1//EN" "http://www.w3.org/Graphics/SVG/1.1/DTD/svg11.dtd">
<svg xmlns="http://www.w3.org/2000/svg" xml:space="preserve" width="64px" height="64px" version="1.1" shape-rendering="geometricPrecision" text-rendering="geometricPrecision" image-rendering="optimizeQuality" fill-rule="evenodd" clip-rule="evenodd"
viewBox="0 0 6400000 6400000"
 xmlns:xlink="http://www.w3.org/1999/xlink">
 <g id="Warstwa_1">   
  <path fill="{color}" d="M1818920 2625977c226302,226420 294807,550991 205396,836703l1326040 -697331 1251039 -2377825 353154 185908 -980799 1864157 1837699 -966272 185908 353154 -2351485 1236512 -709143 1347772c291736,-101812 628945,-36024 861979,197128 324571,324571 324689,850877 118,1175448 -324571,324571 -850994,324453 -1175447,0 -106301,-106301 -177640,-234216 -214373,-369572l-24685 46891 -353154 -185908 991193 -1884000 -1884354 990839 -185908 -353154 34607 -18189c-125553,-38504 -243901,-107481 -343233,-206813 -324452,-324571 -324570,-850877 0,-1175330 324571,-324689 850877,-324571 1175448,-118zm1824944 2567630c0,-109253 -42757,-219806 -127915,-304964 -83505,-84332 -193940,-126262 -304965,-126262 -111025,0 -221459,41930 -305555,125435 -83505,84922 -125552,195357 -125552,305791 0,110317 42166,220869 126261,304965 84096,84095 194648,126261 304964,126261 110317,0 220869,-42166 304965,-126261 84095,-84096 126261,-194648 126261,-304965l1536 0zm-1981442 -1979788c0,-110434 -42166,-220987 -126261,-305082 -85041,-85041 -195593,-127679 -305083,-127679l0 1535c-110198,0 -220751,42166 -304846,126262l-1536 0c-83032,83032 -124726,193585 -124726,304846 0,110316 42166,220869 126262,304964 84095,84096 194648,126262 304964,126262 110435,0 220869,-42048 304965,-126144 84095,-84095 126261,-194648 126261,-304964z"/>
 </g>
</svg>
