<?xml version="1.0" encoding="UTF-8"?>
<!DOCTYPE svg PUBLIC "-//W3C//DTD SVG 1.1//EN" "http://www.w3.org/Graphics/SVG/1.1/DTD/svg11.dtd">
<svg xmlns="http://www.w3.org/2000/svg" xml:space="preserve" width="64px" height="64px" version="1.1" shape-rendering="geometricPrecision" text-rendering="geometricPrecision" image-rendering="optimizeQuality" fill-rule="evenodd" clip-rule="evenodd"
viewBox="0 0 6400000 6400000"
 xmlns:xlink="http://www.w3.org/1999/xlink">
 <g id="Warstwa_1">   
  <path fill="{color}" d="M1199779 400989l0 399926 -399809 0 0 399690 -399926 0 0 -799616 799735 0zm4800177 5597904l-399926 0 -119 -399926 400045 0 0 399926zm-5599439 0l-473 -799026 399926 0 0 799026 -399453 0zm1999040 -5597904l0 399926 -799852 0 0 -399926 799852 0zm1199779 0l0 399926 -799853 0 0 -399926 799853 0zm1199778 0l0 399926 -799852 0 0 -399926 799852 0zm1199779 0l1063 1198834 -399926 0 0 -798908 -400990 0 0 -399926 799853 0zm1063 2398612l-399926 0 0 -799852 399926 0 0 799852zm0 1199779l-399926 0 0 -799852 399926 0 0 799852zm0 1199778l-399926 0 0 -799852 399926 0 0 799852zm-1599705 799735l0 -399926 799852 0 0 399926 -799852 0zm-1199779 0l0 -399926 799853 0 0 399926 -799853 0zm-1199778 0l0 -399926 799852 0 0 399926 -799852 0zm-1199779 0l0 -399926 799853 0 0 399926 -799853 0zm-400871 -1998804l399926 0 0 799852 -399926 0 0 -799852zm0 -1199779l399926 0 0 799852 -399926 0 0 -799852zm0 -1199778l399926 0 0 799852 -399926 0 0 -799852z"/>
  <path fill="{color}" fill-rule="nonzero" d="M4800059 1801439l-3200118 0 0 -399926 3200118 0 0 399926zm0 3196930l-3200118 0 0 -399927 3200118 0 0 399927zm0 -797018l-3200118 0 0 -399926 3200118 0 0 399926zm0 -799971l-1400096 0 0 -399926 1400096 0 0 399926zm-1800022 0l-1400096 0 0 -399926 1400096 0 0 399926zm1800022 -799970l-3200118 0 0 -399926 3200118 0 0 399926z"/>
 </g>
</svg>
