<?xml version="1.0" encoding="UTF-8"?>
<!DOCTYPE svg PUBLIC "-//W3C//DTD SVG 1.1//EN" "http://www.w3.org/Graphics/SVG/1.1/DTD/svg11.dtd">
<!-- Creator: CorelDRAW X8 -->
<svg xmlns="http://www.w3.org/2000/svg" xml:space="preserve" width="64px" height="64px" version="1.1" shape-rendering="geometricPrecision" text-rendering="geometricPrecision" image-rendering="optimizeQuality" fill-rule="evenodd" clip-rule="evenodd"
viewBox="0 0 6400000 6400000"
 xmlns:xlink="http://www.w3.org/1999/xlink">
 <g id="Warstwa_x0020_1">
  <metadata id="CorelCorpID_0Corel-Layer"/>
  <path fill="{color}" fill-rule="nonzero" d="M1228480 4424582l3928867 0 0 354335 -3928867 0 0 -354335zm-428628 -4424582l0 399926 -399926 0 0 4725 -399926 0 0 -404651 799852 0zm5600148 0l0 399926 -401107 0 0 -399926 401107 0zm-6400000 6400000l0 -796309 399926 0 0 796309 -399926 0zm1999631 -6400000l0 399926 -799852 0 0 -399926 799852 0zm1199778 0l0 399926 -799852 0 0 -399926 799852 0zm1199779 0l0 399926 -799852 0 0 -399926 799852 0zm1199779 0l0 399926 -799853 0 0 -399926 799853 0zm801033 1598524l-399926 0 0 -799853 399926 0 0 799853zm0 1199778l-399926 0 0 -799852 399926 0 0 799852zm0 1199779l-399926 0 0 -799853 399926 0 0 799853zm0 1199778l-399926 0 0 -799852 399926 0 0 799852zm0 1199779l-397564 0 0 2362 -799852 0 0 -399926 797490 0 0 -402289 399926 0 0 799853zm-2397195 2362l0 -399926 799853 0 0 399926 -799853 0zm-1199778 0l0 -399926 799852 0 0 399926 -799852 0zm-1199779 0l0 -399926 799852 0 0 399926 -799852 0zm-1199778 0l0 -399926 799852 0 0 399926 -799852 0zm-403470 -1996088l399926 0 0 799853 -399926 0 0 -799853zm0 -1199778l399926 0 0 799852 -399926 0 0 -799852zm0 -1199779l399926 0 0 799853 -399926 0 0 -799853zm0 -1199778l399926 0 0 799852 -399926 0 0 -799852zm1228480 816388l3942922 0 0 354335 -3942922 0 0 -354335zm0 699812l3928867 0 0 354335 -3928867 0 0 -354335zm0 700756l1581515 0 0 354335 -1581515 0 0 -354335zm2347233 0l1581516 0 0 354335 -1581516 0 0 -354335zm-2347233 701229l3928867 0 0 354335 -3928867 0 0 -354335z"/>
 </g>
</svg>
