<?xml version="1.0" encoding="UTF-8"?>
<!DOCTYPE svg PUBLIC "-//W3C//DTD SVG 1.1//EN" "http://www.w3.org/Graphics/SVG/1.1/DTD/svg11.dtd">
<svg xmlns="http://www.w3.org/2000/svg" xml:space="preserve" width="64px" height="64px" version="1.1" shape-rendering="geometricPrecision" text-rendering="geometricPrecision" image-rendering="optimizeQuality" fill-rule="evenodd" clip-rule="evenodd"
viewBox="0 0 6400000 6400000"
 xmlns:xlink="http://www.w3.org/1999/xlink">
 <g id="Warstwa">
   <path fill="{color}" fill-rule="nonzero" d="M4000561 421068c551345,0 1051194,223822 1413206,585598 362367,362603 586189,862451 586189,1413797 0,551109 -223822,1051076 -585598,1413206 -362603,362367 -862452,586189 -1413797,586189 -496896,0 -952216,-181892 -1302299,-482841l-2091168 2064356 -207168 -210357 2089160 -2062348c-304138,-351382 -488038,-808829 -488038,-1308205 0,-551346 223822,-1051194 585716,-1413207 362603,-362366 862452,-586188 1413797,-586188zm1204621 794774c-308035,-308154 -733946,-498668 -1204621,-498668 -470793,0 -896704,190514 -1204385,498313 -308389,308390 -499022,734301 -499022,1204976 0,470557 190633,896586 498432,1204385 308271,308389 734300,498904 1204975,498904 470675,0 896586,-190515 1204385,-498432 308390,-308271 498904,-734300 498904,-1204857 0,-470675 -190514,-896586 -498668,-1204621z"/>
 </g>
</svg>
