<?xml version="1.0" encoding="UTF-8"?>
<!DOCTYPE svg PUBLIC "-//W3C//DTD SVG 1.1//EN" "http://www.w3.org/Graphics/SVG/1.1/DTD/svg11.dtd">
<!-- Creator: CorelDRAW X8 -->
<svg xmlns="http://www.w3.org/2000/svg" xml:space="preserve" width="64px" height="64px" version="1.1" shape-rendering="geometricPrecision" text-rendering="geometricPrecision" image-rendering="optimizeQuality" fill-rule="evenodd" clip-rule="evenodd"
viewBox="0 0 6400000 6400000"
 xmlns:xlink="http://www.w3.org/1999/xlink">
 <g id="Warstwa_x0020_1">
  <metadata id="CorelCorpID_0Corel-Layer"/>
  <path fill="{color}" d="M5543926 1481121c-315948,-396383 -730757,-693316 -1192691,-870838 -668985,-256893 -1437420,-264688 -2148452,36969l-15827 6732c-714339,307918 -1234267,870838 -1496829,1532027 -258547,651150 -269059,1398088 28110,2091404l14528 21024 9803 33898c314886,693433 883239,1198125 1549862,1454191 318783,122482 660126,188388 1007020,191105l-3307 396028c-1232850,-10158 -2403927,-718710 -2930824,-1901244 -715520,-1605846 28111,-3477798 1661005,-4181508 1387222,-597881 2969682,-159687 3853040,970288l-118 -685875 426973 236 709 1767542 -1600059 -810010 215554 -386816 621503 334847zm-1129029 4706042c-274137,100985 -536936,161222 -827609,189805l-36851 -398272c254531,-24450 486975,-78545 726742,-166892l137718 375359zm1808526 -1715100c-105828,250987 -268822,515676 -440675,726859l-311106 -251105c154726,-198900 287602,-404297 385871,-637331l365910 161577zm-729930 1040446c-216853,204569 -429809,353272 -689418,498195l-188270 -352918c213900,-110434 428273,-271066 603196,-436068l274492 290791z"/>
 </g>
</svg>
