<?xml version="1.0" encoding="UTF-8"?>
<!DOCTYPE svg PUBLIC "-//W3C//DTD SVG 1.1//EN" "http://www.w3.org/Graphics/SVG/1.1/DTD/svg11.dtd">
<svg xmlns="http://www.w3.org/2000/svg" xml:space="preserve" width="64px" height="64px" version="1.1" shape-rendering="geometricPrecision" text-rendering="geometricPrecision" image-rendering="optimizeQuality" fill-rule="evenodd" clip-rule="evenodd"
viewBox="0 0 6400000 6400000"
 xmlns:xlink="http://www.w3.org/1999/xlink">
 <g id="Warstwa">
   <path fill="{color}" d="M4661278 1198007l861270 861270 -2857122 2857004 -861270 -861270 2857122 -2857004zm-3833669 -494061l11811 -10158c110670,-93899 238467,-169136 377485,-220042 134529,-49371 279570,-76300 430163,-76300 344649,0 657173,139962 883593,366382 226420,225712 366383,538353 366383,883594 0,345122 -139963,657764 -366029,883830 -226065,226065 -538707,366028 -883947,366028 -345123,0 -657883,-139963 -883830,-366028 -226066,-226775 -366028,-539298 -366028,-883830 0,-36851 2244,-77481 6260,-120947 4252,-43465 9921,-83504 17008,-120001l304373 59410c-6259,32127 -10866,62363 -13582,90238 -2481,26220 -3780,56575 -3780,91300 0,259727 105001,494770 274610,664378 170553,169963 405595,275200 664969,275200 259491,0 494533,-105237 664496,-275200 169844,-169963 275200,-405005 275200,-664378 0,-259492 -105356,-494534 -275200,-664497 -169609,-170198 -404651,-275200 -664496,-275200 -114096,0 -223232,20197 -323390,56930 -104647,38268 -200790,94962 -284177,165593l-29292 25748 284413 0 0 310279 -777293 0 0 -760875 310280 0 0 198546zm923161 388233l0 664260 239530 349965 -255712 174687 -294098 -429808 0 -759104 310280 0zm612527 4599741l88584 0 882176 0 0 310398 -1281040 0 -236 236 -637449 0 -1013162 -1013280 4263124 -4263005 1331827 1331827 -3633824 3633824zm1216905 0l390004 0 0 310398 -390004 0 0 -310398zm544022 0l246145 0 0 310398 -246145 0 0 -310398zm376304 0l177758 0 0 310398 -177758 0 0 -310398zm311460 0l128388 0 0 310398 -128388 0 0 -310398z"/>
 </g>
</svg>
