<?xml version="1.0" encoding="UTF-8"?>
<!DOCTYPE svg PUBLIC "-//W3C//DTD SVG 1.1//EN" "http://www.w3.org/Graphics/SVG/1.1/DTD/svg11.dtd">
<svg xmlns="http://www.w3.org/2000/svg" xml:space="preserve" width="64px" height="64px" version="1.1" shape-rendering="geometricPrecision" text-rendering="geometricPrecision" image-rendering="optimizeQuality" fill-rule="evenodd" clip-rule="evenodd"
viewBox="0 0 6400000 6400000"
 xmlns:xlink="http://www.w3.org/1999/xlink">
 <g id="Warstwa_1">   
  <path fill="{color}" d="M1510649 1400096l0 -990248c82560,-2835 198781,590 277798,-9804l-118 0 4211745 0 0 3995128 -600008 605441 -510715 -2126 0 362366 -639102 639221 -3850205 0 0 -4599624 1110605 -354zm387406 3071l2991296 0 0 3205197 326579 7323 382800 -420360 4370 -3395238 -3705045 0 0 603078zm1805337 4200052l0 -803160 798671 0 0 -3015746 -3702093 0 0 3818906 2903422 0z"/>
 </g>
</svg>
