<?xml version="1.0" encoding="UTF-8"?>
<!DOCTYPE svg PUBLIC "-//W3C//DTD SVG 1.1//EN" "http://www.w3.org/Graphics/SVG/1.1/DTD/svg11.dtd">
<svg xmlns="http://www.w3.org/2000/svg" xml:space="preserve" width="64px" height="64px" version="1.1" shape-rendering="geometricPrecision" text-rendering="geometricPrecision" image-rendering="optimizeQuality" fill-rule="evenodd" clip-rule="evenodd"
viewBox="0 0 6400000 6400000"
 xmlns:xlink="http://www.w3.org/1999/xlink">
 <g id="Warstwa">
   <path fill="{color}" fill-rule="nonzero" d="M1474861 4271509l3437877 0 0 310043 -3437877 0 0 -310043zm-375005 -3871465l0 349847 -349965 0 0 4134 -349847 0 0 -353981 699812 0zm4900100 0l0 349847 -350910 0 0 -349847 350910 0zm-5599912 5599912l0 -696741 349847 0 0 696741 -349847 0zm1749589 -5599912l0 349847 -699812 0 0 -349847 699812 0zm1049895 0l0 349847 -699930 0 0 -349847 699930 0zm1049776 0l0 349847 -699930 0 0 -349847 699930 0zm1049777 0l0 349847 -699812 0 0 -349847 699812 0zm700875 1398679l-349847 0 0 -699930 349847 0 0 699930zm0 1049777l-349847 0 0 -699812 349847 0 0 699812zm0 1049776l-349847 0 0 -699811 349847 0 0 699811zm0 1049895l-349847 0 0 -699930 349847 0 0 699930zm0 1049777l-347839 0 0 2008 -699812 0 0 -349847 697804 0 0 -352091 349847 0 0 699930zm-2097546 2008l0 -349847 699930 0 0 349847 -699930 0zm-1049776 0l0 -349847 699929 0 0 349847 -699929 0zm-1049777 0l0 -349847 699812 0 0 349847 -699812 0zm-1049777 0l0 -349847 699812 0 0 349847 -699812 0zm-353036 -1746518l349847 0 0 699812 -349847 0 0 -699812zm0 -1049777l349847 0 0 699812 -349847 0 0 -699812zm0 -1049894l349847 0 0 699930 -349847 0 0 -699930zm0 -1049777l349847 0 0 699930 -349847 0 0 -699930zm1074817 714339l3450160 0 0 310044 -3450160 0 0 -310044zm0 612291l3437877 0 0 310044 -3437877 0 0 -310044zm0 613236l1383914 0 0 310044 -1383914 0 0 -310044zm2053844 0l1383914 0 0 310044 -1383914 0 0 -310044zm-2053844 613591l3437877 0 0 310043 -3437877 0 0 -310043z"/>
 </g>
</svg>
