<?xml version="1.0" encoding="UTF-8"?>
<!DOCTYPE svg PUBLIC "-//W3C//DTD SVG 1.1//EN" "http://www.w3.org/Graphics/SVG/1.1/DTD/svg11.dtd">
<svg xmlns="http://www.w3.org/2000/svg" xml:space="preserve" width="64px" height="64px" version="1.1" shape-rendering="geometricPrecision" text-rendering="geometricPrecision" image-rendering="optimizeQuality" fill-rule="evenodd" clip-rule="evenodd"
viewBox="0 0 6400000 6400000"
 xmlns:xlink="http://www.w3.org/1999/xlink">
 <g id="Warstwa_1">
   <path fill="{color}" d="M3207087 399926c1479112,0 2690230,1146983 2792751,2600111l-400990 0c-48189,-583118 -304492,-1107179 -694614,-1497302 -434179,-434179 -1034423,-702883 -1697147,-702883 -662725,0 -1262969,268704 -1697147,702883 -109962,109962 -239176,281933 -326225,411501l-109017 63899 412919 417643 -1087573 236 0 -1100329 422131 426974 159924 -222641c511660,-668748 1317890,-1100092 2224988,-1100092zm2792869 3000037c-29764,422486 -153427,819105 -350201,1169188l-343233 -205397c160868,-289727 263625,-616306 292326,-963791l401108 0zm-569771 1502263c-189333,246853 -418942,461108 -678788,633315l-307445 -278508c167955,-101103 322563,-222286 460282,-360004 63780,-63781 123899,-131104 180238,-201735l345713 206932zm-1045525 838356c-300830,139608 -630362,227602 -977610,252051l-199963 -392603 199963 -8386c227483,-18780 445753,-69214 650913,-146931l326697 295869z"/>
 </g>
</svg>
