<?xml version="1.0" encoding="UTF-8"?>
<!DOCTYPE svg PUBLIC "-//W3C//DTD SVG 1.1//EN" "http://www.w3.org/Graphics/SVG/1.1/DTD/svg11.dtd">
<!-- Creator: CorelDRAW X8 -->
<svg xmlns="http://www.w3.org/2000/svg" xml:space="preserve" width="64px" height="64px" version="1.1" shape-rendering="geometricPrecision" text-rendering="geometricPrecision" image-rendering="optimizeQuality" fill-rule="evenodd" clip-rule="evenodd"
viewBox="0 0 6400000 6400000"
 xmlns:xlink="http://www.w3.org/1999/xlink">
 <g id="Warstwa_x0020_1">
  <metadata id="CorelCorpID_0Corel-Layer"/>
  <path fill="{color}" d="M825364 5408334c-189096,-230554 -322681,-453312 -449296,-722253l365083 -163466c95434,220987 240711,445989 393312,632015l-309099 253704zm987296 800207c-242956,-123072 -495833,-303901 -694497,-490045l272012 -292917c187679,168072 383390,314885 608983,428981l-186498 353981zm-1585649 -1922976c-81734,-280398 -123663,-546858 -132049,-838712l399808 -9212c6732,255593 44646,491226 116222,736544l-383981 111380zm5315026 -2636253c-315949,-396383 -730757,-693316 -1192692,-870838 -668985,-256893 -1437419,-264688 -2148452,36969l-15827 6732c-714339,307918 -1234267,870838 -1496829,1532027 -83978,211420 -141852,432998 -171380,659536l-401934 -28819c133584,-1077061 825718,-2058805 1909511,-2525819 1387222,-597881 2969683,-159687 3853040,970288l-118 -685875 426974 236 708 1767542 -1600059 -810010 215554 -386816 621504 334847z"/>
 </g>
</svg>
