<?xml version="1.0" encoding="UTF-8"?>
<!DOCTYPE svg PUBLIC "-//W3C//DTD SVG 1.1//EN" "http://www.w3.org/Graphics/SVG/1.1/DTD/svg11.dtd">
<svg xmlns="http://www.w3.org/2000/svg" xml:space="preserve" width="64px" height="64px" version="1.1" shape-rendering="geometricPrecision" text-rendering="geometricPrecision" image-rendering="optimizeQuality" fill-rule="evenodd" clip-rule="evenodd"
viewBox="0 0 6400000 6400000"
 xmlns:xlink="http://www.w3.org/1999/xlink">
 <g id="Warstwa_1">
  <path fill="{color}" d="M1456908 1459860l-3307 -1059579c82560,-2481 257247,16535 336145,5787l0 0 4207257 0 0 3990522 -600007 604849 -509534 -2126 0 361777 -638276 638866 -3846071 0 0 -4540096 1053793 0zm-5315 2091758l1747816 0 0 349847 -1747816 0 0 -349847zm0 -1049068l2447392 0 0 349729 -2447392 0 0 -349729zm3489610 2105814l356342 -6969 349729 -349729 0 -3496224 -3845953 0 0 699930 349729 0 2796649 0c0,1140487 -2008,1429034 -6496,3152992zm-1043872 1047178l1182 -1054147 699575 0 354 -2797121 -3844299 0 0 3847607 3143188 3661z"/>
 </g>
</svg>
