<?xml version="1.0" encoding="UTF-8"?>
<!DOCTYPE svg PUBLIC "-//W3C//DTD SVG 1.1//EN" "http://www.w3.org/Graphics/SVG/1.1/DTD/svg11.dtd">
<svg xmlns="http://www.w3.org/2000/svg" xml:space="preserve" width="64px" height="64px" version="1.1" shape-rendering="geometricPrecision" text-rendering="geometricPrecision" image-rendering="optimizeQuality" fill-rule="evenodd" clip-rule="evenodd"
viewBox="0 0 6400000 6400000"
 xmlns:xlink="http://www.w3.org/1999/xlink">
 <g id="Warstwa">
  <path fill="{color}" d="M3402562 4617340c318783,312642 322799,823947 8976,1141668 -313823,317720 -826782,321618 -1145565,8858 -75474,-74056 -133230,-159214 -173388,-250160l-2362 5315 -278744 -125671 655520 -1449821 -1444979 676189 -129332 -276735 10630 -4961c-93308,-39331 -180947,-96497 -257601,-171616 -323863,-317957 -327997,-837412 -8977,-1160211 318784,-322918 840010,-326934 1163991,-8977 225357,221105 295870,540007 210357,822412l649260 -303902 1410608 -3119802 278743 125671 -1263559 2794877 2784602 -1303126 129332 276617 -3107401 1454309 -305318 675245c277444,-88229 593275,-23977 815207,193821zm-1816322 -1397143l-2244 -2362c-101104,-99214 -233743,-148112 -365910,-147167 -130041,945 -260200,51378 -359886,150356l-5552 5669c-99214,100986 -148112,232562 -147167,363076 827,128978 50552,257956 148821,357051l5787 5551c101931,100041 235397,149412 368391,148349 131576,-945 263271,-52442 363311,-153782l3544 -4606c98387,-100277 146812,-230908 145749,-360713 -944,-130514 -51969,-261027 -152482,-360241l-2362 -1181zm1601831 1616004l-2126 -2244c-98505,-96733 -227602,-144214 -355635,-143269l-1063 0c-126615,826 -253585,49843 -350673,146340l-5551 5551c-96261,98151 -144097,226420 -143506,353981 945,125671 49489,251578 145159,347839l5669 5433c99214,97560 229019,145514 357997,144687l1063 0c128151,-827 256657,-51142 354335,-149884l3307 -4606c95907,-97679 142915,-224885 141970,-351382 -944,-127207 -50788,-254531 -148584,-351383l-2362 -1063z"/>
 </g>
</svg>
