<?xml version="1.0" encoding="UTF-8"?>
<!DOCTYPE svg PUBLIC "-//W3C//DTD SVG 1.1//EN" "http://www.w3.org/Graphics/SVG/1.1/DTD/svg11.dtd">
<svg xmlns="http://www.w3.org/2000/svg" xml:space="preserve" width="64px" height="64px" version="1.1" shape-rendering="geometricPrecision" text-rendering="geometricPrecision" image-rendering="optimizeQuality" fill-rule="evenodd" clip-rule="evenodd"
viewBox="0 0 6400000 6400000"
 xmlns:xlink="http://www.w3.org/1999/xlink">
 <g id="Warstwa_1">   
  <path fill="{color}" d="M3259528 399926c-1479112,0 -2690230,1146983 -2792751,2600111l400990 0c48189,-583118 304492,-1107179 694614,-1497302 434179,-434179 1034423,-702883 1697147,-702883 662725,0 1262969,268704 1697147,702883 109962,109962 239176,281933 326225,411501l58937 34607 -441855 446935 1087572 236 0 -1100329 -376304 380674 -126734 -176341c-511660,-668748 -1317890,-1100092 -2224988,-1100092zm-2792869 3000037c29764,422486 153427,819105 350201,1169188l343233 -205397c-160868,-289727 -263625,-616306 -292326,-963791l-401108 0zm569771 1502263c189333,246853 418942,461108 678788,633315l307445 -278508c-167955,-101103 -322563,-222286 -460282,-360004 -63780,-63781 -123899,-131104 -180238,-201735l-345713 206932zm1045525 838356c300830,139608 630362,227602 977610,252051l199963 -392603 -199963 -8386c-227483,-18780 -445753,-69214 -650913,-146931l-326697 295869z"/>
 </g>
</svg>
