<?xml version="1.0" encoding="UTF-8"?>
<!DOCTYPE svg PUBLIC "-//W3C//DTD SVG 1.1//EN" "http://www.w3.org/Graphics/SVG/1.1/DTD/svg11.dtd">
<!-- Creator: CorelDRAW X8 -->
<svg xmlns="http://www.w3.org/2000/svg" xml:space="preserve" width="64px" height="64px" version="1.1" shape-rendering="geometricPrecision" text-rendering="geometricPrecision" image-rendering="optimizeQuality" fill-rule="evenodd" clip-rule="evenodd"
viewBox="0 0 6400000 6400000"
 xmlns:xlink="http://www.w3.org/1999/xlink">
 <g id="Warstwa_x0020_1">
  <metadata id="CorelCorpID_0Corel-Layer"/>
  <path fill="{color}" d="M317366 1182180l951980 0 0 -1170959c94253,-3189 227129,708 317366,-11221l-118 0 4813524 0 0 4487417 -730521 730521 -538825 -1771 0 453430 -730521 730521 -4400251 0 0 -5206717c94253,-3190 227129,708 317366,-11221l0 0zm1351788 0l3461618 0 0 3627446 373115 8386 496187 -496187 0 -3921899 118 0 -4331038 0 0 782254zm2156247 4818012l0 -912885 905445 0 0 -3505201 0 0 -4330920 0 0 4418086 3425475 0z"/>
 </g>
</svg>
