<?xml version="1.0" encoding="UTF-8"?>
<!DOCTYPE svg PUBLIC "-//W3C//DTD SVG 1.1//EN" "http://www.w3.org/Graphics/SVG/1.1/DTD/svg11.dtd">
<svg xmlns="http://www.w3.org/2000/svg" xml:space="preserve" width="64px" height="64px" version="1.1" shape-rendering="geometricPrecision" text-rendering="geometricPrecision" image-rendering="optimizeQuality" fill-rule="evenodd" clip-rule="evenodd"
viewBox="0 0 6400000 6400000"
 xmlns:xlink="http://www.w3.org/1999/xlink">
 <g id="Warstwa">
  <path fill="{color}" fill-rule="nonzero" d="M4889470 1648249l367327 0 0 349965 -367327 0 0 2610150 323153 1181 437486 -427683 0 -3432089 -3789496 0 0 684457 3028857 0 0 214019zm-3746149 1034422l3018108 0 0 349965 -3018108 0 0 -349965zm-118 894578l1748525 0 0 349965 -1748525 0 0 -349965zm2604008 2072860l0 -798789 792294 0 0 -3067125 -3789496 0 0 3865914 2997202 0zm-2236562 -4215879l0 -1034304 4489425 -118 0 3926623 -639221 639221 -471383 -1536 0 396737 -639221 639221 -3850205 0 -3307 -4561828 1113912 -4016z"/>
 </g>
</svg>
