<?xml version="1.0" encoding="UTF-8"?>
<!DOCTYPE svg PUBLIC "-//W3C//DTD SVG 1.1//EN" "http://www.w3.org/Graphics/SVG/1.1/DTD/svg11.dtd">
<!-- Creator: CorelDRAW X8 -->
<svg xmlns="http://www.w3.org/2000/svg" xml:space="preserve" width="64px" height="64px" version="1.1" shape-rendering="geometricPrecision" text-rendering="geometricPrecision" image-rendering="optimizeQuality" fill-rule="evenodd" clip-rule="evenodd"
viewBox="0 0 6400000 6400000"
 xmlns:xlink="http://www.w3.org/1999/xlink">
 <g id="Warstwa_x0020_1">
  <metadata id="CorelCorpID_0Corel-Layer"/>
  <g>
   <path fill="#101010" d="M799852 0l0 399926 -399926 0 0 4725 -399926 0 0 -4725 0 -399926 399926 0 399926 0zm5600148 0l0 399926 -401107 0 0 -399926 1181 0 399926 0zm-6400000 6400000l0 -399926 0 -396383 399926 0 0 796309 -396383 0 -3543 0zm1999631 -6400000l0 399926 -799852 0 0 -399926 799852 0zm1199778 0l0 399926 -799852 0 0 -399926 799852 0zm1199779 0l0 399926 -799852 0 0 -399926 799852 0zm1199779 0l0 399926 -799853 0 0 -399926 799853 0zm801033 1598524l-399926 0 0 -799853 399926 0 0 799853zm0 1199778l-399926 0 0 -799852 399926 0 0 799852zm0 1199779l-399926 0 0 -799853 399926 0 0 799853zm0 1199778l-399926 0 0 -799852 399926 0 0 799852zm0 1199779l-397564 0 0 2362 -799852 0 0 -399926 797490 0 0 -402289 399926 0 0 799853zm-2397195 2362l0 -399926 799853 0 0 399926 -799853 0zm-1199778 0l0 -399926 799852 0 0 399926 -799852 0zm-1199779 0l0 -399926 799852 0 0 399926 -799852 0zm-1199778 0l0 -399926 799852 0 0 399926 -799852 0zm-403470 -1996088l399926 0 0 799853 -399926 0 0 -799853zm0 -1199778l399926 0 0 799852 -399926 0 0 -799852zm0 -1199779l399926 0 0 799853 -399926 0 0 -799853zm0 -1199778l399926 0 0 799852 -399926 0 0 -799852z"/>
  </g>
  <g>
   <polygon fill="#101010" fill-rule="nonzero" points="1228480,1620965 5171402,1620965 5171402,1975300 1228480,1975300 "/>
   <polygon fill="#101010" fill-rule="nonzero" points="1228480,2320777 5157347,2320777 5157347,2675112 1228480,2675112 "/>
   <polygon fill="#101010" fill-rule="nonzero" points="1228480,3021533 5157347,3021533 5157347,3375868 1228480,3375868 "/>
   <polygon fill="#101010" fill-rule="nonzero" points="1228480,3722762 5157347,3722762 5157347,4077097 1228480,4077097 "/>
   <polygon fill="#101010" fill-rule="nonzero" points="1228480,4424582 5157347,4424582 5157347,4778917 1228480,4778917 "/>
  </g>
 </g>
</svg>
