<?xml version="1.0" encoding="UTF-8"?>
<!DOCTYPE svg PUBLIC "-//W3C//DTD SVG 1.1//EN" "http://www.w3.org/Graphics/SVG/1.1/DTD/svg11.dtd">
<svg xmlns="http://www.w3.org/2000/svg" xml:space="preserve" width="64px" height="64px" version="1.1" shape-rendering="geometricPrecision" text-rendering="geometricPrecision" image-rendering="optimizeQuality" fill-rule="evenodd" clip-rule="evenodd"
viewBox="0 0 6400000 6400000"
 xmlns:xlink="http://www.w3.org/1999/xlink">
 <g id="Warstwa">
   <path fill="{color}" d="M1058635 5191481c-170553,-207994 -291027,-408902 -405123,-651386l329177 -147403c86104,199254 217090,402170 354690,569889l-278744 228900zm890326 721545c-219097,-111025 -447171,-274020 -626346,-441856l245318 -264216c169254,151537 345713,283940 549219,386816l-168191 319256zm-1429860 -1734116c-73702,-252877 -111498,-493117 -119057,-756269l360477 -8386c6024,230554 40276,443037 104765,664260l-346185 100395zm4792854 -2377234c-284885,-357524 -658945,-625284 -1075525,-785325 -603314,-231735 -1296158,-238704 -1937386,33308l-14291 6023c-644182,277681 -1112967,785325 -1349781,1381553 -75709,190750 -127915,390477 -154490,594810l-362485 -25984c120474,-971233 744576,-1856598 1721951,-2277784 1250920,-539062 2677946,-143978 3474491,874971l-118 -618433 385044 236 591 1593918 -1442853 -730521 194412 -348784 560440 302012z"/>
 </g>
</svg>
