<?xml version="1.0" encoding="UTF-8"?>
<!DOCTYPE svg PUBLIC "-//W3C//DTD SVG 1.1//EN" "http://www.w3.org/Graphics/SVG/1.1/DTD/svg11.dtd">
<svg xmlns="http://www.w3.org/2000/svg" xml:space="preserve" width="64px" height="64px" version="1.1" shape-rendering="geometricPrecision" text-rendering="geometricPrecision" image-rendering="optimizeQuality" fill-rule="evenodd" clip-rule="evenodd"
viewBox="0 0 6400000 6400000"
 xmlns:xlink="http://www.w3.org/1999/xlink">
 <g id="Warstwa">
   <path fill="{color}" fill-rule="nonzero" d="M2238689 926114l3018108 0 0 349965 -3018108 0 0 -349965zm2650781 1412143l367209 0 0 349965 -367209 0 0 1920142 323153 1181 437486 -427683 0 -3432089 -3789496 0 0 684457 3028857 0 0 199963 367209 0 0 349965 -367209 0 0 354099zm-3746149 -146340l3018108 0 0 349965 -3018108 0 0 -349965zm-118 1412143l3018108 0 0 349965 -3018108 0 0 -349965zm0 -703946l3018108 0 0 349965 -3018108 0 0 -349965zm2604008 2749995l0 -798789 792294 0 0 -3067125 -3789496 0 0 3865914 2997202 0zm-3069486 -4215879l832924 0 0 -1024619c82441,-2716 198781,591 277680,-9803l4211745 0 0 3926623 -639221 639221 -471383 -1536 0 396737 -639221 639221 -3850205 0 0 -4556040c82442,-2717 198782,708 277681,-9804z"/>
 </g>
</svg>
