<?xml version="1.0" encoding="UTF-8"?>
<!DOCTYPE svg PUBLIC "-//W3C//DTD SVG 1.1//EN" "http://www.w3.org/Graphics/SVG/1.1/DTD/svg11.dtd">
<svg xmlns="http://www.w3.org/2000/svg" xml:space="preserve" width="64px" height="64px" version="1.1" shape-rendering="geometricPrecision" text-rendering="geometricPrecision" image-rendering="optimizeQuality" fill-rule="evenodd" clip-rule="evenodd"
viewBox="0 0 6400000 6400000"
 xmlns:xlink="http://www.w3.org/1999/xlink">
 <g id="Warstwa">
   <path fill="{color}" d="M4662931 1219385l861979 861979 -2859602 2859602 -862097 -861979 2859720 -2859602zm-2299989 4498048l971587 0 0 310515 -1282220 0 -118 236 -638158 0 -1013989 -1014107 4266903 -4266902 1333009 1333126 -3637014 3637132zm1217968 0l390241 0 0 310515 -390241 0 0 -310515zm544495 0l246381 0 0 310515 -246381 0 0 -310515zm376658 0l177876 0 0 310515 -177876 0 0 -310515zm311697 0l128506 0 0 310515 -128506 0 0 -310515z"/>
 </g>
</svg>
