<?xml version="1.0" encoding="UTF-8"?>
<!DOCTYPE svg PUBLIC "-//W3C//DTD SVG 1.1//EN" "http://www.w3.org/Graphics/SVG/1.1/DTD/svg11.dtd">
<!-- Creator: CorelDRAW X8 -->
<svg xmlns="http://www.w3.org/2000/svg" xml:space="preserve" width="64px" height="64px" version="1.1" shape-rendering="geometricPrecision" text-rendering="geometricPrecision" image-rendering="optimizeQuality" fill-rule="evenodd" clip-rule="evenodd"
viewBox="0 0 6400000 6400000"
 xmlns:xlink="http://www.w3.org/1999/xlink">
 <g id="Warstwa_x0020_1">
  <metadata id="CorelCorpID_0Corel-Layer"/>
  <path fill="{color}" d="M4868918 914066l983398 983398 -3262363 3262245 -983398 -983398 3262363 -3262245zm-4377337 -564219l13465 -11575c126379,-107127 272247,-193113 430989,-251224 153663,-56339 319256,-87166 491227,-87166 393430,0 750363,159923 1008910,418351 258428,257720 418351,614772 418351,1008911 0,394138 -159923,751190 -417997,1009264 -258074,258074 -615126,417997 -1009264,417997 -394139,0 -751191,-159923 -1009265,-417997 -258074,-258901 -417997,-615834 -417997,-1009264 0,-42048 2598,-88466 7205,-138073 4842,-49607 11339,-95316 19488,-137010l347485 67797c-7087,36732 -12402,71221 -15473,103111 -2834,29882 -4370,64607 -4370,104175 0,296696 119883,565046 313587,758631 194766,194057 463116,314295 759340,314295 296224,0 564574,-120238 758631,-314295 194058,-194058 314295,-462407 314295,-758631 0,-296225 -120237,-564574 -314295,-758632 -193585,-194412 -461935,-314295 -758631,-314295 -130278,0 -254885,23032 -369336,64961 -119529,43702 -229254,108427 -324452,189097l-33426 29410 324689 0 0 354335 -887491 0 0 -868830 354335 0 0 226657zm1054029 443391l0 758395 273546 399690 -291972 199373 -335910 -490754 0 -866704 354336 0zm699457 5252191l101104 0 1007256 0 0 354335 -1462695 0 -236 236 -727923 0 -1156904 -1156904 4867856 -4867737 1520806 1520806 -4149264 4149264zm1389466 0l445281 0 0 354335 -445281 0 0 -354335zm621149 0l281106 0 0 354335 -281106 0 0 -354335zm429691 0l203034 0 0 354335 -203034 0 0 -354335zm355634 0l146577 0 0 354335 -146577 0 0 -354335z"/>
 </g>
</svg>
