<?xml version="1.0" encoding="UTF-8"?>
<!DOCTYPE svg PUBLIC "-//W3C//DTD SVG 1.1//EN" "http://www.w3.org/Graphics/SVG/1.1/DTD/svg11.dtd">
<!-- Creator: CorelDRAW X8 -->
<svg xmlns="http://www.w3.org/2000/svg" xml:space="preserve" width="64px" height="64px" version="1.1" shape-rendering="geometricPrecision" text-rendering="geometricPrecision" image-rendering="optimizeQuality" fill-rule="evenodd" clip-rule="evenodd"
viewBox="0 0 6400000 6400000"
 xmlns:xlink="http://www.w3.org/1999/xlink">
 <g id="Warstwa_x0020_1">
  <metadata id="CorelCorpID_0Corel-Layer"/>
  <path fill="{color}" d="M3431499 4819784c364374,357406 368981,941704 10276,1304780 -358706,363193 -944894,367681 -1309268,10157 -86222,-84568 -152246,-181892 -198074,-285830l-2716 6024 -318666 -143624 749183 -1656989 -1651320 772805 -147876 -316303 12166 -5670c-106655,-44882 -206814,-110198 -294453,-196065 -370162,-363430 -374768,-957059 -10275,-1326040 364374,-368981 960012,-373587 1330292,-10276 257601,252759 338153,617252 240475,939933l741978 -347248 1612106 -3565556 318666 143624 -1444152 3194212 3182519 -1489388 147758 316185 -3551382 1662068 -348902 771741c317012,-100867 678079,-27402 931665,221460zm-2075813 -1596752l-2598 -2599c-115514,-113505 -267169,-169372 -418116,-168191 -148702,1063 -297405,58702 -411383,171735l-6378 6496c-113269,115513 -169254,265869 -168191,414926 1063,147522 57875,294925 170199,408076l6496 6378c116576,114332 269059,170790 421068,169608 150356,-1181 300949,-60000 415281,-175868l4016 -5197c112442,-114568 167718,-263861 166537,-412210 -1063,-149175 -59410,-298350 -174214,-411737l-2717 -1417zm1830613 1846912l-2362 -2480c-112561,-110671 -260082,-164884 -406423,-163821l-1299 0c-144687,945 -289728,56930 -400753,167246l-6260 6378c-110080,112206 -164765,258783 -164057,404533 1063,143624 56576,287484 165947,397564l6378 6260c113506,111379 261854,166301 409139,165238l1299 0c146459,-945 293272,-58347 404887,-171262l3780 -5197c109607,-111616 163348,-257129 162285,-401698 -1063,-145277 -57993,-290791 -169844,-401462l-2717 -1299z"/>
 </g>
</svg>
