<?xml version="1.0" encoding="UTF-8"?>
<!DOCTYPE svg PUBLIC "-//W3C//DTD SVG 1.1//EN" "http://www.w3.org/Graphics/SVG/1.1/DTD/svg11.dtd">
<!-- Creator: CorelDRAW X8 -->
<svg xmlns="http://www.w3.org/2000/svg" xml:space="preserve" width="64px" height="64px" version="1.1" shape-rendering="geometricPrecision" text-rendering="geometricPrecision" image-rendering="optimizeQuality" fill-rule="evenodd" clip-rule="evenodd"
viewBox="0 0 6400000 6400000"
 xmlns:xlink="http://www.w3.org/1999/xlink">
 <g id="Warstwa_x0020_1">
  <metadata id="CorelCorpID_0Corel-Layer"/>
  <g id="_2223065957712">
   <path fill="{color}" fill-rule="nonzero" d="M4114893 22441c630126,0 1201432,255830 1615177,669221 414100,414454 669930,985760 669930,1615768 0,629890 -255830,1201314 -669221,1615177 -414454,414100 -985760,669930 -1615886,669930 -629889,0 -1201314,-255830 -1615177,-669339 -414100,-414454 -669930,-985878 -669930,-1615768 0,-630008 255830,-1201314 669339,-1615059 414454,-414100 985760,-669930 1615768,-669930zm1376828 908279c-352091,-352091 -838829,-569889 -1376828,-569889 -537999,0 -1024737,217798 -1376473,569535 -352446,352445 -570244,839183 -570244,1377064 0,537881 217798,1024737 569653,1376474 352327,352445 839184,570243 1377064,570243 537999,0 1024737,-217798 1376474,-569653 352445,-352327 570243,-839183 570243,-1377064 0,-537881 -217798,-1024619 -569889,-1376710z"/>
   <polygon fill="{color}" fill-rule="nonzero" points="2681726,3986270 236578,6400000 -118,6159525 2445030,3745794 "/>
  </g>
 </g>
</svg>
