<?xml version="1.0" encoding="UTF-8"?>
<!DOCTYPE svg PUBLIC "-//W3C//DTD SVG 1.1//EN" "http://www.w3.org/Graphics/SVG/1.1/DTD/svg11.dtd">
<!-- Creator: CorelDRAW X8 -->
<svg xmlns="http://www.w3.org/2000/svg" xml:space="preserve" width="64px" height="64px" version="1.1" shape-rendering="geometricPrecision" text-rendering="geometricPrecision" image-rendering="optimizeQuality" fill-rule="evenodd" clip-rule="evenodd"
viewBox="0 0 6400000 6400000"
 xmlns:xlink="http://www.w3.org/1999/xlink">
 <g id="Warstwa_x0020_1">
  <metadata id="CorelCorpID_0Corel-Layer"/>
  <g id="_2223065954032">
   <g>
    <path fill="{color}" fill-rule="nonzero" d="M332721 511542c25512,-30591 53386,-60946 82678,-90356 29173,-29291 59292,-57284 89647,-82914 126379,-107127 272247,-193113 430989,-251224 153663,-56339 319256,-87166 491227,-87166 393430,0 750363,159923 1008910,418351 258428,257720 418351,614772 418351,1008911 0,394138 -159923,751190 -417997,1009264 -258074,258074 -615126,417997 -1009264,417997 -394139,0 -751191,-159923 -1009265,-417997 -258074,-258901 -417997,-615834 -417997,-1009264 0,-42048 2598,-88466 7205,-138073 4842,-49607 11339,-95316 19488,-137010l347485 67797c-7087,36732 -12402,71221 -15473,103111 -2834,29882 -4370,64607 -4370,104175 0,296696 119883,565046 313587,758631 194766,194057 463116,314295 759340,314295 296224,0 564574,-120238 758631,-314295 194058,-194058 314295,-462407 314295,-758631 0,-296225 -120237,-564574 -314295,-758632 -193585,-194412 -461935,-314295 -758631,-314295 -130278,0 -254885,23032 -369336,64961 -119529,43702 -229254,108427 -324452,189097 -23859,20197 -46536,41103 -67442,62127 -21142,21260 -42048,44056 -62127,68150l-271184 -227010z"/>
    <polygon fill="{color}" fill-rule="nonzero" points="491581,123190 491581,637685 1024737,637685 1024737,992020 137246,992020 137246,123190 "/>
    <polygon fill="{color}" fill-rule="nonzero" points="1545610,793238 1545610,1551633 1819156,1951323 1527184,2150696 1191274,1659942 1191274,793238 "/>
   </g>
   <path fill="{color}" d="M4868918 914066l983398 983398 -3262363 3262245 -983398 -983398 3262363 -3262245zm4607 -538707l1520806 1520806 -4503835 4503835 -727923 0 -1156904 -1156904 4867856 -4867737z"/>
   <path fill="{color}" fill-rule="nonzero" d="M1480294 6045429l1873133 0 0 354335 -1873133 0 0 -354335zm2154239 0l445281 0 0 354335 -445281 0 0 -354335zm621149 0l281106 0 0 354335 -281106 0 0 -354335zm429691 0l203034 0 0 354335 -203034 0 0 -354335zm355634 0l146577 0 0 354335 -146577 0 0 -354335z"/>
  </g>
 </g>
</svg>
