<?xml version="1.0" encoding="UTF-8"?>
<!DOCTYPE svg PUBLIC "-//W3C//DTD SVG 1.1//EN" "http://www.w3.org/Graphics/SVG/1.1/DTD/svg11.dtd">
<svg xmlns="http://www.w3.org/2000/svg" xml:space="preserve" width="64px" height="64px" version="1.1" shape-rendering="geometricPrecision" text-rendering="geometricPrecision" image-rendering="optimizeQuality" fill-rule="evenodd" clip-rule="evenodd"
viewBox="0 0 6400000 6400000"
 xmlns:xlink="http://www.w3.org/1999/xlink">
 <g id="Warstwa">  
  <path fill="{color}" d="M677725 1434466l832924 0 0 -1024618c82560,-2835 198781,590 277798,-9804l-118 0 4211745 0 0 3926387 -639221 639221 -471502 -1536 0 396737 -639102 639221 -3850205 0 0 -4555804c82442,-2835 198782,590 277681,-9804l0 0zm1182770 0l3028856 0 0 3173898 326579 7323 434061 -434061 0 -3431617 118 0 -3789614 0 0 684457zm1886716 4215643l0 -798789 792294 0 0 -3067007 0 0 -3789496 0 0 3865796 2997202 0z"/>
 </g>
</svg>
