<?xml version="1.0" encoding="UTF-8"?>
<!DOCTYPE svg PUBLIC "-//W3C//DTD SVG 1.1//EN" "http://www.w3.org/Graphics/SVG/1.1/DTD/svg11.dtd">
<!-- Creator: CorelDRAW X8 -->
<svg xmlns="http://www.w3.org/2000/svg" xml:space="preserve" width="64px" height="64px" version="1.1" shape-rendering="geometricPrecision" text-rendering="geometricPrecision" image-rendering="optimizeQuality" fill-rule="evenodd" clip-rule="evenodd"
viewBox="0 0 6400000 6400000"
 xmlns:xlink="http://www.w3.org/1999/xlink">
 <g id="Warstwa_x0020_1">
  <metadata id="CorelCorpID_0Corel-Layer"/>
  <g id="_2222958592352">
   <polygon fill="{color}" fill-rule="nonzero" points="896350,2125892 4254619,2125892 4254619,2480227 896350,2480227 "/>
   <polygon fill="{color}" fill-rule="nonzero" points="896350,2712199 4254619,2712199 4254619,3066534 896350,3066534 "/>
   <polygon fill="{color}" fill-rule="nonzero" points="896350,3292481 4254619,3292481 4254619,3646817 896350,3646817 "/>
   <polygon fill="{color}" fill-rule="nonzero" points="896350,3876308 4254619,3876308 4254619,4230643 896350,4230643 "/>
   <polygon fill="{color}" fill-rule="nonzero" points="896350,4461905 4254619,4461905 4254619,4816240 896350,4816240 "/>
   <path fill="{color}" fill-rule="nonzero" d="M317484 1182062l4813288 0 0 4487417 -730521 730521 -4400133 0 0 -5206718c94253,-3189 227129,709 317366,-11220zm4413362 399926l-4330802 0 0 4418086 3834614 0 496188 -496187 0 -3921899z"/>
   <polygon fill="{color}" fill-rule="nonzero" points="4930809,5487115 4225328,5487115 4225328,6200037 3825401,6200037 3825401,5087189 4930809,5087189 "/>
   <polygon fill="{color}" fill-rule="nonzero" points="2115617,724733 5523847,724733 5523847,1079068 2115617,1079068 "/>
   <polygon fill="{color}" fill-rule="nonzero" points="4869627,1311040 5523847,1311040 5523847,1665375 4869627,1665375 "/>
   <polygon fill="{color}" fill-rule="nonzero" points="4869627,1891322 5523847,1891322 5523847,2245658 4869627,2245658 "/>
   <polygon fill="{color}" fill-rule="nonzero" points="4869627,2475149 5523847,2475149 5523847,2829484 4869627,2829484 "/>
   <polygon fill="{color}" fill-rule="nonzero" points="4869627,3060746 5523847,3060746 5523847,3415081 4869627,3415081 "/>
   <path fill="{color}" fill-rule="nonzero" d="M1586712 -118l4813288 0 0 4487417 -730521 730521 -837648 -2716 37796 -3726897 -3600281 -22795 0 -1454310c94253,-3189 227129,709 317366,-11220zm4413362 399926l-4330801 0 0 889854 3378939 21378 -25394 3496106 481069 10748 496187 -496187 0 -3921899z"/>
   <polygon fill="{color}" fill-rule="nonzero" points="6303030,4266430 5597549,4266430 5597549,4979353 5197623,4979353 5197623,3866504 6303030,3866504 "/>
  </g>
 </g>
</svg>
