<?xml version="1.0" encoding="UTF-8"?>
<!DOCTYPE svg PUBLIC "-//W3C//DTD SVG 1.1//EN" "http://www.w3.org/Graphics/SVG/1.1/DTD/svg11.dtd">
<!-- Creator: CorelDRAW X8 -->
<svg xmlns="http://www.w3.org/2000/svg" xml:space="preserve" width="64px" height="64px" version="1.1" shape-rendering="geometricPrecision" text-rendering="geometricPrecision" image-rendering="optimizeQuality" fill-rule="evenodd" clip-rule="evenodd"
viewBox="0 0 6400000 6400000"
 xmlns:xlink="http://www.w3.org/1999/xlink">
 <g id="Warstwa_x0020_1">
  <metadata id="CorelCorpID_0Corel-Layer"/>
  <path fill="#101010" fill-rule="nonzero" d="M6000074 4266430l-402525 0 0 457801 402525 -402524 0 -55277zm-3898749 -3665123l3449216 0 0 399926 -3449216 0 0 -399926zm3029447 1613878l419651 0 0 399926 -419651 0 0 2194397 66851 1535 0 -944539 802451 0 0 -3466696 -4330801 0 0 782254 3461499 0 0 228546 419651 0 0 399926 -419651 0 0 404651zm-4281195 -411383l3449216 0 0 399926 -3449216 0 0 -399926zm-118 1613878l3449216 0 0 399926 -3449216 0 0 -399926zm0 -804577l3449216 0 0 399926 -3449216 0 0 -399926zm3881387 2874012l-505518 0 0 512959 9330 0 496188 -496187 0 -16772zm-905445 512959l0 -912885 905445 0 0 -3505201 -4330802 0 0 4418086 3425357 0zm-3507917 -4818012l951862 0 0 -1170960c94253,-3189 227129,709 317366,-11220l4813288 0 0 4487417 -730521 730521 -538707 -1772 0 453431 -730521 730521 -4400133 0 0 -5206718c94253,-3189 227129,709 317366,-11220z"/>
 </g>
</svg>
