<?xml version="1.0" encoding="UTF-8"?>
<!DOCTYPE svg PUBLIC "-//W3C//DTD SVG 1.1//EN" "http://www.w3.org/Graphics/SVG/1.1/DTD/svg11.dtd">
<!-- Creator: CorelDRAW X8 -->
<svg xmlns="http://www.w3.org/2000/svg" xml:space="preserve" width="64px" height="64px" version="1.1" shape-rendering="geometricPrecision" text-rendering="geometricPrecision" image-rendering="optimizeQuality" fill-rule="evenodd" clip-rule="evenodd"
viewBox="0 0 6400000 6400000"
 xmlns:xlink="http://www.w3.org/1999/xlink">
 <g id="Warstwa_x0020_1">
  <metadata id="CorelCorpID_0Corel-Layer"/>
  <path fill="{color}" fill-rule="nonzero" d="M317484 1182062l4813288 0 0 4487417 -730521 730521 -4400133 0 0 -5206718c94253,-3189 227129,709 317366,-11220zm4413362 399926l-4330802 0 0 4418086 3834614 0 496188 -496187 0 -3921899z"/>
  <polygon fill="{color}" fill-rule="nonzero" points="4930809,5487115 4225328,5487115 4225328,6200037 3825401,6200037 3825401,5087189 4930809,5087189 "/>
  <path fill="{color}" fill-rule="nonzero" d="M1586712 -118l4813288 0 0 4487417 -730521 730521 -837648 -2716 37796 -3726897 -3600281 -22795 0 -1454310c94253,-3189 227129,709 317366,-11220zm4413362 399926l-4330801 0 0 889854 3378939 21378 -25394 3496106 481069 10748 496187 -496187 0 -3921899z"/>
 </g>
</svg>
