<?xml version="1.0" encoding="UTF-8"?>
<!DOCTYPE svg PUBLIC "-//W3C//DTD SVG 1.1//EN" "http://www.w3.org/Graphics/SVG/1.1/DTD/svg11.dtd">
<!-- Creator: CorelDRAW X8 -->
<svg xmlns="http://www.w3.org/2000/svg" xml:space="preserve" width="64px" height="64px" version="1.1" shape-rendering="geometricPrecision" text-rendering="geometricPrecision" image-rendering="optimizeQuality" fill-rule="evenodd" clip-rule="evenodd"
viewBox="0 0 6400000 6400000"
 xmlns:xlink="http://www.w3.org/1999/xlink">
 <g id="Warstwa_x0020_1">
  <metadata id="CorelCorpID_0Corel-Layer"/>
  <path fill="{color}" d="M6303975 330004l-996390 -330004 -2404282 2455424 -235160 -240594 -386934 395202 -320319 -327169 -1960890 2019946 2056325 2097309 1969866 -2008017 -325988 -332838 386816 -394966 -187443 -191341 53150 -425438 663315 -157443 122009 -487329 507999 -108308 118 -393076 480833 -98151 192167 -589259 480833 -98151 -96025 -785797zm-4192138 3133739l871782 871783 -871782 871782 -871782 -871782 871782 -871783z"/>
  <path fill="{color}" d="M5979522 595637l-574377 -190278 -2502078 2555465 -235160 -240594 -386698 394966 -319256 -326107 -1468246 1512539 1562736 1593799 1474978 -1503562 -325870 -332602 386816 -394966 -65434 -66733 104765 -837766 693434 -164648 123190 -492289 444927 -94844 0 -395084 561149 -114568 192049 -589141 362367 -74056 -29292 -239531zm324453 -265633l-996390 -330004 -2404282 2455424 -235160 -240594 -386934 395202 -320319 -327169 -1960890 2019946 2056325 2097309 1969866 -2008017 -325988 -332838 386816 -394966 -187443 -191341 53150 -425438 663315 -157443 122009 -487329 507999 -108308 118 -393076 480833 -98151 192167 -589259 480833 -98151 -96025 -785797z"/>
 </g>
</svg>
