<?xml version="1.0" encoding="UTF-8"?>
<!DOCTYPE svg PUBLIC "-//W3C//DTD SVG 1.1//EN" "http://www.w3.org/Graphics/SVG/1.1/DTD/svg11.dtd">
<!-- Creator: CorelDRAW X8 -->
<svg xmlns="http://www.w3.org/2000/svg" xml:space="preserve" width="64px" height="64px" version="1.1" shape-rendering="geometricPrecision" text-rendering="geometricPrecision" image-rendering="optimizeQuality" fill-rule="evenodd" clip-rule="evenodd"
viewBox="0 0 6400000 6400000"
 xmlns:xlink="http://www.w3.org/1999/xlink">
 <g id="Warstwa_x0020_1">
  <metadata id="CorelCorpID_0Corel-Layer"/>
  <g>
   <path fill="black" d="M1546436 3200236c-826,-382800 -1181,-1215133 -1181,-1239936 0,-917138 730403,-1660887 1647540,-1660887 917019,0 1660296,743749 1660296,1660887 0,25748 -354,855010 -1771,1239936 277916,0 608039,0 886310,0l0 2899288 -5075260 0 0 -2899288c273547,0 610874,0 884066,0zm-521463 1450057l4350054 0 0 -1086981 -4350054 0 0 1086981zm4362455 369926l-4362455 -7323 0 725324 4350054 0 12401 -718001zm-630243 -1819983l-155908 0 -161340 0c-826782,0 -1653564,0 -2480228,0l2797476 0zm-2808224 0l2487550 0c1772,-381028 2599,-1215605 2599,-1239936 0,-344178 -140081,-655875 -365320,-881113 -225593,-225712 -537290,-364848 -880995,-364848 -344295,0 -655992,139136 -881113,364848 -225239,225238 -365319,536935 -365319,881113 0,25748 826,855010 2598,1239936z"/>
  </g>
 </g>
</svg>
