<?xml version="1.0" encoding="UTF-8"?>
<!DOCTYPE svg PUBLIC "-//W3C//DTD SVG 1.1//EN" "http://www.w3.org/Graphics/SVG/1.1/DTD/svg11.dtd">
<!-- Creator: CorelDRAW X8 -->
<svg xmlns="http://www.w3.org/2000/svg" xml:space="preserve" width="64px" height="64px" version="1.1" shape-rendering="geometricPrecision" text-rendering="geometricPrecision" image-rendering="optimizeQuality" fill-rule="evenodd" clip-rule="evenodd"
viewBox="0 0 6400000 6400000"
 xmlns:xlink="http://www.w3.org/1999/xlink">
 <g id="Warstwa_x0020_1">
  <metadata id="CorelCorpID_0Corel-Layer"/>
  <path fill="{color}" fill-rule="nonzero" d="M4254501 403115l1025092 0 0 1675651 1261787 1261787 -282760 282759 -558550 -558550 0 3335238 -2104396 0c0,-509888 0,-1019894 0,-1529783l-791466 0c0,509889 0,1019895 0,1529783l-2117389 0 0 -3322127 -545439 545439 -282760 -282759 3341380 -3341380 854538 854538 0 -450596 199963 0zm-1650256 4067176l1391355 0 0 1549744 1304544 0 0 -3355199 -2100144 -2100144 -2113254 2113254 0 3342089 1317536 0 0 -1549744 199963 0zm1850219 -3216654l425202 425203 0 -875799 -425202 0 0 450596z"/>
 </g>
</svg>
