<?xml version="1.0" encoding="UTF-8"?>
<!DOCTYPE svg PUBLIC "-//W3C//DTD SVG 1.1//EN" "http://www.w3.org/Graphics/SVG/1.1/DTD/svg11.dtd">
<!-- Creator: CorelDRAW X8 -->
<svg xmlns="http://www.w3.org/2000/svg" xml:space="preserve" width="64px" height="64px" version="1.1" shape-rendering="geometricPrecision" text-rendering="geometricPrecision" image-rendering="optimizeQuality" fill-rule="evenodd" clip-rule="evenodd"
viewBox="0 0 6400000 6400000"
 xmlns:xlink="http://www.w3.org/1999/xlink">
 <g id="Warstwa_x0020_1">
  <metadata id="CorelCorpID_0Corel-Layer"/>
  <path fill="{color}" fill-rule="nonzero" d="M-11457 3125826l3212048 -3125944 3210984 3191968 -240830 242247 -2972753 -2955390 -2971454 2891728 -237995 -244609zm1057336 -655520l0 3585162 1261551 0 0 -1824707 1737305 0 0 1826833 1203558 0 0 -3673510 342288 0 0 4015916 -1888134 0 0 -1826952 -1052611 0 0 1824826 -1946363 0 0 -3927568 342406 0zm2621725 -1986048l1237220 0 0 1254937 -342288 0 0 -912649 -894932 0 0 -342288z"/>
 </g>
</svg>
