<?xml version="1.0" encoding="UTF-8"?>
<!DOCTYPE svg PUBLIC "-//W3C//DTD SVG 1.1//EN" "http://www.w3.org/Graphics/SVG/1.1/DTD/svg11.dtd">
<!-- Creator: CorelDRAW X8 -->
<svg xmlns="http://www.w3.org/2000/svg" xml:space="preserve" width="64px" height="64px" version="1.1" shape-rendering="geometricPrecision" text-rendering="geometricPrecision" image-rendering="optimizeQuality" fill-rule="evenodd" clip-rule="evenodd"
viewBox="0 0 6400000 6400000"
 xmlns:xlink="http://www.w3.org/1999/xlink">
 <g id="Warstwa_x0020_1">
  <metadata id="CorelCorpID_0Corel-Layer"/>
  <g id="_2222965355456">
   <path fill="{color}" d="M513195 5222308c-181655,-571542 -177640,-1170723 -10984,-1720887 165947,-549810 495242,-1050013 964028,-1425018 625519,-500203 1395253,-699339 2133805,-617251 738435,82206 1445451,445871 1945536,1071273l293744 -234924c-565755,-707371 -1364308,-1118636 -2197941,-1211354 -833159,-92717 -1702698,132758 -2409951,698513 -529967,423903 -902137,988949 -1090170,1609508 -188507,619850 -192522,1296512 13228,1943882l358705 -113742z"/>
   <path fill="{color}" fill-rule="nonzero" d="M5388491 1233795c0,289255 42757,619259 64608,911822l-1011981 -172443 -63426 372170 1487734 253586 -98977 -1324151 0 -40984 -377958 0z"/>
   <polygon fill="{color}" fill-rule="nonzero" points="5796567,2888658 6073776,3363821 6400118,3174724 6122910,2699561 "/>
  </g>
 </g>
</svg>
