<?xml version="1.0" encoding="UTF-8"?>
<!DOCTYPE svg PUBLIC "-//W3C//DTD SVG 1.1//EN" "http://www.w3.org/Graphics/SVG/1.1/DTD/svg11.dtd">
<!-- Creator: CorelDRAW X8 -->
<svg xmlns="http://www.w3.org/2000/svg" xml:space="preserve" width="64px" height="64px" version="1.1" shape-rendering="geometricPrecision" text-rendering="geometricPrecision" image-rendering="optimizeQuality" fill-rule="evenodd" clip-rule="evenodd"
viewBox="0 0 6400000 6400000"
 xmlns:xlink="http://www.w3.org/1999/xlink">
 <g id="Warstwa_x0020_1">
  <metadata id="CorelCorpID_0Corel-Layer"/>
  <path fill="{color}" d="M5264710 2882043c-63544,-423666 -241892,-816388 -505045,-1141667 -381028,-470675 -940287,-801270 -1588484,-880995l-14292 -1654c-653157,-76536 -1271708,115868 -1743446,488864 -464416,367328 -787805,909815 -863279,1542893l1772 21497 -7205 29055c-27047,277090 -4370,548511 60591,805168l-321972 101812c-81025,-306500 -108899,-631780 -74056,-963910 154962,-1477931 1490569,-2534086 2983501,-2359163 1268165,148585 2241524,1138243 2410542,2338966l289846 -502211 312405 180593 -746466 1294386 -829144 -1269346 321382 -192168 313350 507880z"/>
  <path fill="{color}" d="M5080456 4184697l-21850 45946c-122128,250278 -283350,469730 -473038,654338l221105 255240c229491,-218743 423313,-481305 567409,-782608l-293626 -172916z"/>
 </g>
</svg>
