<?xml version="1.0" encoding="UTF-8"?>
<!DOCTYPE svg PUBLIC "-//W3C//DTD SVG 1.1//EN" "http://www.w3.org/Graphics/SVG/1.1/DTD/svg11.dtd">
<svg xmlns="http://www.w3.org/2000/svg" xml:space="preserve" width="64px" height="64px" version="1.1" shape-rendering="geometricPrecision" text-rendering="geometricPrecision" image-rendering="optimizeQuality" fill-rule="evenodd" clip-rule="evenodd"
viewBox="0 0 6400000 6400000"
 xmlns:xlink="http://www.w3.org/1999/xlink">
 <g id="Warstwa_1">
  <path fill="{color}" d="M2898815 999934c1287654,0 2334478,969815 2481054,2200066l574732 0 -800089 800089 -799970 -800089 621976 0c-144569,-1019422 -1018832,-1800140 -2077703,-1800140 -1272417,0 -2212940,1108596 -2085734,2316879l-375832 209294c-262207,-1484901 878751,-2926099 2461566,-2926099zm1280685 4162019c281697,-216262 508707,-504219 651386,-843081 13465,6851 19016,4606 34134,4606l328469 156262c-154490,361540 -391304,679024 -686229,928830l-327760 -246617z"/>
 </g>
</svg>
