<?xml version="1.0" encoding="UTF-8"?>
<!DOCTYPE svg PUBLIC "-//W3C//DTD SVG 1.1//EN" "http://www.w3.org/Graphics/SVG/1.1/DTD/svg11.dtd">
<svg xmlns="http://www.w3.org/2000/svg" xml:space="preserve" width="64px" height="64px" version="1.1" shape-rendering="geometricPrecision" text-rendering="geometricPrecision" image-rendering="optimizeQuality" fill-rule="evenodd" clip-rule="evenodd"
viewBox="0 0 6400000 6400000"
 xmlns:xlink="http://www.w3.org/1999/xlink">
 <g id="Warstwa">
   <path fill="{color}" d="M5123567 3255394c-59292,-394729 -225357,-760639 -470557,-1063713 -354926,-438431 -876034,-746466 -1479821,-820759l-13347 -1535c-608511,-71221 -1184778,107954 -1624272,455439 -432643,342287 -733946,847687 -804222,1437419l1653 20079 -6732 27047c-25158,258193 -4016,511070 56457,750128l-299885 94843c-75592,-285594 -101458,-588550 -69096,-898003 144451,-1376946 1388639,-2360816 2779523,-2197822 1181471,138427 2088214,1060407 2245775,2179043l270004 -467959 291027 168309 -695442 1205921 -772450 -1182653 299413 -178939 291972 473155z"/>
   <path fill="{color}" d="M4951833 4468992l-20316 42756c-113741,233153 -263979,437604 -440674,609575l205986 237877c213783,-203861 394375,-448470 528550,-729104l-273546 -161104z"/>
 </g>
</svg>
