<?xml version="1.0" encoding="UTF-8"?>
<!DOCTYPE svg PUBLIC "-//W3C//DTD SVG 1.1//EN" "http://www.w3.org/Graphics/SVG/1.1/DTD/svg11.dtd">
<!-- Creator: CorelDRAW X8 -->
<svg xmlns="http://www.w3.org/2000/svg" xml:space="preserve" width="64px" height="64px" version="1.1" shape-rendering="geometricPrecision" text-rendering="geometricPrecision" image-rendering="optimizeQuality" fill-rule="evenodd" clip-rule="evenodd"
viewBox="0 0 6400000 6400000"
 xmlns:xlink="http://www.w3.org/1999/xlink">
 <g id="Warstwa_x0020_1">
  <metadata id="CorelCorpID_0Corel-Layer"/>
  <polygon fill="#0D47A1" points="-118,-118 6400118,-118 6400118,6400118 -118,6400118 "/>
  <path fill="#FFFFFF" fill-rule="nonzero" d="M2292548 1729982c51733,-48426 109253,-94253 171734,-137482 62481,-43347 130868,-81733 205042,-115041 74174,-33307 154136,-60001 240003,-79135 85749,-19252 178231,-28347 278271,-28347 131695,0 254177,19135 366737,57521 112442,38268 209058,92481 290791,162403 81615,70041 145868,155081 192522,255004 46654,100040 69922,212601 69922,337563 0,126616 -18307,235869 -55748,327524 -37560,91654 -85041,171616 -142561,240829 -57521,69096 -120002,129096 -187444,180002 -67559,50788 -131694,99096 -191695,144097 -60001,45000 -110789,90001 -153309,135001 -42520,45001 -67560,95080 -74174,150002l-45000 382564 -305083 0 -30000 -415044c-6615,-75001 7559,-140790 42520,-196656 35079,-55867 80906,-108309 137482,-157443 56693,-49253 119175,-97561 187561,-145041 68269,-47481 132522,-100041 191695,-158388 59174,-58347 108309,-124962 148349,-199137 39922,-74174 60001,-162521 60001,-265869 0,-71576 -14174,-136655 -42521,-195002 -28347,-58348 -66733,-108309 -115040,-149175 -48308,-40749 -105002,-71576 -170790,-93309 -65906,-21614 -136655,-32480 -211656,-32480 -101694,0 -188388,12519 -260909,37559 -72520,24922 -134175,52442 -184136,82442 -49961,30000 -90001,57520 -120828,82560 -30827,24922 -56694,37442 -76655,37442 -41693,0 -74174,-19135 -97560,-57521l-117521 -187443zm487565 2987517c0,-43347 8386,-84214 24213,-122482 15827,-38386 37441,-71694 64961,-100040 27520,-28347 60001,-50907 98269,-67560 38386,-16654 79253,-24922 122600,-24922 43229,0 84096,8268 122482,24922 38268,16653 71694,39213 99922,67560 28347,28346 50907,61654 67560,100040 16654,38268 25040,79135 25040,122482 0,45001 -8386,85749 -25040,123309 -16653,37441 -39213,70867 -67560,99213 -28228,28229 -61654,49962 -99922,65789 -38386,15827 -79253,24094 -122482,24094 -43347,0 -84214,-8267 -122600,-24094 -38268,-15827 -70749,-37560 -98269,-65789 -27520,-28346 -49134,-61772 -64961,-99213 -15827,-37560 -24213,-78308 -24213,-123309z"/>
 </g>
</svg>
