<?xml version="1.0" encoding="UTF-8"?>
<!DOCTYPE svg PUBLIC "-//W3C//DTD SVG 1.1//EN" "http://www.w3.org/Graphics/SVG/1.1/DTD/svg11.dtd">
<svg xmlns="http://www.w3.org/2000/svg" xml:space="preserve" width="64px" height="64px" version="1.1" shape-rendering="geometricPrecision" text-rendering="geometricPrecision" image-rendering="optimizeQuality" fill-rule="evenodd" clip-rule="evenodd"
viewBox="0 0 6400000 6400000"
 xmlns:xlink="http://www.w3.org/1999/xlink">
 <g id="Warstwa">
  <polygon fill="#0D47A1" points="399926,399926 6000074,399926 6000074,6000074 399926,6000074 "/>
  <path fill="#FFFFFF" fill-rule="nonzero" d="M2406053 1913764c45237,-42402 95553,-82442 150238,-120238 54686,-37914 114451,-71576 179412,-100749 64843,-29056 134883,-52442 210003,-69214 75000,-16772 155907,-24803 243428,-24803 115277,0 222404,16772 320909,50315 98387,33544 182955,80907 254413,142089 71457,61300 127678,135710 168427,223113 40867,87639 61182,186026 61182,295397 0,110789 -15945,206341 -48780,286539 -32835,80198 -74411,150238 -124726,210711 -50316,60473 -105001,113033 -163939,157561 -59174,44410 -115277,86694 -167719,126025 -52560,39450 -96970,78781 -134175,118112 -37205,39449 -59174,83269 -64961,131340l-39331 334729 -266933 0 -26221 -363194c-5787,-65670 6615,-123190 37206,-172088 30709,-48899 70749,-94726 120237,-137719 49607,-43110 104293,-85394 164176,-126970 59646,-41457 115867,-87520 167718,-138545 51733,-51024 94726,-109371 129805,-174214 34843,-64962 52442,-142207 52442,-232680 0,-62600 -12402,-119529 -37206,-170554 -24803,-51024 -58347,-94843 -100631,-130513 -42284,-35670 -91891,-62717 -149411,-81733 -57757,-18898 -119647,-28347 -185199,-28347 -89056,0 -164884,10984 -228310,32835 -63426,21851 -117403,45945 -161104,72166 -43702,26221 -78781,50316 -105710,72166 -27048,21851 -49607,32835 -67088,32835 -36496,0 -64961,-16771 -85395,-50315l-102757 -164057zm426502 2614048c0,-37914 7441,-73702 21260,-107246 13819,-33544 32717,-62717 56811,-87521 24095,-24803 52560,-44528 85986,-59055 33543,-14646 69331,-21851 107245,-21851 37914,0 73584,7205 107245,21851 33426,14527 62718,34252 87403,59055 24804,24804 44528,53977 59056,87521 14646,33544 21969,69332 21969,107246 0,39331 -7323,75001 -21969,107836 -14528,32717 -34252,62008 -59056,86812 -24685,24685 -53977,43701 -87403,57520 -33661,13937 -69331,21142 -107245,21142 -37914,0 -73702,-7205 -107245,-21142 -33426,-13819 -61891,-32835 -85986,-57520 -24094,-24804 -42992,-54095 -56811,-86812 -13819,-32835 -21260,-68505 -21260,-107836z"/>
 </g>
</svg>
