<?xml version="1.0" encoding="UTF-8"?>
<!DOCTYPE svg PUBLIC "-//W3C//DTD SVG 1.1//EN" "http://www.w3.org/Graphics/SVG/1.1/DTD/svg11.dtd">
<svg xmlns="http://www.w3.org/2000/svg" xml:space="preserve" width="64px" height="64px" version="1.1" shape-rendering="geometricPrecision" text-rendering="geometricPrecision" image-rendering="optimizeQuality" fill-rule="evenodd" clip-rule="evenodd"
viewBox="0 0 6400000 6400000"
 xmlns:xlink="http://www.w3.org/1999/xlink">
 <g id="Warstwa">
   <rect fill="{color}" x="2739975" y="3435783" width="919950" height="695280"/>
   <path fill="{color}" d="M837412 4862422l4200052 0 525006 -2187547 -4200052 0 -525006 2187547zm4287572 -2537393l0 -349965 -2644875 0 -175041 -350083 -1555295 0 0 2100380 349965 -1400214 4025128 0 0 -118 118 0zm-4375093 2800073l-349965 0 0 -3850086 2119869 0 175041 349965 2780231 0 0 700048 525007 0 -700166 2800073 -4550017 0 0 0 0 0z"/>
 </g>
</svg>
