<?xml version="1.0" encoding="UTF-8"?>
<!DOCTYPE svg PUBLIC "-//W3C//DTD SVG 1.1//EN" "http://www.w3.org/Graphics/SVG/1.1/DTD/svg11.dtd">
<!-- Creator: CorelDRAW X8 -->
<svg xmlns="http://www.w3.org/2000/svg" xml:space="preserve" width="64px" height="64px" version="1.1" shape-rendering="geometricPrecision" text-rendering="geometricPrecision" image-rendering="optimizeQuality" fill-rule="evenodd" clip-rule="evenodd"
viewBox="0 0 6400000 6400000"
 xmlns:xlink="http://www.w3.org/1999/xlink">
 <g id="Warstwa_x0020_1">
  <metadata id="CorelCorpID_0Corel-Layer"/>
  <path fill="{color}" d="M0 0l6400000 0 0 4492851 -1180290 1907149 -5219710 0 0 -6400000zm1348009 1378718l3703982 0 0 400044 -3703982 0 0 -400044zm0 1763289l2160853 0 0 400163 -2160853 0 0 -400163zm0 -872963l2527117 0 0 399926 -2527117 0 0 -399926zm4459425 2330934l-641819 0 0 1036076 641819 -1036076zm-1110132 1400096l0 -1863566 1302772 0 0 -3736582 -5600148 0 0 5600148 4297376 0z"/>
 </g>
</svg>
