<?xml version="1.0" encoding="UTF-8"?>
<!DOCTYPE svg PUBLIC "-//W3C//DTD SVG 1.1//EN" "http://www.w3.org/Graphics/SVG/1.1/DTD/svg11.dtd">
<!-- Creator: CorelDRAW X8 -->
<svg xmlns="http://www.w3.org/2000/svg" xml:space="preserve" width="64px" height="64px" version="1.1" shape-rendering="geometricPrecision" text-rendering="geometricPrecision" image-rendering="optimizeQuality" fill-rule="evenodd" clip-rule="evenodd"
viewBox="0 0 6400000 6400000"
 xmlns:xlink="http://www.w3.org/1999/xlink">
 <g id="Warstwa_x0020_1">
  <metadata id="CorelCorpID_0Corel-Layer"/>
  <g id="_3226361378448">
   <polygon fill="#101010" fill-rule="nonzero" points="1348009,1378718 5051991,1378718 5051991,1778762 1348009,1778762 "/>
   <polygon fill="#101010" fill-rule="nonzero" points="1348009,2269044 3875126,2269044 3875126,2668970 1348009,2668970 "/>
   <polygon fill="#101010" fill-rule="nonzero" points="1348009,3142007 3508862,3142007 3508862,3542170 1348009,3542170 "/>
  </g>
  <path fill="#101010" d="M0 0l6400000 0 0 4492851 -1180290 1907149 -5219710 0 0 -6400000zm5807434 4599978l-641819 0 0 1036076 641819 -1036076zm-1110132 1400096l0 -1863566 1302772 0 0 -3736582 -5600148 0 0 5600148 4297376 0z"/>
 </g>
</svg>
