<?xml version="1.0" encoding="UTF-8"?>
<!DOCTYPE svg PUBLIC "-//W3C//DTD SVG 1.1//EN" "http://www.w3.org/Graphics/SVG/1.1/DTD/svg11.dtd">
<!-- Creator: CorelDRAW X8 -->
<svg xmlns="http://www.w3.org/2000/svg" xml:space="preserve" width="64px" height="64px" version="1.1" shape-rendering="geometricPrecision" text-rendering="geometricPrecision" image-rendering="optimizeQuality" fill-rule="evenodd" clip-rule="evenodd"
viewBox="0 0 6400000 6400000"
 xmlns:xlink="http://www.w3.org/1999/xlink">
 <g id="Warstwa_x0020_1">
  <metadata id="CorelCorpID_0Corel-Layer"/>
  <path fill="#D32F2F" d="M1596279 3242993l3211457 0 -6378 -1237575c-2480,-443509 -183073,-845916 -473982,-1137297 -289137,-288783 -688473,-467368 -1130801,-467368l-7323 0 0 -1535c-439494,1535 -839184,181183 -1129266,471029 -288074,287602 -466541,685756 -466541,1126431l0 7323 -1654 0 4488 1238992zm-1090170 0l690953 0 -4370 -1238992c-4016,-1106706 897294,-2004001 2003883,-2004001 1106470,0 1998095,897295 2003765,2004001l6496 1238992 687174 0 0 3157007 -5387901 0 0 -3157007z"/>
 </g>
</svg>
