<?xml version="1.0" encoding="UTF-8"?>
<!DOCTYPE svg PUBLIC "-//W3C//DTD SVG 1.1//EN" "http://www.w3.org/Graphics/SVG/1.1/DTD/svg11.dtd">
<svg xmlns="http://www.w3.org/2000/svg" xml:space="preserve" width="64px" height="64px" version="1.1" shape-rendering="geometricPrecision" text-rendering="geometricPrecision" image-rendering="optimizeQuality" fill-rule="evenodd" clip-rule="evenodd"
viewBox="0 0 6400000 6400000"
 xmlns:xlink="http://www.w3.org/1999/xlink">
 <g id="Warstwa">
   <path fill="#D32F2F" d="M1796715 3237678c1253519,0 2507039,0 3760558,0l0 2762278 -4714428 0 0 -2762278 604614 0 -3898 -1084148c-3425,-968397 785207,-1753486 1753486,-1753486 968162,0 1748289,785089 1753250,1753486l0 1182 -349138 0c-2126,-387997 -160159,-740206 -414690,-995091 -252995,-252759 -602370,-409021 -989422,-409021l-6496 0 0 -1299c-384572,1299 -734300,158505 -988122,412209 -252051,251578 -408194,600008 -408194,985524l0 6496 -1418 0 3898 1084148z"/>
 </g>
</svg>
