<?xml version="1.0" encoding="UTF-8"?>
<!DOCTYPE svg PUBLIC "-//W3C//DTD SVG 1.1//EN" "http://www.w3.org/Graphics/SVG/1.1/DTD/svg11.dtd">
<!-- Creator: CorelDRAW X8 -->
<svg xmlns="http://www.w3.org/2000/svg" xml:space="preserve" width="64px" height="64px" version="1.1" shape-rendering="geometricPrecision" text-rendering="geometricPrecision" image-rendering="optimizeQuality" fill-rule="evenodd" clip-rule="evenodd"
viewBox="0 0 6400000 6400000"
 xmlns:xlink="http://www.w3.org/1999/xlink">
 <g id="Warstwa_x0020_1">
  <metadata id="CorelCorpID_0Corel-Layer"/>
  <path fill="{color}" d="M0 -118l6400118 0 0 6400118 -6400118 0 0 -6400118zm1478168 4364935l0 1251630 1249976 0 0 -226656 -857491 0 1203794 -1219385 -169254 -168191 -1200251 1215605 0 -853003 -226774 0zm3425829 -961547l0 -1251747 -1249858 0 0 226774 857491 0 -1203794 1219385 169136 168191 1200251 -1215842 0 853239 226774 0zm-4503953 -2733931l426856 0 0 426974 -426856 0 0 -426974zm5173174 -473l426856 0 0 426974 -426856 0 0 -426974zm-861506 0l426855 0 0 426974 -426855 0 0 -426974zm1288362 1105053l-5600030 0 0 4226037 5600030 0 0 -4226037z"/>
 </g>
</svg>
