<?xml version="1.0" encoding="UTF-8"?>
<!DOCTYPE svg PUBLIC "-//W3C//DTD SVG 1.1//EN" "http://www.w3.org/Graphics/SVG/1.1/DTD/svg11.dtd">
<svg xmlns="http://www.w3.org/2000/svg" xml:space="preserve" width="64px" height="64px" version="1.1" shape-rendering="geometricPrecision" text-rendering="geometricPrecision" image-rendering="optimizeQuality" fill-rule="evenodd" clip-rule="evenodd"
viewBox="0 0 6400000 6400000"
 xmlns:xlink="http://www.w3.org/1999/xlink">
 <g id="Warstwa">
  <rect fill="{color}" x="399985" y="400517" width="5600030" height="5578651"/>
  <path fill="#FFFFFF" d="M3321537 1237456l0 3926269 -344768 0 -1018950 -1090643 -723552 0 -118 -1727620 707962 0 1034658 -1108006 344768 0 0 0zm309925 1840535l1528838 0 0 245318 -1528838 0 0 -245318zm-5551 -574968l1476750 -395674 63190 236696 -1476750 395674 -63190 -236696zm63190 1154069l1476750 395674 -63190 236814 -1476750 -395792 63190 -236696zm-612882 1254583l0 -3422168 -1028280 1101273 -569417 0 0 1236984 585125 0 1012572 1083911 0 0z"/>
 </g>
</svg>
