<?xml version="1.0" encoding="UTF-8"?>
<!DOCTYPE svg PUBLIC "-//W3C//DTD SVG 1.1//EN" "http://www.w3.org/Graphics/SVG/1.1/DTD/svg11.dtd">
<!-- Creator: CorelDRAW X8 -->
<svg xmlns="http://www.w3.org/2000/svg" xml:space="preserve" width="64px" height="64px" version="1.1" shape-rendering="geometricPrecision" text-rendering="geometricPrecision" image-rendering="optimizeQuality" fill-rule="evenodd" clip-rule="evenodd"
viewBox="0 0 6400000 6400000"
 xmlns:xlink="http://www.w3.org/1999/xlink">
 <g id="Warstwa_x0020_1">
  <metadata id="CorelCorpID_0Corel-Layer"/>
  <path fill="{color}" fill-rule="nonzero" d="M3387916 2720585l424493 -424494 -83505 -83505 468195 -468194 83505 83505 180120 -180121c-121655,-100159 -253113,-186498 -388587,-253940 -367800,-183427 -761348,-218625 -1038674,17953 -115750,202089 -239885,396147 -372170,582173l726623 726623zm1120053 -1479113c23386,-228546 143624,-409848 584180,-481896 158860,-26102 364375,-64016 538235,-133938 145396,-58466 268941,-138900 309689,-251460l83859 -227129c25158,-67205 48899,-124017 68505,-147167l304728 257720 709 28346 -82914 224885c-87167,239294 -296697,388588 -536227,484967 -211184,85040 -443864,128269 -622567,157561 -268350,43819 -257011,199490 -244137,374650l4370 62363c566582,594692 843672,1445451 288074,2051009 -1104816,569417 -1924511,1391710 -2463691,2463692 -1120880,1141313 -3579139,-1320016 -2451645,-2451762 1052494,-589378 1871953,-1412262 2463574,-2463692 480478,-466659 1180881,-342760 1755258,51851zm207758 652567l-184490 184491 83505 83504 -468195 468195 -83505 -83505 -424493 424494 745403 745403c189333,-127797 388115,-246736 596582,-356934 244963,-305673 203860,-706544 10866,-1071627 -72875,-138073 -167010,-271185 -275673,-394021zm-623511 2032112l-1645887 -1645887c-157088,197837 -324453,385753 -502092,563511 -422250,422840 -900602,786978 -1435176,1091588 -238231,274846 -176458,680087 36379,1056391l0 1418c98741,174805 231144,344531 383863,496187 150592,149647 320437,279216 496778,376540 367681,203034 760166,258310 1027099,25040 281460,-546621 633905,-1031942 1056863,-1455255 181302,-181419 375359,-351382 582173,-509533z"/>
 </g>
</svg>
