<?xml version="1.0" encoding="UTF-8"?>
<!DOCTYPE svg PUBLIC "-//W3C//DTD SVG 1.1//EN" "http://www.w3.org/Graphics/SVG/1.1/DTD/svg11.dtd">
<!-- Creator: CorelDRAW X8 -->
<svg xmlns="http://www.w3.org/2000/svg" xml:space="preserve" width="64px" height="64px" version="1.1" shape-rendering="geometricPrecision" text-rendering="geometricPrecision" image-rendering="optimizeQuality" fill-rule="evenodd" clip-rule="evenodd"
viewBox="0 0 6400000 6400000"
 xmlns:xlink="http://www.w3.org/1999/xlink">
 <g id="Warstwa_x0020_1">
  <metadata id="CorelCorpID_0Corel-Layer"/>
  <rect fill="{color}" x="-59" y="-59" width="6400118" height="6400118"/>
  <path fill="#FFFFFF" fill-rule="nonzero" d="M3429963 1339623l0 1469900c0,77009 -1653,152364 -5196,226066 -3426,73701 -7914,147285 -13111,221813 -5315,74529 -11220,150829 -19252,228665 -7795,77953 -17362,161931 -27874,250987l-313469 0c-10512,-89056 -19252,-173034 -27047,-250987 -7796,-77836 -14764,-154136 -20079,-228665 -5197,-74528 -9567,-148112 -13111,-221813 -3425,-73702 -5079,-149057 -5079,-226066l0 -1469900 444218 0zm-556660 3399609c0,-44529 8740,-86576 25276,-125908 16536,-39449 39213,-73701 68741,-102757 29646,-29173 64489,-52323 103702,-69449 39213,-17127 81851,-25631 128978,-25631 45355,0 87993,8504 127088,25631 39331,17126 73348,40276 102875,69449 29646,29056 53151,63308 70631,102757 17363,39332 26103,81379 26103,125908 0,46181 -8740,88229 -26103,126733 -17480,38505 -40985,72875 -70631,101931 -29527,29173 -63544,51378 -102875,67678 -39095,16299 -81733,24803 -127088,24803 -47127,0 -89765,-8504 -128978,-24803 -39213,-16300 -74056,-38505 -103702,-67678 -29528,-29056 -52205,-63426 -68741,-101931 -16536,-38504 -25276,-80552 -25276,-126733z"/>
 </g>
</svg>
