<?xml version="1.0" encoding="UTF-8"?>
<!DOCTYPE svg PUBLIC "-//W3C//DTD SVG 1.1//EN" "http://www.w3.org/Graphics/SVG/1.1/DTD/svg11.dtd">
<!-- Creator: CorelDRAW X8 -->
<svg xmlns="http://www.w3.org/2000/svg" xml:space="preserve" width="64px" height="64px" version="1.1" shape-rendering="geometricPrecision" text-rendering="geometricPrecision" image-rendering="optimizeQuality" fill-rule="evenodd" clip-rule="evenodd"
viewBox="0 0 6400000 6400000"
 xmlns:xlink="http://www.w3.org/1999/xlink">
 <g id="Warstwa_x0020_1">
  <metadata id="CorelCorpID_0Corel-Layer"/>
  <rect fill="black" x="546267" y="556424" width="5307467" height="5287152"/>
  <path fill="white" fill-rule="nonzero" d="M3200000 2647001c152837,0 291027,61891 391068,161931 100040,100041 161931,238231 161931,391068 0,152837 -61891,291027 -161931,391068 -100041,100040 -238231,161931 -391068,161931 -152837,0 -291027,-61891 -391068,-161931 -100040,-100041 -161931,-238231 -161931,-391068 0,-152837 61891,-291027 161931,-391068 100041,-100040 238231,-161931 391068,-161931zm-2148452 459100l655993 0 0 200081 -655993 0 0 -200081zm2248493 -2094711l0 655993 -200082 0 0 -655993 200082 0zm2090695 2287351l-655993 0 0 -200081 655993 0 0 200081zm-2291013 2090105l0 -655992 200081 0 0 655992 -200081 0zm-199727 -3821976c-337563,62008 -639456,225947 -872373,458864 -233388,233388 -397445,535872 -459218,874262l-202916 0c127561,-786624 748120,-1407773 1534507,-1536042l0 202916zm-1331709 1933134c61654,338508 225948,641110 459336,874499 232917,232916 534810,396855 872373,458864l0 202915c-786387,-128269 -1407064,-749536 -1534507,-1536278l202798 0zm1931717 1334189c339216,-61418 642527,-225829 876388,-459690 233389,-233389 397682,-535991 459337,-874499l202798 0c-127679,788159 -750246,1410135 -1538523,1536987l0 -202798zm1335607 -1934197c-61773,-338390 -225830,-640874 -459219,-874262 -233861,-233862 -537172,-398273 -876388,-459691l0 -202798c788277,126852 1410726,748710 1538523,1536751l-202916 0zm-1386041 50434c-63780,-63780 -152128,-103348 -249570,-103348 -97442,0 -185790,39568 -249570,103348 -63780,63780 -103348,152128 -103348,249570 0,97442 39568,185790 103348,249570 63780,63780 152128,103348 249570,103348 97442,0 185790,-39568 249570,-103348 63780,-63780 103348,-152128 103348,-249570 0,-97442 -39568,-185790 -103348,-249570z"/>
 </g>
</svg>
