<?xml version="1.0" encoding="UTF-8"?>
<!DOCTYPE svg PUBLIC "-//W3C//DTD SVG 1.1//EN" "http://www.w3.org/Graphics/SVG/1.1/DTD/svg11.dtd">
<!-- Creator: CorelDRAW X8 -->
<svg xmlns="http://www.w3.org/2000/svg" xml:space="preserve" width="64px" height="64px" version="1.1" shape-rendering="geometricPrecision" text-rendering="geometricPrecision" image-rendering="optimizeQuality" fill-rule="evenodd" clip-rule="evenodd"
viewBox="0 0 6400000 6400000"
 xmlns:xlink="http://www.w3.org/1999/xlink">
 <g id="Warstwa_x0020_1">
  <metadata id="CorelCorpID_0Corel-Layer"/>
  <rect fill="{color}" x="546267" y="556424" width="5307467" height="5287152"/>
  <path fill="#FFFFFF" d="M1547617 2339911l1951324 0 0 1720296 -2151287 0 0 -1720296 199963 0zm1940339 2721529l-639220 -790403 -256657 236 638630 789695 257247 472zm-2151050 0l639221 -790403 256656 236 -638630 789695 -257247 472zm2486606 -2779640l1229779 -802451 0 3448861 -1318954 -890208 -1535 -1696910 90710 -59292zm108544 167128l921271 -601189 0 2704522 -919853 -620913 -1418 -1482420zm-2384439 90946l1751361 0 0 1320370 -1751361 0 0 -1320370z"/>
 </g>
</svg>
