<?xml version="1.0" encoding="UTF-8"?>
<!DOCTYPE svg PUBLIC "-//W3C//DTD SVG 1.1//EN" "http://www.w3.org/Graphics/SVG/1.1/DTD/svg11.dtd">
<svg xmlns="http://www.w3.org/2000/svg" xml:space="preserve" width="64px" height="64px" version="1.1" shape-rendering="geometricPrecision" text-rendering="geometricPrecision" image-rendering="optimizeQuality" fill-rule="evenodd" clip-rule="evenodd"
viewBox="0 0 6400000 6400000"
 xmlns:xlink="http://www.w3.org/1999/xlink">
 <g id="Warstwa">
  <polygon fill="{color}" points="399926,399926 6000074,399926 6000074,6000074 399926,6000074 "/>
  <path fill="#FFFFFF" d="M2295619 2859956c-336382,0 -628827,188270 -777648,465242 73112,-322445 236696,-610873 462526,-836703 312051,-312051 743277,-505045 1219621,-505045 476226,0 907452,192994 1219503,505045 235397,235279 403116,538471 471266,877570 -141025,-299177 -445517,-506109 -798199,-506109l0 1764117c487093,0 882058,-394966 882058,-882058l-472 -30237 158151 0 0 -3662c0,-1067139 -865168,-1932307 -1932307,-1932307 -1067257,0 -1932425,865168 -1932425,1932307l0 3662 146340 0 -472 30237c0,487092 394847,882058 882058,882058l0 -1764117z"/>
 </g>
</svg>
