<?xml version="1.0" encoding="UTF-8"?>
<!DOCTYPE svg PUBLIC "-//W3C//DTD SVG 1.1//EN" "http://www.w3.org/Graphics/SVG/1.1/DTD/svg11.dtd">
<!-- Creator: CorelDRAW X8 -->
<svg xmlns="http://www.w3.org/2000/svg" xml:space="preserve" width="64px" height="64px" version="1.1" shape-rendering="geometricPrecision" text-rendering="geometricPrecision" image-rendering="optimizeQuality" fill-rule="evenodd" clip-rule="evenodd"
viewBox="0 0 6400000 6400000"
 xmlns:xlink="http://www.w3.org/1999/xlink">
 <g id="Warstwa_x0020_1">
  <metadata id="CorelCorpID_0Corel-Layer"/>
  <polygon fill="{color}" points="5853733,5833418 546267,5833418 546267,546267 5853733,546267 "/>
  <path fill="#FFFFFF" d="M3902292 4446905l-1391828 0 0 -1227062 322445 0 140317 142561 -320083 0 0 941822 1247023 0 140435 142679 -138309 0zm404296 613945l-508234 -470912 -204215 118 507998 470676 204451 118zm-1710493 0l508235 -470912 204215 118 -507881 470676 -204569 118zm2323847 -3662l-3519846 -3578548 142206 -139844 3519847 3578548 -142207 139844zm-1051076 -1637736l0 -2080184 -223585 0 -660599 707017 -467249 0 156498 159096 379374 0 656465 -702764 0 0 0 1755140 159096 161695zm200908 -728041l991076 0 0 -158978 -991076 0 0 158978zm-3661 372761l957295 256538 41103 -153427 -957413 -256539 -40985 153428zm40985 -748238l957413 -256539 -41103 -153427 -957295 256539 40985 153427zm-1828133 2172428l-877215 572370 0 -2460031 940759 634969 1181 1210408 -64725 42284zm-77481 -119174l-657056 428745 0 -1929118 656111 442919 945 1057454z"/>
 </g>
</svg>
