<?xml version="1.0" encoding="UTF-8"?>
<!DOCTYPE svg PUBLIC "-//W3C//DTD SVG 1.1//EN" "http://www.w3.org/Graphics/SVG/1.1/DTD/svg11.dtd">
<!-- Creator: CorelDRAW X8 -->
<svg xmlns="http://www.w3.org/2000/svg" xml:space="preserve" width="64px" height="64px" version="1.1" shape-rendering="geometricPrecision" text-rendering="geometricPrecision" image-rendering="optimizeQuality" fill-rule="evenodd" clip-rule="evenodd"
viewBox="0 0 6400000 6400000"
 xmlns:xlink="http://www.w3.org/1999/xlink">
 <g id="Warstwa_x0020_1">
  <metadata id="CorelCorpID_0Corel-Layer"/>
  <path fill="black" d="M0 0l6400000 0 0 6400000 -6400000 0 0 -6400000zm399926 669457l426856 0 0 426856 -426856 0 0 -426856zm5173174 -472l426856 0 0 426855 -426856 0 0 -426855zm-861507 0l426856 0 0 426855 -426856 0 0 -426855zm1288481 1105053l-5600148 0 0 4226036 5600148 0 0 -4226036z"/>
  <polygon fill="#101010" points="4903879,3403270 4903879,2151641 3654021,2151641 3654021,2378297 4511512,2378297 3307718,3597682 3476972,3765873 4677105,2550149 4677105,3403270 "/>
  <polygon fill="#101010" points="1478168,4364817 1478168,5616447 2728026,5616447 2728026,5389791 1870535,5389791 3074329,4170406 2905075,4002215 1704942,5217938 1704942,4364817 "/>
 </g>
</svg>
