<?xml version="1.0" encoding="UTF-8"?>
<!DOCTYPE svg PUBLIC "-//W3C//DTD SVG 1.1//EN" "http://www.w3.org/Graphics/SVG/1.1/DTD/svg11.dtd">
<svg xmlns="http://www.w3.org/2000/svg" xml:space="preserve" width="64px" height="64px" version="1.1" shape-rendering="geometricPrecision" text-rendering="geometricPrecision" image-rendering="optimizeQuality" fill-rule="evenodd" clip-rule="evenodd"
viewBox="0 0 6400000 6400000"
 xmlns:xlink="http://www.w3.org/1999/xlink">
 <g id="Warstwa">
  <rect fill="{color}" x="399985" y="410674" width="5600030" height="5578651"/>
  <path fill="#FFFFFF" d="M1456553 2292548l2058923 0 0 1815140 -2269870 0 0 -1815140 210947 0zm2047230 2871531l-674417 -833986 -270831 236 673828 833278 271420 472zm-2269634 0l674536 -833986 270830 236 -673827 833278 -271539 472zm2623733 -2932949l1297575 -846625 0 3639021 -1391710 -939342 -1535 -1790455 95670 -62599zm114568 176341l972060 -634260 0 2853578 -970642 -655165 -1418 -1564153zm-2515897 96024l1847858 0 0 1393128 -1847858 0 0 -1393128z"/>
 </g>
</svg>
