<?xml version="1.0" encoding="UTF-8"?>
<!DOCTYPE svg PUBLIC "-//W3C//DTD SVG 1.1//EN" "http://www.w3.org/Graphics/SVG/1.1/DTD/svg11.dtd">
<!-- Creator: CorelDRAW X8 -->
<svg xmlns="http://www.w3.org/2000/svg" xml:space="preserve" width="64px" height="64px" version="1.1" shape-rendering="geometricPrecision" text-rendering="geometricPrecision" image-rendering="optimizeQuality" fill-rule="evenodd" clip-rule="evenodd"
viewBox="0 0 6400000 6400000"
 xmlns:xlink="http://www.w3.org/1999/xlink">
 <g id="Warstwa_x0020_1">
  <metadata id="CorelCorpID_0Corel-Layer"/>
  <rect fill="black" x="546267" y="546267" width="5307467" height="5287152"/>
  <path fill="white" d="M3902292 4446905l-1391828 0 0 -1227062 322445 0 140317 142561 -320083 0 0 941822 1247023 0 140435 142679 -138309 0zm-1623327 41457l-877215 572370 0 -2460031 940759 634969 1181 1210408 -64725 42284zm-77481 -119174l-657056 428745 0 -1929118 656111 442919 945 1057454z"/>
  <path fill="white" d="M3868866 3419452l0 -2080184 -223585 0 -660599 707017 -467249 0 156498 159096 379374 0 656465 -702764 0 0 0 1755140 159096 161695zm200908 -728041l991076 0 0 -158978 -991076 0 0 158978zm-3661 372761l957295 256538 41103 -153427 -957413 -256539 -40985 153428zm40985 -748238l957413 -256539 -41103 -153427 -957295 256539 40985 153427z"/>
  <polygon fill="white" fill-rule="nonzero" points="4919942,5057188 1400096,1478640 1542302,1338796 5062149,4917344 "/>
 </g>
</svg>
