<?xml version="1.0" encoding="UTF-8"?>
<!DOCTYPE svg PUBLIC "-//W3C//DTD SVG 1.1//EN" "http://www.w3.org/Graphics/SVG/1.1/DTD/svg11.dtd">
<!-- Creator: CorelDRAW X8 -->
<svg xmlns="http://www.w3.org/2000/svg" xml:space="preserve" width="64px" height="64px" version="1.1" shape-rendering="geometricPrecision" text-rendering="geometricPrecision" image-rendering="optimizeQuality" fill-rule="evenodd" clip-rule="evenodd"
viewBox="0 0 6400000 6400000"
 xmlns:xlink="http://www.w3.org/1999/xlink">
 <g id="Warstwa_x0020_1">
  <metadata id="CorelCorpID_0Corel-Layer"/>
  <g id="_2223065570288">
   <path fill="{color}" fill-rule="nonzero" d="M1887543 6064327l2642631 0 0 -95671 -595165 -291972 -1446159 0 -601307 304374 0 83269zm2806688 335673l-3134802 0 0 -626701 854656 -432407 1592500 0 851703 417762 0 641346 -164057 0z"/>
   <path fill="{color}" fill-rule="nonzero" d="M4263478 646898c410556,199372 756387,510715 997099,893751 233624,371815 368862,810955 368862,1281157 0,668276 -272838,1273717 -713512,1711557 -439494,436895 -1046470,707135 -1716045,707135 -669457,0 -1276433,-270240 -1715927,-707135 -440674,-437840 -713512,-1043281 -713512,-1711557 0,-472564 136773,-914302 373232,-1287771 243074,-384218 592331,-695678 1006194,-893397l138545 303074c-358233,171144 -660362,440557 -870483,772451 -202325,319728 -319374,698867 -319374,1105643 0,574614 234570,1095132 613472,1471554 380083,377721 906271,611346 1487853,611346 581700,0 1107888,-233625 1487971,-611346 378902,-376422 613472,-896940 613472,-1471554 0,-404060 -115986,-781190 -316303,-1100092 -207759,-330595 -506581,-599535 -861389,-771742l139845 -303074z"/>
   <polygon fill="{color}" fill-rule="nonzero" points="2043096,5613849 1682973,4680530 1988174,4557221 2348178,5490540 "/>
   <polygon fill="{color}" fill-rule="nonzero" points="4077097,5490540 4437220,4557221 4742421,4680530 4382298,5613849 "/>
   <path fill="{color}" fill-rule="nonzero" d="M2132979 335201c340870,-222877 691544,-334965 1051785,-335201 357760,-236 721426,110198 1090289,331894l81379 49016c0,715875 96142,2495110 -709,2973934 -10512,517566 -320319,844735 -710914,984343 -147049,52442 -306028,77718 -463825,75710 -158506,-2126 -316657,-31418 -460517,-87639 -377604,-147522 -667804,-473746 -663079,-975721l-709 -2966493 76300 -49843zm1051785 -709c-270240,118 -536936,78781 -799853,235279 0,337799 6851,2767829 -708,2783066 -3662,338980 194884,560321 452840,661071 109371,42638 228782,65079 347957,66497 120001,1417 240830,-17599 352209,-57285 269176,-96143 483313,-319846 491581,-671583l-473 -2777987c-289255,-159687 -570597,-239294 -843553,-239058z"/>
   <path fill="{color}" fill-rule="nonzero" d="M3218544 2328572c191104,0 365201,77717 491462,203270 127443,126498 206223,301657 206223,494770 0,193113 -78780,368390 -206223,495006 -126261,125435 -300358,203152 -491462,203152 -191105,0 -365202,-77717 -491463,-203152 -127443,-126616 -206223,-301893 -206223,-495006 0,-193113 78780,-368272 206223,-494770 126261,-125553 300358,-203270 491463,-203270zm263270 443155c-66733,-66379 -159923,-107364 -263270,-107364 -103348,0 -196538,40985 -263271,107364 -65671,65198 -106301,155553 -106301,254885 0,99568 40630,189806 106301,255003 66733,66379 159923,107482 263271,107482 103347,0 196537,-41103 263270,-107482 65671,-65197 106301,-155435 106301,-255003 0,-99332 -40630,-189687 -106301,-254885z"/>
  </g>
 </g>
</svg>
