<?xml version="1.0" encoding="UTF-8"?>
<!DOCTYPE svg PUBLIC "-//W3C//DTD SVG 1.1//EN" "http://www.w3.org/Graphics/SVG/1.1/DTD/svg11.dtd">
<!-- Creator: CorelDRAW X8 -->
<svg xmlns="http://www.w3.org/2000/svg" xml:space="preserve" width="64px" height="64px" version="1.1" shape-rendering="geometricPrecision" text-rendering="geometricPrecision" image-rendering="optimizeQuality" fill-rule="evenodd" clip-rule="evenodd"
viewBox="0 0 6400000 6400000"
 xmlns:xlink="http://www.w3.org/1999/xlink">
 <g id="Warstwa_x0020_1">
  <metadata id="CorelCorpID_0Corel-Layer"/>
  <g id="_2223075393248">
   <path fill="{color}" fill-rule="nonzero" d="M2725663 5340184l-373705 -3818079 1708486 827 -423076 3993947 -894933 -3898 -16772 -172797zm39450 -3433153l315358 3222796 221814 945 341461 -3223386 -878633 -355z"/>
   <path fill="{color}" fill-rule="nonzero" d="M2451290 1861795c-206459,-212956 -309689,-492054 -309689,-770915 0,-279216 103230,-558669 309689,-771506 207522,-212955 478234,-319492 748592,-319492 270830,0 541896,106537 748474,319492 206695,213073 310043,492408 310043,771624 0,279216 -103348,558432 -309807,771269l-265279 -272956c133584,-137600 200436,-318075 200436,-498313 0,-180239 -66852,-360713 -200200,-498077 -133702,-137955 -308862,-206696 -483667,-206696 -175160,0 -350319,68741 -483904,205987 -132875,137836 -199727,318429 -199727,498668 0,180829 66734,361776 200082,499258l-265043 271657z"/>
   <polygon fill="{color}" fill-rule="nonzero" points="3387679,2387392 3388034,2910154 3014919,2910154 3014447,2387392 "/>
   <polygon fill="{color}" fill-rule="nonzero" points="2329753,858200 4070247,861743 4070247,1246433 2329753,1243007 "/>
  </g>
  <path fill="{color}" fill-rule="nonzero" d="M3300159 5512627c-15945,-10158 -24095,-15827 -8622,-3189l8622 3189zm-260200 306027c-141026,-114922 -182365,-271184 23976,-524770l286067 232680 19252 5315c67796,18898 134175,36969 195357,78426 130986,88938 188860,207286 84922,391659 25276,-355 66143,-14882 128506,-53033l207876 340635c-169963,104056 -313232,125080 -427092,101930 -85513,-17481 -153072,-58938 -203742,-111497 -48426,-50198 -80671,-110435 -98151,-168900 -19843,-66497 -20670,-137246 -5670,-197601 -72993,-19961 -146576,-42166 -211301,-94844z"/>
 </g>
</svg>
