<?xml version="1.0" encoding="UTF-8"?>
<!DOCTYPE svg PUBLIC "-//W3C//DTD SVG 1.1//EN" "http://www.w3.org/Graphics/SVG/1.1/DTD/svg11.dtd">
<!-- Creator: CorelDRAW X8 -->
<svg xmlns="http://www.w3.org/2000/svg" xml:space="preserve" width="64px" height="64px" version="1.1" shape-rendering="geometricPrecision" text-rendering="geometricPrecision" image-rendering="optimizeQuality" fill-rule="evenodd" clip-rule="evenodd"
viewBox="0 0 6400000 6400000"
 xmlns:xlink="http://www.w3.org/1999/xlink">
 <g id="Warstwa_x0020_1">
  <metadata id="CorelCorpID_0Corel-Layer"/>
  <path fill="{color}" fill-rule="nonzero" d="M5441406 5515462c-22914,76182 -17245,145986 18661,172561 60355,54449 105474,83859 163939,121300l62836 34489c35079,13937 64016,35552 98150,51379 146223,67678 262208,161576 173270,354098 -7441,16064 -33189,47127 -60473,76537 -29528,31654 -63662,64489 -78780,74174l-48426 -75591c9094,-5788 36142,-32481 61536,-59765 21851,-23622 41575,-46064 44646,-52914 56930,-123072 -26102,-187325 -129332,-235042 -32245,-15000 -67206,-28701 -100513,-41930l-77127 -31536c-70040,-30591 -165120,-74174 -236223,-138427 -70277,-63662 -115986,-145159 -94372,-250278l-355162 -1536 -16771 -172797 -348784 -3563430c-156853,-199491 -235279,-442801 -235279,-685874 0,-279216 103230,-558669 309689,-771506 207522,-212955 478234,-319492 748592,-319492 270830,0 541896,106537 748474,319492 206695,213073 310043,492408 310043,771624 0,236932 -74528,473982 -223231,670284l-397800 3755597 -337563 -1417zm-4408874 297641l2446920 0 0 -88466 -551109 -270475 -1339032 0 -556779 281814 0 77127zm1232378 -3459137c176931,0 338154,72048 455084,188270 117994,117167 190987,279334 190987,458155 0,178703 -72993,341107 -190987,458274 -116930,116222 -278153,188152 -455084,188152 -176932,0 -338154,-71930 -454966,-188152 -117994,-117167 -191105,-279571 -191105,-458274 0,-178821 73111,-340988 191105,-458155 116812,-116222 278034,-188270 454966,-188270zm243782 410438c-61772,-61536 -147994,-99568 -243782,-99568 -95671,0 -182010,38032 -243783,99568 -60709,60355 -98387,143978 -98387,235987 0,92127 37678,175750 98387,236106 61773,61418 148112,99450 243783,99450 95788,0 182010,-38032 243782,-99450 60828,-60356 98505,-143979 98505,-236106 0,-92009 -37677,-175632 -98505,-235987zm-1248913 -2256288c315713,-206341 640402,-310043 973831,-310279 331303,-236 668040,102049 1009619,307327l75355 45355c0,83268 1417,182128 3662,292326 340870,184963 628472,455202 833632,781545 216262,344296 341461,750954 341461,1186314 0,618787 -252641,1179463 -660599,1584823 -52678,52323 -107954,102166 -165711,149175l-301775 782253 414100 203152 0 593984 -151892 0 -2902831 0 0 -580401 422367 -213664 -292444 -758041c-70158,-54803 -136892,-113859 -199845,-176458 -407958,-405360 -660599,-966036 -660599,-1584823 0,-437604 126734,-846625 345595,-1192456 207995,-328586 500085,-599889 845562,-783671l-119 -280161 70631 -46300zm2071561 700048c20788,762648 53505,1765062 -13346,2096129 -9804,479297 -296697,782253 -658355,911468 -136183,48543 -283350,71930 -429454,70040 -146813,-1890 -293153,-29056 -426501,-81025 -349611,-136655 -618315,-438785 -613945,-903554l-472 -2109948c-238114,153309 -440557,357052 -591622,595638 -187325,296106 -295752,647134 -295752,1023792 0,532093 217208,1013989 568118,1362654 351973,349611 839065,566110 1377773,566110 538589,0 1025681,-216499 1377654,-566110 350910,-348665 568118,-830561 568118,-1362654 0,-374178 -107364,-723434 -292917,-1018713 -145987,-232208 -340398,-431344 -569299,-583827zm-1097730 -700638c-250279,118 -497132,72993 -740560,217916 0,312760 6378,2562787 -709,2577079 -3307,313823 180475,518746 419297,612055 101340,39449 211892,60237 322208,61536 111143,1417 222995,-16300 326107,-53032 249334,-89056 447525,-296106 455320,-621858l-590 -2572355c-267759,-147876 -528196,-221577 -781073,-221341zm860916 4684782l142797 -370162c-298704,145986 -634614,228192 -989539,228192 -343587,0 -669221,-76891 -960721,-214255l137246 355634 95670 -48425 1474743 0 99804 49016zm1601240 -4333636l1292379 2598c-32836,-98032 -87167,-190159 -162995,-268349 -133702,-137955 -308862,-206696 -483667,-206696 -175160,0 -350319,68741 -483904,205987 -75000,77836 -129096,169136 -161813,266460zm1312812 387406l-1334662 -2716c21142,99332 63071,194884 126025,278861l1082021 591c62954,-83387 105120,-178231 126616,-276736zm-479297 1141314l354 522762 -373115 0 -472 -522762 373233 0zm-622567 -480361l315358 3222796 221814 945 341461 -3223386 -878633 -355z"/>
 </g>
</svg>
