<?xml version="1.0" encoding="UTF-8"?>
<!DOCTYPE svg PUBLIC "-//W3C//DTD SVG 1.1//EN" "http://www.w3.org/Graphics/SVG/1.1/DTD/svg11.dtd">
<!-- Creator: CorelDRAW X8 -->
<svg xmlns="http://www.w3.org/2000/svg" xml:space="preserve" width="64px" height="64px" version="1.1" shape-rendering="geometricPrecision" text-rendering="geometricPrecision" image-rendering="optimizeQuality" fill-rule="evenodd" clip-rule="evenodd"
viewBox="0 0 6400000 6400000"
 xmlns:xlink="http://www.w3.org/1999/xlink">
 <g id="Warstwa_x0020_1">
  <metadata id="CorelCorpID_0Corel-Layer"/>
  <polygon fill="{color}" points="0,2300107 1272653,2300107 916783,5532115 31772,6161651 "/>
  <polygon fill="{color}" points="1517499,2295973 2421880,2294201 3179567,3417680 3918237,2290540 5385657,2287823 1187613,5428295 "/>
  <polygon fill="{color}" points="5851489,2304241 6400000,2304241 6350629,4462142 2697199,4633285 "/>
  <polygon fill="{color}" points="358823,6400000 4769468,6398583 3904891,4851201 2388218,4922659 "/>
  <polygon fill="{color}" points="4284383,4857343 6329842,4735098 6325708,6398937 5105023,6398937 "/>
  <path fill="{color}" d="M3174960 -118c671229,0 1215251,537999 1215251,1201904 0,663906 -990602,1960300 -1215251,2267863 -222876,-321972 -1215369,-1603957 -1215369,-2267863 0,-663905 544141,-1201904 1215369,-1201904zm611583 603787c-155908,-154018 -372288,-249452 -611583,-249452 -239294,0 -455675,95434 -611582,249570 -154018,153073 -249452,364611 -249452,597999 0,397801 513668,1170605 863633,1664903 350319,-492290 858317,-1264858 858317,-1664903 0,-233388 -95434,-445044 -249333,-598117z"/>
  <path fill="{color}" d="M3174960 605677c343942,0 622685,275672 622685,615834 0,340280 -278743,615834 -622685,615834 -344059,0 -622685,-275554 -622685,-615834 0,-340162 278626,-615834 622685,-615834zm192522 432170c-48544,-47953 -116812,-77835 -192522,-77835 -75827,0 -143505,29292 -191223,76536l-1299 1418c-46772,46181 -75827,111261 -75827,183545 0,72403 29055,137364 75827,183546l1299 1417c47718,47245 115396,76536 191223,76536 75828,0 143506,-29291 191223,-76536l1299 -1417c46773,-46182 75828,-111143 75828,-183546 0,-71576 -28937,-136655 -75828,-183664z"/>
 </g>
</svg>
