<?xml version="1.0" encoding="UTF-8"?>
<!DOCTYPE svg PUBLIC "-//W3C//DTD SVG 1.1//EN" "http://www.w3.org/Graphics/SVG/1.1/DTD/svg11.dtd">
<svg xmlns="http://www.w3.org/2000/svg" xml:space="preserve" width="64px" height="64px" version="1.1" shape-rendering="geometricPrecision" text-rendering="geometricPrecision" image-rendering="optimizeQuality" fill-rule="evenodd" clip-rule="evenodd"
viewBox="0 0 6400000 6400000"
 xmlns:xlink="http://www.w3.org/1999/xlink">
 <g id="Warstwa_1">   
  <polygon fill="{color}" points="6000074,5999956 399926,5999956 399926,400517 6000074,400517 "/>
  <path fill="#FFFFFF" d="M2765585 3614100l0 461344 461699 354 398627 398627 -1260252 -827 0 -1259306 399926 399808zm-1620847 -2755074l4419149 4399188 -281105 282760 -4419149 -4399188 281105 -282760zm2063530 4041782l-320673 555480 -345359 -198428 320673 -555479 345359 198427zm556424 -198427l320673 555479 -345358 198428 -320674 -555480 345359 -198427zm-2966611 -2438180l1282929 930956 0 1278441 -1282929 926468 0 -3135865zm883003 1134227l-483077 -350556 0 1571831 483077 -348784 0 -872491zm2361407 -2398494l0 2190853 0 3662 -3662 -3662 -396264 -396264 0 -910405 -288429 393312 -228783 0 -399926 -399927 427210 0 643355 -877569 246499 0zm310870 1673997l1268047 339689 -102994 385753 -1268047 -339690 102994 -385752zm-102994 -980800l1268047 -339807 102994 385753 -1268047 339807 -102994 -385753zm47835 487093l1312694 0 0 399926 -1312694 0 0 -399926z"/>
 </g>
</svg>
