<?xml version="1.0" encoding="UTF-8"?>
<!DOCTYPE svg PUBLIC "-//W3C//DTD SVG 1.1//EN" "http://www.w3.org/Graphics/SVG/1.1/DTD/svg11.dtd">
<svg xmlns="http://www.w3.org/2000/svg" xml:space="preserve" width="64px" height="64px" version="1.1" shape-rendering="geometricPrecision" text-rendering="geometricPrecision" image-rendering="optimizeQuality" fill-rule="evenodd" clip-rule="evenodd"
viewBox="0 0 6400000 6400000"
 xmlns:xlink="http://www.w3.org/1999/xlink">
 <g id="Warstwa_1">   
  <polygon fill="{color}" points="399926,399926 6000074,399926 6000074,6000074 399926,6000074 "/>
  <path fill="#FFFFFF" fill-rule="nonzero" d="M3392522 1616358l0 1251158c0,65670 -1535,129804 -4370,192522 -2953,62717 -6614,125434 -10984,188860 -4371,63426 -9449,128270 -16064,194648 -6496,66379 -14527,137837 -23268,213664l-262562 0c-8740,-75827 -16063,-147285 -22559,-213664 -6615,-66378 -12402,-131222 -16772,-194648 -4370,-63426 -8032,-126143 -10985,-188860 -2834,-62718 -4370,-126852 -4370,-192522l0 -1251158 371934 0zm-465951 2893973c0,-37914 7323,-73702 21142,-107245 13819,-33544 32835,-62718 57639,-87403 24685,-24803 53859,-44528 86694,-59174 32835,-14528 68505,-21851 107954,-21851 37914,0 73584,7323 106419,21851 32835,14646 61300,34371 86103,59174 24685,24685 44410,53859 59056,87403 14528,33543 21851,69331 21851,107245 0,39331 -7323,75119 -21851,107836 -14646,32835 -34371,62009 -59056,86812 -24803,24804 -53268,43701 -86103,57639 -32835,13819 -68505,21142 -106419,21142 -39449,0 -75119,-7323 -107954,-21142 -32835,-13938 -62009,-32835 -86694,-57639 -24804,-24803 -43820,-53977 -57639,-86812 -13819,-32717 -21142,-68505 -21142,-107836z"/>
 </g>
</svg>
