<?xml version="1.0" encoding="UTF-8"?>
<!DOCTYPE svg PUBLIC "-//W3C//DTD SVG 1.1//EN" "http://www.w3.org/Graphics/SVG/1.1/DTD/svg11.dtd">
<svg xmlns="http://www.w3.org/2000/svg" xml:space="preserve" width="64px" height="64px" version="1.1" shape-rendering="geometricPrecision" text-rendering="geometricPrecision" image-rendering="optimizeQuality" fill-rule="evenodd" clip-rule="evenodd"
viewBox="0 0 6400000 6400000"
 xmlns:xlink="http://www.w3.org/1999/xlink">
 <g id="Warstwa">
  <polygon fill="{color}" points="6000074,5979168 399926,5979168 399926,400517 6000074,400517 "/>
  <path fill="#FFFFFF" d="M3941033 4516237l-1468601 0 0 -1294741 340280 0 147994 150475 -337682 0 0 993673 1315765 0 148112 150593 -145868 0zm426501 647724l-536227 -496778 -215436 119 535991 496541 215672 118zm-1804747 0l536228 -496778 215553 119 -535872 496541 -215909 118zm2451999 -3779l-3713904 -3775913 150002 -147522 3713904 3775795 -150002 147640zm-1109069 -1728093l0 -2194869 -235869 0 -696977 745993 -493116 0 165120 167837 400399 0 692607 -741505 0 0 0 1851991 167836 170553zm212011 -768198l1045643 0 0 -167719 -1045643 0 0 167719zm-3898 393312l1010091 270712 43347 -161931 -1010209 -270594 -43229 161813zm43229 -789459l1010209 -270712 -43347 -161813 -1010091 270594 43229 161931zm-1928882 2292194l-925523 603905 0 -2595622 992610 669929 1182 1277142 -68269 44646zm-81733 -125671l-693316 452368 0 -2035537 692371 467368 945 1115801z"/>
 </g>
</svg>
