<?xml version="1.0" encoding="UTF-8"?>
<!DOCTYPE svg PUBLIC "-//W3C//DTD SVG 1.1//EN" "http://www.w3.org/Graphics/SVG/1.1/DTD/svg11.dtd">
<!-- Creator: CorelDRAW X8 -->
<svg xmlns="http://www.w3.org/2000/svg" xml:space="preserve" width="64px" height="64px" version="1.1" shape-rendering="geometricPrecision" text-rendering="geometricPrecision" image-rendering="optimizeQuality" fill-rule="evenodd" clip-rule="evenodd"
viewBox="0 0 6400000 6400000"
 xmlns:xlink="http://www.w3.org/1999/xlink">
 <g id="Warstwa_x0020_1">
  <metadata id="CorelCorpID_0Corel-Layer"/>
  <path fill="{color}" d="M4908722 2854996l0 2838932c648197,0 1194818,-434414 1364780,-1028162l33308 8150c30827,-125317 54449,-252759 69804,-380910 15354,-127679 23386,-257011 23386,-387052 0,-883594 -358233,-1683919 -937098,-2262902 -578984,-578866 -1379308,-937098 -2262902,-937098 -883594,0 -1683918,358232 -2262902,937098 -578865,578983 -937098,1379308 -937098,2262902 0,130395 8032,260200 23386,388233 15591,128623 39331,256184 70277,381619l36496 -8977c170317,593039 716584,1027099 1364426,1027099l0 -2838932c-451186,0 -853120,210475 -1113202,538589 105710,-585598 389532,-1109305 793238,-1513011 518274,-518274 1234503,-838829 2025379,-838829 790876,0 1507105,320555 2025379,838829 402407,402407 685639,924224 792175,1507696 -260200,-325043 -660126,-533274 -1108832,-533274z"/>
 </g>
</svg>
