<?xml version="1.0" encoding="UTF-8"?>
<!DOCTYPE svg PUBLIC "-//W3C//DTD SVG 1.1//EN" "http://www.w3.org/Graphics/SVG/1.1/DTD/svg11.dtd">
<!-- Creator: CorelDRAW X8 -->
<svg xmlns="http://www.w3.org/2000/svg" xml:space="preserve" width="64px" height="64px" version="1.1" shape-rendering="geometricPrecision" text-rendering="geometricPrecision" image-rendering="optimizeQuality" fill-rule="evenodd" clip-rule="evenodd"
viewBox="0 0 6400000 6400000"
 xmlns:xlink="http://www.w3.org/1999/xlink">
 <g id="Warstwa_x0020_1">
  <metadata id="CorelCorpID_0Corel-Layer"/>
  <path fill="{color}" fill-rule="nonzero" d="M1887543 6064327l2642631 0 0 -95671 -595165 -291972 -1446159 0 -601307 304374 0 83269zm2472786 -5367586l34371 19016 1063 472 15945 9213 2598 1417 47954 28465 6968 4134 9803 6024 8268 5079 8268 5315 9685 6023 6851 4489 11102 6968 5315 3544 12402 8149 3898 2599 13819 9094 2480 1772 32126 22087 355 236 31536 22441 3071 2126 12637 9331 4489 3189 11220 8386 5670 4252 9921 7559 6969 5197 8504 6614 8268 6378 7086 5552 9567 7559 5670 4606 10866 8622 4370 3544 709 590 29291 24213 14528 12166 355 354 14763 12756 945 709 13701 12047 2126 1772 12520 11102 3307 2953 11103 10158 4606 4134 9685 8976 5906 5315 8386 7914 6968 6496 7205 6850 8150 7796 19725 19370 10393 10158 3426 3543 11575 11457 2126 2244 12638 12874 944 1063 13465 14055 236 118 13229 14056 1299 1299 11929 12874 2363 2599 10748 11693 3543 3897 9449 10630 12992 14528 5670 6378 7086 8268 6733 7795 5905 6969 7796 9095 4724 5787 8859 10394 3661 4488 9685 11811 2599 3307 10748 13229 1417 1890 11693 14646 473 590 11929 15355 591 708 11220 14764 1654 2126 10039 13465 2599 3425 9094 12166 3544 4842 7913 10985 4488 6141 6851 9686 5433 7559 5787 8268 6260 9094 4843 6969 1535 2244 17481 25866 2716 4252 8859 13465 1890 2835 9685 14882 945 1535 10394 16418c233624,371815 368862,810955 368862,1281157 0,668276 -272838,1273717 -713512,1711557l-2717 2598 -2598 2717 -2717 2598 -2717 2717 -2598 2598 -2717 2599 -2716 2598 -1890 1890 -827 709 -2716 2716 -2717 2599 -2716 2598 -2717 2599 -2717 2598 -2716 2599 -2717 2598 -1181 1181 -1535 1418 -2717 2598 -2716 2480 -2717 2599 -2835 2598 -2716 2599 -2717 2480 -2834 2598 -473 473 -2244 2126 -2717 2480 -2834 2599 -2717 2480 -2835 2599 -2716 2480 -2835 2598 -2480 2244 -236 237 -2835 2480 -2835 2599 -2834 2480 -2717 2480 -2835 2481 -2834 2480 -2835 2480 -1772 1654 -1063 827 -2716 2598 -2835 2480 -2835 2363 -2834 2480 -2835 2480 -2835 2481 -2952 2480 -945 827 -1890 1653 -2835 2363 -2834 2480 -2835 2480 -2953 2362 -2835 2481 -2834 2480 -2953 2362 -236 237 -2599 2126 -2834 2480 -2953 2362 -2835 2481 -2953 2362 -2834 2362 -2953 2480 -2362 1890 -591 473 -2835 2362 -2952 2362 -325989 844971 447171 219334 0 641346 -164057 0 -3134802 0 0 -626701 456147 -230790 -315949 -818750 -3543 -2835 -3543 -2716 -3544 -2835 -3543 -2835 -3425 -2716 -3071 -2363 -473 -472 -3543 -2835 -3543 -2834 -3426 -2835 -3543 -2835 -3425 -2834 -3544 -2835 -1063 -827 -2362 -2008 -3543 -2953 -3425 -2834 -3426 -2835 -3543 -2953 -3425 -2834 -2599 -2126 -827 -827 -3425 -2835 -3425 -2953 -3425 -2834 -3426 -2953 -3425 -2953 -3425 -2953 -827 -590 -2598 -2362 -3425 -2835 -3308 -2953 -3425 -2953 -3425 -2953 -473 -472 -5196 -4488 -1063 -1063 -3426 -2953 -3307 -2953 -3307 -3071 -3425 -2952 -3307 -2953 -3898 -3426 -2835 -2598 -3307 -3071 -3307 -3071 -3307 -2953 -3307 -3070 -3307 -3071 -2008 -1772 -1299 -1299 -3308 -2953 -3307 -3071 -3307 -3071 -3189 -3071 -3307 -3189 -3307 -3071 -236 -118 -2953 -2953 -3307 -3071 -3307 -3070 -3189 -3189 -3189 -3071 -3308 -3189 -1771 -1654 -1418 -1417 -3189 -3189 -3307 -3071 -3189 -3189 -3189 -3071 -3189 -3189 -3189 -3189c-440674,-437840 -713512,-1043281 -713512,-1711557 0,-472564 136773,-914302 373232,-1287771l10631 -16654 826 -1299 9922 -15119 1771 -2716 8977 -13701 2716 -4016 8386 -12284 10985 -16063 118 -236 4606 -6614 6614 -9449 5552 -7914 5787 -8149 6614 -9213 4961 -6732 7559 -10394 4016 -5433 8740 -11693 3071 -4016 9685 -12874 2126 -2835 10867 -14055 1181 -1536 11929 -15236 236 -118 12166 -15355 827 -1063 11575 -14173 1889 -2363 10630 -12874 2953 -3425 9685 -11575 4016 -4724 8740 -10158 5079 -5906 7796 -8976 6141 -7087 6733 -7677 7323 -8150 5787 -6378 8504 -9449 4725 -5079 9685 -10511 3661 -3898 10867 -11575 2598 -2717 12047 -12638 1536 -1653 13228 -13583 355 -472 13819 -13938 708 -708 13229 -13111 1890 -1889 12047 -11930 3071 -2953 11103 -10630 4252 -4134 9921 -9448 5551 -5079 8859 -8268 6614 -6260 7795 -7087 7914 -7205 6614 -5905 9213 -8268 5433 -4842 10512 -9213 4370 -3780 11693 -10157 3189 -2599 12992 -11220 1890 -1536 14528 -12047 590 -473 15237 -12520 590 -472 14646 -11929 1890 -1418 13583 -10748 3071 -2480 12401 -9685 4371 -3426 11220 -8504 5788 -4370 9921 -7441 7087 -5315 8622 -6496 8504 -6142 7441 -5433 9803 -7087 6142 -4370 28701 -20197 3662 -2480 13937 -9567 2244 -1536 15473 -10275 944 -591 16536 -10866 354 -355 16182 -10393 1771 -1181 14882 -9449 3071 -2008 13701 -8386 4489 -2835 12283 -7441 6024 -3661 10866 -6615 7441 -4370 9567 -5669 8859 -5197 8267 -4725 10276 -5905 6969 -3898 11693 -6614 5551 -2953 13229 -7323 4133 -2244 14764 -7913 2717 -1418 -118 -302602 76300 -49843c340870,-222877 691544,-334965 1051785,-335201 357760,-236 721426,110198 1090289,331894l81379 49016 0 4252 0 4252 0 4252 0 4370 0 4252 0 4371 0 4370 118 4252 0 118 0 4488 0 4488 0 4370 0 4607 0 4488 118 4488 0 4607 0 4134 0 472 0 4606 118 4607 0 4724 0 4607 118 4724 0 4724 118 4725 0 4134 0 709 0 4724 118 4843 0 4842 118 4843 0 4842 118 4961 0 4961 119 3897 0 945 0 5079 118 4961 0 4960 118 5079 118 10040 118 5079 118 10275 118 5197 118 10394 118 5197 0 5197 119 5197 118 3779 0 1536 118 5315 118 5315 0 5315 118 5315 118 5315 118 5433 118 5433 118 3544 0 1889 237 16300 118 5551 118 5433 118 5551 118 5552 118 3425 0 2126zm-245908 4697066l154254 -399690 -15119 7322 -1890 945 -13346 6260 -13229 6378 -2008 827 -15354 6969 -9449 4370 -5906 2598 -15472 6851 -5551 2480 -9922 4252 -15591 6614 -15590 6497 -13347 5551 -2244 827 -15827 6378 -9449 3779 -6260 2362 -15827 6142 -5551 2126 -10276 3898 -4370 1535 -27638 10040 -13465 4842 -2480 827 -16063 5551 -9567 3308 -6615 2126 -16181 5315 -5433 1889 -10866 3426 -16182 5078 -1417 473 -15000 4488 -13583 4134 -2717 827 -16535 4724 -9449 2835 -6969 1890 -16535 4488 -5315 1535 -11221 2953 -16654 4370 -1181 237 -15473 3897 -13582 3426 -3189 708 -16654 4016 -236 118 -16654 3662 -16772 3779 -5197 1181 -11693 2481 -17008 3543 -827 236 -16063 3189 -13701 2599 -3307 590 -17126 3189 -9331 1772 -7677 1299 -17245 2953 -4960 827 -12166 2008 -17244 2598 -709 118 -16535 2481 -13583 2007 -3662 473 -17362 2244 -9331 1299 -8032 945 -17480 2126 -4843 591 -12520 1299 -17598 1890 -473 0 -17008 1653 -13583 1299 -4015 355 -17599 1417 -9095 709 -8504 709 -17598 1181 -4725 354 -12992 709 -17717 945 -236 0 -17599 826 -13464 591 -4252 118 -17835 591 -9095 236 -8858 236 -17835 354 -4607 0 -13346 118 -17953 119 -17363 -119 -13937 -118 -3425 0 -17362 -354 -10512 -236 -6733 -118 -17244 -591 -7087 -236 -10157 -354 -17245 -827 -3661 -236 -13465 -709 -17126 -945 -354 0 -16772 -1181 -14055 -1063 -20079 -1536 -10749 -945 -6260 -590 -16890 -1536 -7441 -826 -9567 -945 -16890 -1772 -4015 -472 -12875 -1536 -16771 -2008 -827 -118 -15945 -2126 -14292 -1890 -2480 -354 -16772 -2480 -10984 -1654 -5670 -827 -16653 -2598 -7678 -1299 -8976 -1418 -16536 -2952 -4370 -709 -12165 -2244 -16536 -3071 -1181 -236 -15237 -2953 -14409 -2835 -2008 -472 -16418 -3425 -11102 -2363 -5197 -1063 -16300 -3661 -7913 -1772 -8386 -2008 -16181 -3779 -4725 -1181 -11457 -2835 -16181 -4016 -1535 -472 -28938 -7560 -1653 -354 -15945 -4488 -11221 -3071 -4724 -1417 -15945 -4489 -8150 -2480 -7796 -2244 -15827 -4843 -4842 -1535 -10866 -3307 -15709 -5079 -1890 -591 -13819 -4488 -14410 -4842 -1181 -355 -15591 -5315 -11338 -4016 -4252 -1417 -15473 -5551 -8268 -2953 -7205 -2598 -15354 -5788 -5197 -2008 -55158 -21614 -827 -236 -15118 -6260 -11339 -4725 -3780 -1535 -15000 -6496 -8386 -3662 -6614 -2835 -14882 -6614 -5433 -2480 -9449 -4252 -14882 -6851 -2480 -1063 -12284 -5787 148112 383981 103466 -52324 1592500 0 107836 52915zm-2057624 -4320880l-10512 6850 -1535 945 -11930 7913 -2008 1300 -9921 6614 -5433 3661 -6378 4371 -8859 6023 -2952 2126 -11812 8150 -354 354 -11339 7914 -3661 2716 -7914 5670 -6968 5078 -4606 3308 -10276 7677 -1181 827 -11457 8622 -2126 1535 -9331 7087 -5315 4134 -5906 4606 -8622 6733 -2716 2126 -11221 8858 -472 472 -10630 8504 -3662 2953 -7441 6024 -6850 5669 -4134 3426 -9922 8385 -945 827 -10866 9213 -2244 1890 -8622 7441 -5197 4606 -13819 12166 -2480 2126 -10512 9449 -709 590 -9921 8977 -3662 3425 -6850 6260 -6615 6260 -3779 3543 -9567 9095 -709 708 -10394 9922 -2126 2126 -8031 7795 -5197 5079 -4961 4961 -8032 7913 -2007 2126 -10040 10158 -827 826 -9094 9331 -3662 3780 -6260 6496 -6496 6851 -3307 3543 -9213 9803 -472 591 -9685 10512 -2244 2480 -7323 8032 -5079 5551 -4488 5079 -7678 8622 -1771 2008 -9331 10748 -945 1063 -8386 9803 -3543 4134 -5670 6732 -6260 7323 -2952 3544 -8741 10630 -354 354 -8976 11103 -2245 2834 -6732 8268 -4724 6024 -4134 5197 -7205 9330 -1536 1890 -8740 11339 -945 1299 -7677 10040 -3425 4606 -5079 6732 -5906 8032 -2598 3425 -8268 11339 -118 236 -8268 11575 -2244 3189 -6024 8504 -4606 6496 -3543 5197 -6851 9922 -1299 1889 -8032 11812 -1063 1535 -6850 10276 -3307 5079 -4489 6850 -5551 8622 -2244 3425 -7677 12048c-202325,319728 -319374,698867 -319374,1105643 0,574614 234570,1095132 613472,1471554 380083,377721 906271,611346 1487853,611346 581700,0 1107888,-233625 1487971,-611346 378902,-376422 613472,-896940 613472,-1471554 0,-404060 -115986,-781190 -316303,-1100092l-7441 -11693 -2362 -3780 -5079 -7913 -4843 -7441 -2834 -4252 -7205 -10984 -355 -591 -7795 -11457 -2126 -3189 -5669 -8268 -4607 -6732 -3307 -4725 -7205 -10275 -708 -1063 -8032 -11339 -1771 -2480 -6260 -8741 -4489 -6141 -3779 -5079 -7087 -9567 -1181 -1536 -8268 -11102 -1535 -2008 -6851 -8977 -4252 -5433 -4252 -5551 -6968 -8858 -1536 -2008 -8622 -10867 -1181 -1535 -7441 -9331 -4016 -4842 -4843 -5788 -6732 -8268 -2008 -2480 -8858 -10630 -827 -945 -8150 -9567 -3661 -4252 -5433 -6260 -6615 -7559 -2480 -2953 -9095 -10276 -472 -472 -8858 -9921 -3307 -3662 -5906 -6614 -6378 -6851 -3071 -3307 -9331 -10039 -118 -118 -9449 -10040 -2953 -3189 -6614 -6850 -6024 -6260 -3661 -3662 -9213 -9331 -472 -590 -9803 -9803 -2599 -2599 -7205 -7205 -5787 -5551 -4134 -4134 -8977 -8622 -945 -945 -10039 -9567 -2126 -2126 -7913 -7441 -5434 -4961 -4724 -4370 -8740 -8031 -1536 -1418 -10276 -9212 -1771 -1654 -8504 -7677 -5079 -4488 -5315 -4607 -8504 -7323 -2008 -1771 -10512 -9095 -1299 -1063 -9213 -7914 -4724 -3897 -6024 -4961 -8032 -6732 -2598 -2126 -10748 -8741 -827 -590 -10040 -8032 -4252 -3425 -6614 -5197 -7795 -6142 -3189 -2480 -10985 -8386 -354 -354 -10630 -8032 -3898 -2953 -7204 -5433 -7560 -5551 -3661 -2717 -11103 -8031 -118 -118 -11220 -8150 -3544 -2480 -7795 -5552 -7087 -4960 -4370 -2953 -10748 -7441 -709 -473 -11457 -7795 -3070 -2126 -8504 -5669 1063 38740 118 2363 2952 105710 237 10393 2244 80434 472 16890 591 23741 945 30827 236 9921 2244 82206 472 17953 591 23504 2126 83033 236 4724 827 36969 591 18780 472 22914 827 33071 236 8740 945 41812 236 5433 709 36378 472 19607 473 22087 826 33780 119 8031 826 41576 237 6141 590 35434 1418 75591 118 7205 708 41103 118 6732 473 34253 354 20551 236 20197 473 34135 0 6378 472 40276 118 7323 355 32717 236 20669 118 19016 236 33898 0 5433 237 39095 118 7678 0 30945 118 20669 0 17717 0 33189 -118 4607 0 37441 0 8150 -237 28937 -118 20316 -118 16181 -236 32244 -118 3780 -473 35433 -118 8268 -354 26693 -354 19843 -355 14646 -590 30827 -118 2953 -827 33189 -236 8268 -709 24213 -591 19016 -472 12874 -1063 29056 -118 2244 -1299 30473 -355 8149 -945 21615 -945 17835 -590 11220 -1536 26812 -118 1535 -1771 27402 -473 7795 -1417 18898 -1181 16300 -827 9567 -2008 24094 -118 827 -2362 24095 -709 7205 -1653 16063 -1654 14410 -945 7795 -2598 20906 -119 472 -2834 20315 -945 6260 -2008 12993 -2126 12283 -1063 6142 -3307 17244c-10512,517566 -320319,844735 -710914,984343 -147049,52442 -306028,77718 -463825,75710 -158506,-2126 -316657,-31418 -460517,-87639 -377604,-147522 -667804,-473746 -663079,-975721l-591 -2278610zm1161747 1255645c191104,0 365201,77717 491462,203270 127443,126498 206223,301657 206223,494770 0,193113 -78780,368390 -206223,495006 -126261,125435 -300358,203152 -491462,203152 -191105,0 -365202,-77717 -491463,-203152 -127443,-126616 -206223,-301893 -206223,-495006 0,-193113 78780,-368272 206223,-494770 126261,-125553 300358,-203270 491463,-203270zm263270 443155c-66733,-66379 -159923,-107364 -263270,-107364 -103348,0 -196538,40985 -263271,107364 -65671,65198 -106301,155553 -106301,254885 0,99568 40630,189806 106301,255003 66733,66379 159923,107482 263271,107482 103347,0 196537,-41103 263270,-107482 65671,-65197 106301,-155435 106301,-255003 0,-99332 -40630,-189687 -106301,-254885zm-297050 -2437235c-270240,118 -536936,78781 -799853,235279 0,337799 6851,2767829 -708,2783066 -3662,338980 194884,560321 452840,661071 109371,42638 228782,65079 347957,66497 120001,1417 240830,-17599 352209,-57285 269176,-96143 483313,-319846 491581,-671583l-473 -2777987c-289255,-159687 -570597,-239294 -843553,-239058z"/>
 </g>
</svg>
