<?xml version="1.0" encoding="UTF-8"?>
<!DOCTYPE svg PUBLIC "-//W3C//DTD SVG 1.1//EN" "http://www.w3.org/Graphics/SVG/1.1/DTD/svg11.dtd">
<!-- Creator: CorelDRAW X8 -->
<svg xmlns="http://www.w3.org/2000/svg" xml:space="preserve" width="64px" height="64px" version="1.1" shape-rendering="geometricPrecision" text-rendering="geometricPrecision" image-rendering="optimizeQuality" fill-rule="evenodd" clip-rule="evenodd"
viewBox="0 0 6400000 6400000"
 xmlns:xlink="http://www.w3.org/1999/xlink">
 <g id="Warstwa_x0020_1">
  <metadata id="CorelCorpID_0Corel-Layer"/>
  <polygon fill="#101010" points="546267,546267 5853733,546267 5853733,5853733 546267,5853733 "/>
  <path fill="white" d="M2342863 2877673c-318783,0 -595991,178467 -737016,441029 69331,-305673 224294,-578983 438312,-793002 295752,-295751 704536,-478706 1155959,-478706 451305,0 860089,182955 1155841,478706 222995,222995 381973,510361 446580,831743 -133702,-283586 -422249,-479770 -756505,-479770l0 1671989c461699,0 835995,-374296 835995,-835994l-473 -28583 149884 0 0 -3544c0,-1011390 -819931,-1831321 -1831322,-1831321 -1011508,0 -1831440,819931 -1831440,1831321l0 3544 138663 0 -472 28583c0,461698 374296,835994 835994,835994l0 -1671989z"/>
 </g>
</svg>
