<?xml version="1.0" encoding="UTF-8"?>
<!DOCTYPE svg PUBLIC "-//W3C//DTD SVG 1.1//EN" "http://www.w3.org/Graphics/SVG/1.1/DTD/svg11.dtd">
<!-- Creator: CorelDRAW X8 -->
<svg xmlns="http://www.w3.org/2000/svg" xml:space="preserve" width="64px" height="64px" version="1.1" shape-rendering="geometricPrecision" text-rendering="geometricPrecision" image-rendering="optimizeQuality" fill-rule="evenodd" clip-rule="evenodd"
viewBox="0 0 6400000 6400000"
 xmlns:xlink="http://www.w3.org/1999/xlink">
 <g id="Warstwa_x0020_1">
  <metadata id="CorelCorpID_0Corel-Layer"/>
  <g id="_2223067711488">
   <path fill="{color}" d="M93663 4675806c-30946,-125435 -54686,-252996 -70277,-381619 -15354,-128033 -23386,-257838 -23386,-388233 0,-883594 358233,-1683919 937098,-2262902 578984,-578866 1379308,-937098 2262902,-937098 883594,0 1683918,358232 2262902,937098 578865,578983 937098,1379308 937098,2262902 0,130041 -8032,259373 -23386,387052 -15355,128151 -38977,255593 -69804,380910l-325162 -79962c26930,-109844 47954,-223585 62009,-340398 13583,-113033 20670,-229136 20670,-347602 0,-790876 -320674,-1507106 -838948,-2025380 -518274,-518274 -1234503,-838829 -2025379,-838829 -790876,0 -1507105,320555 -2025379,838829 -518274,518274 -838948,1234504 -838948,2025380 0,118820 7205,235514 20788,348783 14173,117049 35197,231027 62363,341107l-325161 79962z"/>
   <path fill="{color}" d="M1494585 2854996l0 2838932c-783907,0 -1419466,-635441 -1419466,-1419466 0,-784025 635559,-1419466 1419466,-1419466z"/>
   <path fill="{color}" d="M4908722 2854996l0 2838932c783907,0 1419466,-635441 1419466,-1419466 0,-784025 -635559,-1419466 -1419466,-1419466z"/>
  </g>
 </g>
</svg>
