<?xml version="1.0" encoding="UTF-8"?>
<!DOCTYPE svg PUBLIC "-//W3C//DTD SVG 1.1//EN" "http://www.w3.org/Graphics/SVG/1.1/DTD/svg11.dtd">
<svg xmlns="http://www.w3.org/2000/svg" xml:space="preserve" width="64px" height="64px" version="1.1" shape-rendering="geometricPrecision" text-rendering="geometricPrecision" image-rendering="optimizeQuality" fill-rule="evenodd" clip-rule="evenodd"
viewBox="0 0 6400000 6400000"
 xmlns:xlink="http://www.w3.org/1999/xlink">
 <g id="Warstwa">
  <rect fill="{color}" x="399985" y="410674" width="5600030" height="5578651"/>
  <path fill="#FFFFFF" fill-rule="nonzero" d="M3200000 2616528c161222,0 307090,65316 412682,170790 105474,105592 170790,251460 170790,412682 0,161222 -65316,307090 -170790,412682 -105592,105474 -251460,170790 -412682,170790 -161222,0 -307090,-65316 -412682,-170790 -105474,-105592 -170790,-251460 -170790,-412682 0,-161222 65316,-307090 170790,-412682 105592,-105474 251460,-170790 412682,-170790zm-2266918 484376l692135 0 0 211184 -692135 0 0 -211184zm2372510 -2210224l0 692253 -211184 0 0 -692253 211184 0zm2205854 2413495l-692135 0 0 -211066 692135 0 0 211066zm-2417274 2205381l0 -692135 211184 0 0 692135 -211184 0zm-210711 -4032687c-356225,65433 -674654,238349 -920445,484139 -246263,246263 -419414,565401 -484494,922453l-214136 0c134529,-829971 789340,-1485373 1619075,-1620729l0 214137zm-1405175 2039670c65079,357170 238467,676426 484730,922689 245791,245790 564220,418706 920445,484140l0 214136c-829735,-135356 -1484664,-790876 -1619075,-1620965l213900 0zm2038253 1407774c357879,-64844 677961,-238350 924697,-485085 246263,-246263 419651,-565519 484612,-922689l214018 0c-134765,831625 -791584,1487853 -1623327,1621674l0 -213900zm1409191 -2040852c-65080,-357052 -238231,-676190 -484494,-922453 -246736,-246735 -566818,-420241 -924697,-485084l0 -213901c831743,133821 1488444,789931 1623327,1621438l-214136 0zm-1462459 53268c-67206,-67324 -160514,-109135 -263271,-109135 -102757,0 -196065,41811 -263271,109135 -67324,67206 -109135,160514 -109135,263271 0,102757 41811,196065 109135,263271 67206,67324 160514,109135 263271,109135 102757,0 196065,-41811 263271,-109135 67324,-67206 109135,-160514 109135,-263271 0,-102757 -41811,-196065 -109135,-263271z"/>
 </g>
</svg>
