<?xml version="1.0" encoding="UTF-8"?>
<!DOCTYPE svg PUBLIC "-//W3C//DTD SVG 1.1//EN" "http://www.w3.org/Graphics/SVG/1.1/DTD/svg11.dtd">
<!-- Creator: CorelDRAW X8 -->
<svg xmlns="http://www.w3.org/2000/svg" xml:space="preserve" width="64px" height="64px" version="1.1" shape-rendering="geometricPrecision" text-rendering="geometricPrecision" image-rendering="optimizeQuality" fill-rule="evenodd" clip-rule="evenodd"
viewBox="0 0 6400000 6400000"
 xmlns:xlink="http://www.w3.org/1999/xlink">
 <g id="Warstwa_x0020_1">
  <metadata id="CorelCorpID_0Corel-Layer"/>
  <path fill="{color}" fill-rule="nonzero" d="M1032532 5813103l2446920 0 0 -88466 -551109 -270475 -1339032 0 -556779 281814 0 77127zm2598930 310988l-2902831 0 0 -580401 791348 -400398 1474743 0 788632 386815 0 593984 -151892 0z"/>
  <path fill="{color}" fill-rule="nonzero" d="M3232481 796781c380201,184727 700402,472920 923397,827609 216262,344296 341461,750954 341461,1186314 0,618787 -252641,1179463 -660599,1584823 -407131,404532 -969106,654811 -1588956,654811 -619969,0 -1181944,-250279 -1589075,-654811 -407958,-405360 -660599,-966036 -660599,-1584823 0,-437604 126734,-846625 345595,-1192456 225121,-355634 548511,-644063 931783,-827254l128151 280633c-331657,158506 -611346,407958 -805994,715285 -187325,296106 -295752,647134 -295752,1023792 0,532093 217208,1013989 568118,1362654 351973,349611 839065,566110 1377773,566110 538589,0 1025681,-216499 1377654,-566110 350910,-348665 568118,-830561 568118,-1362654 0,-374178 -107364,-723434 -292917,-1018713 -192404,-306028 -469022,-555007 -797609,-714576l129451 -280634z"/>
  <polygon fill="{color}" fill-rule="nonzero" points="1176511,5396051 843081,4531827 1125604,4417613 1459034,5281837 "/>
  <polygon fill="{color}" fill-rule="nonzero" points="3060038,5281837 3393349,4417613 3675990,4531827 3342561,5396051 "/>
  <path fill="{color}" fill-rule="nonzero" d="M1259779 508116c315713,-206341 640402,-310043 973831,-310279 331303,-236 668040,102049 1009619,307327l75355 45355c0,662960 88938,2310382 -590,2753774 -9804,479297 -296697,782253 -658355,911468 -136183,48543 -283350,71930 -429454,70040 -146813,-1890 -293153,-29056 -426501,-81025 -349611,-136655 -618315,-438785 -613945,-903554l-591 -2746806 70631 -46300zm973831 -590c-250279,118 -497132,72993 -740560,217916 0,312760 6378,2562787 -709,2577079 -3307,313823 180475,518746 419297,612055 101340,39449 211892,60237 322208,61536 111143,1417 222995,-16300 326107,-53032 249334,-89056 447525,-296106 455320,-621858l-590 -2572355c-267759,-147876 -528196,-221577 -781073,-221341z"/>
  <path fill="{color}" fill-rule="nonzero" d="M2264910 2353966c176931,0 338154,72048 455084,188270 117994,117167 190987,279334 190987,458155 0,178703 -72993,341107 -190987,458274 -116930,116222 -278153,188152 -455084,188152 -176932,0 -338154,-71930 -454966,-188152 -117994,-117167 -191105,-279571 -191105,-458274 0,-178821 73111,-340988 191105,-458155 116812,-116222 278034,-188270 454966,-188270zm243782 410438c-61772,-61536 -147994,-99568 -243782,-99568 -95671,0 -182010,38032 -243783,99568 -60709,60355 -98387,143978 -98387,235987 0,92127 37678,175750 98387,236106 61773,61418 148112,99450 243783,99450 95788,0 182010,-38032 243782,-99450 60828,-60356 98505,-143979 98505,-236106 0,-92009 -37677,-175632 -98505,-235987z"/>
  <path fill="{color}" fill-rule="nonzero" d="M4869273 5340184l-373706 -3818079 1708486 827 -423076 3993947 -894933 -3898 -16771 -172797zm39449 -3433153l315358 3222796 221814 945 341461 -3223386 -878633 -355z"/>
  <path fill="{color}" fill-rule="nonzero" d="M4594899 1861795c-206459,-212956 -309689,-492054 -309689,-770915 0,-279216 103230,-558669 309689,-771506 207522,-212955 478234,-319492 748592,-319492 270830,0 541896,106537 748474,319492 206695,213073 310043,492408 310043,771624 0,279216 -103348,558432 -309807,771269l-265279 -272956c133584,-137600 200436,-318075 200436,-498313 0,-180239 -66852,-360713 -200200,-498077 -133702,-137955 -308862,-206696 -483667,-206696 -175160,0 -350319,68741 -483904,205987 -132875,137836 -199727,318429 -199727,498668 0,180829 66734,361776 200082,499258l-265043 271657z"/>
  <polygon fill="{color}" fill-rule="nonzero" points="5531289,2387392 5531643,2910154 5158528,2910154 5158056,2387392 "/>
  <polygon fill="{color}" fill-rule="nonzero" points="4473362,858200 6213856,861743 6213856,1246433 4473362,1243007 "/>
  <path fill="{color}" fill-rule="nonzero" d="M5348806 5194906c94253,11693 263980,162876 338390,309453 24331,47953 41457,97797 46300,145514 6614,63780 -6024,124135 -46064,175159 -42402,54332 -111261,90356 -214609,96261l118 2126c6851,62009 14528,133230 2008,205751 -31063,181419 -153427,325279 -561857,250751 -359532,-65316 -531030,-429218 -694142,-775758 -78663,-166891 -155317,-329767 -244846,-433233l186262 -171026c111734,129214 196184,308390 282878,492526 135946,288429 278743,591503 512722,634141 209294,38151 265279,5197 273193,-41693 6378,-37441 945,-88702 -4016,-133466 -4606,-43229 -8976,-82915 -5906,-119647 9095,-112679 56340,-179884 185908,-168782 41339,3662 66379,4606 78663,3543 -2953,-12519 -9095,-27402 -17245,-43347 -42874,-84804 -116222,-169136 -146931,-172797l29174 -255476z"/>
 </g>
</svg>
