<?xml version="1.0" encoding="UTF-8"?>
<!DOCTYPE svg PUBLIC "-//W3C//DTD SVG 1.1//EN" "http://www.w3.org/Graphics/SVG/1.1/DTD/svg11.dtd">
<svg xmlns="http://www.w3.org/2000/svg" xml:space="preserve" width="64px" height="64px" version="1.1" shape-rendering="geometricPrecision" text-rendering="geometricPrecision" image-rendering="optimizeQuality" fill-rule="evenodd" clip-rule="evenodd"
viewBox="0 0 6400000 6400000"
 xmlns:xlink="http://www.w3.org/1999/xlink">
 <g id="Warstwa_1">
  <polygon fill="{color}" points="399926,400517 6000074,400517 6000074,5979168 399926,5979168 "/>
  <path fill="#FFFFFF" d="M3098306 999934l0 4400132 -383627 0 -1001115 -1366079 -917609 0 1653 -1668446 915956 0 1001115 -1365607 383627 0zm465006 2782829l2021127 541660 -102994 385753 -2021127 -541660 102994 -385753zm-102994 -1563326l2021127 -541660 102994 385752 -2021127 541661 -102994 -385753zm45591 780600l2092467 0 0 399926 -2092467 0 0 -399926zm-807529 1702698l0 -3005706 -783199 1068438 -720009 0 -827 434297 1536 0 0 434296 719418 0 783081 1068675z"/>
 </g>
</svg>
