<?xml version="1.0" encoding="UTF-8"?>
<!DOCTYPE svg PUBLIC "-//W3C//DTD SVG 1.1//EN" "http://www.w3.org/Graphics/SVG/1.1/DTD/svg11.dtd">
<!-- Creator: CorelDRAW X8 -->
<svg xmlns="http://www.w3.org/2000/svg" xml:space="preserve" width="64px" height="64px" version="1.1" shape-rendering="geometricPrecision" text-rendering="geometricPrecision" image-rendering="optimizeQuality" fill-rule="evenodd" clip-rule="evenodd"
viewBox="0 0 6400000 6400000"
 xmlns:xlink="http://www.w3.org/1999/xlink">
 <g id="Warstwa_x0020_1">
  <metadata id="CorelCorpID_0Corel-Layer"/>
  <path fill="{color}" d="M6400000 6400000l-1250803 0 -813435 -1515491 2064238 -77009 0 1592500zm-3225040 -6400118c671229,0 1215251,537999 1215251,1201904 0,290319 -189569,701702 -421540,1098321l1298520 0 -4047570 2959525 353036 -2959525 811782 0c-233507,-396265 -424848,-806821 -424848,-1098321 0,-663905 544141,-1201904 1215369,-1201904zm0 605795c343942,0 622685,275672 622685,615834 0,340280 -278743,615834 -622685,615834 -344059,0 -622685,-275554 -622685,-615834 0,-340162 278626,-615834 622685,-615834zm192522 432170c-48544,-47953 -116812,-77835 -192522,-77835 -75827,0 -143505,29292 -191223,76536l-1299 1418c-46772,46181 -75827,111261 -75827,183545 0,72403 29055,137364 75827,183546l1299 1417c47718,47245 115396,76536 191223,76536 75828,0 143506,-29291 191223,-76536l1299 -1417c46773,-46182 75828,-111143 75828,-183546 0,-71576 -28937,-136655 -75828,-183664zm419061 -434178c-155908,-154018 -372288,-249452 -611583,-249452 -239294,0 -455675,95434 -611582,249570 -154018,153073 -249452,364611 -249452,597999 0,397801 513668,1170605 863633,1664903 350319,-492290 858317,-1264858 858317,-1664903 0,-233388 -95434,-445044 -249333,-598117zm909696 5796331l-4360329 0 1968803 -1439545 1586949 -59292 804577 1498837zm-4696239 -248625l0 -3851268 1170133 0 -391423 3281851 -778710 569417zm5943144 -3851268l456856 0 0 2108530 -3520437 131576 3063581 -2240106z"/>
 </g>
</svg>
