<?xml version="1.0" encoding="UTF-8"?>
<!DOCTYPE svg PUBLIC "-//W3C//DTD SVG 1.1//EN" "http://www.w3.org/Graphics/SVG/1.1/DTD/svg11.dtd">
<!-- Creator: CorelDRAW X8 -->
<svg xmlns="http://www.w3.org/2000/svg" xml:space="preserve" width="64px" height="64px" version="1.1" shape-rendering="geometricPrecision" text-rendering="geometricPrecision" image-rendering="optimizeQuality" fill-rule="evenodd" clip-rule="evenodd"
viewBox="0 0 6400000 6400000"
 xmlns:xlink="http://www.w3.org/1999/xlink">
 <g id="Warstwa_x0020_1">
  <metadata id="CorelCorpID_0Corel-Layer"/>
  <path fill="{color}" fill-rule="nonzero" d="M3299804 5515462c-22913,76182 -17244,145986 18662,172561 60355,54449 105474,83859 163939,121300l62835 34489c35080,13937 64017,35552 98151,51379 146223,67678 262208,161576 173270,354098 -7441,16064 -33189,47127 -60473,76537 -29528,31654 -63662,64489 -78781,74174l-48425 -75591c9094,-5788 36142,-32481 61536,-59765 21851,-23622 41575,-46064 44646,-52914 56930,-123072 -26103,-187325 -129332,-235042 -32245,-15000 -67206,-28701 -100513,-41930l-77127 -31536c-70040,-30591 -165120,-74174 -236224,-138427 -70276,-63662 -115985,-145159 -94371,-250278l-355162 -1536 -16772 -172797 -348783 -3563430c-156853,-199491 -235279,-442801 -235279,-685874 0,-279216 103230,-558669 309689,-771506 207522,-212955 478234,-319492 748592,-319492 270830,0 541896,106537 748474,319492 206695,213073 310043,492408 310043,771624 0,236932 -74529,473982 -223231,670284l-397800 3755597 -337564 -1417zm-745639 -4656790l1292378 2598c-32835,-98032 -87166,-190159 -162994,-268349 -133702,-137955 -308862,-206696 -483667,-206696 -175160,0 -350319,68741 -483904,205987 -75001,77836 -129096,169136 -161813,266460zm1312812 387406l-1334662 -2716c21142,99332 63071,194884 126025,278861l1082021 591c62954,-83387 105119,-178231 126616,-276736zm-479298 1141314l355 522762 -373115 0 -472 -522762 373232 0zm-622566 -480361l315358 3222796 221814 945 341461 -3223386 -878633 -355z"/>
 </g>
</svg>
