<?xml version="1.0" encoding="UTF-8"?>
<!DOCTYPE svg PUBLIC "-//W3C//DTD SVG 1.1//EN" "http://www.w3.org/Graphics/SVG/1.1/DTD/svg11.dtd">
<svg xmlns="http://www.w3.org/2000/svg" xml:space="preserve" width="64px" height="64px" version="1.1" shape-rendering="geometricPrecision" text-rendering="geometricPrecision" image-rendering="optimizeQuality" fill-rule="evenodd" clip-rule="evenodd"
viewBox="0 0 6400000 6400000"
 xmlns:xlink="http://www.w3.org/1999/xlink">
 <g id="Warstwa">
  <metadata id="CorelCorpID_0Corel-Layer"/>
  <polygon fill="{color}" points="399926,399926 6000074,399926 6000074,6000074 399926,6000074 "/>
  <path fill="#FFFFFF" fill-rule="nonzero" d="M3442601 1237102l0 1550924c0,81261 -1653,160750 -5433,238468 -3661,77836 -8386,155435 -13819,234097 -5669,78663 -11811,159097 -20315,241302 -8268,82206 -18307,170790 -29410,264807l-330831 0c-10984,-94017 -20197,-182601 -28465,-264807 -8267,-82205 -15590,-162639 -21260,-241302 -5433,-78662 -10039,-156261 -13819,-234097 -3543,-77718 -5315,-157207 -5315,-238468l0 -1550924 468667 0zm-587251 3586934c0,-46891 9213,-91301 26575,-132758 17481,-41693 41457,-77835 72521,-108426 31299,-30827 68150,-55277 109489,-73348 41339,-18071 86340,-27047 136065,-27047 47835,0 92836,8976 134057,27047 41575,18071 77481,42521 108544,73348 31300,30591 56103,66733 74529,108426 18307,41457 27520,85867 27520,132758 0,48780 -9213,93190 -27520,133820 -18426,40513 -43229,76891 -74529,107482 -31063,30827 -66969,54213 -108544,71457 -41221,17127 -86222,26103 -134057,26103 -49725,0 -94726,-8976 -136065,-26103 -41339,-17244 -78190,-40630 -109489,-71457 -31064,-30591 -55040,-66969 -72521,-107482 -17362,-40630 -26575,-85040 -26575,-133820z"/>
 </g>
</svg>
