<?xml version="1.0" encoding="UTF-8"?>
<!DOCTYPE svg PUBLIC "-//W3C//DTD SVG 1.1//EN" "http://www.w3.org/Graphics/SVG/1.1/DTD/svg11.dtd">
<!-- Creator: CorelDRAW X8 -->
<svg xmlns="http://www.w3.org/2000/svg" xml:space="preserve" width="64px" height="64px" version="1.1" shape-rendering="geometricPrecision" text-rendering="geometricPrecision" image-rendering="optimizeQuality" fill-rule="evenodd" clip-rule="evenodd"
viewBox="0 0 6400000 6400000"
 xmlns:xlink="http://www.w3.org/1999/xlink">
 <g id="Warstwa_x0020_1">
  <metadata id="CorelCorpID_0Corel-Layer"/>
  <path fill="{color}" d="M4929273 553708c-161222,-40867 -96261,-46536 -325397,-137364 -52206,13346 -131695,34370 -169727,56811 -100749,59174 -132049,175987 -239530,220633 -65671,27166 -117522,48544 -161223,85513l26693 156144c146695,15236 91891,-5906 195593,-41930 33780,53150 49843,66615 66970,130986 -214373,4488 73347,-53859 -138073,-44174 -60119,78072 -17480,41103 -24449,152600 -224294,22796 -144333,123191 -415163,210239l-125789 46300c67088,68150 84332,17717 120238,106773 71930,178467 -212129,116222 -307208,111852 -27166,49016 -49371,164884 -48544,219687 2598,153073 27992,55040 121537,131931 -9095,172561 -97324,69095 -165121,226775 -39095,90709 5906,76654 -69922,136300 -56103,44292 -60119,17717 -124253,81143 -33544,33071 -156852,221696 -162994,247444 -17599,73111 16299,75237 17008,174569 708,82324 -30945,111498 -40513,168309 -25984,155554 68387,155199 138782,257130 229255,331657 276145,213782 506345,223231 129096,5433 187915,-59647 329059,-66497 101930,47599 36851,51733 107836,83387 82796,36969 52914,-22323 150120,36378 48189,88466 -12756,160041 -7087,286421 118112,81261 170553,192404 196656,350201 41575,250869 -128033,234097 -66733,425320 12402,38859 71575,120829 94371,177640 27166,67678 27402,151892 49253,225475 25748,86576 54685,89293 97442,176341 50552,102757 23150,125671 60827,210239 277799,38268 496778,-77245 636622,-298114 61418,-97088 -6614,-73583 66025,-141143 103584,-96025 104647,62363 73111,-272130 60355,-35433 226066,-149057 282759,-222404 42639,-123781 -54922,-283586 -64253,-421068 -15590,-228310 304138,-365910 416108,-519692 58820,-80788 143269,-231262 142206,-362248 -165946,29528 -336027,124962 -362839,-19843 115395,-60355 304965,-104411 411974,-179766l89883 -46654 -25040 -395202c-185671,150120 -84213,45237 -187797,-57638 -64017,-63662 -132167,-76655 -95907,-174569 121891,-3898 75591,110670 231499,153191l24331 -87521 -1325686 -1781006zm-342642 1207692c-126025,59882 1063,-13229 -82796,109962 -3071,-5079 -5669,-19725 -6969,-16300 -13582,37678 2244,-25276 -42284,-74056 -39803,-43465 -62835,-14055 -255948,-199018l-332602 150356c-106773,91891 -39449,98623 -110553,163703 -81615,74883 -134529,22323 -200317,86458 120001,87639 206223,-25040 312523,-45119 84805,-16063 291146,-20197 381147,-17717 43111,171498 -58938,163467 115631,204097 166774,38623 23741,30355 276263,118821l29410 -49253c2244,-4134 5788,-11102 8150,-15591 19134,-35788 10984,-31890 27874,-54213 205869,-9803 167246,105119 611464,78426 40985,-64134 64371,-152128 55631,-252168l-362130 2834c-41458,-60355 -55159,-104410 -96734,-193821l-111025 24331c26693,72166 33662,32363 58347,102521l-93898 68859c-181656,-180711 3779,-216380 -430636,-432289 13111,66025 59292,117640 93663,145868 40512,33190 114923,68741 155789,93309z"/>
  <path fill="{color}" d="M100277 2880626c219688,90355 73702,-19725 253586,129096 122836,101458 176458,2244 272365,164293 78308,132404 124962,119529 228901,194176 80670,-38504 12756,-24685 92717,-77127 216735,212247 -56339,329414 -84331,456029l-12520 169373c-13347,65670 251814,504691 338508,561148 126261,81970 215081,49725 237759,219688 19606,146104 1299,310279 18543,454966 11221,94608 36733,106419 35906,206223 -1535,218861 -24567,135474 38386,368745 43938,163230 15237,28465 62718,41221l369335 256656 -61182 -87166 81852 -147876c-23623,-76654 27992,-12047 -61300,-65906 4370,-3189 12992,-10276 15118,-5906l56693 -28583c48308,-41221 8859,-2126 47954,-90828 230081,-36260 191695,-76182 102639,-213782 93781,14646 149175,30237 200317,-54331l107836 -189451c83741,-133585 -15354,-128151 68505,-227247 56694,-66969 138191,-62954 208585,-88938 155199,-57284 119411,-277917 154136,-439730 35315,-164412 230200,-177876 152955,-395792 -64371,-57757 -24213,-12048 -105592,-55631 -54568,-29174 -65434,-55394 -111616,-73465 -43937,-17363 -90591,-14174 -136182,-22442 -147050,-26693 -42639,-9330 -127561,-55276 -117285,-63426 -155435,-6142 -222286,-118112 -53859,-90237 -42993,-153427 -134293,-209412 -135829,-83150 -136183,30828 -337682,-163702 -81733,-78899 -3543,-48781 -99332,-83387 -107481,-38741 -107717,34606 -270121,-25394l-125198 -27402c-2481,-236 -9095,-118 -11339,-473l-55158 -29882c-62954,49371 -86458,28229 -139844,63899 -41694,27756 -47245,66260 -91183,109253 -111497,-40276 -231735,-12284 -276145,-55395 -83269,-80788 8977,-173033 -10157,-285239l-222169 -14882c31654,-108191 90002,-152601 75356,-271775 -241066,11575 -102994,197837 -370517,143978 -171970,-81734 -63071,-411147 77482,-490046 135238,-75827 159923,-2362 277798,-38622 57403,-17717 43347,-41103 151656,-31300 11811,1063 60827,12166 76064,18426 1889,708 -16182,-56930 61063,37205 52678,79843 -42047,87875 124254,125434 -2362,-340634 -24567,-233506 255712,-395319 114332,-66025 51378,-126144 192758,-240712 79843,-64725 72284,-33071 152718,-74410 68860,-35316 51261,-70749 116577,-113151 40984,-26694 120592,-48190 164411,-60237l22796 62008c77008,-35787 233034,-62953 271657,-133348 -47245,-24095 -92954,22914 -170436,-8740 6615,-87639 19961,-30473 42757,-128151 -29764,-3071 -30355,5315 -47009,-6614 -60945,-43466 -18307,17362 -12756,-27520 78190,-15946 67088,-24213 121065,34252 56693,-14410 23386,-7677 45591,-42875 162403,2126 113387,-16653 237995,-52677 -24567,39331 -7087,13701 -34252,45236 -6851,7914 -27402,29292 -35670,37914 -31300,32835 -40276,42402 -66970,73702 51852,23504 186853,47481 250988,58347 -4134,-55867 -2008,-94253 -37914,-135828l-25630 -20434c-2599,-2244 -9804,-5433 -13937,-9094 72756,-121655 79371,-192640 -70631,-245318 -945,-116458 8504,-119647 -39922,-198074 -72166,1300 -42166,54922 -192404,61300 -6969,-54567 20433,-102521 -37559,-143151 -46182,-32363 -133703,-28465 -200672,-36497 -199018,239413 38268,283587 -316540,366383 -31772,120474 0,108663 -101103,133230 -41812,-73229 -14764,-83859 17244,-163230 -113033,-21379 -92245,-11575 -187916,-59292 -182010,-90828 -71221,18779 -144923,-125908 75119,-127560 293744,-169962 452486,-225829 14882,22323 3426,56221 73230,49252 21260,-2126 136300,-23149 144923,-28701 -21379,-26220 -60828,-65906 -82679,-89646 209058,-4252 142443,-51615 239767,-127561 88584,-69095 168309,-7559 249688,57638l-27284 23387c-3070,2362 -10039,8267 -13819,10984 -74882,54568 -162876,48780 -234688,82324 62718,66024 50552,-17717 203034,84095 105238,70277 142325,16300 240476,-2598 12520,-68032 -4488,-72875 -19961,-132521 98269,29173 113033,94961 209530,-20079 -43111,-61182 -69095,-33780 -111025,-91301 -39685,-54449 6378,14056 -14055,-36260 -23622,-58229 -89883,-77363 -140907,-109962 -102639,-65552 -39450,-45119 -235869,-46772 -113151,-1063 -122955,-19016 -229491,28347l21850 -9331c-39213,41103 -78426,72166 -133820,82205 -252523,144569 -1346001,1170133 -1579980,2012860 -53269,191813 -167010,320437 -90710,482368z"/>
  <g>
   <path fill="{color}" d="M3200000 0c1767305,0 3200000,1432695 3200000,3200000 0,1767305 -1432695,3200000 -3200000,3200000 -1767305,0 -3200000,-1432695 -3200000,-3200000 0,-1767305 1432695,-3200000 3200000,-3200000zm2095774 1104226c-536227,-536227 -1277260,-868003 -2095774,-868003 -818514,0 -1559547,331776 -2095774,868003 -536227,536227 -868003,1277260 -868003,2095774 0,818514 331776,1559547 868003,2095774 536227,536227 1277260,868003 2095774,868003 818514,0 1559547,-331776 2095774,-868003 536227,-536227 868003,-1277260 868003,-2095774 0,-818514 -331776,-1559547 -868003,-2095774z"/>
  </g>
 </g>
</svg>
