<?xml version="1.0" encoding="UTF-8"?>
<!DOCTYPE svg PUBLIC "-//W3C//DTD SVG 1.1//EN" "http://www.w3.org/Graphics/SVG/1.1/DTD/svg11.dtd">
<!-- Creator: CorelDRAW X8 -->
<svg xmlns="http://www.w3.org/2000/svg" xml:space="preserve" width="64px" height="64px" version="1.1" shape-rendering="geometricPrecision" text-rendering="geometricPrecision" image-rendering="optimizeQuality" fill-rule="evenodd" clip-rule="evenodd"
viewBox="0 0 6400000 6400000"
 xmlns:xlink="http://www.w3.org/1999/xlink">
 <g id="Warstwa_x0020_1">
  <metadata id="CorelCorpID_0Corel-Layer"/>
  <path fill="{color}" fill-rule="nonzero" d="M949736 1558838l1734943 0 0 -87875c0,-19961 -4252,-37205 -11930,-50316 -7795,-13346 -20905,-25512 -37677,-34843 -121065,-67323 -222168,-156970 -293035,-261499 -73348,-108426 -114805,-231381 -114805,-361540 0,-222050 117167,-419414 306382,-558314 171852,-126143 406304,-204569 662134,-204569 255948,0 490282,78426 662252,204569 189215,138900 306382,336264 306382,558314 0,128860 -40040,249807 -111025,356579 -68387,103466 -167128,192641 -287011,261027 -15946,9095 -28229,21024 -36143,34843 -7677,13229 -11929,30237 -11929,49489l0 94135 1925929 0 0 2606725 -452367 0c-87757,0 -171026,-22677 -243665,-64843 -72048,-41812 -132994,-102994 -177049,-180239 -37560,-65788 -85277,-119411 -139018,-155080 -43229,-29646 -91773,-45946 -142206,-45946 -92009,0 -179648,56458 -246381,147404 -79489,108190 -128742,261381 -128742,433351 0,172089 49253,325162 128742,433470 66733,90946 154372,147404 246381,147404 51496,0 100867,-16890 144805,-46654 53741,-36379 101930,-92128 140316,-161223 43229,-77954 104411,-140198 177404,-183191 73584,-43111 157443,-66379 245672,-66379l446108 0 0 1976363 -4888406 0 0 -4841162 193939 0zm1928764 387761l-1734943 0 0 4065522 4112886 0 0 -1200723 -58348 0c-19842,0 -37205,4252 -50197,11929 -13583,7914 -25630,20788 -34961,37678 -67206,121064 -156852,222050 -261499,292917 -108427,73465 -231381,114922 -361540,114922 -222050,0 -419415,-117166 -558314,-306381 -126262,-171853 -204570,-406305 -204570,-662253 0,-255830 78308,-490281 204570,-662134 138899,-189215 336264,-306381 558314,-306381 128623,0 249924,40158 356933,111497 102994,67796 192168,166656 260555,286421 8976,15827 21142,28347 34843,36260 13228,7677 30236,11929 49607,11929l64607 0 0 -1831203 -1925930 0 0 -481896c0,-87875 22678,-170908 64726,-243546 41811,-72166 103111,-133112 180356,-177050 65670,-37559 119175,-85158 155081,-139017 29410,-43820 45945,-92245 45945,-142325 0,-91891 -56575,-179529 -147403,-246263 -108309,-79489 -261381,-128741 -433470,-128741 -171971,0 -325162,49252 -433352,128741 -90946,66734 -147403,154372 -147403,246263 0,51497 16890,100868 46654,144805 36378,53741 92009,101931 161222,140317 77718,43229 140081,104174 183073,177404 43229,73583 66497,157206 66497,245672l0 475636 -193939 0z"/>
 </g>
</svg>
