<?xml version="1.0" encoding="UTF-8"?>
<!DOCTYPE svg PUBLIC "-//W3C//DTD SVG 1.1//EN" "http://www.w3.org/Graphics/SVG/1.1/DTD/svg11.dtd">
<!-- Creator: CorelDRAW X8 -->
<svg xmlns="http://www.w3.org/2000/svg" xml:space="preserve" width="64px" height="64px" version="1.1" shape-rendering="geometricPrecision" text-rendering="geometricPrecision" image-rendering="optimizeQuality" fill-rule="evenodd" clip-rule="evenodd"
viewBox="0 0 6400000 6400000"
 xmlns:xlink="http://www.w3.org/1999/xlink">
 <g id="Warstwa_x0020_1">
  <metadata id="CorelCorpID_0Corel-Layer"/>
  <path fill="#101010" d="M4519308 1816440l399926 -1181 0 -50552 0 -1326631 -4919234 0 0 3508036 630244 0 0 1411198 1325922 -1411198 168309 0 127915 0 1063 -399927 -468903 0 -754380 802806 0 -802806 -630244 0 0 -2708183 4119382 0 0 921744 0 56694zm-1865456 399217l3746148 0 0 2671450 -866822 0 0 1074699 -1009618 -1074699 -1869708 0 0 -2671450z"/>
  <polygon fill="white" fill-rule="nonzero" points="3200000,3349293 3864142,3349293 3864142,3749219 3200000,3749219 "/>
  <polygon fill="white" fill-rule="nonzero" points="4196508,3349293 4860650,3349293 4860650,3749219 4196508,3749219 "/>
  <polygon fill="white" fill-rule="nonzero" points="5189591,3349293 5853733,3349293 5853733,3749219 5189591,3749219 "/>
  <rect fill="none" x="2653852" y="2215657" width="3746148" height="2671450"/>
 </g>
</svg>
