<?xml version="1.0" encoding="UTF-8"?>
<!DOCTYPE svg PUBLIC "-//W3C//DTD SVG 1.1//EN" "http://www.w3.org/Graphics/SVG/1.1/DTD/svg11.dtd">
<!-- Creator: CorelDRAW X8 -->
<svg xmlns="http://www.w3.org/2000/svg" xml:space="preserve" width="64px" height="64px" version="1.1" shape-rendering="geometricPrecision" text-rendering="geometricPrecision" image-rendering="optimizeQuality" fill-rule="evenodd" clip-rule="evenodd"
viewBox="0 0 6400000 6400000"
 xmlns:xlink="http://www.w3.org/1999/xlink">
 <g id="Warstwa_x0020_1">
  <metadata id="CorelCorpID_0Corel-Layer"/>
  <path fill="{color}" fill-rule="nonzero" d="M949736 1558838l1598287 0 0 -87875c0,-19961 -4252,-37205 -11929,-50316 -7795,-13346 -20906,-25512 -37677,-34843 -121065,-67323 -222169,-156970 -293036,-261499 -73347,-108426 -114804,-231381 -114804,-361540 0,-222050 117167,-419414 306382,-558314 171852,-126143 630952,-204569 886782,-204569 255948,0 626937,78426 798908,204569 189215,138900 306381,336264 306381,558314 0,128860 -40039,249807 -111025,356579 -68386,103466 -167128,192641 -287011,261027 -15945,9095 -28229,21024 -36142,34843 -7677,13229 -11929,30237 -11929,49489l0 94135 1701280 0 0 2417274 -452367 0c-87757,0 -171026,-22678 -243665,-64843 -72048,-41812 -132994,-102994 -177049,-180239 -37560,-65788 -85277,-119411 -139018,-155080 -43229,-29647 -91773,-45946 -142206,-45946 -92009,0 -179648,56457 -246381,147403 -79489,108191 -128742,429100 -128742,601071 0,172089 49253,514612 128742,622921 66733,90946 154372,147403 246381,147403 51496,0 100867,-16890 144805,-46654 53741,-36378 101930,-92127 140316,-161222 43229,-77954 104411,-140199 177404,-183192 73584,-43110 157443,-66378 245672,-66378l446108 0 0 1808644 -4888406 0 0 -4841162 193939 0zm1792109 387761l-1598288 0 0 4065522 4112886 0 0 -1033005 -58348 0c-19842,0 -37205,4252 -50197,11930 -13583,7913 -25630,20787 -34961,37677 -67206,121065 -156852,222050 -261499,292917 -108427,73466 -231381,114923 -361540,114923 -222050,0 -419415,-117167 -558314,-306382 -126262,-171852 -204570,-595755 -204570,-851703 0,-255830 78308,-658000 204570,-829853 138899,-189215 336264,-306382 558314,-306382 128623,0 249924,40158 356933,111498 102994,67796 192168,166655 260555,286421 8976,15827 21142,28346 34843,36260 13228,7677 30236,11929 49607,11929l64607 0 0 -1641752 -1701281 0 0 -481896c0,-87875 22677,-170908 64725,-243546 41812,-72166 103112,-133112 180357,-177050 65670,-37559 119174,-85158 155080,-139017 29410,-43820 45946,-92245 45946,-142325 0,-91891 -56576,-179529 -147404,-246263 -108308,-79489 -398036,-128741 -570125,-128741 -171970,0 -549810,49252 -658000,128741 -90946,66734 -147403,154372 -147403,246263 0,51497 16890,100868 46654,144805 36378,53741 92009,101931 161222,140317 77718,43229 140081,104174 183073,177404 43229,73583 66497,157206 66497,245672l0 475636 -193939 0z"/>
 </g>
</svg>
