<?xml version="1.0" encoding="UTF-8"?>
<!DOCTYPE svg PUBLIC "-//W3C//DTD SVG 1.1//EN" "http://www.w3.org/Graphics/SVG/1.1/DTD/svg11.dtd">
<!-- Creator: CorelDRAW X8 -->
<svg xmlns="http://www.w3.org/2000/svg" xml:space="preserve" width="64px" height="64px" version="1.1" shape-rendering="geometricPrecision" text-rendering="geometricPrecision" image-rendering="optimizeQuality" fill-rule="evenodd" clip-rule="evenodd"
viewBox="0 0 6400000 6400000"
 xmlns:xlink="http://www.w3.org/1999/xlink">
 <g id="Warstwa_x0020_1">
  <metadata id="CorelCorpID_0Corel-Layer"/>
  <circle fill="none" cx="3177323" cy="1136707" r="542015"/>
  <path fill="black" fill-rule="nonzero" d="M2386210 508825c-59292,61182 -88820,154726 -88820,293153 0,73230 23505,131577 59529,181892 40748,57521 99568,108781 160986,160042 90474,75119 175986,220160 215790,345358 17008,53623 26693,106183 25985,151065 -945,66143 -23150,120828 -71340,154845 -27047,19016 -58819,29291 -95552,29291l-1500255 0 0 1545964 0 1119581 0 1549507 4214934 0 0 -1432222c-56812,32244 -108427,86221 -161813,141970 -126498,132403 -261263,273074 -512369,273074l-35197 -354c-162994,472 -250751,-22559 -423667,-108781 -162403,-139608 -298468,-393902 -328468,-669929 -34725,-319020 26575,-952217 146340,-1150172 85867,-141262 188625,-216971 302602,-257484 108781,-38504 221224,-42874 338390,-42874 250751,0 385281,140789 511896,273074 53859,55867 105474,109726 162286,141970l0 -1383324 -1517381 0c-36851,0 -69213,-10630 -96025,-30000 -47244,-33662 -69449,-88230 -71457,-153663 -1181,-46300 7795,-99687 24803,-154136 38741,-124490 123427,-268822 224530,-352682 88348,-73111 144805,-124135 174688,-177167 28228,-50906 38858,-115750 38858,-220751 0,-23268 -1653,-44174 -4606,-62127 -18898,-113741 -96379,-189333 -200436,-236932 -117875,-53859 -514730,-74292 -663433,-74292 -96733,0 -450950,8504 -531030,21733 -137364,22677 -237641,60355 -299768,124371zm-383981 519692c-33425,-90710 -36732,-181538 -36732,-325398 0,-332366 260082,-543078 592330,-632724 120237,-32363 512959,-48662 644417,-48781 130395,-472 505636,15946 626819,48544 330358,89293 588314,299295 588314,632961 0,284649 -118,363548 -239530,601779l-45237 43347c-45473,42756 -96025,90473 -128151,143978l171025 -1417c527960,-4961 1219267,-13701 1369505,21142l60946 14173 19843 79962c7913,23622 13465,40748 13465,85395l1889 309688c5079,541779 14056,1340096 -21142,1490806l-14173 60355 -60355 14174c-132639,31063 -247444,10275 -348193,-37442 -94726,-44882 -173979,-113033 -243429,-182955l-44528 -46536c-75001,-79489 -164765,-174923 -276027,-174923l-24213 0c-98977,-709 -166655,-827 -249333,51969 -20906,13583 -37442,28583 -51615,45591 -15473,18425 -30473,42048 -46536,69686 -61300,105474 -131813,297641 -131222,489337 472,185907 33898,613117 96851,716229 45591,74174 128978,149766 181538,169018 58229,21496 133466,24095 224530,24095 98387,0 191459,-91773 288193,-187089 163821,-161577 336264,-331186 626700,-254177l58111 15355 19489 77953c7913,23505 13465,41103 13465,85631l1889 310516c4961,547448 14174,1411317 -21142,1562500l-18189 77363c-926822,0 -1853763,-4961 -2780585,-7677l-2060459 7559 -1889 -515794 0 -2619363c-5079,-541778 -14056,-1505924 21142,-1656871l14173 -60355 60828 -14173c144804,-33544 830561,-25394 1358638,-20906l161931 1299c-31772,-54686 -79961,-100513 -126143,-144450l-44174 -42757c-110788,-110670 -169962,-186262 -203034,-276617z"/>
 </g>
</svg>
