<?xml version="1.0" encoding="UTF-8"?>
<!DOCTYPE svg PUBLIC "-//W3C//DTD SVG 1.1//EN" "http://www.w3.org/Graphics/SVG/1.1/DTD/svg11.dtd">
<svg xmlns="http://www.w3.org/2000/svg" xml:space="preserve" width="64px" height="64px" version="1.1" shape-rendering="geometricPrecision" text-rendering="geometricPrecision" image-rendering="optimizeQuality" fill-rule="evenodd" clip-rule="evenodd"
viewBox="0 0 6400000 6400000"
 xmlns:xlink="http://www.w3.org/1999/xlink">
 <g id="Warstwa">
   <path fill="{color}" d="M4354424 1989355l349965 -945 0 -44292 0 -1160801 -4304345 0 0 3069604 551464 0 0 1234858 1160093 -1234858 147285 0 111970 0 945 -349965 -410320 0 -660126 702529 0 -702529 -551464 0 0 -2369674 3604533 0 0 806584 0 49607 0 -118zm-1632304 349375l3277954 0 0 2337548 -758513 0 0 940405 -883476 -940405 -1635965 0 0 -2337548z"/>
   <polygon fill="#FFFFFF" fill-rule="nonzero" points="3200000,3330632 3781110,3330632 3781110,3680596 3200000,3680596 "/>
   <polygon fill="#FFFFFF" fill-rule="nonzero" points="4072019,3330632 4653128,3330632 4653128,3680596 4072019,3680596 "/>
   <polygon fill="#FFFFFF" fill-rule="nonzero" points="4940848,3330632 5522076,3330632 5522076,3680596 4940848,3680596 "/>
 </g>
</svg>
