<?xml version="1.0" encoding="UTF-8"?>
<!DOCTYPE svg PUBLIC "-//W3C//DTD SVG 1.1//EN" "http://www.w3.org/Graphics/SVG/1.1/DTD/svg11.dtd">
<!-- Creator: CorelDRAW X8 -->
<svg xmlns="http://www.w3.org/2000/svg" xml:space="preserve" width="64px" height="64px" version="1.1" shape-rendering="geometricPrecision" text-rendering="geometricPrecision" image-rendering="optimizeQuality" fill-rule="evenodd" clip-rule="evenodd"
viewBox="0 0 6400000 6400000"
 xmlns:xlink="http://www.w3.org/1999/xlink">
 <g id="Warstwa_x0020_1">
  <metadata id="CorelCorpID_0Corel-Layer"/>
  <path fill="black" fill-rule="nonzero" d="M4374148 3905481l0 -193939 1772 -827 0 -1764116 -1637737 0 0 -481896c0,-87875 22678,-170908 64726,-243546 41811,-72166 103111,-133112 180356,-177050 65670,-37559 119175,-85158 155081,-139017 29410,-43820 45945,-92245 45945,-142325 0,-91891 -56575,-179529 -147403,-246263 -108309,-79489 -398037,-128741 -570125,-128741 -171971,0 -549810,49252 -658001,128741 -90946,66734 -147403,154372 -147403,246263 0,51497 16890,100868 46654,144805 36379,53741 92009,101931 161223,140317 77717,43229 140080,104174 183073,177404 43229,73583 66497,157206 66497,245672l0 475636 -193940 0 -1457852 0 0 4065522 3908906 0 0 -1482301 550637 0c61772,8858 120119,29173 173033,59764 72167,41812 133112,103112 177050,180357 37559,65670 85158,119174 139017,155080 43820,29410 92245,45946 142325,45946 91891,0 179530,-56576 246263,-147404 79489,-108308 128741,-398036 128741,-570125 0,-171970 -49252,-549810 -128741,-658000 -66733,-90946 -154372,-147403 -246263,-147403 -51497,0 -100868,16890 -144805,46654 -53741,36378 -101931,92009 -140317,161222 -43229,77718 -104174,140081 -177404,183073 -72402,42520 -154608,65788 -241538,66497l-4134 0 -86103 0 -389533 0zm389533 -387761l86103 0c19961,0 37205,-4252 50316,-11929 13346,-7795 25512,-20906 34843,-37677 67323,-121065 156970,-222169 261499,-293036 108426,-73347 231381,-114804 361540,-114804 222050,0 419414,117167 558314,306382 126143,171852 204569,630952 204569,886782 0,255948 -78426,626937 -204569,798908 -138900,189215 -336264,306381 -558314,306381 -128860,0 -249806,-40040 -356579,-111025 -103466,-68386 -192641,-167128 -261027,-287011 -9095,-15945 -21024,-28229 -34843,-36142 -13229,-7677 -30237,-11930 -49489,-11930l-92363 0 0 1487381 -4684428 0 0 -4841162 193939 0 1457853 0 0 -87875c0,-19961 -4252,-37205 -11929,-50316 -7796,-13346 -20906,-25512 -37678,-34843 -121064,-67323 -222168,-156970 -293035,-261499 -73347,-108426 -114805,-231381 -114805,-361540 0,-222050 117167,-419414 306382,-558314 171853,-126143 630953,-204569 886783,-204569 255948,0 626936,78426 798907,204569 189215,138900 306382,336264 306382,558314 0,128860 -40040,249807 -111025,356579 -68387,103466 -167128,192641 -287012,261027 -15945,9095 -28228,21024 -36142,34843 -7677,13229 -11929,30237 -11929,49489l0 94135 1637737 0 0 1958882z"/>
 </g>
</svg>
