<?xml version="1.0" encoding="UTF-8"?>
<!DOCTYPE svg PUBLIC "-//W3C//DTD SVG 1.1//EN" "http://www.w3.org/Graphics/SVG/1.1/DTD/svg11.dtd">
<!-- Creator: CorelDRAW X8 -->
<svg xmlns="http://www.w3.org/2000/svg" xml:space="preserve" width="64px" height="64px" version="1.1" shape-rendering="geometricPrecision" text-rendering="geometricPrecision" image-rendering="optimizeQuality" fill-rule="evenodd" clip-rule="evenodd"
viewBox="0 0 6400000 6400000"
 xmlns:xlink="http://www.w3.org/1999/xlink">
 <g id="Warstwa_x0020_1">
  <metadata id="CorelCorpID_0Corel-Layer"/>
  <g>
   <polygon fill="#D32F2F" points="4317337,514376 5103134,1302654 5889167,2091049 5887395,3204252 5885624,4317455 5097346,5103252 4308951,5889167 3195748,5887395 2082545,5885742 1296748,5097346 510833,4308951 512605,3195748 514258,2082663 1302654,1296748 2091049,510833 3204252,512605 "/>
   <path id="1" fill="#D32F2F" d="M4317337 514376l785797 788278 786033 788395 -1772 1113203 -1771 1113203 -788278 785797 -788395 785915 -1113203 -1772 -1113203 -1653 -785797 -788396 -785915 -788395 1772 -1113203 1653 -1113085 788396 -785915 788395 -785915 1113203 1772 1113085 1771zm618787 954343l-716938 -719182 -1014934 -1654 -1015761 -1653 -719772 717528 -719300 717056 -1536 1014934 -1653 1015761 717528 719772 716938 719300 1015052 1536 1015761 1653 719772 -717528 719182 -716938 1654 -1015052 1653 -1015761 -717646 -719772z"/>
  </g>
  <path fill="#F2F2F2" fill-rule="nonzero" d="M4436039 2167940l-2267981 2267981 -203979 -203979 2267981 -2267981 203979 203979zm-204097 2267981l-2267981 -2267981 203979 -203979 2267981 2267981 -203979 203979z"/>
 </g>
</svg>
