<?xml version="1.0" encoding="UTF-8"?>
<!DOCTYPE svg PUBLIC "-//W3C//DTD SVG 1.1//EN" "http://www.w3.org/Graphics/SVG/1.1/DTD/svg11.dtd">
<svg xmlns="http://www.w3.org/2000/svg" xml:space="preserve" width="64px" height="64px" version="1.1" shape-rendering="geometricPrecision" text-rendering="geometricPrecision" image-rendering="optimizeQuality" fill-rule="evenodd" clip-rule="evenodd"
viewBox="0 0 6400000 6400000"
 xmlns:xlink="http://www.w3.org/1999/xlink">
 <g id="Warstwa_1">   
  <polygon fill="#41CD52" points="1147219,399926 6000074,399926 6000074,5262584 5259395,6000074 399926,6000074 399926,1139660 "/>
  <path fill="#FFFFFF" d="M2669915 4339423c17953,47481 330358,562685 359768,591149l417289 -188033c-18190,-55985 -277090,-446817 -330359,-542251 98623,-141616 330595,-201262 411147,-803868 48308,-360477 37559,-790404 -45473,-1131510 -85513,-351501 -236578,-575440 -519928,-697686 -293862,-126616 -743040,-127443 -1045879,-19370 -663433,236696 -695678,1150880 -628826,1764943 40748,374414 151301,690599 369571,846979 276027,197719 623630,222758 1012690,179647zm1452183 -2115262l-309925 0 0 382092 308744 0c10276,384571 -40158,1000996 38622,1345646 105828,463352 551464,349138 976666,306382l-20079 -353627c-620441,12402 -572369,191341 -557605,-1295094l567881 -3780 10039 -374532 -564928 -7559 -3898 -586897 -445045 -827 -472 588196zm-1825771 -355398c-276145,28347 -403942,153782 -481423,375359 -76890,219924 -100985,531030 -83977,781073 39567,580401 116576,998043 780128,935917 266932,-25040 411619,-150002 483194,-370044 70631,-217798 79844,-548511 70749,-790404 -21024,-559258 -144096,-996154 -768671,-931901z"/>
 </g>
</svg>
