<?xml version="1.0" encoding="UTF-8"?>
<!DOCTYPE svg PUBLIC "-//W3C//DTD SVG 1.1//EN" "http://www.w3.org/Graphics/SVG/1.1/DTD/svg11.dtd">
<!-- Creator: CorelDRAW X8 -->
<svg xmlns="http://www.w3.org/2000/svg" xml:space="preserve" width="64px" height="64px" version="1.1" shape-rendering="geometricPrecision" text-rendering="geometricPrecision" image-rendering="optimizeQuality" fill-rule="evenodd" clip-rule="evenodd"
viewBox="0 0 6400000 6400000"
 xmlns:xlink="http://www.w3.org/1999/xlink">
 <g id="Warstwa_x0020_1">
  <metadata id="CorelCorpID_0Corel-Layer"/>
  <rect fill="#41CD52" x="-59" y="-59" width="6400118" height="6400118"/>
  <g id="_2223069007120">
   <path fill="white" d="M2594205 4502181c20433,54332 377485,643119 411147,675717l476935 -214963c-20788,-64016 -316658,-510597 -377603,-619732 112678,-161813 377839,-229963 469966,-918673 55158,-411973 42875,-903436 -51969,-1293205 -97796,-401816 -270476,-657764 -594338,-797372 -335791,-144686 -849105,-145631 -1195290,-22205 -758277,270594 -795128,1315410 -718710,2017230 46654,427801 173034,789222 422486,967925 315476,225948 712686,254649 1157376,205278zm-426974 -2823696c-315594,32481 -461698,175869 -550282,428982 -87875,251460 -115395,606976 -95907,892806 45119,663315 133230,1140605 891625,1069620 305083,-28583 470439,-171499 552173,-422958 80788,-248862 91300,-626937 80906,-903319 -24095,-639220 -164766,-1138478 -878515,-1065131z"/>
   <path fill="white" d="M4253792 2084671l-354098 0 0 436777 352799 0c11693,439494 -45945,1144030 44174,1537933 120946,529494 630244,398981 1116156,350083l-22914 -404060c-709143,14173 -654103,218624 -637213,-1480176l649024 -4370 11457 -428037 -645717 -8622 -4488 -670756 -508589 -945 -591 672173z"/>
  </g>
 </g>
</svg>
