<?xml version="1.0" encoding="UTF-8"?>
<!DOCTYPE svg PUBLIC "-//W3C//DTD SVG 1.1//EN" "http://www.w3.org/Graphics/SVG/1.1/DTD/svg11.dtd">
<svg xmlns="http://www.w3.org/2000/svg" xml:space="preserve" width="64px" height="64px" version="1.1" shape-rendering="geometricPrecision" text-rendering="geometricPrecision" image-rendering="optimizeQuality" fill-rule="evenodd" clip-rule="evenodd"
viewBox="0 0 6400000 6400000"
 xmlns:xlink="http://www.w3.org/1999/xlink">
 <g id="Warstwa_1">
   <path fill="{color}" d="M898239 4699546l4079342 0 519219 -2118687 -4079342 0 -519219 2118687zm1801794 -1400096l1000052 0 0 800089 -1000052 0 0 -800089zm2100026 -1099502l-3700085 0 -200435 700048 -5552 300004 -94961 -300004 0 -1200014 1496947 0 304020 199490 2200066 0 0 300476zm-4395054 2058687l0 -2940154 2119869 0 179293 180593 2492747 944 1654 701111 801033 0 -704772 2880390 -4899982 0 10158 -41457 0 -781427z"/>
   <path id="1" fill="{color}" d="M898239 4699546l4079342 0 519219 -2118687 -4079342 0 -519219 2118687zm1801794 -1400096l1000052 0 0 800089 -1000052 0 0 -800089zm2100026 -1099502l-3700085 0 -200435 700048 -5552 300004 -94961 -300004 0 -1200014 1496947 0 304020 199490 2200066 0 0 300476zm-4395054 2058687l0 -2940154 2119869 0 179293 180593 2492747 944 1654 701111 801033 0 -704772 2880390 -4899982 0 10158 -41457 0 -781427zm2895154 -559259l-200200 0 0 236 200200 0 0 -236z"/>
 </g>
</svg>
