<?xml version="1.0" encoding="UTF-8"?>
<!DOCTYPE svg PUBLIC "-//W3C//DTD SVG 1.1//EN" "http://www.w3.org/Graphics/SVG/1.1/DTD/svg11.dtd">
<svg xmlns="http://www.w3.org/2000/svg" xml:space="preserve" width="64px" height="64px" version="1.1" shape-rendering="geometricPrecision" text-rendering="geometricPrecision" image-rendering="optimizeQuality" fill-rule="evenodd" clip-rule="evenodd"
viewBox="0 0 6400000 6400000"
 xmlns:xlink="http://www.w3.org/1999/xlink">
 <g id="Warstwa">
  <polygon fill="{color}" points="3570516,401462 704536,401462 704418,1391356 401462,1392301 401462,2754955 711150,2754955 711150,1705178 4471118,1705178 4471354,711387 5688377,711387 5688377,5688613 3650596,5688613 3650596,5998538 5998184,5998538 5998184,401462 4162728,401462 4162610,1395371 3570516,1395371 "/>
  <polygon fill="#D32F2F" fill-rule="nonzero" points="2778223,5982121 1798959,5002857 819695,5982121 398273,5560580 1377537,4581316 417643,3621423 839065,3200000 1798959,4159776 2758853,3200000 3180393,3621423 2220500,4581316 3199764,5560580 "/>
 </g>
</svg>
