<?xml version="1.0" encoding="UTF-8"?>
<!DOCTYPE svg PUBLIC "-//W3C//DTD SVG 1.1//EN" "http://www.w3.org/Graphics/SVG/1.1/DTD/svg11.dtd">
<!-- Creator: CorelDRAW X8 -->
<svg xmlns="http://www.w3.org/2000/svg" xml:space="preserve" width="64px" height="64px" version="1.1" shape-rendering="geometricPrecision" text-rendering="geometricPrecision" image-rendering="optimizeQuality" fill-rule="evenodd" clip-rule="evenodd"
viewBox="0 0 6400000 6400000"
 xmlns:xlink="http://www.w3.org/1999/xlink">
 <g id="Warstwa_x0020_1">
  <metadata id="CorelCorpID_0Corel-Layer"/>
  <polygon fill="#43A047" fill-rule="nonzero" points="5653416,2810586 4830178,2810586 4830178,3633824 4475842,3633824 4475842,2810586 3668903,2810586 3668903,2456251 4475842,2456251 4475842,1649312 4830178,1649312 4830178,2456251 5653416,2456251 "/>
  <path fill="{color}" d="M1249267 5112701l60710 166301c-60119,10630 -110198,22087 -150475,45591l75592 196774c-38623,36142 -90237,47009 -138781,74174 -55395,31182 -90474,54214 -136419,89529l1919669 12402c-46536,-36261 -81497,-60592 -134411,-91537 -47009,-27520 -115041,-47953 -154254,-83623l76064 -196656c-42993,-24567 -93072,-36024 -149175,-45355 90710,-293271 32126,-135828 325634,-265633 91064,-40276 165947,-87403 220987,-146695 191459,-206813 -42284,-331539 -236224,-376185 -336027,-77364 -246853,75119 -373469,-359651 -35669,-122245 -60237,-134174 -195593,-171025 -190396,-51851 -492762,-52088 -683985,-2835 -241892,62363 -168427,111143 -287720,444927 -30472,85395 -77481,41693 -280515,85985 -442919,96615 -382564,364138 -36496,521109 83268,37677 209175,52205 278861,102403zm1526830 -5112819l3277245 0 118 839183 346658 4607 0 5556446 -6400236 0 0 -6400236 2098963 0 118 843790 677134 0 0 -843790zm-1030170 354335l-1391710 0 0 5691566 5691566 0 0 -4847776 -4299620 0 -236 -843790zm248271 4626080c64843,72167 192994,92482 297996,47481 96024,-41339 158505,-120119 174805,-233861l-472801 186380zm-166892 5316l-468903 -195948c14645,118230 77008,196656 173033,238113 104765,45119 233271,24568 295870,-42165z"/>
 </g>
</svg>
