<?xml version="1.0" encoding="UTF-8"?>
<!DOCTYPE svg PUBLIC "-//W3C//DTD SVG 1.1//EN" "http://www.w3.org/Graphics/SVG/1.1/DTD/svg11.dtd">
<svg xmlns="http://www.w3.org/2000/svg" xml:space="preserve" width="64px" height="64px" version="1.1" shape-rendering="geometricPrecision" text-rendering="geometricPrecision" image-rendering="optimizeQuality" fill-rule="evenodd" clip-rule="evenodd"
viewBox="0 0 6400000 6400000"
 xmlns:xlink="http://www.w3.org/1999/xlink">
 <g id="Warstwa">
  <polygon fill="{color}" points="2829602,401344 5695582,401344 5695700,1391238 5998775,1392182 5998775,2754955 5688968,2754955 5688968,1705178 1928882,1705178 1928764,711269 711623,711269 711623,5688731 2749404,5688731 2749404,5998656 401816,5998656 401816,401344 2237390,401344 2237390,1395253 2829602,1395253 "/>
  <polygon fill="#D32F2F" fill-rule="nonzero" points="5580305,5982239 4600923,5002857 3621659,5982239 3200118,5560698 4179500,4581434 3219488,3621423 3641029,3200000 4600923,4159894 5560816,3200000 5982357,3621423 5022463,4581434 6001727,5560698 "/>
 </g>
</svg>
