<?xml version="1.0" encoding="UTF-8"?>
<!DOCTYPE svg PUBLIC "-//W3C//DTD SVG 1.1//EN" "http://www.w3.org/Graphics/SVG/1.1/DTD/svg11.dtd">
<!-- Creator: CorelDRAW X8 -->
<svg xmlns="http://www.w3.org/2000/svg" xml:space="preserve" width="64px" height="64px" version="1.1" shape-rendering="geometricPrecision" text-rendering="geometricPrecision" image-rendering="optimizeQuality" fill-rule="evenodd" clip-rule="evenodd"
viewBox="0 0 6400000 6400000"
 xmlns:xlink="http://www.w3.org/1999/xlink">
 <g id="Warstwa_x0020_1">
  <metadata id="CorelCorpID_0Corel-Layer"/>
  <polygon fill="{color}" points="2776215,-118 6053460,-118 6053578,1131746 6400118,1132809 6400118,2691057 6045901,2691057 6045901,1490688 1746281,1490688 1746045,354217 354335,354217 354335,6045783 2684561,6045783 2684561,6400118 0,6400118 0,-118 2098963,-118 2099081,1136353 2776215,1136353 "/>
  <polygon fill="#D32F2F" fill-rule="nonzero" points="5921530,6381338 4801713,5261521 3681896,6381338 3199882,5899325 4319699,4779626 3222087,3681896 3704101,3200000 4801713,4297612 5899325,3200000 6381338,3681896 5283726,4779626 6403543,5899325 "/>
 </g>
</svg>
