<?xml version="1.0" encoding="UTF-8"?>
<!DOCTYPE svg PUBLIC "-//W3C//DTD SVG 1.1//EN" "http://www.w3.org/Graphics/SVG/1.1/DTD/svg11.dtd">
<svg xmlns="http://www.w3.org/2000/svg" xml:space="preserve" width="64px" height="64px" version="1.1" shape-rendering="geometricPrecision" text-rendering="geometricPrecision" image-rendering="optimizeQuality" fill-rule="evenodd" clip-rule="evenodd"
viewBox="0 0 6400000 6400000"
 xmlns:xlink="http://www.w3.org/1999/xlink">
 <g id="Warstwa_1">   
  <polygon fill="{color}" points="3595910,399926 703355,399926 703355,1403167 399926,1400923 399926,2801491 799734,2801491 799734,1801558 4499347,1794235 4500055,799970 5600030,799970 5600030,5702550 3599926,5701487 3599926,5999956 399926,5999956 399926,6000074 6000074,6000074 6000074,399926 4104027,399926 4103909,1399978 3595910,1399978 "/>
  <polygon fill="#D32F2F" fill-rule="nonzero" points="2379832,5999838 1531436,5151441 683040,5999838 402997,5719795 1251393,4871399 400044,4020049 682095,3737881 1531318,4587104 2380659,3737763 2662828,4020049 1813605,4869273 2662001,5717669 "/>
 </g>
</svg>
