<?xml version="1.0" encoding="UTF-8"?>
<!DOCTYPE svg PUBLIC "-//W3C//DTD SVG 1.1//EN" "http://www.w3.org/Graphics/SVG/1.1/DTD/svg11.dtd">
<svg xmlns="http://www.w3.org/2000/svg" xml:space="preserve" width="64px" height="64px" version="1.1" shape-rendering="geometricPrecision" text-rendering="geometricPrecision" image-rendering="optimizeQuality" fill-rule="evenodd" clip-rule="evenodd"
viewBox="0 0 6400000 6400000"
 xmlns:xlink="http://www.w3.org/1999/xlink">
 <g id="Warstwa">
  <polygon fill="{color}" points="2829129,399926 5696645,399926 5696645,1390293 5999956,1391238 5999956,2754719 5690031,2754719 5690031,1704352 1927937,1704352 1927701,709969 709969,709969 709969,5690031 2748931,5690031 2748931,6000074 400044,6000074 400044,399926 2236563,399926 2236681,1394308 2829129,1394308 "/>
  <polygon fill="#43A047" fill-rule="nonzero" points="5999838,4838327 4838327,4838327 4838327,5999838 4338479,5999838 4338479,4838327 3200000,4838327 3200000,4338479 4338479,4338479 4338479,3200000 4838327,3200000 4838327,4338479 5999838,4338479 "/>
 </g>
</svg>
