<?xml version="1.0" encoding="UTF-8"?>
<!DOCTYPE svg PUBLIC "-//W3C//DTD SVG 1.1//EN" "http://www.w3.org/Graphics/SVG/1.1/DTD/svg11.dtd">
<!-- Creator: CorelDRAW X8 -->
<svg xmlns="http://www.w3.org/2000/svg" xml:space="preserve" width="64px" height="64px" version="1.1" shape-rendering="geometricPrecision" text-rendering="geometricPrecision" image-rendering="optimizeQuality" fill-rule="evenodd" clip-rule="evenodd"
viewBox="0 0 6400000 6400000"
 xmlns:xlink="http://www.w3.org/1999/xlink">
 <g id="Warstwa_x0020_1">
  <metadata id="CorelCorpID_0Corel-Layer"/>
  <polygon fill="{color}" points="2776097,-118 6053342,-118 6053460,1131746 6400000,1132809 6400000,2691057 6045783,2691057 6045783,1490688 1746163,1490688 1745927,354217 354217,354217 354217,6045783 2684442,6045783 2684442,6400118 -118,6400118 -118,-118 2098845,-118 2098963,1136353 2776097,1136353 "/>
  <polygon fill="#388E3C" fill-rule="nonzero" points="6399882,5072425 5072425,5072425 5072425,6399882 4501118,6399882 4501118,5072425 3200000,5072425 3200000,4501118 4501118,4501118 4501118,3200000 5072425,3200000 5072425,4501118 6399882,4501118 "/>
 </g>
</svg>
