<?xml version="1.0" encoding="UTF-8"?>
<!DOCTYPE svg PUBLIC "-//W3C//DTD SVG 1.1//EN" "http://www.w3.org/Graphics/SVG/1.1/DTD/svg11.dtd">
<!-- Creator: CorelDRAW X8 -->
<svg xmlns="http://www.w3.org/2000/svg" xml:space="preserve" width="64px" height="64px" version="1.1" shape-rendering="geometricPrecision" text-rendering="geometricPrecision" image-rendering="optimizeQuality" fill-rule="evenodd" clip-rule="evenodd"
viewBox="0 0 6400000 6400000"
 xmlns:xlink="http://www.w3.org/1999/xlink">
 <g id="Warstwa_x0020_1">
  <metadata id="CorelCorpID_0Corel-Layer"/>
  <path fill="#D32F2F" fill-rule="nonzero" d="M6394094 4800059c0,-883357 -716583,-1599941 -1599941,-1599941 -883357,0 -1599940,716584 -1599940,1599941 0,883357 716583,1599941 1599940,1599941 883358,0 1599941,-716584 1599941,-1599941zm-2013686 -866349c129096,-61536 263389,-93663 413745,-93663 530086,0 960012,429927 960012,960012 0,143151 -29055,278153 -93662,413745 -426738,-426501 -853593,-853357 -1280095,-1280094zm827491 1732698c-129096,61655 -263389,93781 -413746,93781 -530085,0 -960129,-430045 -960129,-960130 0,-143033 29173,-278153 93780,-413745 426738,426619 853475,853357 1280095,1280094z"/>
  <polygon fill="{color}" points="2776097,-118 6053342,-118 6053460,1131746 6400000,1132809 6400000,2691057 6045783,2691057 6045783,1490688 1746163,1490688 1745927,354217 354217,354217 354217,6045783 2684442,6045783 2684442,6400118 -118,6400118 -118,-118 2098845,-118 2098963,1136353 2776097,1136353 "/>
 </g>
</svg>
