<?xml version="1.0" encoding="UTF-8"?>
<!DOCTYPE svg PUBLIC "-//W3C//DTD SVG 1.1//EN" "http://www.w3.org/Graphics/SVG/1.1/DTD/svg11.dtd">
<svg xmlns="http://www.w3.org/2000/svg" xml:space="preserve" width="64px" height="64px" version="1.1" shape-rendering="geometricPrecision" text-rendering="geometricPrecision" image-rendering="optimizeQuality" fill-rule="evenodd" clip-rule="evenodd"
viewBox="0 0 6400000 6400000"
 xmlns:xlink="http://www.w3.org/1999/xlink">
 <g id="Warstwa">
    <path fill="#D32F2F" fill-rule="nonzero" d="M5994759 4600096c0,-772923 -626937,-1399978 -1399860,-1399978 -772923,0 -1399978,627055 -1399978,1399978 0,772923 627055,1399860 1399978,1399860 772923,0 1399860,-626937 1399860,-1399860zm-1761990 -758041c113032,-53977 230554,-82087 362130,-82087 463707,0 840010,376303 840010,840128 0,125198 -25512,243310 -81969,362012 -373469,-373233 -746820,-746702 -1120171,-1120053zm724142 1516082c-113033,53859 -230554,81969 -362012,81969 -463825,0 -840128,-376304 -840128,-840010 0,-125198 25512,-243428 82087,-362012 373351,373233 746820,746584 1120053,1120053z"/>
  <polygon fill="{color}" points="2829129,399926 5696645,399926 5696763,1390293 5999956,1391238 5999956,2754719 5690031,2754719 5690031,1704352 1927937,1704352 1927701,709969 709969,709969 709969,5690031 2748931,5690031 2748931,6000074 399926,6000074 399926,399926 2236445,399926 2236563,1394308 2829129,1394308 "/>
 </g>
</svg>
