<?xml version="1.0" encoding="UTF-8"?>
<!DOCTYPE svg PUBLIC "-//W3C//DTD SVG 1.1//EN" "http://www.w3.org/Graphics/SVG/1.1/DTD/svg11.dtd">
<!-- Creator: CorelDRAW X8 -->
<svg xmlns="http://www.w3.org/2000/svg" xml:space="preserve" width="64px" height="64px" version="1.1" shape-rendering="geometricPrecision" text-rendering="geometricPrecision" image-rendering="optimizeQuality" fill-rule="evenodd" clip-rule="evenodd"
viewBox="0 0 6400000 6400000"
 xmlns:xlink="http://www.w3.org/1999/xlink">
 <g id="Warstwa_x0020_1">
  <metadata id="CorelCorpID_0Corel-Layer"/>
  <polygon fill="{color}" points="3623903,-118 346658,-118 346540,1131746 0,1132809 0,2691057 354217,2691057 354217,1490688 4653837,1490688 4654073,354217 6045783,354217 6045783,6045783 3715558,6045783 3715558,6400118 6400118,6400118 6400118,-118 4301155,-118 4301037,1136353 3623903,1136353 "/>
  <polygon fill="#D32F2F" fill-rule="nonzero" points="2717986,6381338 1598169,5261521 478352,6381338 -3661,5899325 1116155,4779626 18544,3681896 500557,3200000 1598169,4297612 2695781,3200000 3177795,3681896 2080183,4779626 3200000,5899325 "/>
 </g>
</svg>
