<?xml version="1.0" encoding="UTF-8"?>
<!DOCTYPE svg PUBLIC "-//W3C//DTD SVG 1.1//EN" "http://www.w3.org/Graphics/SVG/1.1/DTD/svg11.dtd">
<svg xmlns="http://www.w3.org/2000/svg" xml:space="preserve" width="64px" height="64px" version="1.1" shape-rendering="geometricPrecision" text-rendering="geometricPrecision" image-rendering="optimizeQuality" fill-rule="evenodd" clip-rule="evenodd"
viewBox="0 0 6400000 6400000"
 xmlns:xlink="http://www.w3.org/1999/xlink">
 <g id="Warstwa">
  <path fill="{color}" d="M4245997 4618758l1150290 0 -1417 -495597c-709,-158270 -64962,-302012 -168664,-405714 -103820,-103702 -247326,-168073 -405714,-168073 -158387,0 -302011,64371 -405831,168073 -103702,103702 -167955,247444 -167955,405714l-709 495597zm-1416868 -4218832l2867516 0 0 990367 303311 945 0 1363481 -309925 0 0 -1050367 -3762094 0 -236 -994383 -1217732 0 0 4980062 2490031 0 0 310043 -2799956 0 0 -5600148 1836519 0 118 994382 592448 0 0 -994382zm1991363 2799602c255004,0 486030,103347 653040,270475 167128,167128 270594,398273 270594,653158l827 495597 255003 0 0 1381198 -2357391 0 0 -1381198 118 0 254648 0 119 -495597c-709,-254885 102757,-486030 269885,-653158 167128,-167128 398154,-270475 653157,-270475z"/>
 </g>
</svg>
