<?xml version="1.0" encoding="UTF-8"?>
<!DOCTYPE svg PUBLIC "-//W3C//DTD SVG 1.1//EN" "http://www.w3.org/Graphics/SVG/1.1/DTD/svg11.dtd">
<svg xmlns="http://www.w3.org/2000/svg" xml:space="preserve" width="64px" height="64px" version="1.1" shape-rendering="geometricPrecision" text-rendering="geometricPrecision" image-rendering="optimizeQuality" fill-rule="evenodd" clip-rule="evenodd"
viewBox="0 0 6400000 6400000"
 xmlns:xlink="http://www.w3.org/1999/xlink">
 <g id="Warstwa">
   <polygon fill="#303F9F" points="400044,400044 5999956,400044 5999956,5999956 400044,5999956 "/>
   <path fill="#FFFFFF" fill-rule="nonzero" d="M2328926 5059669l-907924 -910760 907924 -910759 247326 245909 -487683 489218 2479637 0 0 -759576 349965 0 0 1109541 -2830783 0 488864 490518 -247326 245909 0 0zm1982505 -2632946l-2479637 0 0 759576 -349965 0 0 -1109541 2830783 0 -488864 -490518 247326 -245909 907924 910760 -907924 910759 -247326 -246027 487683 -489218 0 118z"/>
 </g>
</svg>
