<?xml version="1.0" encoding="UTF-8"?>
<!DOCTYPE svg PUBLIC "-//W3C//DTD SVG 1.1//EN" "http://www.w3.org/Graphics/SVG/1.1/DTD/svg11.dtd">
<svg xmlns="http://www.w3.org/2000/svg" xml:space="preserve" width="64px" height="64px" version="1.1" shape-rendering="geometricPrecision" text-rendering="geometricPrecision" image-rendering="optimizeQuality" fill-rule="evenodd" clip-rule="evenodd"
viewBox="0 0 6400000 6400000"
 xmlns:xlink="http://www.w3.org/1999/xlink">
 <g id="Warstwa">
  <path fill="#1976D2" fill-rule="nonzero" d="M3200118 399926c772096,0 1471908,313350 1978725,819577 507290,506817 821231,1207102 821231,1980497 0,773277 -313941,1473561 -821349,1980379 -506699,506226 -1206511,819577 -1978607,819577 -772096,0 -1472026,-313351 -1978843,-819695 -507290,-506700 -821231,-1206984 -821231,-1980261 0,-773513 313941,-1473680 821231,-1980497 506817,-506227 1206747,-819577 1978843,-819577zm-2500897 2655623l1067848 0c16654,-347130 85159,-693906 204924,-1041390 -269885,-67560 -539653,-157443 -809183,-269413 -267996,373233 -435833,823238 -463589,1310803zm1362064 0l973241 0 0 -891743c-257720,-7795 -515322,-36496 -772805,-85631 -116222,327642 -183428,652922 -200436,977374zm1268284 0l974303 0c-17481,-325634 -84450,-651858 -199845,-979854 -257956,50670 -516148,79725 -774458,87875l0 891979zm1268401 0l1102927 0c-28465,-497604 -202562,-956114 -480242,-1333599 -275673,120947 -551464,216853 -827491,288075 119057,348665 187680,696741 204806,1045524zm1102218 300713l-1100210 0c-13111,360713 -81733,720954 -207168,1081549 267050,68977 533983,160868 800797,276263 291146,-381265 475164,-848987 506581,-1357812zm-1394426 0l-976193 0 0 928003c257837,8150 515675,37442 773395,87875 122009,-340043 189215,-678315 202798,-1015878zm-1271236 0l-974658 0c14646,336028 83269,673118 207050,1012453 255593,-48544 511659,-76891 767608,-84568l0 -927885zm-1268874 0l-1065722 0c30827,499022 208349,958476 489927,1335725 261854,-107364 524062,-193940 786388,-259373 -126616,-359296 -196538,-717647 -210593,-1076352zm1989945 -2593969c218625,322917 395675,644772 530322,966035 244727,-61418 489455,-143151 734418,-245908 -15708,-16536 -31654,-33071 -47717,-49135 -328114,-327878 -747529,-565046 -1217023,-670992zm527960 3956623c-130750,304492 -302366,609811 -515322,915838 464297,-107363 879106,-343232 1204267,-668039l14882 -15119c-234688,-96615 -469258,-173978 -703827,-232680zm-925878 975485c267523,-349020 477526,-695206 631307,-1039147 -219924,-40276 -439730,-63898 -659417,-71339l0 1112021 28110 -1535zm634732 -3902410c-156261,-359651 -370044,-721545 -639574,-1086746l-23268 -1299 0 1160093c220868,-7559 441737,-31418 662842,-72048zm-970523 -1084974c-273429,366500 -489455,728512 -647371,1087572 220161,39213 440203,62481 660009,69686l0 -1158203 -12638 945zm-639221 3944930c155553,343705 367327,690363 636504,1040800l15355 1063 0 -1110013c-217090,6968 -434297,29764 -651859,68150zm222050 976311c-213664,-306500 -386343,-610992 -518038,-914657 -230908,55513 -461816,128506 -692843,218625l33780 34371c318783,318429 723788,551581 1177101,661661zm-524652 -3895560c135238,-319728 313350,-640519 533747,-963200 -456856,109253 -865168,343232 -1186196,663787 -22796,22678 -45119,45828 -66851,69450 239885,95198 479651,171853 719300,229963z"/>
 </g>
</svg>
