<?xml version="1.0" encoding="UTF-8"?>
<!DOCTYPE svg PUBLIC "-//W3C//DTD SVG 1.1//EN" "http://www.w3.org/Graphics/SVG/1.1/DTD/svg11.dtd">
<svg xmlns="http://www.w3.org/2000/svg" xml:space="preserve" width="64px" height="64px" version="1.1" shape-rendering="geometricPrecision" text-rendering="geometricPrecision" image-rendering="optimizeQuality" fill-rule="evenodd" clip-rule="evenodd"
viewBox="0 0 6400000 6400000"
 xmlns:xlink="http://www.w3.org/1999/xlink">
 <g id="Warstwa_1">
  <path fill="#1976D2" fill-rule="nonzero" d="M3200118 399926c1545492,0 2799956,1254583 2799956,2800074 0,1545373 -1254583,2799956 -2799956,2799956 -1545373,0 -2800074,-1254465 -2800074,-2799956 0,-1545610 1254465,-2800074 2800074,-2800074zm-2163688 4060798l950917 0 -11102 -28110c-126616,-359296 -196538,-717647 -210593,-1076352l-1065722 0c24803,401107 144332,776584 336500,1104462zm1268047 0l730049 0 0 -1104462 -974658 0c14646,336028 83269,673118 207050,1012453l37559 92009zm1025092 0l737725 0 35670 -88584c122009,-340043 189215,-678315 202798,-1015878l-976193 0 0 1104462zm1054383 0l979736 0c192168,-327878 311697,-703355 336500,-1104462l-1100210 0c-13111,360713 -81733,720954 -207168,1081549l-8858 22913zm801624 262562l-903909 0c-130514,303075 -301539,606858 -513432,911468 463352,-107127 885602,-344295 1219149,-683158l198192 -228310zm-1227771 0l-628236 0 0 972650 28110 -1535c249924,-325988 449533,-649496 600126,-971115zm-923279 0l-618788 0c152010,320319 352918,643237 603433,969461l15355 1063 0 -970524zm-943595 0l-874499 0 177404 208940c338508,344414 740088,581700 1210881,696032 -211420,-303311 -382682,-604495 -513786,-904972zm-777529 -3164330l845443 0c129097,-275082 283823,-538943 454967,-789458 -515794,123308 -965918,406422 -1300410,789458zm1173912 0l547212 0 0 -852884 -12638 945c-199019,266696 -382328,551817 -534574,851939zm842255 0l552408 0c-150474,-300358 -331658,-586188 -529140,-853711l-23268 -1299 0 855010zm880286 0l876743 0c-341107,-390831 -802687,-677370 -1331001,-796663 171262,252877 325516,519219 454258,796663zm1077297 262562l-964737 0c154609,393431 254531,806821 275555,1234031l1102927 0c-25748,-450359 -174097,-873790 -413745,-1234031zm-1283284 0l-674299 0 0 1234031 974303 0c-23032,-428391 -133112,-842136 -300004,-1234031zm-969342 0l-670402 0c-168900,391423 -280398,805168 -302839,1234031l973241 0 0 -1234031zm-989658 0l-932138 0c-239767,360477 -387879,783908 -413509,1234031l1067848 0c20551,-427564 121301,-840955 277799,-1234031z"/>
 </g>
</svg>
