<?xml version="1.0" encoding="UTF-8"?>
<!DOCTYPE svg PUBLIC "-//W3C//DTD SVG 1.1//EN" "http://www.w3.org/Graphics/SVG/1.1/DTD/svg11.dtd">
<!-- Creator: CorelDRAW X8 -->
<svg xmlns="http://www.w3.org/2000/svg" xml:space="preserve" width="64px" height="64px" version="1.1" shape-rendering="geometricPrecision" text-rendering="geometricPrecision" image-rendering="optimizeQuality" fill-rule="evenodd" clip-rule="evenodd"
viewBox="0 0 6400000 6400000"
 xmlns:xlink="http://www.w3.org/1999/xlink">
 <g id="Warstwa_x0020_1">
  <metadata id="CorelCorpID_0Corel-Layer"/>
  <polygon fill="#101010" fill-rule="nonzero" points="4641435,6400000 1758565,6400000 1758565,6045665 3022832,6045665 3022832,5476721 -118,5476721 -118,1710021 1890496,1710021 1889551,2063411 354217,2064356 354217,5122386 6045783,5122386 6045783,2064356 4473244,2065301 4473244,1710021 6400118,1710021 6400118,5476721 3377168,5476721 3377168,6045665 4641435,6045665 "/>
  <polygon fill="#101010" fill-rule="nonzero" points="3471539,0 3471539,3255158 3948001,2778577 4352770,3183346 3191142,4345211 2047230,3201299 2452117,2796412 2899288,3243701 2899288,0 "/>
 </g>
</svg>
