<?xml version="1.0" encoding="UTF-8"?>
<!DOCTYPE svg PUBLIC "-//W3C//DTD SVG 1.1//EN" "http://www.w3.org/Graphics/SVG/1.1/DTD/svg11.dtd">
<svg xmlns="http://www.w3.org/2000/svg" xml:space="preserve" width="64px" height="64px" version="1.1" shape-rendering="geometricPrecision" text-rendering="geometricPrecision" image-rendering="optimizeQuality" fill-rule="evenodd" clip-rule="evenodd"
viewBox="0 0 6400000 6400000"
 xmlns:xlink="http://www.w3.org/1999/xlink">
 <g id="Warstwa_1">  
  <path fill="{color}" d="M1599941 5999956l3200118 0 0 -399926 -1407301 0 0 -407958 2607316 0 0 -3292127 -1600059 0 0 396264 1200133 0 0 2503850 -4800296 0 0 -2503850 1200133 0 0 -396264 -1600059 0 0 3292127 2602591 0 0 407958 -1402576 0 0 399926zm1800022 -5599912l0 2906729 905681 -118 -1105644 1086746 -1086509 -1086510 886546 -118 0 -2906729 399926 0z"/>
 </g>
</svg>
