<?xml version="1.0" encoding="UTF-8"?>
<!DOCTYPE svg PUBLIC "-//W3C//DTD SVG 1.1//EN" "http://www.w3.org/Graphics/SVG/1.1/DTD/svg11.dtd">
<!-- Creator: CorelDRAW X8 -->
<svg xmlns="http://www.w3.org/2000/svg" xml:space="preserve" width="64px" height="64px" version="1.1" shape-rendering="geometricPrecision" text-rendering="geometricPrecision" image-rendering="optimizeQuality" fill-rule="evenodd" clip-rule="evenodd"
viewBox="0 0 6400000 6400000"
 xmlns:xlink="http://www.w3.org/1999/xlink">
 <g id="Warstwa_x0020_1">
  <metadata id="CorelCorpID_0Corel-Layer"/>
  <polygon fill="#101010" fill-rule="nonzero" points="4641435,6400000 1758565,6400000 1758565,6045665 3022832,6045665 3022832,5476721 -118,5476721 -118,1710021 2156129,1710021 2155184,2063411 354217,2064356 354217,5122386 6045783,5122386 6045783,2064356 4245643,2065301 4245643,1710021 6400118,1710021 6400118,5476721 3377168,5476721 3377168,6045665 4641435,6045665 "/>
  <polygon fill="#101010" fill-rule="nonzero" points="3377168,1299 3377168,2795113 3672092,2500070 3922725,2750703 3203543,3470003 2495346,2761806 2745979,2511173 3022832,2788026 3022832,1299 "/>
 </g>
</svg>
