<?xml version="1.0" encoding="UTF-8"?>
<!DOCTYPE svg PUBLIC "-//W3C//DTD SVG 1.1//EN" "http://www.w3.org/Graphics/SVG/1.1/DTD/svg11.dtd">
<!-- Creator: CorelDRAW X8 -->
<svg xmlns="http://www.w3.org/2000/svg" xml:space="preserve" width="64px" height="64px" version="1.1" shape-rendering="geometricPrecision" text-rendering="geometricPrecision" image-rendering="optimizeQuality" fill-rule="evenodd" clip-rule="evenodd"
viewBox="0 0 6400000 6400000"
 xmlns:xlink="http://www.w3.org/1999/xlink">
 <g id="Warstwa_x0020_1">
  <metadata id="CorelCorpID_0Corel-Layer"/>
  <path fill="{color}" fill-rule="nonzero" d="M4641435 6400000l-2882870 0 0 -354335 1264267 0 0 -568944 -3022950 0 0 -3766700 2156247 0 -945 353390 -1800967 945 0 3058030 5691566 0 0 -3058030 -1800140 945 0 -355280 2154475 0 0 3766700 -3022950 0 0 568944 1264267 0 0 354335zm-1264267 -6398701l0 2793814 294924 -295043 250633 250633 -719182 719300 -708197 -708197 250633 -250633 276853 276853 0 -2786727 354336 0z"/>
 </g>
</svg>
