<?xml version="1.0" encoding="UTF-8"?>
<!DOCTYPE svg PUBLIC "-//W3C//DTD SVG 1.1//EN" "http://www.w3.org/Graphics/SVG/1.1/DTD/svg11.dtd">
<svg xmlns="http://www.w3.org/2000/svg" xml:space="preserve" width="64px" height="64px" version="1.1" shape-rendering="geometricPrecision" text-rendering="geometricPrecision" image-rendering="optimizeQuality" fill-rule="evenodd" clip-rule="evenodd"
viewBox="0 0 6400000 6400000"
 xmlns:xlink="http://www.w3.org/1999/xlink">
 <g id="Warstwa">
  <polygon fill="{color}" fill-rule="nonzero" points="4461197,5999956 1938803,5999956 1938803,5689913 3045037,5689913 3045037,5192072 399926,5192072 399926,1896283 2054199,1896283 2053372,2205500 709969,2206326 709969,4882029 5690031,4882029 5690031,2206326 4314029,2207153 4314029,1896283 6000074,1896283 6000074,5192072 3354963,5192072 3354963,5689913 4461197,5689913 "/>
  <polygon fill="{color}" fill-rule="nonzero" points="3374923,400044 3374923,3624257 3829299,3170000 4076625,3417444 3201181,4292533 2323375,3414727 2570819,3167401 3025077,3621541 3025077,400044 "/>
 </g>
</svg>
