<?xml version="1.0" encoding="UTF-8"?>
<!DOCTYPE svg PUBLIC "-//W3C//DTD SVG 1.1//EN" "http://www.w3.org/Graphics/SVG/1.1/DTD/svg11.dtd">
<svg xmlns="http://www.w3.org/2000/svg" xml:space="preserve" width="64px" height="64px" version="1.1" shape-rendering="geometricPrecision" text-rendering="geometricPrecision" image-rendering="optimizeQuality" fill-rule="evenodd" clip-rule="evenodd"
viewBox="0 0 6400000 6400000"
 xmlns:xlink="http://www.w3.org/1999/xlink">
 <g id="Warstwa_1">   
  <path fill="{color}" d="M400044 999934l1901008 0 0 -599535 1800731 0 0 599535 1898173 0 0 396264 -699930 0 0 4603403 -4200052 0 0 -4603403 -699930 0 0 -396264zm3700440 1600059l0 2200066 -400517 0 0 -2200066 400517 0zm-1400096 0l0 2200066 -400399 0 0 -2200066 400399 0zm707725 -473l-7914 2200539 -400162 0 0 -2200539 408076 0zm-706308 -1600177l1002414 0 0 -299413 -1002414 0 0 299413z"/>
 </g>
</svg>
