<?xml version="1.0" encoding="UTF-8"?>
<!DOCTYPE svg PUBLIC "-//W3C//DTD SVG 1.1//EN" "http://www.w3.org/Graphics/SVG/1.1/DTD/svg11.dtd">
<svg xmlns="http://www.w3.org/2000/svg" xml:space="preserve" width="64px" height="64px" version="1.1" shape-rendering="geometricPrecision" text-rendering="geometricPrecision" image-rendering="optimizeQuality" fill-rule="evenodd" clip-rule="evenodd"
viewBox="0 0 6400000 6400000"
 xmlns:xlink="http://www.w3.org/1999/xlink">
 <g id="Warstwa">
  <path fill="{color}" fill-rule="nonzero" d="M546857 399808l5453099 0 0 3919300 -1463050 1681084 -4136862 0 0 -5600384 146813 0zm2006127 1035013c36969,-33898 77954,-66025 122482,-96497 44528,-30355 93308,-57167 146222,-80553 52914,-23386 109844,-42047 171144,-55512 61182,-13465 126970,-19843 198310,-19843 93780,0 181183,13465 261499,40276 80198,26930 149057,64962 207168,113978 58229,49016 103938,108545 137246,178703 33307,70158 49961,148939 49961,236578 0,88820 -13229,165238 -39804,229609 -26693,64134 -60591,120238 -101576,168781 -40985,48426 -85513,90474 -133702,126144 -48190,35669 -93781,69449 -136656,101103 -42756,31536 -79016,62954 -109253,94490 -30355,31535 -48189,66615 -52914,105119l-32126 268114 -217444 0 -21378 -290791c-4606,-52678 5433,-98742 30355,-137955 24921,-38977 57638,-75946 98032,-110316 40395,-34371 84923,-68269 133585,-101576 48780,-33426 94489,-70159 136655,-111025 42284,-40867 77363,-87639 105710,-139608 28701,-51969 42874,-113860 42874,-186380 0,-50198 -10039,-95789 -30354,-136656 -20079,-40866 -47363,-75945 -81970,-104529 -34488,-28583 -74765,-50197 -121773,-65433 -46890,-15237 -97442,-22678 -150829,-22678 -72520,0 -134293,8622 -185907,26221 -51851,17599 -95671,36733 -131341,57757 -35669,21023 -64134,40276 -86221,57874 -21969,17599 -40276,26221 -54686,26221 -29646,0 -52796,-13465 -69450,-40276l-83859 -131340zm347721 2093884c0,-30355 5906,-58938 17126,-85867 11339,-26812 26812,-50198 46300,-70041 19606,-19842 42756,-35669 70158,-47362 27284,-11693 56458,-17481 87403,-17481 30827,0 60001,5788 87284,17481 27284,11693 51025,27520 71340,47362 20197,19843 36142,43229 48071,70041 11812,26929 17717,55512 17717,85867 0,31536 -5905,60237 -17717,86458 -11929,26338 -27874,49725 -48071,69567 -20315,19843 -44056,34961 -71340,46064 -27283,11221 -56457,17008 -87284,17008 -30945,0 -60119,-5787 -87403,-17008 -27402,-11103 -50552,-26221 -70158,-46064 -19488,-19842 -34961,-43229 -46300,-69567 -11220,-26221 -17126,-54922 -17126,-86458zm1282693 2176326l0 -1603721 1522932 2363 0 -3408704 -5012660 0 0 5010062 3489728 0z"/>
 </g>
</svg>
