<?xml version="1.0" encoding="UTF-8"?>
<!DOCTYPE svg PUBLIC "-//W3C//DTD SVG 1.1//EN" "http://www.w3.org/Graphics/SVG/1.1/DTD/svg11.dtd">
<!-- Creator: CorelDRAW X8 -->
<svg xmlns="http://www.w3.org/2000/svg" xml:space="preserve" width="64px" height="64px" version="1.1" shape-rendering="geometricPrecision" text-rendering="geometricPrecision" image-rendering="optimizeQuality" fill-rule="evenodd" clip-rule="evenodd"
viewBox="0 0 6400000 6400000"
 xmlns:xlink="http://www.w3.org/1999/xlink">
 <g id="Warstwa_x0020_1">
  <metadata id="CorelCorpID_0Corel-Layer"/>
  <path fill="{color}" fill-rule="nonzero" d="M167837 -118l6232163 0 0 4479031 -1672107 1921205 -4727893 0 0 -6400236 167837 0zm2292784 1182770c42166,-38740 89056,-75473 139962,-110198 50906,-34725 106537,-65434 167010,-92127 60473,-26693 125553,-48071 195593,-63426 69922,-15354 145159,-22677 226656,-22677 107246,0 207050,15354 298823,46063 91655,30709 170435,74174 236814,130159 66615,56103 118820,124136 156852,204333 38032,80080 57166,170199 57166,270358 0,101458 -15118,188861 -45591,262326 -30473,73348 -69213,137482 -115986,192877 -46890,55394 -97796,103465 -152836,144214 -55040,40748 -107245,79371 -156144,115513 -48898,36024 -90355,72048 -124962,108072 -34607,36024 -55040,76064 -60473,120120l-36615 306382 -248507 0 -24449 -332367c-5315,-60118 6142,-112796 34607,-157561 28583,-44646 65906,-86812 112088,-126143 46182,-39331 97088,-78072 152718,-116104 55749,-38150 107954,-80198 156144,-126852 48308,-46772 88348,-100158 120828,-159569 32717,-59410 48899,-130159 48899,-212955 0,-57402 -11457,-109489 -34607,-156144 -23032,-46772 -54213,-86812 -93663,-119529 -39449,-32717 -85513,-57402 -139253,-74764 -53505,-17363 -111262,-25985 -172325,-25985 -82915,0 -153428,9922 -212483,30001 -59174,20078 -109372,42047 -150120,66024 -40749,24095 -73230,46064 -98505,66142 -25040,20079 -46064,30001 -62482,30001 -33898,0 -60355,-15355 -79371,-46064l-95788 -150120zm397328 2393061c0,-34725 6732,-67441 19606,-98151 12874,-30709 30591,-57402 52914,-80079 22441,-22678 48898,-40749 80198,-54095 31181,-13347 64489,-19961 99804,-19961 35316,0 68623,6614 99805,19961 31181,13346 58347,31417 81497,54095 23032,22677 41339,49370 54922,80079 13583,30710 20315,63426 20315,98151 0,36024 -6732,68741 -20315,98742 -13583,30118 -31890,56811 -54922,79489 -23150,22677 -50316,40040 -81497,52678 -31182,12756 -64489,19370 -99805,19370 -35315,0 -68623,-6614 -99804,-19370 -31300,-12638 -57757,-30001 -80198,-52678 -22323,-22678 -40040,-49371 -52914,-79489 -12874,-30001 -19606,-62718 -19606,-98742zm1465884 2487196l0 -1832857 1740494 2717 0 -3895678 -5728654 0 0 5725818 3988160 0z"/>
 </g>
</svg>
