<?xml version="1.0" encoding="UTF-8"?>
<!DOCTYPE svg PUBLIC "-//W3C//DTD SVG 1.1//EN" "http://www.w3.org/Graphics/SVG/1.1/DTD/svg11.dtd">
<!-- Creator: CorelDRAW X8 -->
<svg xmlns="http://www.w3.org/2000/svg" xml:space="preserve" width="64px" height="64px" version="1.1" shape-rendering="geometricPrecision" text-rendering="geometricPrecision" image-rendering="optimizeQuality" fill-rule="evenodd" clip-rule="evenodd"
viewBox="0 0 6400000 6400000"
 xmlns:xlink="http://www.w3.org/1999/xlink">
 <g id="Warstwa_x0020_1">
  <metadata id="CorelCorpID_0Corel-Layer"/>
  <path fill="{color}" fill-rule="nonzero" d="M4307651 1856007l-824892 824892 840956 840955 -282760 282760 -840955 -840955 -840955 840955 -282760 -282760 840956 -840955 -824892 -824892 282759 -282759 824892 824892 824892 -824892 282759 282759zm-4139814 -1856125l6232163 0 0 4479031 -1672107 1921205 -4727893 0 0 -6400236 167837 0zm5696881 4583678l-1186550 827 0 1362537 1186550 -1363364zm-1540885 1479349l0 -1832857 1740494 2717 0 -3895678 -5728654 0 0 5725818 3988160 0z"/>
 </g>
</svg>
