<?xml version="1.0" encoding="UTF-8"?>
<!DOCTYPE svg PUBLIC "-//W3C//DTD SVG 1.1//EN" "http://www.w3.org/Graphics/SVG/1.1/DTD/svg11.dtd">
<svg xmlns="http://www.w3.org/2000/svg" xml:space="preserve" width="64px" height="64px" version="1.1" shape-rendering="geometricPrecision" text-rendering="geometricPrecision" image-rendering="optimizeQuality" fill-rule="evenodd" clip-rule="evenodd"
viewBox="0 0 6400000 6400000"
 xmlns:xlink="http://www.w3.org/1999/xlink">
 <g id="Warstwa_1">
  <path fill="{color}" d="M400044 999815l1897937 0 0 -599534 1797660 0 0 599534 1904315 0 0 396265 -668394 0 -531503 4603758 -3200118 0 -552999 -4603758 -646898 0 0 -396265zm2202193 1600178l394138 0 0 2200066 -394138 0 0 -2200066zm801506 0l394138 0 0 2200066 -394138 0 0 -2200066zm1535806 -1203913l-3489964 0 546503 4203831 2411368 0 532093 -4203831zm-2240815 -396265l1002532 0 0 -199963 -1002532 0 0 199963z"/>
 </g>
</svg>
