<?xml version="1.0" encoding="UTF-8"?>
<!DOCTYPE svg PUBLIC "-//W3C//DTD SVG 1.1//EN" "http://www.w3.org/Graphics/SVG/1.1/DTD/svg11.dtd">
<svg xmlns="http://www.w3.org/2000/svg" xml:space="preserve" width="64px" height="64px" version="1.1" shape-rendering="geometricPrecision" text-rendering="geometricPrecision" image-rendering="optimizeQuality" fill-rule="evenodd" clip-rule="evenodd"
viewBox="0 0 6400000 6400000"
 xmlns:xlink="http://www.w3.org/1999/xlink">
 <g id="Warstwa_1">   
  <path fill="{color}" d="M400044 999934l1901008 0 0 -599535 1800731 0 0 599535 1898173 0 0 396264 -699930 0 0 4603403 -4200052 0 0 -4603403 -699930 0 0 -396264zm2304359 1600059l394139 0 0 2200066 -394139 0 0 -2200066zm598472 0l394139 0 0 2200066 -394139 0 0 -2200066zm-1001823 -1200133l-801152 0 0 4199815 3400200 0 0 -4199815 -1198243 0 0 -599535 -1000879 0 0 599535 -399926 0z"/>
 </g>
</svg>
