<?xml version="1.0" encoding="UTF-8"?>
<!DOCTYPE svg PUBLIC "-//W3C//DTD SVG 1.1//EN" "http://www.w3.org/Graphics/SVG/1.1/DTD/svg11.dtd">
<!-- Creator: CorelDRAW X8 -->
<svg xmlns="http://www.w3.org/2000/svg" xml:space="preserve" width="64px" height="64px" version="1.1" shape-rendering="geometricPrecision" text-rendering="geometricPrecision" image-rendering="optimizeQuality" fill-rule="evenodd" clip-rule="evenodd"
viewBox="0 0 6400000 6400000"
 xmlns:xlink="http://www.w3.org/1999/xlink">
 <g id="Warstwa_x0020_1">
  <metadata id="CorelCorpID_0Corel-Layer"/>
  <path fill="#101010" d="M5102661 1748289c-266932,-335083 -617724,-586070 -1008201,-736190 -565401,-217089 -1215015,-223703 -1816204,31300l-13228 5669c-603905,260318 -1043399,736190 -1265449,1295095 -218506,550400 -227365,1181825 23859,1767895l12283 17717 8268 28701c266106,586189 746584,1012926 1310213,1229307 569417,218861 1224346,223821 1828960,-36615l8386 -3779c358941,-156144 659181,-387997 888908,-667450 241657,-293980 407486,-640637 484258,-1007610l7559 -36969 332957 66260 -7559 36969 -7559 36851 -591 0c-181065,808947 -739497,1524586 -1570177,1882464 -1380253,594811 -2989406,-23386 -3594256,-1380962 -604850,-1357457 23740,-2939918 1404111,-3534846 1172613,-505400 2510346,-135002 3257166,820285l-118 -579810 360832 236 708 1494113 -1352733 -684693 182246 -327051 525361 283113z"/>
 </g>
</svg>
