<?xml version="1.0" encoding="UTF-8"?>
<!DOCTYPE svg PUBLIC "-//W3C//DTD SVG 1.1//EN" "http://www.w3.org/Graphics/SVG/1.1/DTD/svg11.dtd">
<!-- Creator: CorelDRAW X8 -->
<svg xmlns="http://www.w3.org/2000/svg" xml:space="preserve" width="64px" height="64px" version="1.1" shape-rendering="geometricPrecision" text-rendering="geometricPrecision" image-rendering="optimizeQuality" fill-rule="evenodd" clip-rule="evenodd"
viewBox="0 0 6400000 6400000"
 xmlns:xlink="http://www.w3.org/1999/xlink">
 <g id="Warstwa_x0020_1">
  <metadata id="CorelCorpID_0Corel-Layer"/>
  <path fill="{color}" d="M0 0l6400000 0 0 6400000 -6400000 0 0 -6400000zm3307718 2514362l0 1251629 1249858 0 0 -226656 -857491 0 1203794 -1219385 -169254 -168191 -1200133 1215723 0 -853120 -226774 0zm-233389 2739364l0 -1251630 -1249858 0 0 226657 857491 0 -1203794 1219385 169254 168191 1200133 -1215724 0 853121 226774 0zm-2674403 -4584269l426856 0 0 426856 -426856 0 0 -426856zm5173174 -472l426856 0 0 426855 -426856 0 0 -426855zm-861507 0l426856 0 0 426855 -426856 0 0 -426855zm1288481 1105053l-5600148 0 0 4226036 5600148 0 0 -4226036z"/>
 </g>
</svg>
