<?xml version="1.0" encoding="UTF-8"?>
<!DOCTYPE svg PUBLIC "-//W3C//DTD SVG 1.1//EN" "http://www.w3.org/Graphics/SVG/1.1/DTD/svg11.dtd">
<svg xmlns="http://www.w3.org/2000/svg" xml:space="preserve" width="64px" height="64px" version="1.1" shape-rendering="geometricPrecision" text-rendering="geometricPrecision" image-rendering="optimizeQuality" fill-rule="evenodd" clip-rule="evenodd"
viewBox="0 0 6400000 6400000"
 xmlns:xlink="http://www.w3.org/1999/xlink">
 <g id="Warstwa">
  <path fill="{color}" d="M5169394 1697383c-276381,-346776 -639338,-606740 -1043516,-761938 -585362,-224767 -1257772,-231617 -1879866,32244l-13819 5906c-625047,269412 -1080013,762056 -1309741,1340567 -226184,569653 -235396,1223283 24686,1829905l12638 18307 8622 29764c275436,606740 772805,1048360 1356040,1272417 589495,226421 1267338,231617 1893212,-37913l8741 -3898c371461,-161577 682213,-401580 919972,-690954 250160,-304137 421894,-663079 501147,-1042926l7914 -38268 344650 68623 -7914 38268 -7795 38150 -472 -118c-187562,837412 -765600,1578090 -1625335,1948607 -1428561,615716 -3094172,-24213 -3720282,-1429388 -625992,-1405175 24567,-3043148 1453364,-3658864 1213716,-523116 2598339,-139608 3371380,849105l-118 -600243 373469 236 709 1546672 -1400096 -708788 188624 -338508 543786 293035z"/>
 </g>
</svg>
