<?xml version="1.0" encoding="UTF-8"?>
<!DOCTYPE svg PUBLIC "-//W3C//DTD SVG 1.1//EN" "http://www.w3.org/Graphics/SVG/1.1/DTD/svg11.dtd">
<!-- Creator: CorelDRAW X8 -->
<svg xmlns="http://www.w3.org/2000/svg" xml:space="preserve" width="64px" height="64px" version="1.1" shape-rendering="geometricPrecision" text-rendering="geometricPrecision" image-rendering="optimizeQuality" fill-rule="evenodd" clip-rule="evenodd"
viewBox="0 0 6400000 6400000"
 xmlns:xlink="http://www.w3.org/1999/xlink">
 <g id="Warstwa_x0020_1">
  <metadata id="CorelCorpID_0Corel-Layer"/>
  <path fill="{color}" d="M949264 1482656c315948,-396383 730757,-693316 1192691,-870837 668985,-256893 1437420,-264689 2148452,36969l15827 6732c714340,307917 1234267,870837 1496830,1532027 258546,651149 269058,1398088 -28111,2091403l-14528 21024 -9803 33898c-314886,693434 -883239,1198125 -1549862,1454191 -673709,258901 -1448403,264807 -2163688,-43347l-9921 -4370c-424612,-184726 -779773,-458982 -1051548,-789695 -285949,-347602 -482132,-757804 -572842,-1191983l-8859 -43701 -393902 78544 8976 43583 8859 43702 590 -118c214373,956941 874972,1803565 1857543,2226877 1632776,703710 3536382,-27638 4251903,-1633602 715520,-1605847 -28111,-3477799 -1661005,-4181508 -1387222,-597882 -2969682,-159687 -3853040,970287l119 -685875 -426974 237 -709 1767541 1600059 -810010 -215554 -386816 -621503 334847zm2461565 -16417l0 2163215 1037139 1019895 -279688 284412 -1157377 -1138242 0 -2329280 399926 0z"/>
 </g>
</svg>
