<?xml version="1.0" encoding="UTF-8"?>
<!DOCTYPE svg PUBLIC "-//W3C//DTD SVG 1.1//EN" "http://www.w3.org/Graphics/SVG/1.1/DTD/svg11.dtd">
<!-- Creator: CorelDRAW X8 -->
<svg xmlns="http://www.w3.org/2000/svg" xml:space="preserve" width="64px" height="64px" version="1.1" shape-rendering="geometricPrecision" text-rendering="geometricPrecision" image-rendering="optimizeQuality" fill-rule="evenodd" clip-rule="evenodd"
viewBox="0 0 6400000 6400000"
 xmlns:xlink="http://www.w3.org/1999/xlink">
 <g id="Warstwa_x0020_1">
  <metadata id="CorelCorpID_0Corel-Layer"/>
  <path fill="black" d="M6000074 1490688l-5600030 0 0 4509268 5600030 0 0 -4509268zm-2683380 882176l0 1251629 1249858 0 0 -226656 -857491 0 1203795 -1219385 -169254 -168191 -1200133 1215724 0 -853121 -226775 0zm-233388 2739364l0 -1251629 -1249858 0 0 226656 857491 0 -1203795 1219385 169254 168191 1200133 -1215723 0 853120 226775 0zm-3083306 -5112346l6400118 0 0 6400118 -6400118 0 0 -6400118z"/>
 </g>
</svg>
