<?xml version="1.0" encoding="UTF-8"?>
<!DOCTYPE svg PUBLIC "-//W3C//DTD SVG 1.1//EN" "http://www.w3.org/Graphics/SVG/1.1/DTD/svg11.dtd">
<!-- Creator: CorelDRAW X8 -->
<svg xmlns="http://www.w3.org/2000/svg" xml:space="preserve" width="64px" height="64px" version="1.1" shape-rendering="geometricPrecision" text-rendering="geometricPrecision" image-rendering="optimizeQuality" fill-rule="evenodd" clip-rule="evenodd"
viewBox="0 0 6400000 6400000"
 xmlns:xlink="http://www.w3.org/1999/xlink">
 <g id="Warstwa_x0020_1">
  <metadata id="CorelCorpID_0Corel-Layer"/>
  <path fill="black" d="M0 0l6400000 0 0 6400000 -6400000 0 0 -6400000zm399926 669457l426856 0 0 426856 -426856 0 0 -426856zm5173174 -472l426856 0 0 426855 -426856 0 0 -426855zm-861507 0l426856 0 0 426855 -426856 0 0 -426855zm1288481 1105053l-5600148 0 0 4226036 5600148 0 0 -4226036z"/>
  <polygon fill="#101010" points="3307718,2514362 3307718,3765991 4557576,3765991 4557576,3539335 3700085,3539335 4903879,2319950 4734625,2151759 3534492,3367482 3534492,2514362 "/>
  <polygon fill="#101010" points="3074329,5253726 3074329,4002096 1824471,4002096 1824471,4228753 2681962,4228753 1478168,5448138 1647422,5616329 2847555,4400605 2847555,5253726 "/>
 </g>
</svg>
