<?xml version="1.0" encoding="UTF-8"?>
<!DOCTYPE svg PUBLIC "-//W3C//DTD SVG 1.1//EN" "http://www.w3.org/Graphics/SVG/1.1/DTD/svg11.dtd">
<svg xmlns="http://www.w3.org/2000/svg" xml:space="preserve" width="64px" height="64px" version="1.1" shape-rendering="geometricPrecision" text-rendering="geometricPrecision" image-rendering="optimizeQuality" fill-rule="evenodd" clip-rule="evenodd"
viewBox="0 0 6400000 6400000"
 xmlns:xlink="http://www.w3.org/1999/xlink">
 <g id="Warstwa">
  <path fill="{color}" d="M1230606 1697265c276499,-346776 639456,-606622 1043635,-761939 585361,-224766 1257653,-231617 1879865,32363l13819 5906c625047,269412 1080014,761938 1309741,1340449 226184,569771 235396,1223401 -24567,1830023l-12756 18425 -8623 29646c-275436,606740 -772804,1048360 -1356040,1272417 -589495,226539 -1267338,231736 -1893212,-37913l-8740 -3780c-371462,-161695 -682214,-401698 -920091,-691072 -250160,-304137 -421776,-663079 -501147,-1042926l-7796 -38268 -344650 68741 7796 38150 7795 38268 472 -118c187680,837294 765600,1578091 1625335,1948489 1428679,615716 3094290,-24213 3720401,-1429388 626110,-1405175 -24568,-3043148 -1453365,-3658864 -1213834,-523116 -2598457,-139726 -3371380,848987l118 -600125 -373587 236 -591 1546554 1399978 -708788 -188624 -338390 -543786 292917zm2153884 -14292l0 1892858 907453 892334 -244728 248862 -1012689 -995918 0 -2038136 349964 0z"/>
 </g>
</svg>
