<?xml version="1.0" encoding="UTF-8"?>
<!DOCTYPE svg PUBLIC "-//W3C//DTD SVG 1.1//EN" "http://www.w3.org/Graphics/SVG/1.1/DTD/svg11.dtd">
<svg xmlns="http://www.w3.org/2000/svg" xml:space="preserve" width="64px" height="64px" version="1.1" shape-rendering="geometricPrecision" text-rendering="geometricPrecision" image-rendering="optimizeQuality" fill-rule="evenodd" clip-rule="evenodd"
viewBox="0 0 6400000 6400000"
 xmlns:xlink="http://www.w3.org/1999/xlink">
 <g id="Warstwa_1">   
  <path fill="{color}" d="M5169394 1697265c-276499,-346776 -639456,-606622 -1043635,-761939 -585361,-224766 -1257653,-231617 -1879865,32363l-13819 5906c-625047,269412 -1080014,761938 -1309741,1340449 -226184,569771 -235396,1223401 24567,1830023l12756 18425 8623 29646c275436,606740 772804,1048360 1356040,1272417 589495,226539 1267338,231736 1893212,-37913l8740 -3780c371462,-161695 682214,-401698 920091,-691072 250160,-304137 421776,-663079 501147,-1042926l7796 -38268 344650 68741 -7796 38150 -7795 38268 -472 -118c-187680,837294 -765600,1578091 -1625335,1948489 -1428679,615716 -3094290,-24213 -3720401,-1429388 -626110,-1405175 24568,-3043148 1453365,-3658864 1213834,-523116 2598457,-139726 3371380,848987l133466 103584 403588 -408312 0 1100328 -1087573 -236 438431 -443509 -181420 -159451z"/>
 </g>
</svg>
