<?xml version="1.0" encoding="UTF-8"?>
<!DOCTYPE svg PUBLIC "-//W3C//DTD SVG 1.1//EN" "http://www.w3.org/Graphics/SVG/1.1/DTD/svg11.dtd">
<!-- Creator: CorelDRAW X8 -->
<svg xmlns="http://www.w3.org/2000/svg" xml:space="preserve" width="64px" height="64px" version="1.1" shape-rendering="geometricPrecision" text-rendering="geometricPrecision" image-rendering="optimizeQuality" fill-rule="evenodd" clip-rule="evenodd"
viewBox="0 0 6400000 6400000"
 xmlns:xlink="http://www.w3.org/1999/xlink">
 <g id="Warstwa_x0020_1">
  <metadata id="CorelCorpID_0Corel-Layer"/>
  <path fill="#D32F2F" fill-rule="nonzero" d="M6394094 4800059c0,-883357 -716583,-1599941 -1599941,-1599941 -883357,0 -1599940,716584 -1599940,1599941 0,883357 716583,1599941 1599940,1599941 883358,0 1599941,-716584 1599941,-1599941zm-2013686 -866349c129096,-61536 263389,-93663 413745,-93663 530086,0 960012,429927 960012,960012 0,143151 -29055,278153 -93662,413745 -426738,-426501 -853593,-853357 -1280095,-1280094zm827491 1732698c-129096,61655 -263389,93781 -413746,93781 -530085,0 -960129,-430045 -960129,-960130 0,-143033 29173,-278153 93780,-413745 426738,426619 853475,853357 1280095,1280094z"/>
  <path fill="black" d="M0 0l6400000 0 0 2688694 -399926 0 0 -914656 -5600148 0 0 4226036 2285107 0 0 399926 -2685033 0 0 -6400000zm5146244 668985l426856 0 0 426855 -426856 0 0 -426855z"/>
 </g>
</svg>
