<?xml version="1.0" encoding="UTF-8"?>
<!DOCTYPE svg PUBLIC "-//W3C//DTD SVG 1.1//EN" "http://www.w3.org/Graphics/SVG/1.1/DTD/svg11.dtd">
<!-- Creator: CorelDRAW X8 -->
<svg xmlns="http://www.w3.org/2000/svg" xml:space="preserve" width="64px" height="64px" version="1.1" shape-rendering="geometricPrecision" text-rendering="geometricPrecision" image-rendering="optimizeQuality" fill-rule="evenodd" clip-rule="evenodd"
viewBox="0 0 6400000 6400000"
 xmlns:xlink="http://www.w3.org/1999/xlink">
 <g id="Warstwa_x0020_1">
  <metadata id="CorelCorpID_0Corel-Layer"/>
  <g id="_1942935527936">
   <polygon fill="#43A047" fill-rule="nonzero" points="5570383,3304765 4747145,3304765 4747145,4128004 4392810,4128004 4392810,3304765 3585871,3304765 3585871,2950430 4392810,2950430 4392810,2143491 4747145,2143491 4747145,2950430 5570383,2950430 "/>
   <path fill="black" d="M0 0l6400000 0 0 6400000 -6400000 0 0 -6400000zm399926 669457l426856 0 0 426856 -426856 0 0 -426856zm5173174 -472l426856 0 0 426855 -426856 0 0 -426855zm-861507 0l426856 0 0 426855 -426856 0 0 -426855zm1288481 1105053l-5600148 0 0 4226036 5600148 0 0 -4226036z"/>
  </g>
  <path fill="black" d="M1249267 5112701l60710 166301c-60119,10630 -110198,22087 -150475,45591l75592 196774c-38623,36142 -90237,47009 -138781,74174 -55395,31182 -90474,54214 -136419,89529l1919669 12402c-46536,-36261 -81497,-60592 -134411,-91537 -47009,-27520 -115041,-47953 -154254,-83623l76064 -196656c-42993,-24567 -93072,-36024 -149175,-45355 90710,-293271 32126,-135828 325634,-265633 91064,-40276 165947,-87403 220987,-146695 191459,-206813 -42284,-331539 -236224,-376185 -336027,-77364 -246853,75119 -373469,-359651 -35669,-122245 -60237,-134174 -195593,-171025 -190396,-51851 -492762,-52088 -683985,-2835 -241892,62363 -168427,111143 -287720,444927 -30472,85395 -77481,41693 -280515,85985 -442919,96615 -382564,364138 -36496,521109 83268,37677 209175,52205 278861,102403zm744931 -132404c64843,72167 192994,92482 297996,47481 96024,-41339 158505,-120119 174805,-233861l-472801 186380zm-166892 5316l-468903 -195948c14645,118230 77008,196656 173033,238113 104765,45119 233271,24568 295870,-42165z"/>
 </g>
</svg>
