<?xml version="1.0" encoding="UTF-8"?>
<!DOCTYPE svg PUBLIC "-//W3C//DTD SVG 1.1//EN" "http://www.w3.org/Graphics/SVG/1.1/DTD/svg11.dtd">
<!-- Creator: CorelDRAW X8 -->
<svg xmlns="http://www.w3.org/2000/svg" xml:space="preserve" width="64px" height="64px" version="1.1" shape-rendering="geometricPrecision" text-rendering="geometricPrecision" image-rendering="optimizeQuality" fill-rule="evenodd" clip-rule="evenodd"
viewBox="0 0 6400000 6400000"
 xmlns:xlink="http://www.w3.org/1999/xlink">
 <g id="Warstwa_x0020_1">
  <metadata id="CorelCorpID_0Corel-Layer"/>
  <polygon fill="#43A047" fill-rule="nonzero" points="5570383,3304765 4747145,3304765 4747145,4128004 4392810,4128004 4392810,3304765 3585871,3304765 3585871,2950430 4392810,2950430 4392810,2143491 4747145,2143491 4747145,2950430 5570383,2950430 "/>
  <path fill="black" d="M0 0l6400000 0 0 6400000 -6400000 0 0 -6400000zm399926 669457l426856 0 0 426856 -426856 0 0 -426856zm5173174 -472l426856 0 0 426855 -426856 0 0 -426855zm-861507 0l426856 0 0 426855 -426856 0 0 -426855zm1288481 1105053l-5600148 0 0 4226036 5600148 0 0 -4226036z"/>
 </g>
</svg>
