<?xml version="1.0" encoding="UTF-8"?>
<!DOCTYPE svg PUBLIC "-//W3C//DTD SVG 1.1//EN" "http://www.w3.org/Graphics/SVG/1.1/DTD/svg11.dtd">
<!-- Creator: CorelDRAW X8 -->
<svg xmlns="http://www.w3.org/2000/svg" xml:space="preserve" width="64px" height="64px" version="1.1" shape-rendering="geometricPrecision" text-rendering="geometricPrecision" image-rendering="optimizeQuality" fill-rule="evenodd" clip-rule="evenodd"
viewBox="0 0 6400000 6400000"
 xmlns:xlink="http://www.w3.org/1999/xlink">
 <g id="Warstwa_x0020_1">
  <metadata id="CorelCorpID_0Corel-Layer"/>
  <path fill="black" d="M0 0l6400000 0 0 2688694 -399926 0 0 -914656 -5600148 0 0 4226036 2285107 0 0 399926 -2685033 0 0 -6400000zm4395527 4821437l1314583 0 -1536 -566345c-827,-180947 -74292,-345123 -192876,-463707 -118584,-118584 -282641,-192049 -463707,-192049 -180947,0 -345122,73465 -463706,192049 -118584,118584 -192050,282760 -192050,463707l-708 566345zm656464 -1622028c291500,0 555480,118230 746466,309217 190987,190986 309217,455084 309217,746466l944 566345 291382 0 0 1578563 -2694128 0 0 -1578563 118 0 291028 0 118 -566345c-827,-291382 117403,-555480 308389,-746466 190987,-190987 455085,-309217 746466,-309217zm94253 -2530424l426856 0 0 426855 -426856 0 0 -426855z"/>
 </g>
</svg>
