<?xml version="1.0" encoding="UTF-8"?>
<!DOCTYPE svg PUBLIC "-//W3C//DTD SVG 1.1//EN" "http://www.w3.org/Graphics/SVG/1.1/DTD/svg11.dtd">
<!-- Creator: CorelDRAW X8 -->
<svg xmlns="http://www.w3.org/2000/svg" xml:space="preserve" width="64px" height="64px" version="1.1" shape-rendering="geometricPrecision" text-rendering="geometricPrecision" image-rendering="optimizeQuality" fill-rule="evenodd" clip-rule="evenodd"
viewBox="0 0 6400000 6400000"
 xmlns:xlink="http://www.w3.org/1999/xlink">
 <g id="Warstwa_x0020_1">
  <metadata id="CorelCorpID_0Corel-Layer"/>
  <path fill="black" d="M0 0l6400000 0 0 6400000 -6400000 0 0 -6400000zm399926 669457l426856 0 0 426856 -426856 0 0 -426856zm5173174 -472l426856 0 0 426855 -426856 0 0 -426855zm-861507 0l426856 0 0 426855 -426856 0 0 -426855zm1288481 1105053l-5600148 0 0 4226036 5600148 0 0 -4226036z"/>
  <path fill="#D32F2F" fill-rule="nonzero" d="M5570738 3131377c0,-545440 -442447,-987886 -987886,-987886 -545440,0 -987887,442446 -987887,987886 0,545440 442447,987886 987887,987886 545439,0 987886,-442446 987886,-987886zm-1243362 -534928c79725,-38032 162640,-57874 255476,-57874 327287,0 592802,265515 592802,592802 0,88348 -17953,171735 -57874,255476 -263508,-263389 -527015,-526897 -790404,-790404zm510951 1069856c-79725,38032 -162640,57875 -255475,57875 -327288,0 -592803,-265515 -592803,-592803 0,-88347 17953,-171734 57875,-255475 263507,263389 527014,526896 790403,790403z"/>
 </g>
</svg>
