<?xml version="1.0" encoding="UTF-8"?>
<!DOCTYPE svg PUBLIC "-//W3C//DTD SVG 1.1//EN" "http://www.w3.org/Graphics/SVG/1.1/DTD/svg11.dtd">
<svg xmlns="http://www.w3.org/2000/svg" xml:space="preserve" width="64px" height="64px" version="1.1" shape-rendering="geometricPrecision" text-rendering="geometricPrecision" image-rendering="optimizeQuality" fill-rule="evenodd" clip-rule="evenodd"
viewBox="0 0 6400000 6400000"
 xmlns:xlink="http://www.w3.org/1999/xlink">
 <g id="Warstwa">
  <path fill="#D32F2F" fill-rule="nonzero" d="M5994759 4600096c0,-772923 -626937,-1399978 -1399860,-1399978 -772923,0 -1399978,627055 -1399978,1399978 0,772923 627055,1399860 1399978,1399860 772923,0 1399860,-626937 1399860,-1399860zm-1761872 -758041c112914,-53977 230436,-82087 362012,-82087 463825,0 840010,376303 840010,840128 0,125198 -25394,243310 -81969,362012 -373469,-373233 -746820,-746702 -1120053,-1120053zm724024 1516082c-113033,53859 -230436,81969 -362012,81969 -463825,0 -840128,-376185 -840128,-840010 0,-125198 25512,-243428 82087,-362012 373351,373233 746820,746584 1120053,1120053z"/>
  <path fill="{color}" d="M400044 400044l5599912 0 0 2352549 -349847 0 0 -800325 -4900218 0 0 3697841 1999513 0 0 349847 -2349360 0 0 -5599912zm4502890 585362l373588 0 0 373469 -373588 0 0 -373469z"/>
 </g>
</svg>
