<?xml version="1.0" encoding="UTF-8"?>
<!DOCTYPE svg PUBLIC "-//W3C//DTD SVG 1.1//EN" "http://www.w3.org/Graphics/SVG/1.1/DTD/svg11.dtd">
<!-- Creator: CorelDRAW X8 -->
<svg xmlns="http://www.w3.org/2000/svg" xml:space="preserve" width="64px" height="64px" version="1.1" shape-rendering="geometricPrecision" text-rendering="geometricPrecision" image-rendering="optimizeQuality" fill-rule="evenodd" clip-rule="evenodd"
viewBox="0 0 6400000 6400000"
 xmlns:xlink="http://www.w3.org/1999/xlink">
 <g id="Warstwa_x0020_1">
  <metadata id="CorelCorpID_0Corel-Layer"/>
  <path fill="{color}" fill-rule="nonzero" d="M2672041 4010837l-2389282 2389163 -282759 -282759 2389281 -2389164c-330712,-394375 -529849,-902964 -529849,-1457852 0,-626937 254177,-1194582 664969,-1605374 410793,-410793 978555,-664969 1605374,-664969 626937,0 1194582,254176 1605374,664969 410793,410792 664969,978437 664969,1605374 0,626819 -254176,1194581 -664969,1605374 -410792,410792 -978437,664969 -1605374,664969 -554770,0 -1063359,-199137 -1457734,-529731zm2023607 -1069029l0 230672 -997807 0 0 -230672 365437 0 0 -1051430c0,-41576 1300,-84332 3780,-128388l-259373 216971c-15001,11693 -29528,18662 -44174,21615 -14528,2953 -28229,3307 -41103,827 -12874,-2481 -24567,-7087 -34489,-13347 -10039,-6142 -17480,-12874 -22441,-20315l-97324 -133466 550046 -467605 253114 0 0 1575138 324334 0zm756742 -1994198c-338390,-338390 -806112,-547802 -1322615,-547802 -516384,0 -984224,209412 -1322614,547802 -338390,338390 -547802,806112 -547802,1322615 0,516384 209412,984224 547802,1322614 338390,338390 806230,547802 1322614,547802 516503,0 984225,-209412 1322615,-547802 338390,-338390 547802,-806230 547802,-1322614 0,-516503 -209412,-984225 -547802,-1322615z"/>
 </g>
</svg>
