<?xml version="1.0" encoding="UTF-8"?>
<!DOCTYPE svg PUBLIC "-//W3C//DTD SVG 1.1//EN" "http://www.w3.org/Graphics/SVG/1.1/DTD/svg11.dtd">
<svg xmlns="http://www.w3.org/2000/svg" xml:space="preserve" width="64px" height="64px" version="1.1" shape-rendering="geometricPrecision" text-rendering="geometricPrecision" image-rendering="optimizeQuality" fill-rule="evenodd" clip-rule="evenodd"
viewBox="0 0 6400000 6400000"
 xmlns:xlink="http://www.w3.org/1999/xlink">
 <g id="Warstwa">
  <path fill="{color}" fill-rule="nonzero" d="M2738065 3909497l-2090577 2090459 -247444 -247444 2090577 -2090459c-289373,-345122 -463588,-790049 -463588,-1275606 0,-548511 222404,-1045289 581818,-1404703 359414,-359414 856192,-581818 1404702,-581818 548511,0 1045289,222404 1404703,581818 359414,359414 581818,856192 581818,1404703 0,548510 -222404,1045288 -581818,1404702 -359414,359414 -856192,581818 -1404703,581818 -485439,0 -930484,-174215 -1275488,-463470zm1770613 -935445l0 201853 -873082 0 0 -201853 319728 0 0 -919972c0,-36378 1181,-73819 3307,-112324l-226892 189806c-13111,10275 -25867,16417 -38623,18898 -12756,2598 -24803,2952 -36024,826 -11220,-2244 -21496,-6260 -30118,-11693 -8859,-5433 -15355,-11338 -19725,-17835l-85158 -116694 481305 -409257 221459 0 0 1378245 283823 0zm662134 -1744864c-296106,-296106 -705363,-479297 -1157259,-479297 -451895,0 -861152,183191 -1157258,479297 -296106,296106 -479297,705363 -479297,1157259 0,451895 183191,861152 479297,1157258 296106,296106 705363,479297 1157258,479297 451896,0 861153,-183191 1157259,-479297 296106,-296106 479297,-705363 479297,-1157258 0,-451896 -183191,-861153 -479297,-1157259z"/>
 </g>
</svg>
