<?xml version="1.0" encoding="UTF-8"?>
<!DOCTYPE svg PUBLIC "-//W3C//DTD SVG 1.1//EN" "http://www.w3.org/Graphics/SVG/1.1/DTD/svg11.dtd">
<!-- Creator: CorelDRAW X8 -->
<svg xmlns="http://www.w3.org/2000/svg" xml:space="preserve" width="64px" height="64px" version="1.1" shape-rendering="geometricPrecision" text-rendering="geometricPrecision" image-rendering="optimizeQuality" fill-rule="evenodd" clip-rule="evenodd"
viewBox="0 0 6400000 6400000"
 xmlns:xlink="http://www.w3.org/1999/xlink">
 <g id="Warstwa_x0020_1">
  <metadata id="CorelCorpID_0Corel-Layer"/>
  <polygon fill="{color}" fill-rule="nonzero" points="5311010,2439597 2951847,2439597 2951847,2085262 5311010,2085262 "/>
  <path fill="{color}" fill-rule="nonzero" d="M4129775 -118c626937,0 1194582,254176 1605374,664969 410793,410792 664969,978437 664969,1605374 0,626819 -254176,1194581 -664969,1605374 -410792,410792 -978437,664969 -1605374,664969 -626819,0 -1194581,-254177 -1605374,-664969 -410792,-410793 -664969,-978555 -664969,-1605374 0,-626937 254177,-1194582 664969,-1605374 410793,-410793 978555,-664969 1605374,-664969zm1322615 947728c-338390,-338390 -806112,-547802 -1322615,-547802 -516384,0 -984224,209412 -1322614,547802 -338390,338390 -547802,806112 -547802,1322615 0,516384 209412,984224 547802,1322614 338390,338390 806230,547802 1322614,547802 516503,0 984225,-209412 1322615,-547802 338390,-338390 547802,-806230 547802,-1322614 0,-516503 -209412,-984225 -547802,-1322615z"/>
  <polygon fill="{color}" fill-rule="nonzero" points="2873185,3809693 282759,6400000 0,6117241 2590426,3526933 "/>
 </g>
</svg>
