<?xml version="1.0" encoding="UTF-8"?>
<!DOCTYPE svg PUBLIC "-//W3C//DTD SVG 1.1//EN" "http://www.w3.org/Graphics/SVG/1.1/DTD/svg11.dtd">
<svg xmlns="http://www.w3.org/2000/svg" xml:space="preserve" width="64px" height="64px" version="1.1" shape-rendering="geometricPrecision" text-rendering="geometricPrecision" image-rendering="optimizeQuality" fill-rule="evenodd" clip-rule="evenodd"
viewBox="0 0 6400000 6400000"
 xmlns:xlink="http://www.w3.org/1999/xlink">
 <g id="Warstwa_1">   
  <path fill="{color}" d="M3984616 799852c-893987,0 -1615414,721427 -1615414,1615414 0,893987 721427,1615414 1615414,1615414 893987,0 1615414,-721427 1615414,-1615414 0,-893987 -721427,-1615414 -1615414,-1615414zm-184018 800089l390832 0 0 226538 8504 4961 -8504 4606 0 973122 400989 0 0 390832 -1192810 0 0 -344886c24095,-12992 46654,-28465 67442,-45946l333547 0 0 -759222 -270003 147758c-36143,-89647 -98151,-122954 -125081,-190278 -12638,-33780 -19961,-61536 -38032,-94725l-118 0 -25512 -57403 458746 -250987 0 -4370zm-3343506 4060089l1968095 -1967977c-284885,-347602 -455911,-792175 -455911,-1276787 0,-1113085 902255,-2015340 2015340,-2015340 1113085,0 2015340,902255 2015340,2015340 0,1113084 -902255,2015340 -2015340,2015340 -484494,0 -929067,-170908 -1276669,-455793l-1968095 1967977 -282760 -282760z"/>
 </g>
</svg>
