<?xml version="1.0" encoding="UTF-8"?>
<!DOCTYPE svg PUBLIC "-//W3C//DTD SVG 1.1//EN" "http://www.w3.org/Graphics/SVG/1.1/DTD/svg11.dtd">
<svg xmlns="http://www.w3.org/2000/svg" xml:space="preserve" width="64px" height="64px" version="1.1" shape-rendering="geometricPrecision" text-rendering="geometricPrecision" image-rendering="optimizeQuality" fill-rule="evenodd" clip-rule="evenodd"
viewBox="0 0 6400000 6400000"
 xmlns:xlink="http://www.w3.org/1999/xlink">
 <g id="Warstwa_1">
   <path fill="{color}" d="M400044 399926l5599912 0 0 3919064 -1463050 1681084 -4136862 0 0 -5600148zm2266209 1494704l0 2125656c0,79371 -10394,152954 -31299,221341 -20788,68387 -53977,128269 -99568,179057 -45592,50788 -103584,90592 -174570,119884 -70985,29291 -156261,44292 -255239,44292 -41693,0 -80080,-3308 -115277,-9804 -35197,-6496 -70394,-16299 -105474,-29291l13583 -187562c2599,-11693 7205,-20787 13111,-26693 5787,-5906 13582,-9095 24094,-10394 10394,-1299 24095,-2008 40395,-1299 16181,590 36378,1299 61181,1299 101576,0 173861,-24095 216853,-71694 42993,-47481 64489,-123663 64489,-229136l0 -2125656 347721 0zm72285 -621150c0,33780 -6497,65080 -20197,94371 -13701,29292 -31891,55395 -54686,78190 -22796,22796 -49489,40985 -79489,53977 -29883,13111 -61891,19607 -95671,19607 -33898,0 -65197,-6496 -94489,-19607 -29292,-12992 -55276,-31181 -77481,-53977 -22087,-22795 -39686,-48898 -52796,-78190 -12993,-29291 -19489,-60591 -19489,-94371 0,-33898 6496,-66497 19489,-97088 13110,-30591 30709,-57284 52796,-80079 22205,-22796 48189,-40394 77481,-53387 29292,-12992 60591,-19606 94489,-19606 33780,0 65788,6614 95671,19606 30000,12993 56693,30591 79489,53387 22795,22795 40985,49488 54686,80079 13700,30591 20197,63190 20197,97088zm1650729 947492c-15591,28583 -39686,42993 -72285,42993 -19488,0 -41693,-7205 -66379,-21496 -24803,-14410 -54685,-30591 -90591,-48190 -35788,-17599 -78781,-33898 -128269,-48898 -49489,-15000 -108073,-22087 -175751,-22087 -58701,0 -111379,7087 -158269,22087 -46891,15000 -86694,35788 -119884,61890 -33189,25985 -58583,55985 -76182,90474 -17598,34607 -26693,72284 -26693,112678 0,50788 15000,93190 44292,126970 29292,33898 67678,63190 115867,87994 48190,24685 102994,46181 164176,65079 61182,18898 124371,39095 188860,60591 64489,21497 126970,45592 188152,71576 61182,26103 115986,58584 164175,97679 48190,39094 87167,86693 116577,143269 29291,56694 43583,125080 43583,204451 0,91183 -16299,175278 -48898,252759 -32481,77482 -80671,144569 -144569,201145 -63780,56693 -141970,101576 -234334,134174 -92481,32599 -199372,48899 -320437,48899 -138072,0 -263152,-22796 -375122,-67796 -111970,-44883 -207050,-102167 -285240,-172562l82088 -132875c10393,-16890 22795,-29883 37087,-38977 14291,-9213 32598,-13701 54685,-13701 23505,0 48190,9095 74293,27284 25984,18307 57992,38504 95079,60591 37088,22205 82088,42402 135475,60591 53386,18190 119765,27284 199254,27284 67678,0 126970,-9094 177758,-26693 50788,-17481 93072,-40985 126970,-70985 33898,-29883 59292,-64371 75592,-103466 16181,-39095 24094,-80788 24094,-125080 0,-54686 -14409,-100277 -43701,-136065 -29292,-35788 -68387,-66379 -116576,-91891 -48190,-25394 -102875,-47481 -164766,-66379 -61772,-18898 -124962,-38386 -189451,-59292 -64489,-20787 -127679,-44882 -189451,-71575 -61891,-26694 -117285,-59883 -165475,-100277 -48189,-40394 -86576,-90592 -115867,-149766 -29292,-59292 -44292,-130986 -44292,-215554 0,-75591 15591,-148466 46890,-218152 31182,-69686 76773,-130986 136774,-183664 59882,-52796 133466,-94489 220750,-125671 87167,-31299 186853,-46890 298823,-46890 130277,0 247562,20197 351028,61182 103584,40985 192758,97678 268350,169372l-78190 126970zm10866 1983804l0 1395254 -46300 0 0 118 -3553863 0 0 -4800296 4800060 0 0 3060392 0 306382 0 33426 -1199897 4724z"/>
 </g>
</svg>
