<?xml version="1.0" encoding="UTF-8"?>
<!DOCTYPE svg PUBLIC "-//W3C//DTD SVG 1.1//EN" "http://www.w3.org/Graphics/SVG/1.1/DTD/svg11.dtd">
<svg xmlns="http://www.w3.org/2000/svg" xml:space="preserve" width="64px" height="64px" version="1.1" shape-rendering="geometricPrecision" text-rendering="geometricPrecision" image-rendering="optimizeQuality" fill-rule="evenodd" clip-rule="evenodd"
viewBox="0 0 6400000 6400000"
 xmlns:xlink="http://www.w3.org/1999/xlink">
 <g id="Warstwa_1">
  <path fill="{color}" fill-rule="nonzero" d="M400044 2501842l2200067 -1772 599889 -2100026 599889 2100026 2200067 1772 -1799904 1398088 698985 2100026 -1699037 -1327458 -1699037 1327458 698985 -2100026 -1799904 -1398088zm4899982 -2201838l3779 699930 696151 0 118 397209 -708552 0 0 702765 -391540 0 0 -702765 -703710 4252 0 -401461 706308 0 -3307 -697450 400753 -2480zm-2699915 2598693l-1036785 827 1103754 857255 -371579 1116746 904499 -706663 904499 706663 -371579 -1116746 1103754 -857255 -1338560 -1299 -298114 -1043517 -298114 1043517 -301775 472z"/>
 </g>
</svg>
