<?xml version="1.0" encoding="UTF-8"?>
<!DOCTYPE svg PUBLIC "-//W3C//DTD SVG 1.1//EN" "http://www.w3.org/Graphics/SVG/1.1/DTD/svg11.dtd">
<svg xmlns="http://www.w3.org/2000/svg" xml:space="preserve" width="64px" height="64px" version="1.1" shape-rendering="geometricPrecision" text-rendering="geometricPrecision" image-rendering="optimizeQuality" fill-rule="evenodd" clip-rule="evenodd"
viewBox="0 0 6400000 6400000"
 xmlns:xlink="http://www.w3.org/1999/xlink">
 <g id="Warstwa_1">
  <path fill="{color}" d="M409611 4758720l1220212 0 0 1220094 -1220212 0 0 -1220094zm4666711 -4337534l913712 803278 -805403 916547 -914185 -803750 805876 -916075zm0 2181051l913712 803277 -805403 917019 -914185 -803750 805876 -916546zm342170 842254l-305319 -268231 -268704 305554 305201 268350 268822 -305673zm0 -2181050l-305319 -268704 -268704 305673 305201 268349 268822 -305318zm-2420345 -822648l914066 803750 -805403 916665 -914539 -803750 805876 -916665zm342642 842372l-305673 -268349 -268350 305673 305201 268349 268822 -305673zm-2931178 -592094l1220212 0 0 1220212 -1220212 0 0 -1220212zm813554 406659l-407013 0 0 407013 407013 0 0 -407013zm1220684 1627107l1216905 0 0 1220212 -1216905 0 0 -1220212zm813199 406658l-406659 0 0 407013 406659 0 0 -407013zm-2847437 -406658l1220212 0 0 1220212 -1220212 0 0 -1220212zm813554 406658l-407013 0 0 406541 407013 0 0 -406541zm1220684 1627225l1216905 0 0 1220094 -1216905 0 0 -1220094zm813199 406895l-406659 0 0 406658 406659 0 0 -406658zm1220566 -406895l1220212 0 0 1220094 -1220212 0 0 -1220094zm813672 406895l-406659 0 0 406658 406659 0 0 -406658zm-4068121 0l-407013 0 0 406658 407013 0 0 -406658z"/>
 </g>
</svg>
