<?xml version="1.0" encoding="UTF-8"?>
<!DOCTYPE svg PUBLIC "-//W3C//DTD SVG 1.1//EN" "http://www.w3.org/Graphics/SVG/1.1/DTD/svg11.dtd">
<svg xmlns="http://www.w3.org/2000/svg" xml:space="preserve" width="64px" height="64px" version="1.1" shape-rendering="geometricPrecision" text-rendering="geometricPrecision" image-rendering="optimizeQuality" fill-rule="evenodd" clip-rule="evenodd"
viewBox="0 0 6400000 6400000"
 xmlns:xlink="http://www.w3.org/1999/xlink">
 <g id="Warstwa_1">
  <path fill="{color}" d="M1999985 399926l1196826 0 0 1199897 -1196826 0 0 -399926 -1599941 0 0 -399927 1599941 0 0 -400044zm4000089 5200576l-4000207 0 0 -399926 4000207 0 0 399926zm-2800074 -2400620l-2799956 0 0 -399926 2799956 0 0 399926zm2800074 -1999985l-2400030 0 0 -399927 2400030 0 0 399927zm-118 2000221l-1199897 0 0 402997 -1193873 0 0 -1199896 1193873 0 0 396973 1199897 0 0 399926zm-1593799 -400162l-409257 0 0 403233 409257 0 0 -403233zm-4006113 2000103l1199897 0 0 1199897 -1199897 0 0 -1199897zm799971 399926l-400045 0 0 400045 400045 0 0 -400045zm1599941 -4400133l-403115 0 0 400045 403115 0 0 -400045z"/>
 </g>
</svg>
