<?xml version="1.0" encoding="UTF-8"?>
<!DOCTYPE svg PUBLIC "-//W3C//DTD SVG 1.1//EN" "http://www.w3.org/Graphics/SVG/1.1/DTD/svg11.dtd">
<svg xmlns="http://www.w3.org/2000/svg" xml:space="preserve" width="64px" height="64px" version="1.1" shape-rendering="geometricPrecision" text-rendering="geometricPrecision" image-rendering="optimizeQuality" fill-rule="evenodd" clip-rule="evenodd"
viewBox="0 0 6400000 6400000"
 xmlns:xlink="http://www.w3.org/1999/xlink">
 <g id="Warstwa_1">   
  <path fill="{color}" fill-rule="nonzero" d="M5599911 1208873l400163 0 0 391068 -400163 0 0 -391068zm-1804156 -8622l1405175 1406474 -1181 1988056 -1406474 1405175 -1988056 -1181 -1405175 -1406474 1181 -1988056 1406474 -1405175 1988056 1181zm-1526475 1585295l1345174 1345174c99922,-152718 158033,-335319 158033,-531384 0,-269413 -108308,-512487 -283113,-687174l-1536 -1536c-174687,-174805 -417761,-283113 -687174,-283113 -196065,0 -378666,58111 -531384,158033zm1063241 1628760l-1346827 -1346827c-99332,152246 -156971,335083 -156971,531857 0,268467 108899,511541 284649,687292 175751,175750 418825,284649 687292,284649 196774,0 379611,-57639 531857,-156971zm-531857 -2186720c757569,0 1371750,614181 1371750,1371750 0,757686 -614181,1371867 -1371750,1371867 -757686,0 -1371867,-614181 -1371867,-1371867 0,-757569 614181,-1371750 1371867,-1371750zm1414860 -42992l-585597 -586070 -1656871 -945 -1173558 1172494 -945 1656871 1172495 1173558 1656871 945 1173557 -1172495 945 -1656871 -586897 -587487zm484376 -975721l400163 0 0 391068 -400163 0 0 -391068z"/>
 </g>
</svg>
