<?xml version="1.0" encoding="UTF-8"?>
<!DOCTYPE svg PUBLIC "-//W3C//DTD SVG 1.1//EN" "http://www.w3.org/Graphics/SVG/1.1/DTD/svg11.dtd">
<svg xmlns="http://www.w3.org/2000/svg" xml:space="preserve" width="64px" height="64px" version="1.1" shape-rendering="geometricPrecision" text-rendering="geometricPrecision" image-rendering="optimizeQuality" fill-rule="evenodd" clip-rule="evenodd"
viewBox="0 0 6400000 6400000"
 xmlns:xlink="http://www.w3.org/1999/xlink">
 <g id="Warstwa_1">
  <path fill="{color}" d="M3241103 400044c1527538,21851 2759561,1266984 2759561,2799956 0,1546200 -1253873,2799956 -2800546,2799956 -1546672,0 -2800546,-1253756 -2800546,-2799956l1041509 0 -6142 -797490 902373 -2480 7087 -1007139 892924 7087 3780 -999934zm1503916 2799956c165829,0 300122,134293 300122,300122 0,165829 -134293,300240 -300122,300240 -165711,0 -300122,-134411 -300122,-300240 0,-165829 134411,-300122 300122,-300122zm-1244779 1244779c165829,0 300240,134411 300240,300122 0,165829 -134411,300122 -300240,300122 -165829,0 -300122,-134293 -300122,-300122 0,-165711 134293,-300122 300122,-300122zm-195947 -1364544c165710,0 300121,134411 300121,300122 0,165828 -134411,300239 -300121,300239 -165829,0 -300240,-134411 -300240,-300239 0,-165711 134411,-300122 300240,-300122zm1067139 -1067139c165710,0 300122,134411 300122,300121 0,165711 -134412,300004 -300122,300004 -165711,0 -300122,-134293 -300122,-300004 0,-165710 134411,-300121 300122,-300121zm-2129318 2118805c165711,0 300122,134411 300122,300122 0,165593 -134411,300122 -300122,300122 -165711,0 -300240,-134529 -300240,-300122 0,-165711 134529,-300122 300240,-300122zm998989 -3731857c13583,0 -13701,0 0,0zm1669272 1114030c-338626,-343115 -779182,-585362 -1272417,-676308l-3307 963673 -894696 -7086 -6969 1003004 -896704 2481 6615 798789 -1009973 0c83859,503038 324452,953161 669693,1298402 434533,434178 1034776,702764 1697501,702764 662725,0 1262968,-268586 1697501,-702764 434061,-434061 702765,-1034304 702765,-1697029 0,-657764 -263389,-1253047 -690009,-1685926z"/>
 </g>
</svg>
