<?xml version="1.0" encoding="UTF-8"?>
<!DOCTYPE svg PUBLIC "-//W3C//DTD SVG 1.1//EN" "http://www.w3.org/Graphics/SVG/1.1/DTD/svg11.dtd">
<svg xmlns="http://www.w3.org/2000/svg" xml:space="preserve" width="64px" height="64px" version="1.1" shape-rendering="geometricPrecision" text-rendering="geometricPrecision" image-rendering="optimizeQuality" fill-rule="evenodd" clip-rule="evenodd"
viewBox="0 0 6400000 6400000"
 xmlns:xlink="http://www.w3.org/1999/xlink">
 <g id="Warstwa_1">   
  <path fill="{color}" d="M3200000 399926l-2799956 0 0 3919064 1463050 1681084 4136862 0 0 -2800074 -399926 0 0 2400148 -3553863 0 0 -118 -46300 0 0 -1395254 46300 0 0 -4724 -1246197 0 0 -33426 0 -306382 0 -3060392 2400030 0 0 -399926zm1602303 2397313c-259137,0 -499022,-82206 -694969,-222050l-1356631 1356631 -282759 -282759 1356985 -1356986c-138781,-195474 -220396,-434532 -220396,-692607 0,-661543 536227,-1197770 1197770,-1197770 661544,0 1197771,536227 1197771,1197770 0,661544 -536227,1197771 -1197771,1197771zm-564219 -633551c144214,144214 343941,233625 564219,233625 220278,0 420005,-89411 564220,-233625 144214,-144214 233625,-343941 233625,-564220 0,-220278 -89411,-420005 -233625,-564219 -144215,-144214 -343942,-233625 -564220,-233625 -220278,0 -420005,89411 -564219,233625 -144215,144214 -233625,343941 -233625,564219 0,220279 89410,420006 233625,564220z"/>
 </g>
</svg>
