<?xml version="1.0" encoding="UTF-8"?>
<!DOCTYPE svg PUBLIC "-//W3C//DTD SVG 1.1//EN" "http://www.w3.org/Graphics/SVG/1.1/DTD/svg11.dtd">
<svg xmlns="http://www.w3.org/2000/svg" xml:space="preserve" width="64px" height="64px" version="1.1" shape-rendering="geometricPrecision" text-rendering="geometricPrecision" image-rendering="optimizeQuality" fill-rule="evenodd" clip-rule="evenodd"
viewBox="0 0 6400000 6400000"
 xmlns:xlink="http://www.w3.org/1999/xlink">
 <g id="Warstwa_1">   
  <path fill="{color}" d="M1203086 399926l3993946 0 0 1200015 803042 0 0 3200118 -799380 0 0 396147 -797254 803750 -3199764 0 0 -1199897 -803632 0 0 -3200118 803042 0 0 -1200015zm3596973 1999985l400044 0 0 399927 -400044 0 0 -399927zm709 2400148l-709 0 -3071 -1200133 -3193386 0 0 2000104 2634836 0 562330 -566937 0 -233034zm-3597092 -1600059l2362 0 3988278 0 6378 0 0 1200133 399454 0 0 -2400266 -403116 0 0 118 -3993946 0 0 -118 -403116 0 0 2400266 402643 0 1063 -372406 0 -827727zm399336 -1600059l3194094 0 0 -800089 -3194094 0 0 800089z"/>
 </g>
</svg>
