<?xml version="1.0" encoding="UTF-8"?>
<!DOCTYPE svg PUBLIC "-//W3C//DTD SVG 1.1//EN" "http://www.w3.org/Graphics/SVG/1.1/DTD/svg11.dtd">
<svg xmlns="http://www.w3.org/2000/svg" xml:space="preserve" width="64px" height="64px" version="1.1" shape-rendering="geometricPrecision" text-rendering="geometricPrecision" image-rendering="optimizeQuality" fill-rule="evenodd" clip-rule="evenodd"
viewBox="0 0 6400000 6400000"
 xmlns:xlink="http://www.w3.org/1999/xlink">
 <g id="Warstwa_1">   
  <path fill="{color}" d="M827609 703946c495242,-425911 1233204,-409966 1703052,59882 486148,484613 485439,1282339 354,1767424 -226065,226065 -538707,366028 -883947,366028 -792176,0 -1375647,-723316 -1226590,-1490806l304373 59410c-112560,577566 326225,1121116 922217,1121116 833396,0 1254109,-1013989 664496,-1604075 -366973,-368272 -922689,-359768 -1301355,-26929l284413 0 0 310279 -777293 0 0 -760875 310280 0 0 198546zm3891662 571660l805639 805758 -2912752 2806452 -752608 -752608 2859721 -2859602zm-2219319 4324424l800207 0 0 399689 -1247850 0 -118 237 -638158 0 -1013989 -985879 4266903 -4266902 1333009 1333126 -3500004 3519729zm1102809 0l390241 0 0 399689 -390241 0 0 -399689zm497486 0l293390 0 0 399689 -293390 0 0 -399689zm401816 0l196656 0 0 399689 -196656 0 0 -399689zm311697 0l181656 0 0 399689 -181656 0 0 -399689zm-3062990 -4507851l0 664260 239530 349965 -255712 174687 -294098 -429808 0 -759104 310280 0z"/>
 </g>
</svg>
