<?xml version="1.0" encoding="UTF-8"?>
<!DOCTYPE svg PUBLIC "-//W3C//DTD SVG 1.1//EN" "http://www.w3.org/Graphics/SVG/1.1/DTD/svg11.dtd">
<svg xmlns="http://www.w3.org/2000/svg" xml:space="preserve" width="64px" height="64px" version="1.1" shape-rendering="geometricPrecision" text-rendering="geometricPrecision" image-rendering="optimizeQuality" fill-rule="evenodd" clip-rule="evenodd"
viewBox="0 0 6400000 6400000"
 xmlns:xlink="http://www.w3.org/1999/xlink">
 <g id="Warstwa_1">
  <path fill="{color}" d="M404651 405241l699339 0 0 347957 -349611 1299 355 349139 -350083 0 0 -698395zm3491972 2443731l1047178 0 0 349256 -1047178 0 0 -349256zm-2443377 1048950l3490555 0 0 348784 -3490555 0 0 -348784zm0 -1048950l1047178 0 0 349256 -1047178 0 0 -349256zm0 -1046824l3490555 0 0 348784 -3490555 0 0 -348784zm4189894 1745337l0 -698513 348784 0 0 698513 -348784 0zm0 -1047297l0 -1047296 348784 0 0 1047296 -348784 0zm0 2443377l0 -1047297 348784 0 0 1047297 -348784 0zm-5236363 -1396080l0 -698513 348783 0 0 698513 -348783 0zm0 -1047297l0 -1047296 348783 0 0 1047296 -348783 0zm0 2443377l0 -1047297 348783 0 0 1047297 -348783 0zm2442549 1056745l698395 0 0 -348784 -698395 0 0 348784zm1047297 0l1047178 0 0 -348784 -1047178 0 0 348784zm-2443377 0l1047178 0 0 -348784 -1047178 0 0 348784zm4538324 354l-699340 0 0 -347957 349729 -1181 -472 -349256 350083 0 0 698394zm-5586919 0l699339 0 0 -347957 -349611 -1181 355 -349256 -350083 0 0 698394zm2444675 -5600029l698395 0 0 348902 -698395 0 0 -348902zm1047297 0l1047178 0 0 348902 -1047178 0 0 -348902zm-2443377 0l1047178 0 0 348902 -1047178 0 0 -348902zm4543639 4606l-699221 0 0 347957 349610 1299 -472 349139 350083 0 0 -698395z"/>
 </g>
</svg>
