<?xml version="1.0" encoding="UTF-8"?>
<!DOCTYPE svg PUBLIC "-//W3C//DTD SVG 1.1//EN" "http://www.w3.org/Graphics/SVG/1.1/DTD/svg11.dtd">
<svg xmlns="http://www.w3.org/2000/svg" xml:space="preserve" width="64px" height="64px" version="1.1" shape-rendering="geometricPrecision" text-rendering="geometricPrecision" image-rendering="optimizeQuality" fill-rule="evenodd" clip-rule="evenodd"
viewBox="0 0 6400000 6400000"
 xmlns:xlink="http://www.w3.org/1999/xlink">
 <g id="Warstwa_1">   
  <path fill="{color}" d="M3976702 824892c-441383,0 -841191,179057 -1130328,468195l-1536 0c-288192,288074 -466659,687882 -466659,1130329 0,442446 178467,842254 466659,1130329l1536 0c289137,289137 688945,468194 1130328,468194 442447,0 842255,-178467 1130329,-466659l1536 -1535c288192,-288075 466659,-687883 466659,-1130329 0,-442447 -178467,-842255 -466659,-1130329l-1536 -1536c-288074,-288192 -687882,-466659 -1130329,-466659zm-1264740 3145905l-2004355 2004237 -282759 -282759 2004355 -2004356c-281932,-344531 -450950,-784734 -450950,-1264503 0,-1103754 894696,-1998450 1998449,-1998450 1103754,0 1998450,894696 1998450,1998450 0,1103753 -894696,1998449 -1998450,1998449 -479887,0 -920208,-169136 -1264740,-451068z"/>
 </g>
</svg>
