<?xml version="1.0" encoding="UTF-8"?>
<!DOCTYPE svg PUBLIC "-//W3C//DTD SVG 1.1//EN" "http://www.w3.org/Graphics/SVG/1.1/DTD/svg11.dtd">
<svg xmlns="http://www.w3.org/2000/svg" xml:space="preserve" width="64px" height="64px" version="1.1" shape-rendering="geometricPrecision" text-rendering="geometricPrecision" image-rendering="optimizeQuality" fill-rule="evenodd" clip-rule="evenodd"
viewBox="0 0 6400000 6400000"
 xmlns:xlink="http://www.w3.org/1999/xlink">
 <g id="Warstwa_1">
  <path fill="{color}" d="M3852449 2004828l763474 -743041c-396973,-290436 -886428,-461935 -1415923,-461935 -662725,0 -1262968,268704 -1697147,702883 -434178,434179 -702883,1034422 -702883,1697147 0,313350 60119,612763 169373,887255l-301894 307799c-171380,-362485 -267405,-767490 -267405,-1195054 0,-1546318 1253638,-2799956 2799956,-2799956 642055,0 1233677,216263 1706005,579692l592685 -576739 3425 1585768 -1649666 16181zm1936323 126970c135947,329177 211184,689772 211184,1068084 0,515203 -139254,997807 -382092,1412379l-310988 -261971c186853,-341579 293154,-733592 293154,-1150408 0,-275318 -46300,-539771 -131695,-786033l320437 -282051z"/>
 </g>
</svg>
