<?xml version="1.0" encoding="UTF-8"?>
<!DOCTYPE svg PUBLIC "-//W3C//DTD SVG 1.1//EN" "http://www.w3.org/Graphics/SVG/1.1/DTD/svg11.dtd">
<svg xmlns="http://www.w3.org/2000/svg" xml:space="preserve" width="64px" height="64px" version="1.1" shape-rendering="geometricPrecision" text-rendering="geometricPrecision" image-rendering="optimizeQuality" fill-rule="evenodd" clip-rule="evenodd"
viewBox="0 0 6400000 6400000"
 xmlns:xlink="http://www.w3.org/1999/xlink">
 <g id="Warstwa_1">   
  <rect fill="{color}" x="399985" y="410674" width="5600030" height="5578651"/>
  <path fill="#FFFFFF" fill-rule="nonzero" d="M3399963 799970l0 799971 -399926 0 0 -799971 399926 0zm-199963 1600060c441856,0 799970,358114 799970,799970 0,441856 -358114,799970 -799970,799970 -441856,0 -799970,-358114 -799970,-799970 0,-441856 358114,-799970 799970,-799970zm282877 515557c-71339,-71339 -171498,-115631 -282877,-115631 -111379,0 -211538,44292 -282877,115631l-1536 1536c-71339,71339 -115631,171498 -115631,282877 0,111379 44292,211538 115631,282877l1536 1536c71339,71339 171498,115631 282877,115631 111379,0 211538,-44292 282877,-115631l1536 -1536c71339,-71339 115631,-171498 115631,-282877 0,-111379 -44292,-211538 -115631,-282877l-1536 -1536zm2117389 484376l-799971 0 0 -399926 799971 0 0 399926zm-4000443 0l-799971 0 0 -399926 799971 0 0 399926zm1800140 1400096l0 799971 -399926 0 0 -799971 399926 0z"/>
  <path fill="#FFFFFF" d="M3598155 936153c949617,165829 1698918,914421 1865574,1863803l-407131 0c-77718,-364375 -259492,-689418 -512487,-942295l-1535 -1536c-253350,-253467 -579220,-435478 -944421,-512959l0 -407013zm1865692 2663773c-166656,949500 -915956,1698328 -1865692,1864157l0 -407013c365201,-77481 691071,-259491 944421,-512959l1535 -1535c253113,-252996 434887,-578157 512605,-942650l407131 0zm-2665663 1863566c-947964,-167128 -1695257,-915365 -1861676,-1863566l407012 0c77718,364493 259492,689654 512605,942650l1536 1535c252522,252523 576857,434179 940523,512132l0 407249zm-1861676 -2663536c166419,-948083 913830,-1696084 1861676,-1863212l0 407249c-363666,77954 -688001,259609 -940523,512132l-1536 1536c-252995,252877 -434769,577920 -512486,942295l-407131 0z"/>
 </g>
</svg>
