<?xml version="1.0" encoding="UTF-8"?>
<!DOCTYPE svg PUBLIC "-//W3C//DTD SVG 1.1//EN" "http://www.w3.org/Graphics/SVG/1.1/DTD/svg11.dtd">
<svg xmlns="http://www.w3.org/2000/svg" xml:space="preserve" width="64px" height="64px" version="1.1" shape-rendering="geometricPrecision" text-rendering="geometricPrecision" image-rendering="optimizeQuality" fill-rule="evenodd" clip-rule="evenodd"
viewBox="0 0 6400000 6400000"
 xmlns:xlink="http://www.w3.org/1999/xlink">
 <g id="Warstwa_1">   
  <rect fill="{color}" x="399985" y="410674" width="5600030" height="5578651"/>
  <path fill="#FFFFFF" d="M797963 2299989l2602000 0 0 1800022 -2602000 1772 0 -1801794zm1834628 2160381l450006 779419 -345359 200081 -450005 -779419 345358 -200081zm-780718 200081l-450005 779419 -345359 -200081 450006 -779419 345358 200081zm3347758 -2876846l-1000406 725914 0 1387812 1000406 722372 0 -2836098zm399926 -783671l-1800258 1306315 0 1793762 1800258 1300055 0 -4400132zm-2599520 1699981l-1802148 0 0 1003241 1802148 -1299 0 -1001942z"/>
 </g>
</svg>
