<?xml version="1.0" encoding="UTF-8"?>
<!DOCTYPE svg PUBLIC "-//W3C//DTD SVG 1.1//EN" "http://www.w3.org/Graphics/SVG/1.1/DTD/svg11.dtd">
<svg xmlns="http://www.w3.org/2000/svg" xml:space="preserve" width="64px" height="64px" version="1.1" shape-rendering="geometricPrecision" text-rendering="geometricPrecision" image-rendering="optimizeQuality" fill-rule="evenodd" clip-rule="evenodd"
viewBox="0 0 6400000 6400000"
 xmlns:xlink="http://www.w3.org/1999/xlink">
 <g id="Warstwa_1">
  <path fill="{color}" fill-rule="nonzero" d="M4254855 3862725c0,-580637 1654,-1203086 1654,-1784668l-1406710 2599 0 -373233c0,-78308 -14528,-152246 23032,-217090 37677,-64016 63307,-120828 132757,-159923 58820,-33662 106655,-76182 138900,-124135 26457,-38741 41339,-82088 41339,-126616 0,-81733 -50788,-159923 -132285,-219333 -97206,-70631 -357170,-114805 -511306,-114805 -154608,0 -493589,44174 -590795,114805 -81379,59410 -132285,137600 -132285,219333 0,45827 15237,90001 41812,129096 33071,47599 82678,90474 145041,125080 69922,38268 97560,95435 136065,160750 38740,65552 7795,139963 7795,218625l0 367800 -122364 0 -1277614 0 0 3563075 3500004 0 6614 -1374347 492408 0c55276,7913 107836,90827 155317,117757 64961,37441 119529,92127 158742,160750 33898,58465 76536,106064 124844,138072 39331,26103 82678,41221 127797,41221 82205,0 160750,-50551 220750,-131340 71458,-96733 115632,-354689 115632,-507880 0,-153191 -44174,-489809 -115632,-586188 -60000,-80789 -138545,-131340 -220750,-131340 -46300,0 -90592,15236 -129805,41693 -48426,32363 -91773,81615 -126143,143506 -38859,68977 -93427,124607 -159215,162876 -64843,37914 -138899,143033 -216499,143860l-3779 0 -77245 0 -348076 0zm345123 -429573l80198 0c17835,0 33071,-4252 45000,-10984 12048,-6732 22796,-18543 31536,-33662 60237,-107718 140553,-197719 234334,-260908 97087,-65198 207522,-102285 324571,-102285 199254,0 376067,104411 500911,272720 112797,153191 183546,562211 183546,790285 0,228074 -70749,558432 -183546,711623 -124844,168309 -301657,272602 -500911,272602 -115868,0 -224176,-35316 -320083,-98860 -92954,-60591 -172679,-148466 -234216,-255357 -8031,-14410 -18661,-25276 -31063,-32481 -12047,-6732 -27284,-10512 -44646,-10512l-82678 0 0 1324623 -4202887 0 0 -4277888 1481948 0 0 -11811c0,-17598 -3662,-33189 -10630,-44528 -7087,-12283 -19134,-22795 -33898,-31181 -108781,-60119 -199255,-139608 -262917,-233035 -65788,-96379 -102993,-205750 -102993,-321854 0,-197837 105001,-373705 274964,-497486 154135,-112325 565873,-182129 795718,-182129 229373,0 562566,69804 716820,182129 169372,123781 274846,299649 274846,497486 0,114805 -35906,222522 -99568,317720 -61655,92128 -150120,171617 -257602,232090 -14410,8504 -25630,19016 -32717,31181 -6969,11812 -10630,26930 -10630,44174l0 20197 1466593 0 0 1708131z"/>
 </g>
</svg>
