<?xml version="1.0" encoding="UTF-8"?>
<!DOCTYPE svg PUBLIC "-//W3C//DTD SVG 1.1//EN" "http://www.w3.org/Graphics/SVG/1.1/DTD/svg11.dtd">
<svg xmlns="http://www.w3.org/2000/svg" xml:space="preserve" width="64px" height="64px" version="1.1" shape-rendering="geometricPrecision" text-rendering="geometricPrecision" image-rendering="optimizeQuality" fill-rule="evenodd" clip-rule="evenodd"
viewBox="0 0 6400000 6400000"
 xmlns:xlink="http://www.w3.org/1999/xlink">
 <g id="Warstwa_1">   
  <polygon fill="{color}" points="2804090,399926 5696645,399926 5696645,1403167 6000074,1400923 6000074,2801491 5600266,2801491 5600266,1801558 1900653,1794235 1899945,799970 799970,799970 799970,5702550 2800074,5701487 2800074,5999956 6000074,5999956 6000074,6000074 399926,6000074 399926,399926 2295973,399926 2296091,1399978 2804090,1399978 "/>
  <path fill="#D32F2F" d="M4599978 3599926c-204215,0 -394139,60828 -552172,165120l1386395 1386395c104647,-158033 165710,-347720 165710,-551581 0,-276145 -111969,-526306 -292798,-707135 -180003,-181065 -430399,-292799 -707135,-292799zm-834814 447998c-104292,158033 -165120,347839 -165120,551936 0,276735 111734,527132 292090,707843 181538,180120 431699,292090 707844,292090 203743,0 393430,-60945 551463,-165592l-1386277 -1386277zm834814 -847924c-773159,0 -1399860,626701 -1399860,1399860 0,773159 626701,1399859 1399860,1399859 773159,0 1399860,-626700 1399860,-1399859 0,-773159 -626701,-1399860 -1399860,-1399860z"/>
 </g>
</svg>
