<?xml version="1.0" encoding="UTF-8"?>
<!DOCTYPE svg PUBLIC "-//W3C//DTD SVG 1.1//EN" "http://www.w3.org/Graphics/SVG/1.1/DTD/svg11.dtd">
<svg xmlns="http://www.w3.org/2000/svg" xml:space="preserve" width="64px" height="64px" version="1.1" shape-rendering="geometricPrecision" text-rendering="geometricPrecision" image-rendering="optimizeQuality" fill-rule="evenodd" clip-rule="evenodd"
viewBox="0 0 6400000 6400000"
 xmlns:xlink="http://www.w3.org/1999/xlink">
 <g id="Warstwa_1">   
  <polygon fill="{color}" points="2804090,399926 5696645,399926 5696645,1403167 6000074,1400923 6000074,2801491 5600266,2801491 5600266,1801558 1900653,1794235 1899945,799970 799970,799970 799970,5702550 2800074,5701487 2800074,5999956 6000074,5999956 6000074,6000074 399926,6000074 399926,399926 2295973,399926 2296091,1399978 2804090,1399978 "/>
  <polygon fill="#43A047" fill-rule="nonzero" points="5999956,4800059 4800059,4800059 4800059,5999956 4404031,5999956 4404031,4800059 3200000,4800059 3200000,4401196 4400960,4401196 4400960,3200000 4800059,3200000 4800059,4400960 5999956,4400960 "/>
 </g>
</svg>
