<?xml version="1.0" encoding="UTF-8"?>
<!DOCTYPE svg PUBLIC "-//W3C//DTD SVG 1.1//EN" "http://www.w3.org/Graphics/SVG/1.1/DTD/svg11.dtd">
<svg xmlns="http://www.w3.org/2000/svg" xml:space="preserve" width="64px" height="64px" version="1.1" shape-rendering="geometricPrecision" text-rendering="geometricPrecision" image-rendering="optimizeQuality" fill-rule="evenodd" clip-rule="evenodd"
viewBox="0 0 6400000 6400000"
 xmlns:xlink="http://www.w3.org/1999/xlink">
 <g id="Warstwa_1">
  <path fill="#1976D2" d="M3399963 407249c1453010,102521 2599993,1313638 2599993,2792751 0,1448876 -1100565,2640269 -2511173,2784837l-20197 26103 -27756 -21614 -40867 3425 0 7205 -199963 0 -199963 0 0 -7205c-32008,-2244 -63899,-5315 -95552,-8622l-34489 26811 -26103 -33780c-1378245,-175041 -2443849,-1351434 -2443849,-2777160 0,-1479113 1146983,-2690230 2599993,-2792751l0 -7205 199963 0 199963 0 0 7205zm365556 459809c187797,277208 341815,555125 462289,833278l846152 0c-55276,-69095 -114332,-135002 -176813,-197483 -306500,-306500 -695914,-530558 -1131628,-635795zm612409 1233204c95080,299413 151537,599299 170199,899775l1043635 0c-26575,-322091 -116813,-626346 -257956,-899775l-955878 0zm172561 1299701c-15000,300594 -67914,600598 -158151,900011l938869 0 0 4725c142679,-274728 233861,-580637 260555,-904736l-1041273 0zm-301067 1299937c-113033,273783 -257247,547094 -432288,819932 414808,-110080 785679,-328351 1080013,-622685 62363,-62363 121419,-128269 176695,-197247l-824420 0zm-849459 726860c164648,-242602 302602,-485085 413863,-726860l-413863 0 0 726860zm573432 -1126786c101576,-300830 161223,-600834 178231,-900011l-751663 0 0 900011 573432 0zm175514 -1299937c-21142,-299177 -84804,-599181 -192049,-899775l-556897 0 0 899775 748946 0zm-360122 -1299701c-106301,-219688 -235869,-439848 -388824,-660244l0 660244 388824 0zm-788750 -747057c-179884,249570 -330004,498550 -450242,747057l450242 0 0 -747057zm-618315 1146983c-107245,300594 -170907,600598 -192049,899775l810364 0 0 -899775 -618315 0zm-194766 1299701c17008,299177 76655,599181 178231,900011l634850 0 0 -900011 -813081 0zm337799 1299937c124845,271303 283469,542960 475282,815443l0 -815443 -475282 0zm-17008 798672c-168899,-265752 -308507,-531975 -418587,-798672l-763002 0c55276,68978 114332,134884 176695,197247 276500,276499 620441,485793 1004894,601425zm-561503 -1198598c-90237,-299413 -143151,-599417 -158151,-900011l-979855 0c26694,324099 117876,630008 260555,904736l0 -4725 877451 0zm-155789 -1299937c18662,-300476 75119,-600362 170199,-899775l-893161 0 0 -2480c-141970,274137 -232561,579101 -259255,902255l982217 0zm320319 -1299701c117757,-271775 267405,-543078 449297,-814026 -405596,111852 -768317,327642 -1057218,616543 -62481,62481 -121537,128388 -176813,197483l784734 0z"/>
 </g>
</svg>
