<?xml version="1.0" encoding="UTF-8"?>
<!DOCTYPE svg PUBLIC "-//W3C//DTD SVG 1.1//EN" "http://www.w3.org/Graphics/SVG/1.1/DTD/svg11.dtd">
<svg xmlns="http://www.w3.org/2000/svg" xml:space="preserve" width="64px" height="64px" version="1.1" shape-rendering="geometricPrecision" text-rendering="geometricPrecision" image-rendering="optimizeQuality" fill-rule="evenodd" clip-rule="evenodd"
viewBox="0 0 6400000 6400000"
 xmlns:xlink="http://www.w3.org/1999/xlink">
 <g id="Warstwa_1">
  <path fill="{color}" d="M1807345 6000074l2792633 0 0 -344768 -1054383 0 0 -705599 2454833 0 0 -3149803 -1400450 0 4134 353036 1045997 -2835 0 2449519 -4900218 0 0 -2449519 1400214 0 0 -350201 -1749706 0 -827 3149803 2460621 1653 0 714694 -1052848 0 0 334020zm2792869 -3147677l-1223873 1223756 -1223992 -1223756 1047651 0 0 -2452353 350083 0 0 2452353 1050131 0z"/>
 </g>
</svg>
