<?xml version="1.0" encoding="UTF-8"?>
<!DOCTYPE svg PUBLIC "-//W3C//DTD SVG 1.1//EN" "http://www.w3.org/Graphics/SVG/1.1/DTD/svg11.dtd">
<svg xmlns="http://www.w3.org/2000/svg" xml:space="preserve" width="64px" height="64px" version="1.1" shape-rendering="geometricPrecision" text-rendering="geometricPrecision" image-rendering="optimizeQuality" fill-rule="evenodd" clip-rule="evenodd"
viewBox="0 0 6400000 6400000"
 xmlns:xlink="http://www.w3.org/1999/xlink">
 <g id="Warstwa_1">
  <path fill="{color}" d="M327760 1024855l1784549 0 0 -724969 2162862 0 0 734418 1824825 0 0 353154 -691780 0 -550755 4712656 -3314922 0 -572960 -4712656 -669575 0 27756 -362603zm2147389 1450294l362130 0 0 2175144 -362130 0 0 -2175144zm1087572 0l362130 0 0 2175144 -362130 0 0 -2175144zm1439073 -1087691l-3615163 0 544613 4350408 2537512 0 533038 -4350408zm-2526645 -362603l1455372 0 0 -367327 -1455372 4606 0 362721z"/>
 </g>
</svg>
