<?xml version="1.0" encoding="UTF-8"?>
<!DOCTYPE svg PUBLIC "-//W3C//DTD SVG 1.1//EN" "http://www.w3.org/Graphics/SVG/1.1/DTD/svg11.dtd">
<svg xmlns="http://www.w3.org/2000/svg" xml:space="preserve" width="64px" height="64px" version="1.1" shape-rendering="geometricPrecision" text-rendering="geometricPrecision" image-rendering="optimizeQuality" fill-rule="evenodd" clip-rule="evenodd"
viewBox="0 0 6400000 6400000"
 xmlns:xlink="http://www.w3.org/1999/xlink">
 <g id="Warstwa_1">   
  <path fill="{color}" d="M400044 400044l5599912 0 0 2399439 -399690 0 0 -803395 -4800296 2952 0 3600990 1999986 0 0 399926 -2399912 0 0 -5599912zm4499938 599890l400044 0 0 400044 -400044 0 0 -400044z"/>
  <path fill="#D32F2F" d="M4599978 3599926c-204215,0 -394139,60828 -552172,165120l1386395 1386395c104647,-158033 165710,-347720 165710,-551581 0,-276145 -111969,-526306 -292798,-707135 -180003,-181065 -430399,-292799 -707135,-292799zm-834814 447998c-104292,158033 -165120,347839 -165120,551936 0,276735 111734,527132 292090,707843 181538,180120 431699,292090 707844,292090 203743,0 393430,-60945 551463,-165592l-1386277 -1386277zm834814 -847924c-773159,0 -1399860,626701 -1399860,1399860 0,773159 626701,1399859 1399860,1399859 773159,0 1399860,-626700 1399860,-1399859 0,-773159 -626701,-1399860 -1399860,-1399860z"/>
 </g>
</svg>
