<?xml version="1.0" encoding="UTF-8"?>
<!DOCTYPE svg PUBLIC "-//W3C//DTD SVG 1.1//EN" "http://www.w3.org/Graphics/SVG/1.1/DTD/svg11.dtd">
<svg xmlns="http://www.w3.org/2000/svg" xml:space="preserve" width="64px" height="64px" version="1.1" shape-rendering="geometricPrecision" text-rendering="geometricPrecision" image-rendering="optimizeQuality" fill-rule="evenodd" clip-rule="evenodd"
viewBox="0 0 6400000 6400000"
 xmlns:xlink="http://www.w3.org/1999/xlink">
 <g id="Warstwa_1">   
  <path fill="{color}" d="M4246115 4618758l1150290 0 -1417 -495597c-709,-158270 -64962,-301894 -168782,-405714 -103702,-103702 -247326,-168073 -405714,-168073 -158269,0 -302011,64371 -405713,168073 -103820,103820 -168073,247444 -168073,405714l-591 495597zm574377 -1419230c255122,0 486030,103465 653158,270475 167128,167128 270594,398273 270594,653158l827 495597 254885 0 0 1381198 -2357273 0 0 -1381198 118 0 254649 0 0 -495597c-709,-254885 102757,-486030 269885,-653158 167128,-167010 398154,-270475 653157,-270475z"/>
  <path fill="{color}" d="M400044 400044l5599912 0 0 2399439 -399690 0 0 -803395 -4800296 2952 0 3600990 1999986 0 0 399926 -2399912 0 0 -5599912zm4499938 599890l400044 0 0 400044 -400044 0 0 -400044z"/>
 </g>
</svg>
