<?xml version="1.0" encoding="UTF-8"?>
<!DOCTYPE svg PUBLIC "-//W3C//DTD SVG 1.1//EN" "http://www.w3.org/Graphics/SVG/1.1/DTD/svg11.dtd">
<svg xmlns="http://www.w3.org/2000/svg" xml:space="preserve" width="64px" height="64px" version="1.1" shape-rendering="geometricPrecision" text-rendering="geometricPrecision" image-rendering="optimizeQuality" fill-rule="evenodd" clip-rule="evenodd"
viewBox="0 0 6400000 6400000"
 xmlns:xlink="http://www.w3.org/1999/xlink">
 <g id="Warstwa_1">   
  <path fill="{color}" d="M3984616 799852c-446817,0 -850995,180593 -1143085,472329 -291736,292090 -472329,696387 -472329,1143085 0,446816 180593,850995 472329,1143085 292090,291736 696268,472329 1143085,472329 446698,0 850995,-180593 1143085,-472329 291736,-292090 472329,-696269 472329,-1143085 0,-446698 -180593,-850995 -472329,-1143085 -292090,-291736 -696387,-472329 -1143085,-472329zm1015406 1400214l0 400045 -1999985 0 0 -400045 1999985 0zm-4542930 3459964l1968095 -1967977c-284885,-347602 -455911,-792175 -455911,-1276787 0,-1113085 902255,-2015340 2015340,-2015340 1113085,0 2015340,902255 2015340,2015340 0,1113084 -902255,2015340 -2015340,2015340 -484494,0 -929067,-170908 -1276669,-455793l-1968095 1967977 -282760 -282760z"/>
 </g>
</svg>
