<?xml version="1.0" encoding="utf-8"?>
<svg version="1.1" id="addon-user-script" xmlns="http://www.w3.org/2000/svg" xmlns:xlink="http://www.w3.org/1999/xlink" x="0px"
	 y="0px" viewBox="0 0 32 32" enable-background="new 0 0 32 32" xml:space="preserve">
<path fill="{color}" d="M28,2H4H2v2v24v2h2h18l8-8V4V2H28z M22,22v6H4V4h24v18H22z M12.8,10.9v10.7c0,0.4-0.1,0.8-0.2,1.1c-0.1,0.3-0.3,0.6-0.5,0.9
	c-0.2,0.3-0.5,0.5-0.9,0.6c-0.4,0.1-0.8,0.2-1.3,0.2c-0.2,0-0.4,0-0.6,0c-0.2,0-0.4-0.1-0.5-0.1l0.1-0.9c0-0.1,0-0.1,0.1-0.1
	c0,0,0.1,0,0.1-0.1c0.1,0,0.1,0,0.2,0c0.1,0,0.2,0,0.3,0c0.5,0,0.9-0.1,1.1-0.4c0.2-0.2,0.3-0.6,0.3-1.2V10.9H12.8z M13.1,7.8
	c0,0.2,0,0.3-0.1,0.5c-0.1,0.1-0.2,0.3-0.3,0.4c-0.1,0.1-0.2,0.2-0.4,0.3C12.2,9,12.1,9,11.9,9c-0.2,0-0.3,0-0.5-0.1
	c-0.1-0.1-0.3-0.2-0.4-0.3c-0.1-0.1-0.2-0.2-0.3-0.4c-0.1-0.1-0.1-0.3-0.1-0.5c0-0.2,0-0.3,0.1-0.5C10.8,7.1,10.9,7,11,6.9
	c0.1-0.1,0.2-0.2,0.4-0.3c0.1-0.1,0.3-0.1,0.5-0.1c0.2,0,0.3,0,0.5,0.1c0.2,0.1,0.3,0.2,0.4,0.3C12.9,7,13,7.1,13,7.3
	C13.1,7.4,13.1,7.6,13.1,7.8z M21.4,12.5c-0.1,0.1-0.2,0.2-0.4,0.2c-0.1,0-0.2,0-0.3-0.1c-0.1-0.1-0.3-0.2-0.5-0.2
	c-0.2-0.1-0.4-0.2-0.6-0.2c-0.2-0.1-0.5-0.1-0.9-0.1c-0.3,0-0.6,0-0.8,0.1c-0.2,0.1-0.4,0.2-0.6,0.3c-0.2,0.1-0.3,0.3-0.4,0.5
	c-0.1,0.2-0.1,0.4-0.1,0.6c0,0.3,0.1,0.5,0.2,0.6c0.1,0.2,0.3,0.3,0.6,0.4c0.2,0.1,0.5,0.2,0.8,0.3s0.6,0.2,0.9,0.3
	c0.3,0.1,0.6,0.2,0.9,0.4c0.3,0.1,0.6,0.3,0.8,0.5c0.2,0.2,0.4,0.4,0.6,0.7c0.1,0.3,0.2,0.6,0.2,1c0,0.5-0.1,0.9-0.2,1.3
	c-0.2,0.4-0.4,0.7-0.7,1c-0.3,0.3-0.7,0.5-1.2,0.7c-0.5,0.2-1,0.2-1.6,0.2c-0.7,0-1.3-0.1-1.9-0.3c-0.6-0.2-1-0.5-1.4-0.9l0.4-0.7
	c0.1-0.1,0.1-0.2,0.2-0.2c0.1,0,0.2-0.1,0.3-0.1c0.1,0,0.2,0,0.4,0.1c0.1,0.1,0.3,0.2,0.5,0.3c0.2,0.1,0.4,0.2,0.7,0.3
	c0.3,0.1,0.6,0.1,1,0.1c0.3,0,0.6,0,0.9-0.1c0.3-0.1,0.5-0.2,0.6-0.4c0.2-0.2,0.3-0.3,0.4-0.5c0.1-0.2,0.1-0.4,0.1-0.6
	c0-0.3-0.1-0.5-0.2-0.7c-0.1-0.2-0.3-0.3-0.6-0.5c-0.2-0.1-0.5-0.2-0.8-0.3c-0.3-0.1-0.6-0.2-1-0.3c-0.3-0.1-0.6-0.2-1-0.4
	c-0.3-0.1-0.6-0.3-0.8-0.5c-0.2-0.2-0.4-0.5-0.6-0.8c-0.1-0.3-0.2-0.7-0.2-1.1c0-0.4,0.1-0.7,0.2-1.1c0.2-0.4,0.4-0.7,0.7-0.9
	c0.3-0.3,0.7-0.5,1.1-0.6c0.4-0.2,0.9-0.2,1.5-0.2c0.7,0,1.2,0.1,1.8,0.3c0.5,0.2,1,0.5,1.3,0.9L21.4,12.5z"/>
</svg>
