<?xml version="1.0" encoding="utf-8"?>
<svg version="1.1" id="application-rss_x2B_xml" xmlns="http://www.w3.org/2000/svg" xmlns:xlink="http://www.w3.org/1999/xlink"
	 x="0px" y="0px" viewBox="0 0 32 32" enable-background="new 0 0 32 32" xml:space="preserve">
<g>
	<path fill="#FFA726" d="M30,30H2V2h28V30z"/>
</g>
<path fill="#FFFFFF" d="M12.8,22c0,1.6-1.3,2.8-2.8,2.8S7.2,23.6,7.2,22c0-1.6,1.3-2.8,2.8-2.8S12.8,20.4,12.8,22z M8,7
	C7.8,7,7.2,7,7,7v2c0.2,0,0.8,0,1,0c8.4,0,15,6.6,15,15c0,0.3,0,0.7,0,1h2c0,0,0-0.6,0-1C25,14.5,17.5,7,8,7z M7,12v2
	c6.1,0,11,4.9,11,11h2C20,17.8,14.2,12,7,12z"/>
</svg>
