<?xml version="1.0" encoding="utf-8"?>
<!-- Generator: Adobe Illustrator 21.1.0, SVG Export Plug-In . SVG Version: 6.00 Build 0)  -->
<svg version="1.1" id="bookmark-new" xmlns="http://www.w3.org/2000/svg" xmlns:xlink="http://www.w3.org/1999/xlink" x="0px"
	 y="0px" viewBox="0 0 32 32" enable-background="new 0 0 32 32" xml:space="preserve">
<path d="M16,9l1.1,3.6l0.4,1.4H19h5.5l-4.8,4l-1,0.9l0.4,1.3l1.4,4.2l-3.3-2.6l-1.2-1l-1.2,1l-3.3,2.6l1.4-4.3l0.4-1.3l-1-0.9
	L7.5,14H13h1.5l0.4-1.4L16,9 M16,2l-3,10H2l9,7.5L7.5,30l8.5-6.6l8.5,6.6L21,19.5l9-7.5H19L16,2L16,2z"/>
<path fill="#43A047" d="M20,6h4V2h2v4h4v2h-4v4h-2V8h-4V6z"/>
</svg>
