<?xml version="1.0" encoding="utf-8"?>
<svg version="1.1" id="cache" xmlns="http://www.w3.org/2000/svg" xmlns:xlink="http://www.w3.org/1999/xlink" x="0px" y="0px"
	 viewBox="0 0 32 32" enable-background="new 0 0 32 32" xml:space="preserve">
<path fill="{color}" d="M2,24h6v6H2V24z M25.5,2L30,6l-3.9,4.6l-4.6-4L25.5,2z M25.5,13l4.5,4l-3.9,4.6l-4.6-4L25.5,13z M27.2,17.2l-1.5-1.4
	l-1.4,1.5l1.5,1.4L27.2,17.2z M27.2,6.2l-1.5-1.4l-1.4,1.5l1.5,1.4L27.2,6.2z M15.1,2.1l4.6,4l-4.1,4.6l-4.6-4L15.1,2.1z M16.8,6.3
	L15.2,5l-1.4,1.5l1.5,1.4L16.8,6.3z M2,3h6v6H2V3z M6,5H4v2h2V5z M12,14h6v6h-6V14z M16,16h-2v2h2V16z M2,14h6v6H2V14z M6,16H4v2h2
	V16z M12,24h6v6h-6V24z M16,26h-2v2h2V26z M23,24h6v6h-6V24z M27,26h-2v2h2V26z M6,26H4v2h2V26z"/>
</svg>
