<?xml version="1.0" encoding="utf-8"?>
<svg version="1.1" id="cookies" xmlns="http://www.w3.org/2000/svg" xmlns:xlink="http://www.w3.org/1999/xlink" x="0px" y="0px"
	 viewBox="0 0 32 32" enable-background="new 0 0 32 32" xml:space="preserve">
<path fill="{color}" d="M16,2c7.6,0.1,14,6.3,14,14c0,7.7-6.3,14-14,14S2,23.7,2,16h4v-5l5,0V6h5V2z M16.2,2C16.3,2,16.1,2,16.2,2z M24.6,7.6
	C22.9,5.9,20.5,4.5,18,4v4h-5v5l-5,0v5l-3.8,0c0.4,2.5,1.6,4.8,3.3,6.5C9.7,26.7,12.7,28,16,28s6.3-1.3,8.5-3.5
	c2.2-2.2,3.5-5.2,3.5-8.5C28,12.7,26.7,9.7,24.6,7.6z M11.5,20c-0.8,0-1.5,0.7-1.5,1.5s0.7,1.5,1.5,1.5s1.5-0.7,1.5-1.5
	S12.3,20,11.5,20z M16.5,15c-0.8,0-1.5,0.7-1.5,1.5c0,0.8,0.7,1.5,1.5,1.5c0.8,0,1.5-0.7,1.5-1.5C18,15.7,17.3,15,16.5,15z M21.5,10
	c-0.8,0-1.5,0.7-1.5,1.5s0.7,1.5,1.5,1.5s1.5-0.7,1.5-1.5S22.3,10,21.5,10z M17.5,21c-0.8,0-1.5,0.7-1.5,1.5s0.7,1.5,1.5,1.5
	s1.5-0.7,1.5-1.5S18.3,21,17.5,21z M22.5,16c-0.8,0-1.5,0.7-1.5,1.5s0.7,1.5,1.5,1.5s1.5-0.7,1.5-1.5S23.3,16,22.5,16z"/>
</svg>
