<?xml version="1.0" encoding="utf-8"?>
<svg version="1.1" id="document-print-preview" xmlns="http://www.w3.org/2000/svg" xmlns:xlink="http://www.w3.org/1999/xlink"
	 x="0px" y="0px" viewBox="0 0 32 32" enable-background="new 0 0 32 32" xml:space="preserve">
<path fill="{color}" d="M6,2h20v6h4v16h-2v-2h0V10h-2H6H4v12h2l0-1.9V16h0h4v2H8v10h13.2l1.2-1.2l1.4,1.4L22,30H6v-6H2V8h4V2z M28.6,30l-6.8-6.8
	c-1,0.7-2.2,1.1-3.5,1.1c-3.3,0-6-2.7-6-6c0-3.3,2.7-6,6-6c3.3,0,6,2.7,6,6c0,1.3-0.4,2.5-1.1,3.5l6.8,6.8L28.6,30z M21.1,15.5
	c-0.7-0.7-1.7-1.2-2.8-1.2c-1.1,0-2.1,0.4-2.8,1.2c-0.7,0.7-1.2,1.7-1.2,2.8c0,1.1,0.4,2.1,1.2,2.8c0.7,0.7,1.7,1.2,2.8,1.2
	c1.1,0,2.1-0.4,2.8-1.2c0.7-0.7,1.2-1.7,1.2-2.8C22.3,17.2,21.8,16.2,21.1,15.5z M8,8h16V4H8V8z M26,12h-2v2h2V12z"/>
</svg>
