<?xml version="1.0" encoding="utf-8"?>
<svg version="1.1" id="document-preview" xmlns="http://www.w3.org/2000/svg" xmlns:xlink="http://www.w3.org/1999/xlink" x="0px"
	 y="0px" viewBox="0 0 32 32" enable-background="new 0 0 32 32" xml:space="preserve">
<path fill="{color}" d="M30,16v14H9.3L2,22.6V2h14v2H4v18h6v6h18V16H30z M30,8c0,3.3-2.7,6-6,6c-1.3,0-2.5-0.4-3.5-1.1l-6.8,6.8l-1.4-1.4l6.8-6.8
	C18.4,10.5,18,9.3,18,8c0-3.3,2.7-6,6-6C27.3,2,30,4.7,30,8z M28,8c0-1.1-0.4-2.1-1.2-2.8S25.1,4,24,4s-2.1,0.4-2.8,1.2S20,6.9,20,8
	s0.4,2.1,1.2,2.8S22.9,12,24,12s2.1-0.4,2.8-1.2S28,9.1,28,8z"/>
</svg>
