<?xml version="1.0" encoding="utf-8"?>
<svg version="1.1" id="edit-cut" xmlns="http://www.w3.org/2000/svg" xmlns:xlink="http://www.w3.org/1999/xlink" x="0px" y="0px"
	 viewBox="0 0 32 32" enable-background="new 0 0 32 32" xml:space="preserve">
<path fill="{color}" d="M9.1,13c1.1,1.1,1.5,2.8,1,4.2l6.6-3.5l6-11.7l1.8,0.9L19.9,12l9.2-4.8L30,9l-11.7,6.1l-3.5,6.7c1.5-0.5,3.1-0.2,4.3,1
	c1.6,1.6,1.6,4.3,0,5.9c-1.6,1.6-4.3,1.6-5.9,0c-0.5-0.5-0.9-1.2-1.1-1.8L12,27.2l-1.8-0.9l5-9.4l-9.4,5L4.8,20L5,19.9
	c-0.6-0.2-1.2-0.5-1.7-1c-1.6-1.6-1.6-4.3,0-5.9C4.9,11.4,7.5,11.4,9.1,13z M18.3,25.8c0-0.5-0.2-1.1-0.6-1.5
	c-0.4-0.4-1-0.6-1.5-0.6c-0.6,0-1.1,0.2-1.5,0.6c-0.4,0.4-0.6,1-0.6,1.5c0,0.6,0.2,1.1,0.6,1.5c0.4,0.4,1,0.6,1.5,0.6
	c0.6,0,1.1-0.2,1.5-0.6C18,26.9,18.3,26.4,18.3,25.8L18.3,25.8z M8.4,15.9c0-0.6-0.2-1.1-0.6-1.5c-0.4-0.4-1-0.6-1.5-0.6v0
	c-0.6,0-1.1,0.2-1.5,0.6h0c-0.4,0.4-0.6,1-0.6,1.5c0,0.6,0.2,1.1,0.6,1.5c0.4,0.4,1,0.6,1.5,0.6c0.6,0,1.1-0.2,1.5-0.6
	C8.1,17,8.4,16.5,8.4,15.9z"/>
</svg>
