<?xml version="1.0" encoding="utf-8"?>
<svg version="1.1" id="edit-find" xmlns="http://www.w3.org/2000/svg" xmlns:xlink="http://www.w3.org/1999/xlink" x="0px" y="0px"
	 viewBox="0 0 32 32" enable-background="new 0 0 32 32" xml:space="preserve">
<path fill="{color}" d="M19.9,4c-2.2,0-4.2,0.9-5.7,2.4h0c-1.5,1.5-2.4,3.5-2.4,5.7c0,2.2,0.9,4.2,2.4,5.7h0c1.5,1.5,3.5,2.4,5.7,2.4
	c2.2,0,4.2-0.9,5.7-2.4l0,0c1.5-1.5,2.4-3.5,2.4-5.7c0-2.2-0.9-4.2-2.4-5.7l0,0C24.2,4.9,22.2,4,19.9,4z M13.5,19.9L3.4,30L2,28.6
	l10.1-10.1c-1.4-1.7-2.3-4-2.3-6.4C9.8,6.5,14.4,2,19.9,2C25.5,2,30,6.5,30,12.1c0,5.6-4.5,10.1-10.1,10.1
	C17.5,22.2,15.3,21.3,13.5,19.9z"/>
</svg>
