<?xml version="1.0" encoding="utf-8"?>
<svg version="1.1" id="edit-clear-history" xmlns="http://www.w3.org/2000/svg" xmlns:xlink="http://www.w3.org/1999/xlink" x="0px"
	 y="0px" viewBox="0 0 32 32" enable-background="new 0 0 32 32" xml:space="preserve">
<path fill="{color}" d="M30,10.4l-6.7-6.7L2,25.1L7,30h10v-2h-4.5L30,10.4z M23.5,6.1l4.3,4.3L16,22.3l-4.2-4.4L23.5,6.1z M23,28h1v2h-1V28z M18,28
	h2v2h-2V28z M21,28h1v2h-1V28z M14.4,8.2c0,3.4-2.8,6.2-6.2,6.2C5,14.4,2.4,12.1,2,9h2c0.4,2,2.1,3.4,4.2,3.4c2.3,0,4.2-1.9,4.2-4.2
	S10.5,4,8.1,4C6.8,4,5.5,4.7,4.8,5.8L6,7H2V3l1.3,1.3C4.5,2.9,6.2,2,8.1,2C11.6,2,14.4,4.8,14.4,8.2z M9.7,9.3L9,8.6V6H7v3.4
	l1.3,1.3L9.7,9.3z"/>
</svg>
