<?xml version="1.0" encoding="utf-8"?>
<svg version="1.1" id="edit-undo" xmlns="http://www.w3.org/2000/svg" xmlns:xlink="http://www.w3.org/1999/xlink" x="0px" y="0px"
	 viewBox="0 0 32 32" enable-background="new 0 0 32 32" xml:space="preserve">
<path fill="{color}" d="M25.4,23.5l1.7,1.1c-1,1.2-2.1,2.3-3.4,3.1l-1.6-1.4c0.9-0.5,1.6-1.1,2.3-1.8C24.8,24.2,25.1,23.8,25.4,23.5z M26.5,21.8
	l1.7,1c1-1.8,1.6-3.7,1.7-5.8h-2C27.9,18.7,27.3,20.4,26.5,21.8z M16.9,28L16.1,28l0.8,1.9c1.8-0.1,3.4-0.6,4.9-1.3l-1.6-1.5
	C19.1,27.6,18,27.9,16.9,28z M2,4v8h8L6.4,8.4l0.3-0.3c0.2-0.2,0.4-0.4,0.6-0.6C9.5,5.3,12.5,4,15.9,4s6.4,1.3,8.6,3.5
	c2,2,3.3,4.6,3.6,7.5h2C29.5,7.7,23.4,2,15.9,2c-4.2,0-8,1.8-10.6,4.7L5,7L2,4z"/>
</svg>
