<?xml version="1.0" encoding="utf-8"?>
<svg version="1.1" id="edit-redo" xmlns="http://www.w3.org/2000/svg" xmlns:xlink="http://www.w3.org/1999/xlink" x="0px" y="0px"
	 viewBox="0 0 32 32" enable-background="new 0 0 32 32" xml:space="preserve">
<path fill="{color}" d="M7.5,24.5c0.7,0.7,1.5,1.3,2.3,1.8l-1.6,1.4c-1.3-0.9-2.4-1.9-3.4-3.1l1.7-1.1C6.9,23.8,7.2,24.2,7.5,24.5z M4,17H2
	c0.2,2.1,0.8,4.1,1.7,5.8l1.7-1C4.7,20.4,4.1,18.7,4,17z M11.8,27.2l-1.6,1.5c1.5,0.7,3.1,1.1,4.9,1.3l0.8-1.9L15.1,28
	C14,27.9,12.9,27.6,11.8,27.2z M27,7l-0.3-0.3C24.1,3.8,20.3,2,16.1,2C8.6,2,2.5,7.7,2,15h2c0.2-2.9,1.6-5.5,3.6-7.5
	C9.7,5.3,12.8,4,16.1,4s6.4,1.3,8.6,3.5c0.2,0.2,0.4,0.4,0.6,0.6l0.3,0.3L22,12h8V4L27,7z"/>
</svg>
