<?xml version="1.0" encoding="utf-8"?>
<svg version="1.1" id="fill-password" xmlns="http://www.w3.org/2000/svg" xmlns:xlink="http://www.w3.org/1999/xlink" x="0px"
	 y="0px" viewBox="0 0 32 32" enable-background="new 0 0 32 32" xml:space="preserve">
<path fill="{color}" d="M8.1,16c0-1.8,0-5.9,0-6c0-4.4,3.5-8,8-8c4.4,0,8,3.6,8,8c0,0.1,0,4.1,0,6c1.3,0,2.6,0,4,0v14H4V16C5.3,16,6.7,16,8.1,16z
	 M6,23h20v-5H6V23z M26,25H6v3h20V25z M22,16c-4,0-8,0-12,0 M10,16h12c0-1.8,0-5.9,0-6c0-1.7-0.7-3.2-1.8-4.3C19.2,4.7,17.7,4,16,4
	c-1.7,0-3.2,0.7-4.3,1.8C10.7,6.9,10,8.4,10,10C10,10.1,10,14.1,10,16z"/>
</svg>
