<?xml version="1.0" encoding="utf-8"?>
<svg version="1.1" id="go-jump-locationbar" xmlns="http://www.w3.org/2000/svg" xmlns:xlink="http://www.w3.org/1999/xlink"
	 x="0px" y="0px" viewBox="0 0 32 32" style="enable-background:new 0 0 32 32;" xml:space="preserve">
<path fill="{color}" d="M30,4v8h-8l3.6-3.6l-0.3-0.3c-0.2-0.2-0.4-0.4-0.6-0.6C22.5,5.3,19.4,4,16.1,4c-3.3,0-6.4,1.3-8.5,3.5c-2,2-3.4,4.6-3.6,7.5
	c-0.1,1.1,0,2,0,2c0.1,1.7,0.7,3.4,1.4,4.8l-1.7,1C2.8,21.1,2.2,19.1,2,17c-0.1-1.3,0-2,0-2C2.5,7.7,8.6,2,16.1,2
	c4.2,0,8,1.8,10.6,4.7L27,7L30,4z M27.8,14c0.1,0.7,0.2,1.3,0.2,2c0,2.1-0.5,4.1-1.5,5.8l1.7,1c1.1-2,1.8-4.3,1.8-6.8
	c0-0.7-0.1-1.3-0.2-2L27.8,14z"/>
</svg>
