<?xml version="1.0" encoding="utf-8"?>
<svg version="1.1" id="help-contents" xmlns="http://www.w3.org/2000/svg" xmlns:xlink="http://www.w3.org/1999/xlink" x="0px"
	 y="0px" viewBox="0 0 32 32" enable-background="new 0 0 32 32" xml:space="preserve">
<path fill="#0D47A1" d="M2,2h28v28H2V2z"/>
<path fill="#FFFFFF" d="M12.5,8.4c0.2-0.2,0.5-0.5,0.8-0.7s0.6-0.4,1-0.6c0.4-0.1,0.8-0.2,1.2-0.3s0.9-0.1,1.3-0.1
	c0.6,0,1.2,0.1,1.8,0.3s1,0.4,1.4,0.8c0.4,0.3,0.7,0.7,0.9,1.2c0.2,0.5,0.3,1,0.3,1.6s-0.1,1.1-0.3,1.6c-0.2,0.4-0.4,0.8-0.7,1.2
	s-0.6,0.6-0.9,0.9c-0.3,0.2-0.6,0.5-0.9,0.7c-0.3,0.2-0.5,0.4-0.7,0.6s-0.3,0.5-0.4,0.7L17.2,18h-1.5l-0.1-2c0-0.4,0-0.7,0.2-0.9
	s0.4-0.5,0.7-0.8s0.6-0.5,0.9-0.7s0.6-0.5,0.9-0.8s0.5-0.6,0.7-1s0.3-0.8,0.3-1.3c0-0.3-0.1-0.7-0.2-0.9c-0.1-0.3-0.3-0.5-0.6-0.7
	c-0.2-0.2-0.5-0.3-0.8-0.5s-0.7-0.2-1-0.2c-0.5,0-0.9,0.1-1.3,0.2s-0.6,0.3-0.9,0.4c-0.2,0.1-0.4,0.3-0.6,0.4
	c-0.1,0.1-0.3,0.2-0.4,0.2c-0.2,0-0.4-0.1-0.5-0.3L12.5,8.4z M14.9,22.7c0-0.2,0-0.4,0.1-0.6s0.2-0.3,0.3-0.5
	c0.1-0.1,0.3-0.2,0.5-0.3s0.4-0.1,0.6-0.1s0.4,0,0.6,0.1s0.3,0.2,0.5,0.3c0.1,0.1,0.2,0.3,0.3,0.5c0.1,0.2,0.1,0.4,0.1,0.6
	s0,0.4-0.1,0.6s-0.2,0.3-0.3,0.5c-0.1,0.1-0.3,0.2-0.5,0.3c-0.2,0.1-0.4,0.1-0.6,0.1s-0.4,0-0.6-0.1c-0.2-0.1-0.3-0.2-0.5-0.3
	c-0.1-0.1-0.2-0.3-0.3-0.5S14.9,22.9,14.9,22.7z"/>
</svg>
