<?xml version="1.0" encoding="utf-8"?>
<svg version="1.1" id="permission-geolocation" xmlns="http://www.w3.org/2000/svg" xmlns:xlink="http://www.w3.org/1999/xlink"
	 x="0px" y="0px" viewBox="0 0 32 32" enable-background="new 0 0 32 32" xml:space="preserve">
<path fill="{color}" d="M2,2.1h28v27.9H2V2.1z"/>
<path fill="#FFFFFF" d="M17,4v4h-2V4H17z M16,12c2.2,0,4,1.8,4,4s-1.8,4-4,4s-4-1.8-4-4S13.8,12,16,12z M17.4,14.6
	C17.1,14.2,16.6,14,16,14s-1.1,0.2-1.4,0.6l0,0C14.2,14.9,14,15.4,14,16c0,0.6,0.2,1.1,0.6,1.4l0,0c0.4,0.4,0.9,0.6,1.4,0.6
	s1.1-0.2,1.4-0.6l0,0c0.4-0.4,0.6-0.9,0.6-1.4C18,15.4,17.8,14.9,17.4,14.6L17.4,14.6z M28,17h-4v-2h4V17z M8,17H4v-2h4V17z M17,24
	v4h-2v-4H17z M18,4.7c4.7,0.8,8.5,4.6,9.3,9.3h-2c-0.4-1.8-1.3-3.4-2.6-4.7l0,0C21.4,8,19.8,7.1,18,6.7V4.7z M27.3,18
	c-0.8,4.7-4.6,8.5-9.3,9.3v-2c1.8-0.4,3.4-1.3,4.7-2.6l0,0c1.3-1.3,2.2-2.9,2.6-4.7H27.3z M14,27.3c-4.7-0.8-8.5-4.6-9.3-9.3h2
	c0.4,1.8,1.3,3.4,2.6,4.7l0,0c1.3,1.3,2.9,2.2,4.7,2.6V27.3z M4.7,14C5.5,9.3,9.3,5.5,14,4.7v2C12.2,7.1,10.6,8,9.3,9.3l0,0
	C8,10.6,7.1,12.2,6.7,14H4.7z"/>
</svg>
