<?xml version="1.0" encoding="utf-8"?>
<svg version="1.1" id="permission-capture-audio-video"
	 xmlns="http://www.w3.org/2000/svg" xmlns:xlink="http://www.w3.org/1999/xlink" x="0px" y="0px" viewBox="0 0 32 32"
	 enable-background="new 0 0 32 32" xml:space="preserve">
<path fill="{color}" d="M30,30H2V2h28V30z"/>
<path fill="#FFFFFF" d="M14,18v2h2l2,2h-6v-5.9L14,18z M5.7,4.3l22.1,22l-1.4,1.4L4.3,5.7L5.7,4.3z M16,24.5l-1.6,2.8l-1.7-1
	l1.6-2.8L16,24.5z M18.8,23.5l1.6,2.8l-1.7,1l-1.6-2.8L18.8,23.5z M4,11l7,5v6l-7,5V11z M9,17l-3-1.8v7.9L9,21V17z M20,5v11l-2-2
	V9.4L17,11h-1l-2-2h2l3-4L20,5z M21.5,14l6.3,1.7l-0.5,1.9L21,16L21.5,14z M21,8.1l6.3-1.7l0.5,1.9L21.5,10L21,8.1z M21.5,11H28v2
	h-6.5V11z"/>
</svg>
