<?xml version="1.0" encoding="utf-8"?>
<svg version="1.1" id="permission-capture-video" xmlns="http://www.w3.org/2000/svg" xmlns:xlink="http://www.w3.org/1999/xlink"
	 x="0px" y="0px" viewBox="0 0 32 32" enable-background="new 0 0 32 32" xml:space="preserve">
<path fill="{color}" d="M2,2h28v28H2"/>
<path fill="#FFFFFF" d="M15,14v4H6v-4 M17,12H4v8h13V12L17,12z M26,7v18l-5-5.8v-6.5L26,7 M28,4h-2l-7,8v8l7,8h2V4L28,4z M13.7,22.3
	l2.5,4.7l-1.7,1L12,23.3L13.7,22.3z M9,23.3L6.5,28l-1.7-1l2.5-4.7L9,23.3z"/>
</svg>
