<?xml version="1.0" encoding="utf-8"?>
<svg version="1.1" id="permission-playback-audio" xmlns="http://www.w3.org/2000/svg" xmlns:xlink="http://www.w3.org/1999/xlink"
	 x="0px" y="0px" viewBox="0 0 32 32" enable-background="new 0 0 32 32" xml:space="preserve">
<path fill="{color}" d="M2,2h28v28H2V2z"/>
<path fill="#FFFFFF" d="M16,7c6.6,0,12,5.8,12,12.5h-1.3v0c0,2.7-2.1,4.9-4.7,5.1l0-10.1c1.4,0.1,2.6,0.8,3.4,1.7
	c-0.5-1.4-1.3-2.7-2.4-3.7l0,0C21.3,10.6,18.8,9,16,9s-5.3,1.6-7.1,3.4l0,0c-1.1,1.1-2,2.5-2.5,4.1c0.8-1.1,2.1-1.9,3.5-2.1l0,10.1
	c-2.5-0.3-4.5-2.4-4.5-5v0H4C4,12.8,9.4,7,16,7z"/>
</svg>
