<?xml version="1.0" encoding="utf-8"?>
<svg version="1.1" id="preferences-plugin" xmlns="http://www.w3.org/2000/svg" xmlns:xlink="http://www.w3.org/1999/xlink" x="0px"
	 y="0px" viewBox="0 0 32 32" enable-background="new 0 0 32 32" xml:space="preserve">
<path fill="{color}" d="M11,4c1.7,0,3,0.9,3,2c0,0.9-0.8,1.6-2,1.9V12h8v8h4.1c0.3-1.2,1-2,1.9-2c1.1,0,2,1.3,2,3s-0.9,3-2,3c-0.9,0-1.6-0.8-1.9-2
	H20v6H4V12h6V7.9C8.8,7.6,8,6.9,8,6C8,4.9,9.3,4,11,4 M11,2C8.2,2,6,3.8,6,6c0,1.3,0.8,2.5,2,3.2V10H4H2v2v16v2h2h16h2v-2v-4h0.8
	c0.7,1.2,1.9,2,3.2,2c2.2,0,4-2.2,4-5s-1.8-5-4-5c-1.3,0-2.5,0.8-3.2,2H22v-6v-2h-2h-6V9.2c1.2-0.7,2-1.9,2-3.2C16,3.8,13.8,2,11,2
	L11,2z"/>
</svg>
