<?xml version="1.0" encoding="utf-8"?>
<svg version="1.1" id="qt" xmlns="http://www.w3.org/2000/svg" xmlns:xlink="http://www.w3.org/1999/xlink" x="0px" y="0px"
	 viewBox="0 0 32 32" enable-background="new 0 0 32 32" xml:space="preserve">
<path fill="#41CD52" d="M5.7,2H30v24.3L26.3,30H2L2,5.7L5.7,2z"/>
<path fill="#FFFFFF" d="M17.8,20.5c0.4-0.5,0.7-1,1-1.5s0.5-1.2,0.6-1.8c0.1-0.6,0.2-1.3,0.2-2c0-0.8-0.1-1.5-0.3-2.2
	c-0.2-0.7-0.4-1.3-0.7-1.9c-0.3-0.6-0.7-1.1-1.2-1.6c-0.5-0.5-1-0.9-1.5-1.2c-0.6-0.3-1.2-0.6-1.9-0.8C13.4,7.1,12.6,7,11.8,7
	c-1.2,0-2.2,0.2-3.2,0.6c-1,0.4-1.8,1-2.5,1.7c-0.7,0.7-1.2,1.6-1.6,2.6c-0.4,1-0.6,2.1-0.6,3.2c0,1.2,0.2,2.2,0.6,3.2
	c0.4,1,0.9,1.8,1.6,2.6c0.7,0.7,1.5,1.3,2.5,1.7c1,0.4,2,0.6,3.2,0.6c0.4,0,0.8,0,1.2-0.1c0.4-0.1,0.8-0.1,1.1-0.2l2.2,2.5
	c0.2,0.3,0.5,0.4,0.7,0.5c0.3,0.1,0.6,0.1,0.9,0.1h2.4l-3.8-4.3C17,21.4,17.5,21,17.8,20.5z M15.4,19.2c-0.4,0.5-0.9,0.8-1.5,1.1
	c-0.6,0.3-1.3,0.4-2,0.4c-0.8,0-1.4-0.1-2-0.4c-0.6-0.3-1.1-0.6-1.5-1.1c-0.4-0.5-0.7-1.1-1-1.7C7.1,16.8,7,16,7,15.1
	c0-0.9,0.1-1.6,0.3-2.3c0.2-0.7,0.6-1.3,1-1.8c0.4-0.5,0.9-0.8,1.5-1.1c0.6-0.3,1.3-0.4,2-0.4c0.8,0,1.4,0.1,2,0.4
	c0.6,0.3,1.1,0.6,1.5,1.1c0.4,0.5,0.7,1.1,1,1.8c0.2,0.7,0.3,1.5,0.3,2.3c0,0.9-0.1,1.6-0.3,2.3C16.1,18.1,15.8,18.7,15.4,19.2z
	 M28,22.3c-0.4,0.3-0.6,0.5-1.1,0.6s-1,0.3-1.5,0.3c-1,0-1.7-0.3-2.2-0.8c-0.5-0.5-0.8-1.3-0.8-2.3v-6.3h-0.9c-0.1,0-0.3,0-0.4-0.1
	c-0.1-0.1-0.1-0.2-0.1-0.4v-1.1l1.5-0.3l0.6-3.4c0-0.1,0.1-0.3,0.2-0.3C23.4,8.1,23.5,8,23.7,8H25v4h3v2h-3v5.9
	c0,0.3,0.1,0.6,0.3,0.8c0.2,0.2,0.4,0.3,0.7,0.3c0.2,0,0.3,0,0.4-0.1c0.1,0,0,0,0.1,0c0.1,0,0.2-0.1,0.2-0.1c0.1,0,0.1-0.1,0.2-0.1
	c0.1,0,0.1,0,0.2,0.1c0,0,0.2,0.2,0.2,0.3L28,22.3z"/>
</svg>
