<?xml version="1.0" encoding="utf-8"?>
<svg version="1.1" id="tab-private" xmlns="http://www.w3.org/2000/svg" xmlns:xlink="http://www.w3.org/1999/xlink" x="0px"
	 y="0px" viewBox="0 0 32 32" enable-background="new 0 0 32 32" xml:space="preserve">
<path fill="{color}" d="M21,22.6c0-0.8,0.6-1.5,1.1-2c0.5-0.5,1.2-0.8,2-0.8c0.8,0,1.5,0.3,2,0.8c0.5,0.5,0.9,1.2,0.9,2l0,2.4h-6L21,22.6z M30,30
	L30,30L30,30l0-5h-1l0-2.4c0-1.3-0.5-2.4-1.4-3.3c-0.8-0.8-2.2-1.3-3.5-1.3c-1.3,0-2.9,0.5-3.8,1.3c-0.8,0.8-1.4,2-1.3,3.3l0,2.4
	h-0.8H18v5 M2,2l9.9,0l0,4H14V2L28,2v4l2,0v10h-2V8L10,8l0-4L4,4v24l12,0v2L2,30L2,2z"/>
</svg>
