<?xml version="1.0" encoding="utf-8"?>
<svg version="1.1" id="text-html" xmlns="http://www.w3.org/2000/svg" xmlns:xlink="http://www.w3.org/1999/xlink" x="0px" y="0px"
	 viewBox="0 0 32 32" enable-background="new 0 0 32 32" xml:space="preserve">
<path fill="#1976D2" d="M29,17v-2h-6.5c-0.1-1.4-0.2-2.7-0.5-4h5V9h-5.5c-0.8-2.6-2-5-3.8-6.7L17,3h-2l-0.7-0.7
	c-1.7,1.7-3,4.1-3.8,6.7H5v2h5c-0.3,1.3-0.4,2.7-0.5,4H3v2l6.5,0c0.1,1.4,0.2,2.7,0.5,4H5v2l5.5-0.1c0.8,2.6,2.1,5,3.8,6.8L15,29h2
	l0.7,0.7c1.7-1.7,3-4.1,3.8-6.7H27v-2h-5c0.3-1.3,0.4-2.6,0.5-4H29z M20.5,15H17v-4h3C20.3,12.3,20.4,13.6,20.5,15z M19.4,9H17V4.5
	C18,5.8,18.8,7.3,19.4,9z M15,4.5V9h-2.4C13.2,7.3,14,5.8,15,4.5z M12,11h3v4h-3.5C11.6,13.6,11.7,12.3,12,11z M11.5,17H15v4h-3
	C11.7,19.7,11.6,18.4,11.5,17z M12.6,23H15v4.5C14,26.2,13.2,24.7,12.6,23z M17,27.5V23h2.4C18.8,24.7,18,26.2,17,27.5z M20,21h-3
	v-4h3.5C20.4,18.3,20.3,19.7,20,21z M16,4c6.6,0,12,5.4,12,12s-5.4,12-12,12S4,22.6,4,16S9.4,4,16,4 M16,2C8.3,2,2,8.3,2,16
	s6.3,14,14,14s14-6.3,14-14S23.7,2,16,2L16,2z"/>
</svg>
