<?xml version="1.0" encoding="utf-8"?>
<svg version="1.1" id="unknown" xmlns="http://www.w3.org/2000/svg" xmlns:xlink="http://www.w3.org/1999/xlink" x="0px" y="0px"
	 viewBox="0 0 32 32" enable-background="new 0 0 32 32" xml:space="preserve">
<path fill="{color}" d="M28,4v18.2L23,28H4V4H28 M30,2H2v28h22l6-7.1V2L30,2z M11.7,8.4c0.2-0.2,0.5-0.5,0.8-0.7s0.6-0.4,1-0.6
	c0.4-0.1,0.8-0.2,1.2-0.3s0.9-0.1,1.3-0.1c0.6,0,1.2,0.1,1.8,0.3c0.6,0.2,1,0.4,1.4,0.8C19.5,8.1,19.9,8.5,20,9
	c0.2,0.5,0.3,1,0.3,1.6s-0.1,1.1-0.3,1.6c-0.2,0.4-0.4,0.8-0.7,1.2c-0.3,0.4-0.6,0.6-0.9,0.9c-0.3,0.2-0.6,0.5-0.9,0.7
	s-0.5,0.4-0.7,0.6s-0.3,0.5-0.4,0.7V18h-1.5l-0.1-2c0-0.4,0-0.7,0.2-0.9s0.4-0.5,0.7-0.8s0.6-0.5,0.9-0.7s0.6-0.5,0.9-0.8
	s0.5-0.6,0.7-1s0.3-0.8,0.3-1.3c0-0.3-0.1-0.7-0.2-0.9c-0.1-0.3-0.3-0.5-0.6-0.7c-0.2-0.2-0.5-0.3-0.8-0.5s-0.7-0.2-1-0.2
	c-0.5,0-0.9,0.1-1.3,0.2S14,8.7,13.7,8.8c-0.2,0.1-0.4,0.3-0.6,0.4c-0.1,0.1-0.3,0.2-0.4,0.2c-0.2,0-0.4-0.1-0.5-0.3L11.7,8.4z
	 M14.1,22.7c0-0.2,0-0.4,0.1-0.6s0.2-0.3,0.3-0.5c0.1-0.1,0.3-0.2,0.5-0.3s0.4-0.1,0.6-0.1s0.4,0,0.6,0.1c0.2,0.1,0.3,0.2,0.5,0.3
	c0.1,0.1,0.2,0.3,0.3,0.5s0.1,0.4,0.1,0.6s0,0.4-0.1,0.6s-0.2,0.3-0.3,0.5c-0.1,0.1-0.3,0.2-0.5,0.3c-0.2,0.1-0.4,0.1-0.6,0.1
	s-0.4,0-0.6-0.1c-0.2-0.1-0.3-0.2-0.5-0.3c-0.1-0.1-0.2-0.3-0.3-0.5S14.1,22.9,14.1,22.7z"/>
</svg>
