<?xml version="1.0" encoding="utf-8"?>
<svg version="1.1" id="window-new-private" xmlns="http://www.w3.org/2000/svg" xmlns:xlink="http://www.w3.org/1999/xlink" x="0px"
	 y="0px" viewBox="0 0 32 32" enable-background="new 0 0 32 32" xml:space="preserve">
<path fill="{color}" d="M21,20.6c0-0.8,0.6-1.5,1.1-2s1.2-0.8,2-0.8s1.5,0.3,2,0.8s0.9,1.2,0.9,2V23h-6V20.6z M30,30L30,30L30,30v-7h-1v-2.4
	c0-1.3-0.5-2.4-1.4-3.3c-0.8-0.8-2.2-1.3-3.5-1.3s-2.9,0.5-3.8,1.3c-0.8,0.8-1.4,2-1.3,3.3V23h-0.8H18v7 M2,2v28h13c0-0.5,0-1.3,0-2
	H4V10h24v4c0.6,0,1.4,0,2,0V2H2z M28,6h-2V4h2V6z"/>
</svg>
