<?xml version="1.0" encoding="utf-8"?>
<svg version="1.1" id="window-popup-block" xmlns="http://www.w3.org/2000/svg" xmlns:xlink="http://www.w3.org/1999/xlink" x="0px"
	 y="0px" viewBox="0 0 32 32" enable-background="new 0 0 32 32" xml:space="preserve">
<path fill="#D32F2F" d="M23,16L23,16c-3.9,0-7,3.1-7,7s3.1,7,7,7l0,0c3.9,0,7-3.1,7-7C30,19.2,26.9,16,23,16z M23,28
	c-2.7,0-5-2.2-5-5c0-1,0.3-2,0.8-2.8l6.9,6.9C25,27.7,24,28,23,28z M27.2,25.7l-6.9-6.9C21.1,18.3,22,18,23,18l0,0c2.7,0,5,2.2,5,5
	C28,24,27.7,24.9,27.2,25.7z"/>
<path fill="{color}" d="M2,2v28h12c0-0.5,0-1.3,0-2H4V10h24v4c0.6,0,1.4,0,2,0V2H2z M28,6h-2V4h2V6z"/>
</svg>
