<?xml version="1.0" encoding="utf-8"?>
<svg version="1.1" id="zoom-out" xmlns="http://www.w3.org/2000/svg" xmlns:xlink="http://www.w3.org/1999/xlink" x="0px" y="0px"
	 viewBox="0 0 32 32" enable-background="new 0 0 32 32" xml:space="preserve">
<path fill="{color}" d="M19.8,4c-2.3,0-4.3,0.9-5.8,2.4c-1.5,1.5-2.4,3.5-2.4,5.8c0,2.3,0.9,4.3,2.4,5.8c1.5,1.5,3.5,2.4,5.8,2.4
	c2.3,0,4.3-0.9,5.8-2.4c1.5-1.5,2.4-3.5,2.4-5.8c0-2.3-0.9-4.3-2.4-5.8C24.1,4.9,22,4,19.8,4z M25,11v2l-10,0l0-2L25,11z M2,28.5
	l9.9-9.9c-1.4-1.8-2.3-4-2.3-6.4C9.6,6.6,14.1,2,19.8,2s10.2,4.6,10.2,10.2s-4.6,10.2-10.2,10.2c-2.4,0-4.7-0.9-6.4-2.3L3.4,30
	L2,28.5z"/>
</svg>
