<?xml version="1.0" encoding="utf-8"?>
<svg version="1.2" baseProfile="tiny" id="unknown" xmlns="http://www.w3.org/2000/svg" xmlns:xlink="http://www.w3.org/1999/xlink"
	 x="0px" y="0px" viewBox="0 0 16 16" overflow="auto" xml:space="preserve">
<path fill="{color}" d="M14,2v9.5856724L11.5857773,14H2V2H14 M15,1H1v14h11l3-3.0001297V1L15,1z M6.8466682,6.0117645v4.6705885
	c0,0.1630859-0.0214844,0.3144531-0.0634766,0.4541016c-0.0429688,0.1396484-0.1113281,0.2617188-0.2041016,0.3662109
	c-0.09375,0.1035156-0.2128906,0.1855469-0.3583984,0.2460938c-0.1455078,0.0595703-0.3193359,0.0898438-0.5214844,0.0898438
	c-0.0859375,0-0.1640625-0.0068359-0.2363281-0.0205078c-0.0722656-0.0126953-0.1435547-0.0332031-0.2158203-0.0595703
	l0.0283203-0.3837891c0.0048828-0.0244141,0.0136719-0.0419922,0.0253906-0.0537109
	c0.0126953-0.0126953,0.0292969-0.0195313,0.0498047-0.0224609c0.0214844-0.0029297,0.0488281-0.0029297,0.0820313-0.0019531
	c0.0341797,0.0009766,0.0761719,0.0019531,0.1259766,0.0019531c0.2080078,0,0.3564453-0.0488281,0.4443359-0.1464844
	c0.0878906-0.0966797,0.1318359-0.2539063,0.1318359-0.4697266V6.0117645H6.8466682z M6.9827895,4.5018964
	c0,0.0674906-0.0131545,0.1297894-0.0404029,0.1878405C6.9151382,4.7477884,6.8794336,4.799232,6.8343329,4.8440685
	C6.7892327,4.8893766,6.7375546,4.9247737,6.67836,4.9507318c-0.0591946,0.025486-0.1212077,0.0387006-0.1879191,0.0387006
	S6.3607764,4.9762177,6.3034611,4.9507318C6.2461457,4.9247737,6.1954074,4.8893766,6.1512465,4.8440685
	C6.1080251,4.799232,6.0732598,4.7477884,6.0478911,4.6897368C6.0215821,4.6316857,6.0093675,4.569387,6.0093675,4.5018964
	c0-0.0670185,0.0122147-0.130733,0.0385237-0.1911445c0.0253687-0.060411,0.0601339-0.1132703,0.1033554-0.1585789
	c0.0441608-0.044836,0.0948992-0.0807052,0.1522145-0.1061912c0.0573153-0.0259581,0.1202683-0.0387011,0.1869798-0.0387011
	S6.6191654,4.0200238,6.67836,4.0459819c0.0591946,0.025486,0.1108727,0.0613551,0.155973,0.1061912
	c0.0451007,0.0453086,0.0808053,0.0981679,0.1080537,0.1585789C6.969635,4.3711634,6.9827895,4.4348779,6.9827895,4.5018964z
	 M10.7091627,6.7347965c-0.0334225,0.0539927-0.0840626,0.0809894-0.1539459,0.0809894
	c-0.0415258,0-0.0881147-0.0134983-0.1407804-0.0404949s-0.1164732-0.0571423-0.1924334-0.0904384
	c-0.0759602-0.0332956-0.1671133-0.0638914-0.2724447-0.0922379C9.8452387,6.5642681,9.7206631,6.5503201,9.5768452,6.5503201
	c-0.1245756,0-0.2369967,0.013948-0.3362522,0.0422945C9.1413383,6.6209612,9.056262,6.659656,8.9853659,6.7086997
	c-0.0708971,0.0494938-0.1245756,0.106636-0.1620493,0.1714277C8.7858429,6.9453692,8.7676125,7.0160103,8.7676125,7.0920501
	c0,0.0958376,0.0313969,0.1759276,0.0931778,0.239819C8.923584,7.395761,9.0056219,7.4511042,9.1079149,7.497448
	c0.102294,0.0467939,0.2187672,0.0881886,0.3484058,0.123734c0.1296396,0.0355453,0.2633295,0.0737906,0.4000587,0.1142855
	c0.1367292,0.0404944,0.2704201,0.0854888,0.4000587,0.1345325c0.1306524,0.0490437,0.2461119,0.1102357,0.3494186,0.1840267
	c0.102293,0.0737896,0.1843309,0.1646786,0.2461119,0.2708645c0.0627947,0.1070862,0.0931787,0.2357693,0.0931787,0.3851509
	c0,0.1727772-0.0344362,0.3311567-0.1033068,0.4769382c-0.0688705,0.1466808-0.1711645,0.2735643-0.30688,0.3806505
	c-0.1357164,0.1061869-0.3018169,0.1907759-0.4983015,0.2519674C9.8401747,9.8807907,9.6143188,9.9122868,9.3570662,9.9122868
	c-0.2937145,0-0.5590696-0.0431948-0.7970791-0.1277838C8.3219767,9.699914,8.1749239,9.530242,8.0088234,9.3970585
	l0.1197071-0.1893806C8.1508131,9.1761818,8.177146,9.1509848,8.20753,9.1347866
	C8.2379141,9.1167889,8.2764006,9.10779,8.3240023,9.10779c0.0496283,0,0.102294,0.0179977,0.1569853,0.0521936
	c0.0557051,0.0341959,0.12255,0.071991,0.2015486,0.1142855c0.0789995,0.0413942,0.1752157,0.0791893,0.2886505,0.1142845
	C9.0846205,9.4227495,9.2254009,9.439847,9.393527,9.439847c0.1438189,0,0.2704191-0.0161972,0.3777771-0.0494928
	c0.1083698-0.0332956,0.1974974-0.0773907,0.2694063-0.1349831c0.071909-0.0557928,0.1255884-0.1205845,0.1600237-0.194375
	s0.0516529-0.1529799,0.0516529-0.2366695c0-0.1034861-0.0303841-0.1880751-0.0931778-0.2564669
	c-0.0617819-0.0665913-0.1448317-0.1241837-0.2471256-0.1727772c-0.102293-0.0476942-0.2187662-0.0899887-0.3504305-0.1250839
	C9.4310007,8.2340031,9.2962971,8.1971073,9.1595688,8.1575127C9.0228395,8.117918,8.8881359,8.0729237,8.7574844,8.0229797
	C8.6258192,7.9725866,8.509346,7.9091449,8.407053,7.8331046C8.304759,7.7570643,8.2217093,7.6630268,8.1599283,7.5509911
	c-0.0627947-0.1115856-0.0931787-0.247468-0.0931787-0.4071975c0-0.1426315,0.0334225-0.2794142,0.0992556-0.4112468
	c0.0668449-0.1313834,0.1630611-0.2465682,0.2906752-0.3464556c0.1266012-0.0994372,0.2835865-0.178627,0.4689293-0.2375693
	c0.1853437-0.0589423,0.3960075-0.0886383,0.6340179-0.0886383c0.2764959,0,0.5246334,0.0386949,0.7454252,0.1160846
	c0.21978,0.0778403,0.409174,0.1840267,0.5702105,0.3190093L10.7091627,6.7347965z"/>
</svg>
