<?xml version="1.0" encoding="utf-8"?>
<svg version="1.2" baseProfile="tiny" id="unknown" xmlns="http://www.w3.org/2000/svg" xmlns:xlink="http://www.w3.org/1999/xlink"
	 x="0px" y="0px" viewBox="0 0 16 16" overflow="scroll" xml:space="preserve">
<path d="M14,2v9.6L11.6,14H2V2H14 M15,1H1v14h11l3-3V1L15,1z"/>
<g>
	<path fill="{color}" d="M6.8,6v4.7c0,0.2,0,0.3-0.1,0.5c0,0.1-0.1,0.3-0.2,0.4c-0.1,0.1-0.2,0.2-0.4,0.2c-0.1,0.1-0.3,0.1-0.5,0.1
		c-0.1,0-0.2,0-0.2,0c-0.1,0-0.1,0-0.2-0.1l0-0.4c0,0,0,0,0-0.1c0,0,0,0,0,0c0,0,0,0,0.1,0c0,0,0.1,0,0.1,0c0.2,0,0.4,0,0.4-0.1
		c0.1-0.1,0.1-0.3,0.1-0.5V6H6.8z M7,4.5c0,0.1,0,0.1,0,0.2c0,0.1-0.1,0.1-0.1,0.2c0,0-0.1,0.1-0.2,0.1C6.6,5,6.6,5,6.5,5
		S6.4,5,6.3,5c-0.1,0-0.1-0.1-0.2-0.1c0,0-0.1-0.1-0.1-0.2c0-0.1,0-0.1,0-0.2c0-0.1,0-0.1,0-0.2c0-0.1,0.1-0.1,0.1-0.2
		c0,0,0.1-0.1,0.2-0.1c0.1,0,0.1,0,0.2,0s0.1,0,0.2,0c0.1,0,0.1,0.1,0.2,0.1c0,0,0.1,0.1,0.1,0.2C7,4.4,7,4.4,7,4.5z"/>
	<path fill="{color}" d="M10.7,6.7c0,0.1-0.1,0.1-0.2,0.1c0,0-0.1,0-0.1,0s-0.1-0.1-0.2-0.1c-0.1,0-0.2-0.1-0.3-0.1c-0.1,0-0.2,0-0.4,0
		c-0.1,0-0.2,0-0.3,0C9.1,6.6,9.1,6.7,9,6.7c-0.1,0-0.1,0.1-0.2,0.2c0,0.1-0.1,0.1-0.1,0.2c0,0.1,0,0.2,0.1,0.2
		C8.9,7.4,9,7.5,9.1,7.5c0.1,0,0.2,0.1,0.3,0.1c0.1,0,0.3,0.1,0.4,0.1c0.1,0,0.3,0.1,0.4,0.1c0.1,0,0.2,0.1,0.3,0.2
		c0.1,0.1,0.2,0.2,0.2,0.3c0.1,0.1,0.1,0.2,0.1,0.4c0,0.2,0,0.3-0.1,0.5c-0.1,0.1-0.2,0.3-0.3,0.4c-0.1,0.1-0.3,0.2-0.5,0.3
		C9.8,9.9,9.6,9.9,9.4,9.9c-0.3,0-0.6,0-0.8-0.1C8.3,9.7,8.2,9.5,8,9.4l0.1-0.2c0,0,0-0.1,0.1-0.1c0,0,0.1,0,0.1,0
		c0,0,0.1,0,0.2,0.1c0.1,0,0.1,0.1,0.2,0.1c0.1,0,0.2,0.1,0.3,0.1c0.1,0,0.3,0.1,0.4,0.1c0.1,0,0.3,0,0.4,0c0.1,0,0.2-0.1,0.3-0.1
		c0.1-0.1,0.1-0.1,0.2-0.2s0.1-0.2,0.1-0.2c0-0.1,0-0.2-0.1-0.3C10.1,8.5,10,8.4,9.9,8.4c-0.1,0-0.2-0.1-0.4-0.1
		c-0.1,0-0.3-0.1-0.4-0.1C9,8.1,8.9,8.1,8.8,8C8.6,8,8.5,7.9,8.4,7.8C8.3,7.8,8.2,7.7,8.2,7.6C8.1,7.4,8.1,7.3,8.1,7.1
		c0-0.1,0-0.3,0.1-0.4c0.1-0.1,0.2-0.2,0.3-0.3c0.1-0.1,0.3-0.2,0.5-0.2c0.2-0.1,0.4-0.1,0.6-0.1c0.3,0,0.5,0,0.7,0.1
		c0.2,0.1,0.4,0.2,0.6,0.3L10.7,6.7z"/>
</g>
</svg>
