<?xml version="1.0" encoding="utf-8"?>
<!-- Generator: Adobe Illustrator 21.1.0, SVG Export Plug-In . SVG Version: 6.00 Build 0)  -->
<svg version="1.2" baseProfile="tiny" id="cache" xmlns="http://www.w3.org/2000/svg" xmlns:xlink="http://www.w3.org/1999/xlink"
	 x="0px" y="0px" viewBox="0 0 16 16" overflow="scroll" xml:space="preserve">
<path d="M8,3v1H7V3H8 M3,3v1H2V3H3 M8,8v1H7V8H8 M3,8v1H2V8H3 M13,13v1h-1v-1H13 M8,13v1H7v-1H8 M3,13v1H2v-1H3 M9,2H6v3h3V2L9,2z
	 M4,2H1v3h3V2L4,2z M9,7H6v3h3V7L9,7z M4,7H1v3h3V7L4,7z M14,12h-3v3h3V12L14,12z M9,12H6v3h3V12L9,12z M4,12H1v3h3V12L4,12z"/>
<path d="M12.4,7.8l0.8,0.6l-0.6,0.8l-0.8-0.6L12.4,7.8 M12.1,6.4l-1.7,2.5l2.5,1.7l1.7-2.5L12.1,6.4L12.1,6.4z M12.5,2.8l0.7,0.7
	l-0.7,0.7l-0.7-0.7L12.5,2.8 M12.5,1.4l-2.1,2.1l2.1,2.1l2.1-2.1L12.5,1.4L12.5,1.4z"/>
</svg>
