<?xml version="1.0" encoding="utf-8"?>
<!-- Generator: Adobe Illustrator 21.1.0, SVG Export Plug-In . SVG Version: 6.00 Build 0)  -->
<svg version="1.2" baseProfile="tiny" id="Warstwa_1"
	 xmlns="http://www.w3.org/2000/svg" xmlns:xlink="http://www.w3.org/1999/xlink" x="0px" y="0px" viewBox="0 0 16 16"
	 overflow="scroll" xml:space="preserve">
<path d="M15,3H9V2h6V3z M5,1v1H1v1h4v1h3V1H5z M7,3H6V2h1V3z M12,7V6H9v3h3V8h3V7H12z M11,8h-1V7h1V8z M8,8H1V7h7V8z M15,13H6v-1h9
	V13z M2,11v1H1v1h1v1h3v-3H2z M4,13H3v-1h1V13z"/>
</svg>
