<?xml version="1.0" encoding="utf-8"?>
<svg version="1.2" baseProfile="tiny" id="content-blocking"
	 xmlns="http://www.w3.org/2000/svg" xmlns:xlink="http://www.w3.org/1999/xlink" x="0px" y="0px" viewBox="0 0 16 16"
	 overflow="scroll" xml:space="preserve">
<path fill="{color}" d="M15,3v1h-1V3H15z M12,4h1V3h-1V4z M9.5,3L13,6.5l0,5L9.5,15l-5,0L1,11.5l0-5L4.5,3L9.5,3z M5.8,7.2l2.9,2.9
	C9,9.8,9.1,9.4,9.1,9c0-0.6-0.2-1.1-0.6-1.5l0,0C8.1,7.1,7.6,6.9,7,6.9C6.6,6.9,6.2,7,5.8,7.2z M8.2,10.8L5.2,7.8
	C5,8.2,4.9,8.6,4.9,9c0,0.6,0.2,1.1,0.6,1.5c0.4,0.4,0.9,0.6,1.5,0.6C7.4,11.1,7.8,11,8.2,10.8z M7,6c1.6,0,3,1.3,3,3
	c0,1.6-1.3,3-3,3c-1.6,0-3-1.3-3-3C4,7.4,5.3,6,7,6z M10.5,5.5L9.1,4L4.9,4L2,6.9l0,4.1L4.9,14l4.1,0l2.9-2.9l0-4.1L10.5,5.5z"/>
</svg>
