<?xml version="1.0" encoding="utf-8"?>
<svg version="1.2" baseProfile="tiny" id="cookies" xmlns="http://www.w3.org/2000/svg" xmlns:xlink="http://www.w3.org/1999/xlink"
	 x="0px" y="0px" viewBox="0 0 16 16" overflow="scroll" xml:space="preserve">
<path fill="{color}" d="M8,1v3H6v2H4v2H1V7h2V5h2V3h2V1H8z M15,8c0,3.9-3.1,7-7,7s-7-3.1-7-7h1c0,3.3,2.7,6,6,6s6-2.7,6-6s-2.7-6-6-6V1
	C11.9,1,15,4.1,15,8z M9,8c0,0.6-0.4,1-1,1S7,8.6,7,8s0.4-1,1-1S9,7.4,9,8z M5,9c-0.6,0-1,0.4-1,1s0.4,1,1,1s1-0.4,1-1S5.6,9,5,9z
	 M10,4C9.4,4,9,4.4,9,5s0.4,1,1,1s1-0.4,1-1S10.6,4,10,4z M8,10c-0.6,0-1,0.4-1,1s0.4,1,1,1s1-0.4,1-1S8.6,10,8,10z M11,8
	c-0.6,0-1,0.4-1,1s0.4,1,1,1s1-0.4,1-1S11.6,8,11,8z"/>
</svg>
