<?xml version="1.0" encoding="utf-8"?>
<svg version="1.2" baseProfile="tiny" id="dialog-information"
	 xmlns="http://www.w3.org/2000/svg" xmlns:xlink="http://www.w3.org/1999/xlink" x="0px" y="0px" viewBox="0 0 16 16"
	 overflow="scroll" xml:space="preserve">
<path fill="#0D47A1" d="M1,1h14v14H1V1z"/>
<path fill="#FFFFFF" d="M7,12c0-0.1,0-0.3,0.1-0.4c0.1-0.1,0.1-0.2,0.2-0.3c0.1-0.1,0.2-0.2,0.3-0.2C7.7,11,7.9,11,8,11
	c0.1,0,0.3,0,0.4,0.1c0.1,0.1,0.2,0.1,0.3,0.2c0.1,0.1,0.2,0.2,0.2,0.3C9,11.7,9,11.9,9,12c0,0.1,0,0.3-0.1,0.4
	c-0.1,0.1-0.1,0.2-0.2,0.3c-0.1,0.1-0.2,0.2-0.3,0.2C8.3,13,8.1,13,8,13c-0.1,0-0.3,0-0.4-0.1c-0.1-0.1-0.2-0.1-0.3-0.2
	c-0.1-0.1-0.2-0.2-0.2-0.3C7,12.3,7,12.1,7,12z M9,10H7V3h2V10z"/>
</svg>
