<?xml version="1.0" encoding="utf-8"?>
<!-- Generator: Adobe Illustrator 21.1.0, SVG Export Plug-In . SVG Version: 6.00 Build 0)  -->
<svg version="1.1" id="dialog-password" xmlns="http://www.w3.org/2000/svg" xmlns:xlink="http://www.w3.org/1999/xlink" x="0px"
	 y="0px" viewBox="0 0 16 16" enable-background="new 0 0 16 16" xml:space="preserve">
<path d="M4,8c0-0.9,0-2.9,0-3c0-2.2,1.8-4,4-4c2.2,0,4,1.8,4,4c0,0.1,0,2.1,0,3c0.7,0,1.3,0,2,0v7H2V8C2.7,8,3.4,8,4,8z M3,12h10
	l0-3H3L3,12z M13,13H3v1h10V13z M11,8C9,8,7,8,5,8 M5,8h6c0-0.9,0-2.9,0-3c0-0.8-0.3-1.6-0.9-2.1C9.6,2.3,8.8,2,8,2
	C7.2,2,6.4,2.3,5.9,2.9C5.3,3.4,5,4.2,5,5C5,5.1,5,7.1,5,8z"/>
</svg>
