<?xml version="1.0" encoding="utf-8"?>
<svg version="1.2" baseProfile="tiny" id="dialog-warning"
	 xmlns="http://www.w3.org/2000/svg" xmlns:xlink="http://www.w3.org/1999/xlink" x="0px" y="0px" viewBox="0 0 16 16"
	 overflow="scroll" xml:space="preserve">
<path fill="#FFA726" d="M15,15H1L8,1L15,15z"/>
<path fill="#FFFFFF" d="M7,13c0-0.1,0-0.3,0.1-0.4c0.1-0.1,0.1-0.2,0.2-0.3c0.1-0.1,0.2-0.2,0.3-0.2C7.7,12,7.9,12,8,12
	c0.1,0,0.3,0,0.4,0.1c0.1,0.1,0.2,0.1,0.3,0.2c0.1,0.1,0.2,0.2,0.2,0.3C9,12.7,9,12.9,9,13c0,0.1,0,0.3-0.1,0.4
	c-0.1,0.1-0.1,0.2-0.2,0.3c-0.1,0.1-0.2,0.2-0.3,0.2C8.3,14,8.1,14,8,14c-0.1,0-0.3,0-0.4-0.1c-0.1-0.1-0.2-0.1-0.3-0.2
	c-0.1-0.1-0.2-0.2-0.2-0.3C7,13.3,7,13.1,7,13z M9,11H7V6h2V11z"/>
</svg>
