<?xml version="1.0" encoding="utf-8"?>
<svg version="1.2" baseProfile="tiny" id="dialog-information"
	 xmlns="http://www.w3.org/2000/svg" xmlns:xlink="http://www.w3.org/1999/xlink" x="0px" y="0px" viewBox="0 0 16 16"
	 overflow="scroll" xml:space="preserve">
<path fill="#0D47A1" d="M1,1h14v14H1V1z"/>
<path fill="#FFFFFF" d="M8.9937487,3.9999998c0,0.13784-0.0203762,0.2641017-0.0709038,0.3862517
	C8.8726883,4.5084047,8.8026171,4.6148677,8.7126312,4.7048941C8.6219053,4.7952938,8.5149546,4.8673878,8.3950958,4.9200592
	C8.2752333,4.9731045,8.1443119,5,8.0004787,5C7.8618102,5,7.730885,4.9731045,7.6110263,4.9200597
	C7.4915357,4.8670149,7.3871646,4.7952943,7.2964411,4.7048945C7.2060866,4.6148682,7.1338015,4.5084052,7.0803227,4.3862519
	C7.027216,4.264102,7.0002942,4.1341052,7.0002942,3.9962652c0-0.1438177,0.0269217-0.2738144,0.0800285-0.393352
	c0.0534782-0.1195376,0.125392-0.2256243,0.2161179-0.3160238c0.0907235-0.0900266,0.1950946-0.159508,0.3145852-0.2095642
	C7.7308846,3.0272689,7.8618093,3,8.0004778,3C8.144311,3,8.2748642,3.0272686,8.3950949,3.0773249
	c0.1194906,0.050056,0.2268095,0.1195376,0.3175354,0.209564c0.0903549,0.0903995,0.160058,0.1968625,0.2102137,0.3160238
	C8.9733725,3.7224503,8.9937487,3.8561819,8.9937487,3.9999998z M6.9999995,6.0000005l1.9999995-0.000001L9.0000019,13H7.0000014
	L6.9999995,6.0000005z"/>
</svg>
