<?xml version="1.0" encoding="utf-8"?>
<svg version="1.2" baseProfile="tiny" id="document-preview"
	 xmlns="http://www.w3.org/2000/svg" xmlns:xlink="http://www.w3.org/1999/xlink" x="0px" y="0px" viewBox="0 0 16 16"
	 overflow="scroll" xml:space="preserve">
<path fill="{color}" d="M15,8v7H4.6L1,11.3V1h7v1H2v9h3v3h9V8H15z M15,4c0,1.7-1.3,3-3,3c-0.6,0-1.2-0.2-1.7-0.6L6.7,10L6,9.3l3.6-3.6
	C9.2,5.2,9,4.6,9,4c0-1.7,1.3-3,3-3C13.7,1,15,2.3,15,4z M14,4c0-0.6-0.2-1.1-0.6-1.4S12.6,2,12,2s-1,0.2-1.4,0.6S10,3.4,10,4
	s0.2,1,0.6,1.4S11.5,6,12,6s1.1-0.2,1.4-0.6S14,4.5,14,4z"/>
</svg>
