<?xml version="1.0" encoding="utf-8"?>
<svg version="1.2" baseProfile="tiny" id="document-print-preview"
	 xmlns="http://www.w3.org/2000/svg" xmlns:xlink="http://www.w3.org/1999/xlink" x="0px" y="0px" viewBox="0 0 16 16"
	 overflow="scroll" xml:space="preserve">
<g>
	<path fill="{color}" d="M4,14V9h1V8H3h0l0,3H2V5h12v6l0,1h1V4h-2V1H3v3H1v8h2v3l9,0l0-1L4,14z M4,2h8v2H4V2z"/>
	<path fill="{color}" d="M11.4,10.7C11.8,10.2,12,9.7,12,9c0-1.7-1.3-3-3-3S6,7.3,6,9c0,1.7,1.3,3,3,3c0.7,0,1.3-0.2,1.7-0.6l3.6,3.6l0.7-0.7
		L11.4,10.7z M7,9c0-1.1,0.9-2,2-2c1.1,0,2,0.9,2,2c0,1.1-0.9,2-2,2C7.9,11,7,10.1,7,9z"/>
	<rect x="12" y="6" width="1" height="1"/>
</g>
</svg>
