<?xml version="1.0" encoding="utf-8"?>
<svg version="1.2" baseProfile="tiny" id="document-preview"
	 xmlns="http://www.w3.org/2000/svg" xmlns:xlink="http://www.w3.org/1999/xlink" x="0px" y="0px" viewBox="0 0 16 16"
	 overflow="scroll" xml:space="preserve">
<path fill="{color}" d="M15,8v7H4.6499939L1,11.2999878V1h7v1H2v9h3v3h9V8H15z M14.9921875,3.9944153
	c0,1.6538391-1.3327332,2.9944153-2.9866028,2.9944153c-0.6478271,0-1.2475586-0.2055359-1.7373962-0.5551453L6.7185841,9.9832897
	L6.0116749,9.2764111l3.5504894-3.5504894C9.21521,5.2372437,9.0111694,4.6395874,9.0111694,3.9944153
	C9.0111694,2.3405457,10.3517456,1,12.0055847,1C13.6594543,1,14.9921875,2.3405457,14.9921875,3.9944153z M14.0001831,3.9944153
	c0-0.5506897-0.2235107-1.0500183-0.5840454-1.410553s-0.8598633-0.5840454-1.410553-0.5840454
	s-1.0499878,0.2235107-1.4105225,0.5840454s-0.5840759,0.8598633-0.5840759,1.410553s0.2235413,1.0499878,0.5840759,1.4105225
	s0.8598328,0.5840759,1.4105225,0.5840759s1.0500183-0.2235413,1.410553-0.5840759S14.0001831,4.545105,14.0001831,3.9944153z"/>
</svg>
