<?xml version="1.0" encoding="utf-8"?>
<!-- Generator: Adobe Illustrator 21.1.0, SVG Export Plug-In . SVG Version: 6.00 Build 0)  -->
<svg version="1.2" baseProfile="tiny" id="edit-clear-history"
	 xmlns="http://www.w3.org/2000/svg" xmlns:xlink="http://www.w3.org/1999/xlink" x="0px" y="0px" viewBox="0 0 16 16"
	 overflow="scroll" xml:space="preserve">
<path d="M6,6H5.7L4.1,4l1.6-2H6V1H1v1h0.3l1.6,2L1.3,6H1v1h5V6z M2.5,2h1.9l-1,1.2L2.5,2z M10,14h2v1h-2V14z M13,14h1v1h-1V14z
	 M9,11L9,11l6-6l-3-3L1,13l0,0l0,0l2,2h6v-1H6L9,11z M12,3.4L13.6,5l-5.3,5.3L6.7,8.7L12,3.4z"/>
</svg>
