<?xml version="1.0" encoding="utf-8"?>
<!-- Generator: Adobe Illustrator 21.1.0, SVG Export Plug-In . SVG Version: 6.00 Build 0)  -->
<svg version="1.1" id="edit-cut" xmlns="http://www.w3.org/2000/svg" xmlns:xlink="http://www.w3.org/1999/xlink" x="0px" y="0px"
	 viewBox="0 0 16 16" enable-background="new 0 0 16 16" xml:space="preserve">
<path d="M7.5,10c-0.1,0-0.3,0-0.4,0l0.3-0.7L15,5.9L14.6,5L8,8l3-6.6L10.1,1L6.6,8.6L6,8.9c0-0.1,0-0.3,0-0.4C6,7.1,4.9,6,3.5,6
	S1,7.1,1,8.5S2.1,11,3.5,11c0.6,0,1.2-0.2,1.6-0.6L6,10l-0.4,0.9c-0.4,0.4-0.6,1-0.6,1.6C5,13.9,6.1,15,7.5,15s2.5-1.1,2.5-2.5
	S8.9,10,7.5,10z M2,8.5C2,7.7,2.7,7,3.5,7S5,7.7,5,8.5c0,0.4-0.2,0.8-0.4,1.1L3.6,10c0,0-0.1,0-0.1,0C2.7,10,2,9.3,2,8.5z M7.5,14
	C6.7,14,6,13.3,6,12.5c0,0,0-0.1,0-0.1l0.4-0.9C6.7,11.2,7.1,11,7.5,11C8.3,11,9,11.7,9,12.5S8.3,14,7.5,14z"/>
</svg>
