<?xml version="1.0" encoding="utf-8"?>
<svg version="1.2" baseProfile="tiny" id="edit-redo"
	 xmlns="http://www.w3.org/2000/svg" xmlns:xlink="http://www.w3.org/1999/xlink" x="0px" y="0px" viewBox="0 0 16 16"
	 overflow="scroll" xml:space="preserve">
<path fill="{color}" d="M6,2.2C5.3,2.5,4.6,2.9,4,3.4L3.3,2.7C4,2.1,4.9,1.6,5.8,1.2L6,2.2z M2.2,11.7c0.9,1.4,2.2,2.4,3.8,2.9l0-1
	c-1.2-0.4-2.2-1.2-2.9-2.3L2.2,11.7z M1.9,4.6c-0.5,1-0.8,2.1-0.8,3.3c0,0.3,0.1,1,0.2,1.3l0.9-0.3c-0.1-0.3-0.1-0.7-0.1-1
	c0-0.9,0.2-1.8,0.6-2.6L1.9,4.6z M12.7,4.3L11,6l4,0l0-4l-1.6,1.6C12.1,2,10.2,1,8,1v1C9.9,2,11.6,2.9,12.7,4.3z"/>
</svg>
