<?xml version="1.0" encoding="utf-8"?>
<svg version="1.2" baseProfile="tiny" id="edit-select-all"
	 xmlns="http://www.w3.org/2000/svg" xmlns:xlink="http://www.w3.org/1999/xlink" x="0px" y="0px" viewBox="0 0 16 16"
	 overflow="auto" xml:space="preserve">
<path fill="{color}" d="M1,1h2v1H2v1H1V1z M14,9V7h1v2H14z M14,6V3h1v3H14z M14,12v-2h1v2H14z M1,9V7h1v2H1z M1,6V4h1v2H1z M1,12v-2h1v2H1z M7,15h2
	v-1H7V15z M10,15h2v-1h-2V15z M4,15h2v-1H4V15z M15,15h-2v-1h1v-1h1V15z M1,15h2v-1H2v-1H1V15z M7,1h2v1H7V1z M10,1h2v1h-2V1z M4,1
	h2v1H4V1z M15,1h-2v1h1v0h1V1z M12,5H4V4h8V5z M4,7h6V6H4V7z M4,9h4V8H4V9z M4,11h2v-1H4V11z"/>
</svg>
