<?xml version="1.0" encoding="utf-8"?>
<svg version="1.2" baseProfile="tiny" id="edit-undo"
	 xmlns="http://www.w3.org/2000/svg" xmlns:xlink="http://www.w3.org/1999/xlink" x="0px" y="0px" viewBox="0 0 16 16"
	 overflow="scroll" xml:space="preserve">
<path fill="{color}" d="M10.2,1.2c0.9,0.3,1.8,0.8,2.5,1.5L12,3.4c-0.6-0.5-1.3-0.9-2-1.2L10.2,1.2z M12.9,11.2c-0.7,1-1.7,1.8-2.9,2.3l0,1
	c1.6-0.5,3-1.5,3.8-2.9L12.9,11.2z M13.3,5.3c0.4,0.8,0.6,1.7,0.6,2.6c0,0.3,0,0.7-0.1,1l0.9,0.3c0.1-0.3,0.2-1,0.2-1.3
	c0-1.2-0.3-2.3-0.8-3.3L13.3,5.3z M8,2V1C5.8,1,3.9,2,2.6,3.6L1,2l0,4l4,0L3.3,4.3C4.4,2.9,6.1,2,8,2z"/>
</svg>
