<?xml version="1.0" encoding="utf-8"?>
<svg version="1.2" baseProfile="tiny" id="go-jump-locationbar"
	 xmlns="http://www.w3.org/2000/svg" xmlns:xlink="http://www.w3.org/1999/xlink" x="0px" y="0px" viewBox="0 0 16 16"
	 overflow="scroll" xml:space="preserve">
<path fill="{color}" d="M13.9,8C14,8.3,14,8.6,14,9c0,1-0.3,2-0.7,2.9l0.9,0.5c0.6-1,0.9-2.2,0.9-3.4c0-0.3,0-0.7-0.1-1L13.9,8z M2.1,11.8
	C1.4,10.7,1,9.4,1,8c0-3.9,3.1-7,7-7c2.2,0,4.1,1,5.4,2.6L15,2l0,4l-4,0l1.7-1.7C11.6,2.9,9.9,2,8,2C4.7,2,2,4.7,2,8
	c0,1.2,0.4,2.3,1,3.3L2.1,11.8z"/>
</svg>
