<?xml version="1.0" encoding="utf-8"?>
<svg version="1.2" baseProfile="tiny" id="help-contents"
	 xmlns="http://www.w3.org/2000/svg" xmlns:xlink="http://www.w3.org/1999/xlink" x="0px" y="0px" viewBox="0 0 16 16"
	 overflow="scroll" xml:space="preserve">
<path fill="#0D47A1" d="M15,15H1V1h14V15z"/>
<path fill="#FFFFFF" d="M6.020678,3.8755343c0.1240234-0.1157227,0.2612305-0.2260742,0.4111328-0.3300781
	s0.3139648-0.1958008,0.4921875-0.2758789c0.1777344-0.0800781,0.3696289-0.1430664,0.5756836-0.1889648
	s0.4291992-0.0688477,0.6689458-0.0688477c0.315918,0,0.6088867,0.0458984,0.8793945,0.1376953
	C9.3185301,3.2417452,9.550952,3.371628,9.7462645,3.5395968c0.1962891,0.1679688,0.3505859,0.3720703,0.4628906,0.6118162
	c0.1113281,0.2402344,0.1679688,0.5102539,0.1679688,0.8100586c0,0.3041992-0.0449219,0.5664063-0.1347656,0.7861328
	c-0.0898438,0.2202148-0.2050781,0.4130859-0.3417969,0.5791016C9.7618895,6.4927216,9.6114988,6.6367645,9.4493895,6.7588348
	S9.1349363,6.9956512,8.9904051,7.1035614C8.8468504,7.2114716,8.7238035,7.3193817,8.6212645,7.4277802
	C8.519702,7.5356903,8.4611082,7.6553192,8.4454832,7.7881317L8.3365965,8.7061005H7.6046624L7.5328851,7.7100067
	C7.5167718,7.5298309,7.5509515,7.3726044,7.6349359,7.2388153C7.7189202,7.104538,7.8287835,6.9785614,7.965014,6.8603973
	c0.1357427-0.1176758,0.285645-0.2338867,0.4492192-0.3476563C8.5782957,6.3984833,8.731616,6.2715302,8.8732176,6.1313934
	C9.0157957,5.991745,9.1349363,5.8325653,9.2306395,5.6548309c0.0957031-0.1782227,0.1445313-0.3911133,0.1445313-0.6391602
	c0-0.171875-0.0341797-0.328125-0.1025391-0.4682617C9.2052488,4.4077606,9.113452,4.28862,8.9962645,4.1904755
	C8.8810301,4.0928192,8.7443113,4.0176239,8.5861082,3.965378C8.4279051,3.9136202,8.2589598,3.8877413,8.078784,3.8877413
	c-0.2441411,0-0.4531255,0.0297852-0.6269536,0.0898438C7.2780023,4.0376434,7.1310296,4.1035614,7.0109124,4.175827
	C6.8907952,4.2476044,6.7936273,4.3135223,6.7198968,4.3735809C6.645678,4.4336395,6.5846429,4.4634247,6.5367913,4.4634247
	c-0.1000977,0-0.1782227-0.0458984-0.2338867-0.1376953L6.020678,3.8755343z M7.2592239,12.0036077
	c0-0.1044922,0.019043-0.2021484,0.0571289-0.2949219c0.0380859-0.0917969,0.090332-0.171875,0.15625-0.2392578
	c0.065918-0.0683594,0.1450195-0.1220703,0.2368164-0.1621094s0.1899414-0.0595703,0.2939453-0.0595703
	s0.2021484,0.0195313,0.2939453,0.0595703c0.0922852,0.0400391,0.171875,0.09375,0.2402344,0.1621094
	c0.0683594,0.0673828,0.1220703,0.1474609,0.1621094,0.2392578c0.0390625,0.0927734,0.0595703,0.1904297,0.0595703,0.2949219
	c0,0.1074219-0.0205078,0.2070313-0.0595703,0.296875c-0.0400391,0.0898438-0.09375,0.1689453-0.1621094,0.2363281
	c-0.0683594,0.0683594-0.1479492,0.1210938-0.2402344,0.1601563c-0.0917969,0.0371094-0.1899414,0.0566406-0.2939453,0.0566406
	s-0.2021484-0.0195313-0.2939453-0.0566406c-0.0917969-0.0390625-0.1708984-0.0917969-0.2368164-0.1601563
	c-0.065918-0.0673828-0.1181641-0.1464844-0.15625-0.2363281S7.2592239,12.1110296,7.2592239,12.0036077z"/>
</svg>
