<?xml version="1.0" encoding="utf-8"?>
<svg version="1.2" baseProfile="tiny" id="unknown" xmlns="http://www.w3.org/2000/svg" xmlns:xlink="http://www.w3.org/1999/xlink"
	 x="0px" y="0px" viewBox="0 0 16 16" overflow="auto" xml:space="preserve">
	 
	 <path fill="#D32F2F" d="M12.5049,8a2.5,2.5,0,1,0,2.4902,2.5A2.5,2.5,0,0,0,12.5049,8Zm-1.66666,2.5a1.648,1.648,0,0,1,.23615-.84132l2.27183,2.27183a1.64813,1.64813,0,0,1-.84132.23616A1.66857,1.66857,0,0,1,10.83824,10.5Zm3.09717.84132L11.66358,9.06949a1.64818,1.64818,0,0,1,.84132-.23616A1.66854,1.66854,0,0,1,14.17157,10.5,1.64806,1.64806,0,0,1,13.93541,11.34132Z"/>
	 
	 <path fill="{color}"  d="M2,12V5L8,8l6-3V7h1V3H1V13H9V12ZM14,4,8,7,2,4Z"/></svg>