<?xml version="1.0" encoding="utf-8"?>
<svg version="1.2" baseProfile="tiny" id="permission-capture-audio-video"
	 xmlns="http://www.w3.org/2000/svg" xmlns:xlink="http://www.w3.org/1999/xlink" x="0px" y="0px" viewBox="0 0 16 16"
	 overflow="scroll" xml:space="preserve">
<path fill="{color}" d="M1,15V1h14v14"/>
<path fill="#FFFFFF" d="M7,10v1h1l1,1H6V9L7,10z M2.7,2L14,13.3L13.3,14L2,2.7L2.7,2z M2,6l3,2.5v3L2,14V6z M4,9L3,8v4l1-1V9z M10,2
	v5.5l-1-1V4.2L8.5,5H8L7,4h1l1.5-2L10,2z M11,4l2.7-1L14,4l-2.7,1L11,4z M8,14H7v-1h1V14z M10,14H9v-1h1V14z M11.3,6L14,7l-0.3,1
	L11,7L11.3,6z"/>
</svg>
