<?xml version="1.0" encoding="utf-8"?>
<!-- Generator: Adobe Illustrator 21.1.0, SVG Export Plug-In . SVG Version: 6.00 Build 0)  -->
<svg version="1.2" baseProfile="tiny" id="permission-geolocation"
	 xmlns="http://www.w3.org/2000/svg" xmlns:xlink="http://www.w3.org/1999/xlink" x="0px" y="0px" viewBox="0 0 16 16"
	 overflow="scroll" xml:space="preserve">
<path d="M1,1h14V15H1V1z"/>
<path fill="#FFFFFF" d="M2.4,6C3,4.3,4.3,3,6,2.3v1.1C4.9,3.9,3.9,4.9,3.4,6H2.4z M3.4,10H2.4C3,11.7,4.3,13,6,13.7v-1.1
	C4.9,12.1,3.9,11.1,3.4,10z M12.6,6h1.1C13,4.3,11.7,3,10,2.3v1.1C11.1,3.9,12.1,4.9,12.6,6z M12.6,10c-0.5,1.1-1.4,2.1-2.6,2.6v1.1
	c1.7-0.6,3-2,3.6-3.7H12.6z M9,2H7v3h2V2z M5,7H2v2h3V7z M14,7h-3v2h3V7z M7,14h2v-3H7V14z M10,6v4H6V6H10z M9,7H7v2h2V7z"/>
</svg>
