<?xml version="1.0" encoding="utf-8"?>
<svg version="1.2" baseProfile="tiny" id="permission-playback-audio"
	 xmlns="http://www.w3.org/2000/svg" xmlns:xlink="http://www.w3.org/1999/xlink" x="0px" y="0px" viewBox="0 0 16 16"
	 overflow="scroll" xml:space="preserve">
<path fill="{color}" d="M15,15H1V1h14V15z"/>
<path fill="#FFFFFF" d="M14,9v1h-0.1H13c0,1.7-1.3,3-3,3V7c1.3,0,2.4,0.8,2.8,2H13c0-2.8-2.2-5-5-5S3,6.2,3,9h0.2C3.6,7.8,4.7,7,6,7
	v6c-1.7,0-3-1.3-3-3H2.1H2V9c0-3.3,2.7-6,6-6S14,5.7,14,9z"/>
</svg>
