<?xml version="1.0" encoding="utf-8"?>
<svg version="1.2" baseProfile="tiny" id="preferences-plugin"
	 xmlns="http://www.w3.org/2000/svg" xmlns:xlink="http://www.w3.org/1999/xlink" x="0px" y="0px" viewBox="0 0 16 16"
	 overflow="scroll" xml:space="preserve">
<path fill="{color}" d="M5.5,2C6.3,2,7,2.4,7,3c0,0.4-0.4,0.8-1,0.9V6h4v4h2.1c0.1-0.6,0.5-1,0.9-1c0.6,0,1,0.7,1,1.5S13.6,12,13,12
	c-0.4,0-0.8-0.4-0.9-1H10v3H2V6h3V3.9C4.4,3.8,4,3.4,4,3C4,2.4,4.7,2,5.5,2 M5.5,1C4.1,1,3,1.9,3,3c0,0.7,0.4,1.2,1,1.6V5H2H1v1v8v1
	h1h8h1v-1v-2h0.4c0.4,0.6,1,1,1.6,1c1.1,0,2-1.1,2-2.5S14.1,8,13,8c-0.7,0-1.2,0.4-1.6,1H11V6V5h-1H7V4.6c0.6-0.4,1-1,1-1.6
	C8,1.9,6.9,1,5.5,1L5.5,1z"/>
</svg>
