<?xml version="1.0" encoding="utf-8"?>
<svg version="1.2" baseProfile="tiny" id="qt" xmlns="http://www.w3.org/2000/svg" xmlns:xlink="http://www.w3.org/1999/xlink"
	 x="0px" y="0px" viewBox="0 0 16 16" overflow="scroll" xml:space="preserve">
<path fill="#41CD52" d="M12.9876232,15H1V3l2-2h12v11.9941416L12.9876232,15z"/>
<path fill="#FFFFFF" d="M9.6142578,12.0507813H8.894043c-0.1079102,0-0.2036133-0.015625-0.2875977-0.0449219
	c-0.0839844-0.0302734-0.1606445-0.0820313-0.2294922-0.1582031l-1.1298828-1.2324219
	c-0.3417969,0.1132813-0.7124023,0.1708984-1.1113281,0.1708984c-0.4741211,0-0.90625-0.0800781-1.2958984-0.2412109
	c-0.3901367-0.1601563-0.7246094-0.3857422-1.003418-0.6767578C3.5571289,9.5771484,3.3413086,9.2299805,3.1884766,8.8266602
	C3.0351563,8.4228516,2.9589844,7.9799805,2.9589844,7.496582c0-0.4829102,0.0761719-0.9262695,0.2294922-1.3295898
	c0.152832-0.4033203,0.3686523-0.7514648,0.6479492-1.0439453c0.2788086-0.2924805,0.6132813-0.5200195,1.003418-0.6816406
	c0.3896484-0.1621094,0.8217773-0.2431641,1.2958984-0.2431641S7.0424805,4.2792969,7.434082,4.4414063
	c0.3916016,0.1616211,0.7265625,0.3891602,1.0058594,0.6816406C8.71875,5.4155273,8.9345703,5.7636719,9.0878906,6.1669922
	C9.2402344,6.5703125,9.3173828,7.0136719,9.3173828,7.496582c0,0.3032227-0.0302734,0.5913086-0.0927734,0.8642578
	C9.1640625,8.6337891,9.0742188,8.8881836,8.9570313,9.1235352C8.840332,9.3588867,8.6977539,9.5727539,8.5297852,9.7646484
	s-0.3569336,0.3583984-0.5668945,0.4990234L9.6142578,12.0507813z M3.8496094,7.496582
	c0,0.3959961,0.0541992,0.7509766,0.1621094,1.0644531s0.2617188,0.5791016,0.4614258,0.7963867
	c0.1992188,0.2177734,0.4399414,0.3842773,0.722168,0.4995117c0.2817383,0.1157227,0.5952148,0.1733398,0.9404297,0.1733398
	c0.3481445,0,0.6630859-0.0576172,0.9448242-0.1733398C7.362793,9.7416992,7.6025391,9.5751953,7.8007813,9.3574219
	c0.1977539-0.2172852,0.3510742-0.4829102,0.4589844-0.7963867S8.421875,7.8925781,8.421875,7.496582
	S8.3676758,6.7451172,8.2597656,6.4301758S7.9985352,5.8491211,7.8007813,5.6313477
	C7.6025391,5.4140625,7.362793,5.246582,7.0805664,5.1298828C6.7988281,5.0126953,6.4838867,4.9541016,6.1357422,4.9541016
	c-0.3452148,0-0.6586914,0.0585938-0.9404297,0.1757813C4.9130859,5.246582,4.6723633,5.4140625,4.4731445,5.6313477
	c-0.199707,0.2177734-0.3535156,0.4838867-0.4614258,0.7988281S3.8496094,7.1005859,3.8496094,7.496582z M11.7519531,10.7910156
	c-0.3603516,0-0.6367188-0.1005859-0.8300781-0.3017578s-0.2910156-0.4907227-0.2910156-0.8686523V6.8305664h-0.5488281
	c-0.0478516,0-0.0878906-0.0141602-0.1210938-0.0424805S9.9111328,6.715332,9.9111328,6.6552734V6.3359375l0.7470703-0.0947266
	l0.1845703-1.4086914c0.0087891-0.0449219,0.0292969-0.081543,0.0605469-0.1098633
	c0.0322266-0.0288086,0.0732422-0.0429688,0.1240234-0.0429688h0.4042969v1.5708008h1.3193359v0.5800781h-1.3193359v2.7363281
	c0,0.1918945,0.046875,0.3344727,0.140625,0.4272461c0.0917969,0.09375,0.2128906,0.1396484,0.359375,0.1396484
	c0.0839844,0,0.15625-0.0107422,0.21875-0.0341797c0.0605469-0.0214844,0.1142578-0.046875,0.1591797-0.0742188
	c0.0458984-0.0268555,0.0830078-0.0512695,0.1142578-0.0737305c0.0322266-0.0224609,0.0605469-0.0336914,0.0839844-0.0336914
	c0.0419922,0,0.0800781,0.0253906,0.1123047,0.0761719l0.234375,0.3828125
	c-0.1376953,0.1289063-0.3046875,0.2304688-0.4990234,0.3037109C12.1601563,10.7539063,11.9589844,10.7910156,11.7519531,10.7910156
	z"/>
<g>
</g>
<g>
</g>
<g>
</g>
<g>
</g>
<g>
</g>
<g>
</g>
<g>
</g>
<g>
</g>
<g>
</g>
<g>
</g>
<g>
</g>
<g>
</g>
<g>
</g>
<g>
</g>
<g>
</g>
</svg>
