<?xml version="1.0" encoding="utf-8"?>
<!-- Generator: Adobe Illustrator 21.1.0, SVG Export Plug-In . SVG Version: 6.00 Build 0)  -->
<svg version="1.2" baseProfile="tiny" id="qt" xmlns="http://www.w3.org/2000/svg" xmlns:xlink="http://www.w3.org/1999/xlink"
	 x="0px" y="0px" viewBox="0 0 16 16" overflow="scroll" xml:space="preserve">
<path fill="#41CD52" d="M13,15H1V3l2-2h12v12L13,15z"/>
<path fill="#FFFFFF" d="M9.6,12.1H8.9c-0.1,0-0.2,0-0.3,0c-0.1,0-0.2-0.1-0.2-0.2l-1.1-1.2c-0.3,0.1-0.7,0.2-1.1,0.2
	c-0.5,0-0.9-0.1-1.3-0.2c-0.4-0.2-0.7-0.4-1-0.7c-0.3-0.3-0.5-0.6-0.6-1C3,8.4,3,8,3,7.5C3,7,3,6.6,3.2,6.2c0.2-0.4,0.4-0.8,0.6-1
	c0.3-0.3,0.6-0.5,1-0.7c0.4-0.2,0.8-0.2,1.3-0.2S7,4.3,7.4,4.4c0.4,0.2,0.7,0.4,1,0.7c0.3,0.3,0.5,0.6,0.6,1C9.2,6.6,9.3,7,9.3,7.5
	c0,0.3,0,0.6-0.1,0.9C9.2,8.6,9.1,8.9,9,9.1C8.8,9.4,8.7,9.6,8.5,9.8S8.2,10.1,8,10.3L9.6,12.1z M3.8,7.5c0,0.4,0.1,0.8,0.2,1.1
	s0.3,0.6,0.5,0.8c0.2,0.2,0.4,0.4,0.7,0.5C5.5,10,5.8,10,6.1,10c0.3,0,0.7-0.1,0.9-0.2c0.3-0.1,0.5-0.3,0.7-0.5
	C8,9.1,8.2,8.9,8.3,8.6s0.2-0.7,0.2-1.1S8.4,6.7,8.3,6.4S8,5.8,7.8,5.6C7.6,5.4,7.4,5.2,7.1,5.1C6.8,5,6.5,5,6.1,5
	C5.8,5,5.5,5,5.2,5.1C4.9,5.2,4.7,5.4,4.5,5.6C4.3,5.8,4.1,6.1,4,6.4S3.8,7.1,3.8,7.5z M11.8,10.8c-0.4,0-0.6-0.1-0.8-0.3
	s-0.3-0.5-0.3-0.9V6.8h-0.5c0,0-0.1,0-0.1,0s0-0.1,0-0.1V6.3l0.7-0.1l0.2-1.4c0,0,0-0.1,0.1-0.1c0,0,0.1,0,0.1,0h0.4v1.6h1.3v0.6
	h-1.3v2.7c0,0.2,0,0.3,0.1,0.4c0.1,0.1,0.2,0.1,0.4,0.1c0.1,0,0.2,0,0.2,0c0.1,0,0.1,0,0.2-0.1c0,0,0.1-0.1,0.1-0.1c0,0,0.1,0,0.1,0
	c0,0,0.1,0,0.1,0.1l0.2,0.4c-0.1,0.1-0.3,0.2-0.5,0.3C12.2,10.8,12,10.8,11.8,10.8z"/>
</svg>
