<?xml version="1.0" encoding="utf-8"?>
<svg version="1.2" baseProfile="tiny" id="rss" xmlns="http://www.w3.org/2000/svg" xmlns:xlink="http://www.w3.org/1999/xlink"
	 x="0px" y="0px" viewBox="0 0 16 16" xml:space="preserve">
<path fill="{color}" d="M5,12c0,0.5-0.4,1-1,1c-0.5,0-1-0.4-1-1c0-0.5,0.4-1,1-1C4.5,11,5,11.5,5,12z M12,12.5c0,0.2,0,0.3,0,0.5h1
	c0-0.2,0-0.3,0-0.5C13,7.3,8.7,3,3.5,3C3.3,3,3.2,3,3,3v1c0.2,0,0.3,0,0.5,0C8.2,4,12,7.8,12,12.5z M3,7L3,7l0,1h0c2.7,0,5,2.2,5,5
	h1C9,9.7,6.3,7,3,7z M15,15H1V1h14V15z M2,14h12V2H2V14z"/>
</svg>
