<?xml version="1.0" encoding="utf-8"?>
<!-- Generator: Adobe Illustrator 21.1.0, SVG Export Plug-In . SVG Version: 6.00 Build 0)  -->
<svg version="1.2" baseProfile="tiny" id="tab-crashed"
	 xmlns="http://www.w3.org/2000/svg" xmlns:xlink="http://www.w3.org/1999/xlink" x="0px" y="0px" viewBox="0 0 16 16"
	 overflow="scroll" xml:space="preserve">
<polygon points="6,1 6,3 7,3 7,1 14,1 14,3 15,3 15,9 14,9 14,4 5,4 5,2 2,2 2,14 9,14 9,15 1,15 1,1 "/>
<path fill="#D32F2F" d="M12,9c-1.7,0-3,1.3-3,3s1.3,3,3,3s3-1.3,3-3S13.7,9,12,9z M10,12c0-0.4,0.1-0.7,0.3-1l2.7,2.7
	c-0.3,0.2-0.6,0.3-1,0.3C10.9,14,10,13.1,10,12z M13.7,13L11,10.3c0.3-0.2,0.6-0.3,1-0.3c1.1,0,2,0.9,2,2C14,12.4,13.9,12.7,13.7,13
	z"/>
</svg>
