<?xml version="1.0" encoding="utf-8"?>
<svg version="1.2" baseProfile="tiny" id="tab" xmlns="http://www.w3.org/2000/svg" xmlns:xlink="http://www.w3.org/1999/xlink" x="0px" y="0px" viewBox="0 0 16 16" overflow="scroll" xml:space="preserve">
<path fill="{color}" d="M15,3v6h-1V4H5V2H2v12h7v1H1V1h5v2h1V1h7v2H15z M14.5,11c-0.5-0.6-1.2-1-2-1c-1.4,0-2.5,1.1-2.5,2.5s1.1,2.5,2.5,2.5
	c0.4,0,0.8-0.1,1.2-0.3L13,13.9c-0.1,0-0.3,0.1-0.5,0.1c-0.8,0-1.5-0.7-1.5-1.5s0.7-1.5,1.5-1.5c0.5,0,1,0.3,1.3,0.7L13,12.5h1h1v-2
	L14.5,11z"/>
</svg>
