<?xml version="1.0" encoding="utf-8"?>
<!-- Generator: Adobe Illustrator 21.1.0, SVG Export Plug-In . SVG Version: 6.00 Build 0)  -->
<svg version="1.2" baseProfile="tiny" id="tab-close-other"
	 xmlns="http://www.w3.org/2000/svg" xmlns:xlink="http://www.w3.org/1999/xlink" x="0px" y="0px" viewBox="0 0 16 16"
	 overflow="scroll" xml:space="preserve">
<polygon points="6,1 6,3 7,3 7,1 14,1 14,3 15,3 15,9 14,9 14,4 5,4 5,2 2,2 2,14 9,14 9,15 1,15 1,1 "/>
<path fill="#D32F2F" d="M10,11l1-1l1.5,1.5L14,10c0,0,0.4,0.5,1,1l-1.5,1.5L15,14l-1,1l-1.5-1.5L11,15l-1-1l1.5-1.5L10,11z"/>
</svg>
