<?xml version="1.0" encoding="utf-8"?>
<!-- Generator: Adobe Illustrator 21.1.0, SVG Export Plug-In . SVG Version: 6.00 Build 0)  -->
<svg version="1.2" baseProfile="tiny" id="tab-close"
	 xmlns="http://www.w3.org/2000/svg" xmlns:xlink="http://www.w3.org/1999/xlink" x="0px" y="0px" viewBox="0 0 16 16"
	 overflow="scroll" xml:space="preserve">
<polygon points="10,1 10,3 9,3 9,1 2,1 2,3 1,3 1,9 2,9 2,4 11,4 11,2 14,2 14,14 7,14 7,15 15,15 15,1 "/>
<path fill="#D32F2F" d="M6,11l-1-1l-1.5,1.5L2,10c0,0-0.4,0.5-1,1l1.5,1.5L1,14l1,1l1.5-1.5L5,15l1-1l-1.5-1.5L6,11z"/>
</svg>
