<?xml version="1.0" encoding="utf-8"?>
<svg version="1.2" baseProfile="tiny" id="text-html"
	 xmlns="http://www.w3.org/2000/svg" xmlns:xlink="http://www.w3.org/1999/xlink" x="0px" y="0px" viewBox="0 0 16 16"
	 overflow="scroll" xml:space="preserve">
<path fill="#1976D2" d="M14.5,8.5v-1h-3.3c0-0.7-0.1-1.3-0.2-2h2.5v-1h-2.8c-0.4-1.3-1-2.5-1.9-3.4L8.5,1.5h-1L7.1,1.1
	C6.3,2,5.7,3.2,5.3,4.5H2.5v1H5c-0.1,0.7-0.2,1.3-0.2,2H1.5v1l3.3,0c0,0.7,0.1,1.4,0.2,2H2.5v1l2.7,0c0.4,1.3,1,2.5,1.9,3.4l0.4-0.4
	h1l0.4,0.4c0.9-0.9,1.5-2,1.9-3.4h2.8v-1H11c0.1-0.7,0.2-1.3,0.2-2H14.5z M10.2,7.5H8.5v-2H10C10.1,6.1,10.2,6.8,10.2,7.5z M9.7,4.5
	H8.5V2.3C9,2.9,9.4,3.7,9.7,4.5z M7.5,2.3v2.2H6.3C6.6,3.7,7,2.9,7.5,2.3z M6,5.5h1.5v2H5.8C5.8,6.8,5.9,6.1,6,5.5z M5.8,8.5h1.7v2
	H6C5.9,9.9,5.8,9.2,5.8,8.5z M6.3,11.5h1.2v2.2C7,13.1,6.6,12.3,6.3,11.5z M8.5,13.7v-2.2h1.2C9.4,12.3,9,13.1,8.5,13.7z M10,10.5
	H8.5v-2h1.7C10.2,9.2,10.1,9.9,10,10.5z M8,2c3.3,0,6,2.7,6,6s-2.7,6-6,6s-6-2.7-6-6S4.7,2,8,2 M8,1C4.1,1,1,4.1,1,8s3.1,7,7,7
	s7-3.1,7-7S11.9,1,8,1L8,1z"/>
</svg>
