<?xml version="1.0" encoding="utf-8"?>
<!-- Generator: Adobe Illustrator 21.1.0, SVG Export Plug-In . SVG Version: 6.00 Build 0)  -->
<svg version="1.2" baseProfile="tiny" id="unknown" xmlns="http://www.w3.org/2000/svg" xmlns:xlink="http://www.w3.org/1999/xlink"
	 x="0px" y="0px" viewBox="0 0 16 16" overflow="scroll" xml:space="preserve">
<path d="M14,2v9.6L11.6,14H2V2H14 M15,1H1v14h11l3-3V1L15,1z M5.6,4.3C5.8,4.1,5.9,4,6,3.9s0.3-0.2,0.5-0.3c0.2-0.1,0.4-0.1,0.6-0.2
	s0.4-0.1,0.7-0.1c0.3,0,0.6,0,0.9,0.1c0.3,0.1,0.5,0.2,0.7,0.4c0.2,0.2,0.4,0.4,0.5,0.6C9.9,4.8,10,5,10,5.3c0,0.3,0,0.6-0.1,0.8
	C9.8,6.3,9.6,6.5,9.5,6.7C9.4,6.9,9.2,7,9.1,7.1S8.7,7.4,8.6,7.5C8.5,7.6,8.3,7.7,8.2,7.8C8.1,7.9,8.1,8,8.1,8.2L7.9,9.1H7.2l-0.1-1
	c0-0.2,0-0.3,0.1-0.5c0.1-0.1,0.2-0.3,0.3-0.4C7.7,7.1,7.9,7,8,6.9c0.2-0.1,0.3-0.2,0.5-0.4C8.6,6.4,8.7,6.2,8.8,6
	C8.9,5.9,9,5.6,9,5.4c0-0.2,0-0.3-0.1-0.5C8.8,4.8,8.7,4.7,8.6,4.6C8.5,4.5,8.4,4.4,8.2,4.3C8,4.3,7.9,4.3,7.7,4.3
	c-0.2,0-0.5,0-0.6,0.1S6.7,4.5,6.6,4.6C6.5,4.6,6.4,4.7,6.3,4.8C6.3,4.8,6.2,4.8,6.1,4.8C6,4.8,6,4.8,5.9,4.7L5.6,4.3z M6.8,11.4
	c0-0.1,0-0.2,0.1-0.3C6.9,11,6.9,11,7,10.9c0.1-0.1,0.1-0.1,0.2-0.2s0.2-0.1,0.3-0.1s0.2,0,0.3,0.1c0.1,0,0.2,0.1,0.2,0.2
	C8.1,11,8.2,11,8.2,11.1c0,0.1,0.1,0.2,0.1,0.3c0,0.1,0,0.2-0.1,0.3c0,0.1-0.1,0.2-0.2,0.2C8,12,7.9,12.1,7.8,12.1
	c-0.1,0-0.2,0.1-0.3,0.1s-0.2,0-0.3-0.1C7.2,12.1,7.1,12,7,12c-0.1-0.1-0.1-0.1-0.2-0.2S6.8,11.5,6.8,11.4z"/>
</svg>
