<?xml version="1.0" encoding="utf-8"?>
<svg version="1.2" baseProfile="tiny" id="unknown" xmlns="http://www.w3.org/2000/svg" xmlns:xlink="http://www.w3.org/1999/xlink"
	 x="0px" y="0px" viewBox="0 0 16 16" overflow="scroll" xml:space="preserve">
<path fill="{color}" d="M14,2v9.5856724L11.5857773,14H2V2H14 M15,1H1v14h11l3-3.0001297V1L15,1z M5.6318359,4.253418
	c0.1240234-0.1157227,0.2612305-0.2260742,0.4111328-0.3300781s0.3139648-0.1958008,0.4921875-0.2758789
	c0.1777344-0.0800781,0.3696289-0.1430664,0.5756836-0.1889648s0.4291992-0.0688477,0.6689453-0.0688477
	c0.315918,0,0.6088867,0.0458984,0.8793945,0.1376953c0.2705078,0.0922852,0.5029297,0.222168,0.6982422,0.3901367
	c0.1962891,0.1679688,0.3505859,0.3720703,0.4628906,0.6118164c0.1113281,0.2402344,0.1679688,0.5102539,0.1679688,0.8100586
	c0,0.3041992-0.0449219,0.5664063-0.1347656,0.7861328C9.7636719,6.3457031,9.6484375,6.5385742,9.5117188,6.7045898
	C9.3730469,6.8706055,9.2226563,7.0146484,9.0605469,7.1367188S8.7460938,7.3735352,8.6015625,7.4814453
	C8.4580078,7.5893555,8.3349609,7.6972656,8.2324219,7.8056641C8.1308594,7.9135742,8.0722656,8.0332031,8.0566406,8.1660156
	L7.9477539,9.0839844H7.2158203L7.144043,8.0878906C7.1279297,7.9077148,7.1621094,7.7504883,7.2460938,7.6166992
	c0.0839844-0.1342773,0.1938477-0.2602539,0.3300781-0.378418C7.7119141,7.1206055,7.8618164,7.0043945,8.0253906,6.890625
	C8.1894531,6.7763672,8.3427734,6.6494141,8.484375,6.5092773c0.1425781-0.1396484,0.2617188-0.2988281,0.3574219-0.4765625
	C8.9375,5.8544922,8.9863281,5.6416016,8.9863281,5.3935547c0-0.171875-0.0341797-0.328125-0.1025391-0.4682617
	C8.8164063,4.7856445,8.7246094,4.6665039,8.6074219,4.5683594C8.4921875,4.4707031,8.3554688,4.3955078,8.1972656,4.3432617
	C8.0390625,4.2915039,7.8701172,4.265625,7.6899414,4.265625c-0.2441406,0-0.453125,0.0297852-0.6269531,0.0898438
	s-0.3208008,0.1259766-0.440918,0.1982422C6.5019531,4.6254883,6.4047852,4.6914063,6.3310547,4.7514648
	C6.2568359,4.8115234,6.1958008,4.8413086,6.1479492,4.8413086c-0.1000977,0-0.1782227-0.0458984-0.2338867-0.1376953
	L5.6318359,4.253418z M6.8017578,11.4238281c0-0.1044922,0.019043-0.2021484,0.0571289-0.2949219
	c0.0380859-0.0917969,0.090332-0.171875,0.15625-0.2392578c0.065918-0.0683594,0.1450195-0.1220703,0.2368164-0.1621094
	s0.1899414-0.0595703,0.2939453-0.0595703S7.7480469,10.6875,7.8398438,10.7275391
	c0.0922852,0.0400391,0.171875,0.09375,0.2402344,0.1621094c0.0683594,0.0673828,0.1220703,0.1474609,0.1621094,0.2392578
	c0.0390625,0.0927734,0.0595703,0.1904297,0.0595703,0.2949219c0,0.1074219-0.0205078,0.2070313-0.0595703,0.296875
	c-0.0400391,0.0898438-0.09375,0.1689453-0.1621094,0.2363281c-0.0683594,0.0683594-0.1479492,0.1210938-0.2402344,0.1601563
	c-0.0917969,0.0371094-0.1899414,0.0566406-0.2939453,0.0566406S7.34375,12.1542969,7.2519531,12.1171875
	c-0.0917969-0.0390625-0.1708984-0.0917969-0.2368164-0.1601563c-0.065918-0.0673828-0.1181641-0.1464844-0.15625-0.2363281
	S6.8017578,11.53125,6.8017578,11.4238281z"/>
</svg>
