<?xml version="1.0" encoding="utf-8"?>
<!-- Generator: Adobe Illustrator 21.1.0, SVG Export Plug-In . SVG Version: 6.00 Build 0)  -->
<svg version="1.2" baseProfile="tiny" id="window-popup-block"
	 xmlns="http://www.w3.org/2000/svg" xmlns:xlink="http://www.w3.org/1999/xlink" x="0px" y="0px" viewBox="0 0 16 16"
	 overflow="scroll" xml:space="preserve">
<path d="M1,1v14h8c0-0.3,0-0.6,0-1H2V4h12v5c0.3,0,0.7,0,1,0V1H1z M14,3h-1V2h1V3z"/>
<path fill="#D32F2F" d="M12,9c-1.7,0-3,1.3-3,3s1.3,3,3,3s3-1.3,3-3S13.7,9,12,9z M10,12c0-0.4,0.1-0.7,0.3-1l2.7,2.7
	c-0.3,0.2-0.6,0.3-1,0.3C10.9,14,10,13.1,10,12z M13.7,13L11,10.3c0.3-0.2,0.6-0.3,1-0.3c1.1,0,2,0.9,2,2C14,12.4,13.9,12.7,13.7,13
	z"/>
</svg>
