<?xml version="1.0" encoding="utf-8"?>
<!-- Generator: Adobe Illustrator 21.1.0, SVG Export Plug-In . SVG Version: 6.00 Build 0)  -->
<svg version="1.2" baseProfile="tiny" id="zoom-original"
	 xmlns="http://www.w3.org/2000/svg" xmlns:xlink="http://www.w3.org/1999/xlink" x="0px" y="0px" viewBox="0 0 16 16"
	 overflow="scroll" xml:space="preserve">
<path d="M9.5,1C6.5,1,4,3.5,4,6.5C4,7.8,4.5,9.1,5.3,10L1,14.3L1.7,15L6,10.7c1,0.8,2.2,1.3,3.5,1.3c3,0,5.5-2.5,5.5-5.5
	C15,3.5,12.5,1,9.5,1z M9.5,11C7,11,5,9,5,6.5C5,4,7,2,9.5,2S14,4,14,6.5C14,9,12,11,9.5,11z M11,8v1H8V8h1V5H8V4h2v4H11z"/>
</svg>
